<svg xmlns="http://www.w3.org/2000/svg" fill="none" viewBox="0 0 100 100"><path fill="#eb1000" fill-rule="evenodd" d="M83.742 92.612c.9 0 1.625.721 1.625 1.613a1.62 1.62 0 0 1-1.625 1.608 1.62 1.62 0 0 1-1.625-1.608 1.62 1.62 0 0 1 1.625-1.613m-61.38-52.904a2.75 2.75 0 0 1 2.071.942 2.64 2.64 0 0 1 2.959.942 2.337 2.337 0 0 1 3.041 1.391 2.1 2.1 0 0 1 3.121 1.467 1.92 1.92 0 0 1 2.13 1.258 1.737 1.737 0 0 1 1.733-1.512c.958 0 1.741.77 1.741 1.725a1.733 1.733 0 0 1-1.741 1.725 1.74 1.74 0 0 1-1.638-1.13 1.913 1.913 0 0 1-1.908 1.709 1.92 1.92 0 0 1-1.863-1.45 2.116 2.116 0 0 1-2.433-1.163 2.334 2.334 0 0 1-3-.266 2.625 2.625 0 0 1-3.175-.434 2.75 2.75 0 0 1-1.85.084c.253.137.484.313.683.52a2.64 2.64 0 0 1 3 .817 2.337 2.337 0 0 1 2.988 1.092 2.158 2.158 0 0 1 3.396 1.012 1.93 1.93 0 0 1 2.329.921 1.74 1.74 0 0 1 1.725-1.483c.962 0 1.746.775 1.746 1.725a1.75 1.75 0 0 1-3.267.842c-.055.495-.303.95-.692 1.262a1.75 1.75 0 0 1 2.446 1.58c0 .376-.124.742-.354 1.04a1.517 1.517 0 0 1 2.333 1.26 1.5 1.5 0 0 1-1.512 1.495 1.5 1.5 0 0 1-1.513-1.5c0-.325.105-.625.288-.875a1.75 1.75 0 0 1-2.73-1.42c0-.534.242-1.005.626-1.322a1.93 1.93 0 0 1-2.55-.958 2.163 2.163 0 0 1-2.784-.854 2.334 2.334 0 0 1-3.154-.017 2.62 2.62 0 0 1-3.096-.25 2.8 2.8 0 0 1-1.729.25q.19.139.354.304a2.51 2.51 0 0 1 2.942.525 2.333 2.333 0 0 1 3.283.555 2.153 2.153 0 0 1 3.313 1 1.93 1.93 0 0 1 2.679 1.741c0 .383-.115.756-.333 1.071a1.732 1.732 0 0 1 2.12 2.417 1.516 1.516 0 0 1 2.284 1.287 1.5 1.5 0 0 1-1.513 1.496 1.5 1.5 0 0 1-1.375-2.12 1.75 1.75 0 0 1-2.695-1.447c0-.341.1-.658.274-.929a1.93 1.93 0 0 1-2.412-.958 2.16 2.16 0 0 1-2.733-.517 2.33 2.33 0 0 1-3.084-.037 2.5 2.5 0 0 1-2.208.537c.217.15.417.334.583.542a2.505 2.505 0 0 1 3.396.142 2.16 2.16 0 0 1 3.192.837 1.925 1.925 0 0 1 2.762 1.708q0 .291-.087.567a1.85 1.85 0 0 1 2.208 2.354 1.517 1.517 0 0 1 2.292 1.275 1.5 1.5 0 0 1-1.508 1.496 1.5 1.5 0 0 1-1.471-1.842 1.862 1.862 0 0 1-2.871-2.016 1.93 1.93 0 0 1-2.12-.846 2.16 2.16 0 0 1-2.397-.058 2.5 2.5 0 0 1-.508.395c.75.034 1.404.459 1.758 1.067a1.92 1.92 0 0 1 2.988 2.088 1.733 1.733 0 0 1 2.166 1.916 1.517 1.517 0 0 1 2.338 1.25 1.5 1.5 0 0 1-1.513 1.496 1.5 1.5 0 0 1-1.504-1.612 1.75 1.75 0 0 1-2.742-1.813 1.93 1.93 0 0 1-2.137-.708 2.154 2.154 0 0 1-3.033-.109q-.1.166-.221.313a2.57 2.57 0 0 1 1.608 1.358 2.097 2.097 0 0 1 3.613 1.384v.058a1.794 1.794 0 0 1 2.091 1.758 1.79 1.79 0 0 1-1.8 1.788 1.79 1.79 0 0 1-1.791-1.584 2.11 2.11 0 0 1-2.346-.858 2.56 2.56 0 0 1-1.934 1.054h-.024c.129.125.25.259.35.404a2.096 2.096 0 0 1 3.595 1.442 2.097 2.097 0 0 1-3.596 1.442 2.56 2.56 0 0 1-1.387.987 2.513 2.513 0 0 1-.262 4.071 2.37 2.37 0 0 1 2.845 2.896 2.39 2.39 0 0 1 3.559 1.967v.041l.016-.041a2.38 2.38 0 0 1 2.167-1.584 2.05 2.05 0 0 1-.274-2.063 2.08 2.08 0 0 1 1.932-1.274 2.083 2.083 0 0 1 2.092 2.07 2.08 2.08 0 0 1-1.88 2.059 2.334 2.334 0 0 1 .022 3.104 2.51 2.51 0 0 1 .333 3.033c.43.274.785.651 1.033 1.096q.124-.235.292-.441a2.346 2.346 0 0 1-.242-3.584 2.23 2.23 0 0 1-.72-1.646c0-1.166.9-2.125 2.054-2.233a2.05 2.05 0 0 1 .316-3.062 1.79 1.79 0 0 1-1.325-1.721 1.79 1.79 0 0 1 1.8-1.78 1.79 1.79 0 0 1 1.805 1.78 1.77 1.77 0 0 1-.642 1.362 2.08 2.08 0 0 1 1.687 2.034 2.08 2.08 0 0 1-1.812 2.05 2.22 2.22 0 0 1 .037 3.104 2.34 2.34 0 0 1 .525 2.987 2.75 2.75 0 0 1 1.467 2.75l.03.017a2.45 2.45 0 0 1 .633-1.93 2.25 2.25 0 0 1-1.58-2.137c0-.591.234-1.129.613-1.529a2.117 2.117 0 0 1 1.25-3.817 1.887 1.887 0 0 1 0-3.108h-.054a1.79 1.79 0 0 1-1.805-1.783 1.794 1.794 0 0 1 1.805-1.78 1.775 1.775 0 0 1 1.062 3.226l.1-.009c1.059 0 1.917.85 1.917 1.9a1.9 1.9 0 0 1-1.792 1.892 2.122 2.122 0 0 1 .467 3.167 2.233 2.233 0 0 1 .483 3.237 2.48 2.48 0 0 1 1.875 2.692 2.88 2.88 0 0 1 1.758 2.641c0 1.588-1.3 2.875-2.908 2.875a2.91 2.91 0 0 1-2.67-1.75 3.2 3.2 0 0 1-2.967 1.98 3.2 3.2 0 0 1-2.5-1.192 3.32 3.32 0 0 1-2.73 1.42 3.32 3.32 0 0 1-2.762-1.458 3.44 3.44 0 0 1-2.82 1.459 3.44 3.44 0 0 1-2.73-1.342 3.44 3.44 0 0 1-2.733 1.342 3.43 3.43 0 0 1-3.125-1.988 3.5 3.5 0 0 1-2.28.838 3.47 3.47 0 0 1-3.483-3.25 3.47 3.47 0 0 1-3.958-3.417c0-.68.2-1.312.542-1.846a3.004 3.004 0 0 1-2.871-2.991c0-1.242.762-2.305 1.85-2.759a2.987 2.987 0 0 1 1.616-5.629 2.854 2.854 0 0 1-.777-3.35 2.89 2.89 0 0 1 2.873-1.712A2.86 2.86 0 0 1 8.7 67.425a2.89 2.89 0 0 1 3.104-2.87 2.85 2.85 0 0 1-.6-3.338 2.89 2.89 0 0 1 3.288-1.534 2.75 2.75 0 0 1 1.72-5.125 2.8 2.8 0 0 1-.728-3.341 2.83 2.83 0 0 1 3.079-1.575 2.75 2.75 0 0 1-.84-3.486 2.776 2.776 0 0 1 3.323-1.381 2.696 2.696 0 0 1-.358-4.52 2.7 2.7 0 0 1 1.675-.547m56.792 52.45c.863 0 1.567.696 1.567 1.55a1.564 1.564 0 0 1-1.571 1.554 1.563 1.563 0 0 1-1.567-1.554c0-.854.704-1.55 1.571-1.55M43.808 76.975c1.03 0 1.863.825 1.863 1.842a1.846 1.846 0 0 1-1.583 1.816 1.952 1.952 0 0 1 .32 3 2.13 2.13 0 0 1 1.1 3.25 2.192 2.192 0 0 1 1.784 2.88 2.54 2.54 0 0 1 2.212 2.508 2.54 2.54 0 0 1-2.554 2.533 2.54 2.54 0 0 1-2.304-3.637 2.192 2.192 0 0 1-1.225-3.405 2.14 2.14 0 0 1-1.82-2.104 2.1 2.1 0 0 1 .695-1.562 1.96 1.96 0 0 1-1.275-1.834c0-.991.75-1.816 1.725-1.937a1.833 1.833 0 0 1 1.062-3.35m44.354 14.608c.767 0 1.392.617 1.392 1.375 0 .767-.625 1.384-1.392 1.384a1.39 1.39 0 0 1-1.395-1.38c0-.762.625-1.379 1.395-1.379M65.55 11.292c1.283 0 2.325 1.033 2.325 2.3a2.314 2.314 0 0 1-2.838 2.25 2.253 2.253 0 0 1-2.837 2.616 2.254 2.254 0 0 1-2.5 3.146 2.22 2.22 0 0 1 .159 2.22 2.254 2.254 0 0 1-2.513 1.222 2.1 2.1 0 0 1-.013 2.529c.424-.24.913-.338 1.396-.28a2.197 2.197 0 0 1 2.459-3.074 2.196 2.196 0 0 1 2.387-3.117 2.197 2.197 0 0 1 2.646-2.625 2.125 2.125 0 0 1 2.117-2.47c1.187 0 2.154.953 2.154 2.124a2.137 2.137 0 0 1-2.596 2.084 2.197 2.197 0 0 1-2.584 2.541 2.194 2.194 0 0 1-2.612 2.634c.15.291.233.625.233.966a2.196 2.196 0 0 1-2.441 2.175c.147.294.227.617.233.946a2.27 2.27 0 0 1 2.308-1.017 2.253 2.253 0 0 1 2.463-2.887 3.346 3.346 0 1 1 5.05-4.392c1.191 0 2.154.954 2.154 2.13a2.137 2.137 0 0 1-2.908 1.991v.08a2.137 2.137 0 0 1-2.346 2.116 2.237 2.237 0 0 1-2.246 2.542q-.197 0-.392-.034a2.254 2.254 0 0 1-2.125 2.909h-.02l.012.066q.035.237.02.475a2.27 2.27 0 0 1 2.122-.866 2.233 2.233 0 0 1 2.241-2.55q.276 0 .525.058a2.137 2.137 0 0 1 2.913-1.992 2.14 2.14 0 0 1 2.146-1.979c1.187 0 2.15.954 2.15 2.125a2.138 2.138 0 0 1-2.913 1.996 2.14 2.14 0 0 1-2.554 1.937v.096a2.254 2.254 0 0 1-2.575 2.221 2.23 2.23 0 0 1-1.258 2.33 2.4 2.4 0 0 1 1.054-.105 2.317 2.317 0 0 1 3.25-1.896 2.14 2.14 0 0 1 2.937-1.883 2.03 2.03 0 0 1 2-1.646c1.125 0 2.034.904 2.034 2.013a2.026 2.026 0 0 1-2.692 1.908 2.14 2.14 0 0 1-2.888 1.696v.02a2.313 2.313 0 0 1-2.562 2.292 2.35 2.35 0 0 1-1.025 1.775 2.35 2.35 0 0 1 1.158.067 2.2 2.2 0 0 1 3.15-1.733 2.03 2.03 0 0 1 3.138-1.375 2.03 2.03 0 0 1 2.012-1.717c1.125 0 2.034.904 2.034 2.012a2.042 2.042 0 0 1-3.163 1.675 2.03 2.03 0 0 1-2.775 1.571 2.2 2.2 0 0 1-2.787 1.913 2.317 2.317 0 0 1-2.667 2.125 2.45 2.45 0 0 1-.654 1.633h.012q.28 0 .55.067a2.26 2.26 0 0 1 3.134-1.73 2.084 2.084 0 0 1 3.179-1.474 2.087 2.087 0 0 1 3.296-1.159 1.975 1.975 0 0 1 1.875-1.341c1.091 0 1.979.875 1.979 1.958a1.984 1.984 0 0 1-3.104 1.608 2.09 2.09 0 0 1-3.121 1.184 2.085 2.085 0 0 1-2.734 1.458 2.258 2.258 0 0 1-2.812 2.008 2.23 2.23 0 0 1-.608 1.221c.294.02.582.094.85.217a2.15 2.15 0 0 1 3.183-1.171 2.04 2.04 0 0 1 3.313-1.23 1.975 1.975 0 0 1 3.354-.75 1.976 1.976 0 0 1 1.908-1.44c1.092 0 1.98.874 1.98 1.953a1.978 1.978 0 0 1-3.438 1.317 1.974 1.974 0 0 1-3.15 1.012 2.032 2.032 0 0 1-2.959 1.209 2.14 2.14 0 0 1-2.825 1.758 2.4 2.4 0 0 1-.812 1.375h.041c.477 0 .942.145 1.334.417a2.03 2.03 0 0 1 3.125-1.217 2.042 2.042 0 0 1 3.52-.93 1.917 1.917 0 0 1 3.559-.324 1.855 1.855 0 0 1 1.833-1.513c1.03 0 1.863.825 1.863 1.842a1.85 1.85 0 0 1-1.863 1.842 1.86 1.86 0 0 1-1.654-1 1.92 1.92 0 0 1-3.291.975 2.03 2.03 0 0 1-3.113 1.166 2.028 2.028 0 0 1-3.004 1.355 2.32 2.32 0 0 1-2.304 1.987c.104.142.196.292.266.454a2.154 2.154 0 0 1 2.967-.55 2.032 2.032 0 0 1 3.263-.916 1.917 1.917 0 0 1 3.533-.238A1.854 1.854 0 0 1 82 57.071c.804 0 1.492.504 1.75 1.216a1.854 1.854 0 0 1 1.854-1.679c1.025 0 1.859.825 1.859 1.842a1.85 1.85 0 0 1-1.859 1.842 1.86 1.86 0 0 1-1.75-1.221 1.862 1.862 0 0 1-3.508.679 1.917 1.917 0 0 1-3.084 1.167 2.033 2.033 0 0 1-3.012 1.145 2.15 2.15 0 0 1-2.513 1.517 2.4 2.4 0 0 1-1.3 2.542 2.05 2.05 0 0 1 1.359.075 1.968 1.968 0 0 1 1.833-2.684c.621 0 1.175.28 1.538.725a1.863 1.863 0 0 1 3.483-.541 1.855 1.855 0 0 1 1.837-1.567c.817 0 1.513.52 1.763 1.25a1.855 1.855 0 0 1 1.842-1.596c1.016 0 1.841.804 1.858 1.804a1.734 1.734 0 0 1 1.746-1.687c.962 0 1.742.77 1.742 1.725a1.73 1.73 0 0 1-1.742 1.725 1.737 1.737 0 0 1-1.742-1.654v-.067.038a1.85 1.85 0 0 1-1.862 1.8 1.86 1.86 0 0 1-1.763-1.25 1.862 1.862 0 0 1-3.491.604 1.862 1.862 0 0 1-3.25.916 1.972 1.972 0 0 1-2.696 1.542 2.01 2.01 0 0 1-.867 2.52 2 2 0 0 1 1.558.188 1.85 1.85 0 0 1 1.792-2.337c.708 0 1.32.392 1.633.967a1.854 1.854 0 0 1 1.85-1.655c.805 0 1.492.5 1.75 1.209l.013.037.008-.037a1.74 1.74 0 0 1 1.717-1.442c.966 0 1.746.775 1.746 1.725a1.733 1.733 0 0 1-1.746 1.725 1.74 1.74 0 0 1-1.642-1.142 1.862 1.862 0 0 1-3.483.638 1.854 1.854 0 0 1-2.75 1.425 1.966 1.966 0 0 1-1.888 2.53 1.98 1.98 0 0 1-1.641-.868 2.2 2.2 0 0 1-.592.875 1.975 1.975 0 0 1 2.042 1.409 1.797 1.797 0 0 1 2.933-.988 1.793 1.793 0 0 1 1.733-2.27c.78 0 1.438.491 1.692 1.17a1.79 1.79 0 0 1 1.796-1.625 1.79 1.79 0 0 1 1.8 1.78 1.79 1.79 0 0 1-1.8 1.783 1.8 1.8 0 0 1-1.692-1.167 1.808 1.808 0 0 1-2.966 1.2 1.79 1.79 0 0 1-1.734 2.27 1.8 1.8 0 0 1-1.72-1.25 1.95 1.95 0 0 1-.684 1.143 1.916 1.916 0 0 1 2.112 1.887 1.92 1.92 0 0 1-3.158 1.446 2.2 2.2 0 0 1-.237.737c.466.104.887.352 1.204.709a1.8 1.8 0 0 1 1.666-1.109 1.79 1.79 0 0 1 1.805 1.784 1.808 1.808 0 0 1-2.975 1.354 2.2 2.2 0 0 1-.254.6 2.08 2.08 0 0 1 1.145 1.25 1.625 1.625 0 0 1 1.617-1.42c.9 0 1.625.72 1.625 1.607a1.62 1.62 0 0 1-1.625 1.613 1.625 1.625 0 0 1-1.517-1.025 2.04 2.04 0 0 1-.362 1.046A2.026 2.026 0 0 1 75 90.3a1.755 1.755 0 0 1 2.35 1.617 1.73 1.73 0 0 1-1.746 1.729 1.734 1.734 0 0 1-1.662-2.25 2.04 2.04 0 0 1-2.871-1.834c0-.416.125-.8.346-1.125a2.082 2.082 0 0 1-2.209-2.979 2.245 2.245 0 0 1-1.254-3.141 2.25 2.25 0 0 1-1.475-3.284 2.417 2.417 0 0 1-1.596-2.95 2.418 2.418 0 0 1-1.104-3.516 2.25 2.25 0 0 1-1.625-3.271 2.25 2.25 0 0 1-1.375-3.25 2.245 2.245 0 0 1-1.283-3.221 2.247 2.247 0 0 1-1.28-3.22 2.247 2.247 0 0 1-1.291-3.2 2.24 2.24 0 0 1-1.033-3.126 2.247 2.247 0 0 1-1.042-3.567 2.25 2.25 0 0 1-1.125-3.458 1.734 1.734 0 0 1-1.604-1.72 1.75 1.75 0 0 1 3.237-.892c.148-.312.364-.586.634-.8l.041-.034a1.975 1.975 0 0 1-1.829-1.316l-.012-.038v.025a1.625 1.625 0 0 1-1.604 1.33 1.62 1.62 0 0 1-.288-3.218 1.624 1.624 0 0 1 1.813 1.038c.039-.347.171-.676.383-.954a2 2 0 0 1-.046-.333A1.963 1.963 0 0 1 52.7 37.4c0-.55.237-1.05.608-1.408a1.867 1.867 0 0 1-2.583-1.696c0-1.017.833-1.842 1.863-1.842 1.025 0 1.858.825 1.858 1.842a1.83 1.83 0 0 1-.554 1.312 2 2 0 0 1 1.212-.116 2.21 2.21 0 0 1 .25-2.242 2.137 2.137 0 0 1-2.204-2.92 1.98 1.98 0 0 1-3.53-1.21c0-1.083.888-1.958 1.98-1.958a1.967 1.967 0 0 1 1.833 2.675 2.154 2.154 0 0 1 2.771-.554c.042-.416.209-.804.45-1.125a2.16 2.16 0 0 1-3.196-1.854 2.137 2.137 0 0 1 2.559-2.092 2.22 2.22 0 0 1-.246-2.322 2.254 2.254 0 0 1 2.487-1.236 2.2 2.2 0 0 1-.383-1.25 2.252 2.252 0 0 1 2.888-2.162 2.255 2.255 0 0 1 2.52-3.142 2.312 2.312 0 0 1 2.267-2.808M48.458 83.067a1.966 1.966 0 0 1 1.68 2.991h.066c1.042 0 1.896.796 1.971 1.809a2.25 2.25 0 0 1 1.925 2.216 2.254 2.254 0 0 1-2.27 2.242 2.253 2.253 0 0 1-2.255-2.458 1.958 1.958 0 0 1-1.046-2.892h-.07a1.967 1.967 0 0 1-1.976-1.954c0-1.08.884-1.954 1.975-1.954m31.917 6.095c.767 0 1.392.617 1.392 1.38s-.625 1.379-1.396 1.379a1.387 1.387 0 0 1-1.396-1.375c0-.767.625-1.384 1.396-1.384zm6.275-.458c.77 0 1.396.617 1.396 1.375 0 .767-.625 1.383-1.396 1.383a1.39 1.39 0 0 1-1.396-1.379c0-.762.625-1.379 1.396-1.379m5.292-1.037c.8 0 1.45.645 1.45 1.437s-.65 1.438-1.454 1.438a1.446 1.446 0 0 1-1.45-1.438 1.45 1.45 0 0 1 1.454-1.437m-8.434.116c.771 0 1.396.617 1.396 1.38s-.625 1.379-1.396 1.379a1.39 1.39 0 0 1-1.391-1.38c0-.762.625-1.379 1.391-1.379m-6.275-.691c.9 0 1.625.72 1.625 1.612a1.62 1.62 0 0 1-1.625 1.608 1.62 1.62 0 0 1-1.625-1.608c0-.892.725-1.612 1.625-1.612m12.263-1.496a1.45 1.45 0 0 1 1.458 1.437 1.45 1.45 0 0 1-1.458 1.438 1.445 1.445 0 0 1-1.45-1.438c0-.791.65-1.437 1.45-1.437m-63.054.708a2.5 2.5 0 0 1-.334.85c.288.22.534.492.73.8q.14-.222.316-.417a2.5 2.5 0 0 1-.712-1.233m53.116-1.625c.9 0 1.625.717 1.625 1.608a1.62 1.62 0 0 1-1.625 1.609 1.62 1.62 0 0 1-1.625-1.609c0-.891.725-1.608 1.625-1.608M51.892 79.5c.862 0 1.566.697 1.566 1.555a1.54 1.54 0 0 1-.583 1.208 1.62 1.62 0 0 1 1.558 2.084 1.808 1.808 0 0 1 2.805 1.479 1.79 1.79 0 0 1-1.805 1.783 1.792 1.792 0 0 1-1.7-2.366 1.633 1.633 0 0 1-2.483-1.371c0-.513.242-.971.62-1.263a1.563 1.563 0 0 1-1.55-1.554c0-.858.7-1.554 1.568-1.554zm-30.505 6.068-.008.008c-.2.308-.46.574-.762.783.541.267.983.7 1.258 1.234q.052-.065.108-.125a2.5 2.5 0 0 1-.596-1.9m64.971-1.005c.804 0 1.455.642 1.455 1.438 0 .792-.65 1.437-1.455 1.437A1.447 1.447 0 0 1 84.904 86c0-.792.646-1.438 1.454-1.438m-3.196-.575c.9 0 1.626.721 1.626 1.609a1.62 1.62 0 0 1-1.626 1.612 1.62 1.62 0 0 1-1.625-1.612c0-.888.725-1.609 1.625-1.609m8.25-2.416a1.502 1.502 0 0 1 1.505 1.662 1.63 1.63 0 0 1 2.916.984 1.62 1.62 0 0 1-1.625 1.608 1.62 1.62 0 0 1-1.616-1.82 1.512 1.512 0 0 1-2.688-.938 1.5 1.5 0 0 1 1.513-1.496zm-64.808.9a2.37 2.37 0 0 1-1.125 1.341c.459.35.8.846.938 1.421a2.5 2.5 0 0 1 .712-1.32 2.33 2.33 0 0 1-.525-1.371zm50.625-1.246c.904 0 1.63.72 1.63 1.612a1.62 1.62 0 0 1-1.626 1.609 1.62 1.62 0 0 1-1.625-1.609c0-.891.721-1.612 1.621-1.612M18.933 80.5a3 3 0 0 1-.07.733h.129a2.832 2.832 0 0 1 2.825 3.175c.252-.365.596-.658.995-.85a2.34 2.34 0 0 1-.779-2.408 2.39 2.39 0 0 1-3.1-.65m69 .042c.896 0 1.625.72 1.625 1.608a1.62 1.62 0 0 1-1.625 1.612 1.62 1.62 0 0 1-1.625-1.612c0-.888.725-1.608 1.625-1.608m-3.72-.459c.9 0 1.625.717 1.625 1.609a1.62 1.62 0 0 1-1.625 1.608 1.62 1.62 0 0 1-1.625-1.608c0-.892.725-1.609 1.625-1.609m-3.834-.233c.896 0 1.625.72 1.625 1.612a1.62 1.62 0 0 1-1.625 1.609 1.62 1.62 0 0 1-1.629-1.609c0-.891.73-1.612 1.63-1.612m-32.612-.458c1.025 0 1.858.82 1.858 1.837a1.85 1.85 0 0 1-1.858 1.842 1.85 1.85 0 0 1-1.863-1.842c0-1.017.833-1.837 1.863-1.837m8.95.229a1.333 1.333 0 0 1 1.337 1.32 1.333 1.333 0 0 1-1.333 1.326 1.333 1.333 0 0 1-1.342-1.325 1.333 1.333 0 0 1 1.338-1.321m21.975-3.68c.929 0 1.683.746 1.683 1.667a1.689 1.689 0 0 1-2.95 1.104 1.792 1.792 0 0 1-1.758 2.175 1.79 1.79 0 0 1-1.8-1.783 1.804 1.804 0 0 1 3.175-1.154 1.675 1.675 0 0 1 1.65-2.008m15.346 1.263a1.56 1.56 0 0 1 1.566 1.554 1.563 1.563 0 0 1-1.567 1.554 1.563 1.563 0 0 1-1.57-1.554c0-.858.704-1.554 1.57-1.554M26.37 75.708a2.083 2.083 0 0 1 2.092 2.071 2.083 2.083 0 0 1-2.092 2.07 2.083 2.083 0 0 1-2.092-2.07 2.083 2.083 0 0 1 2.092-2.07m27.262 1.384a1.333 1.333 0 0 1 1.334 1.32 1.333 1.333 0 0 1-1.334 1.325 1.333 1.333 0 0 1-1.337-1.325 1.333 1.333 0 0 1 1.337-1.32M90.08 76.4c.867 0 1.571.696 1.571 1.554a1.563 1.563 0 0 1-1.57 1.55 1.56 1.56 0 0 1-1.572-1.55c0-.858.705-1.554 1.571-1.554m-40.804-.458c.896 0 1.625.72 1.625 1.608a1.62 1.62 0 0 1-1.625 1.608 1.62 1.62 0 0 1-1.63-1.608c0-.888.73-1.608 1.626-1.608zm-31.708.875a2.8 2.8 0 0 1-.755 1.058 2.85 2.85 0 0 1 1.655 1.18 2.35 2.35 0 0 1 1.07-1.922 2.58 2.58 0 0 1-1.97-.32zm68.558-.875c.867 0 1.57.691 1.57 1.55a1.563 1.563 0 0 1-1.57 1.554 1.563 1.563 0 0 1-1.567-1.554c0-.859.7-1.55 1.567-1.55m-3.833-.234c.929 0 1.683.75 1.683 1.667 0 .925-.754 1.667-1.683 1.667a1.676 1.676 0 0 1-1.688-1.667c0-.917.754-1.667 1.688-1.667M69.6 77.342l-.004.025c-.066.242-.17.473-.309.683.3.117.567.292.784.517.093-.403.315-.765.633-1.03a2 2 0 0 1-1.104-.195m-13.408-1.517c.708 0 1.279.567 1.279 1.267a1.27 1.27 0 0 1-1.28 1.262 1.27 1.27 0 0 1-1.279-1.262c0-.7.571-1.267 1.28-1.267m-13.834-2.07c.93 0 1.684.75 1.684 1.666 0 .92-.754 1.666-1.684 1.666a1.674 1.674 0 0 1-1.687-1.666c0-.917.754-1.667 1.687-1.667m4.125.116c.9 0 1.625.72 1.625 1.608a1.62 1.62 0 0 1-1.625 1.613 1.62 1.62 0 0 1-1.625-1.613c0-.887.725-1.608 1.625-1.608m5.346-.23c.834 0 1.513.667 1.513 1.492a1.5 1.5 0 0 1-1.513 1.5 1.5 1.5 0 0 1-1.508-1.5 1.5 1.5 0 0 1 1.508-1.491m-21.562-.574a1.79 1.79 0 0 1 1.8 1.779 1.793 1.793 0 0 1-1.8 1.783 1.79 1.79 0 0 1-1.805-1.783 1.794 1.794 0 0 1 1.805-1.78m-6.571-.58a2.084 2.084 0 0 1 2.096 2.071 2.083 2.083 0 0 1-2.096 2.071 2.083 2.083 0 0 1-2.092-2.07 2.083 2.083 0 0 1 2.092-2.072m68.358-.458c.933 0 1.688.75 1.688 1.667 0 .92-.755 1.666-1.688 1.666a1.674 1.674 0 0 1-1.683-1.666c0-.917.75-1.667 1.683-1.667m-37.375.804c.642 0 1.163.517 1.163 1.15a1.16 1.16 0 0 1-1.163 1.15 1.16 1.16 0 0 1-1.162-1.15c0-.633.52-1.15 1.162-1.15m33.425-1.15c.93 0 1.683.75 1.683 1.667 0 .925-.754 1.667-1.683 1.667a1.676 1.676 0 0 1-1.687-1.667c0-.917.754-1.667 1.687-1.667m-19.837 2.45q-.022.196-.075.388.264.111.491.279c.1-.224.242-.428.417-.6a2.2 2.2 0 0 1-.833-.067m16-2.791c.929 0 1.683.745 1.683 1.666 0 .917-.75 1.667-1.683 1.667a1.674 1.674 0 0 1-1.688-1.667c0-.92.754-1.666 1.688-1.666m-34.763 0c.834 0 1.513.666 1.513 1.491a1.5 1.5 0 0 1-1.513 1.5 1.5 1.5 0 0 1-1.508-1.5 1.5 1.5 0 0 1 1.508-1.491m-21.912-1.155a1.79 1.79 0 0 1 1.804 1.784 1.79 1.79 0 0 1-1.804 1.783 1.79 1.79 0 0 1-1.8-1.783 1.79 1.79 0 0 1 1.8-1.784m18.308.346c.833 0 1.513.667 1.513 1.5a1.5 1.5 0 0 1-1.513 1.492 1.5 1.5 0 0 1-1.392-2.07 1.5 1.5 0 0 1 1.392-.922m-3.95-.112c.833 0 1.512.666 1.512 1.491a1.5 1.5 0 0 1-1.512 1.5 1.498 1.498 0 0 1-1.066-2.56 1.5 1.5 0 0 1 1.066-.431m-3.72 0c.833 0 1.512.666 1.512 1.491a1.5 1.5 0 0 1-1.513 1.5 1.498 1.498 0 0 1-1.066-2.56 1.5 1.5 0 0 1 1.066-.431m-3.834-.117a1.5 1.5 0 0 1 1.508 1.496 1.5 1.5 0 0 1-1.512 1.496 1.5 1.5 0 0 1-1.509-1.5 1.5 1.5 0 0 1 1.509-1.492zm17.958-.117c.642 0 1.163.517 1.163 1.15a1.16 1.16 0 0 1-1.163 1.15 1.16 1.16 0 0 1-1.162-1.15c0-.633.52-1.15 1.162-1.15m-20.75-2.183a1.5 1.5 0 0 1 1.508 1.496 1.5 1.5 0 0 1-1.508 1.496 1.5 1.5 0 0 1-1.512-1.5 1.5 1.5 0 0 1 1.512-1.492m38.025 1.533-.012.021q-.11.184-.259.342a2.2 2.2 0 0 1 1.404 1.017c.171-.39.463-.715.834-.925a2.05 2.05 0 0 1-1.967-.455M49.333 68.35c.642 0 1.163.512 1.163 1.15a1.16 1.16 0 0 1-1.167 1.15 1.16 1.16 0 0 1-1.158-1.15c0-.638.517-1.15 1.162-1.15m40.571-1.38c.963 0 1.746.772 1.746 1.726a1.73 1.73 0 0 1-1.746 1.725 1.733 1.733 0 0 1-1.742-1.725c0-.959.78-1.725 1.742-1.725m-3.833-.233c.958 0 1.742.775 1.742 1.725a1.734 1.734 0 0 1-1.746 1.725 1.733 1.733 0 0 1-1.742-1.725c0-.95.783-1.725 1.746-1.725m-47.204.692c.646 0 1.166.517 1.166 1.15a1.16 1.16 0 0 1-1.166 1.15 1.16 1.16 0 0 1-1.163-1.15c0-.633.521-1.15 1.167-1.15zm6.979 0c.642 0 1.162.517 1.162 1.15a1.16 1.16 0 0 1-1.166 1.15 1.16 1.16 0 0 1-1.159-1.15c0-.633.517-1.15 1.163-1.15m-3.488 0c.642 0 1.163.517 1.163 1.15a1.16 1.16 0 0 1-1.167 1.15 1.16 1.16 0 0 1-1.162-1.15c0-.633.52-1.15 1.166-1.15m-6.625-1.267c.638 0 1.159.517 1.159 1.15a1.16 1.16 0 0 1-1.163 1.15 1.16 1.16 0 0 1-1.162-1.15c0-.633.52-1.15 1.166-1.15m32.638.042v.013q-.031.17-.092.333c.375.075.709.25.98.496.19-.323.467-.587.8-.763a2.46 2.46 0 0 1-1.688-.083zM35.963 62.83c.641 0 1.162.513 1.162 1.15a1.157 1.157 0 0 1-1.167 1.15 1.16 1.16 0 0 1-1.158-1.15c0-.637.52-1.15 1.163-1.15m1.395-3.22c.642 0 1.163.512 1.163 1.15a1.16 1.16 0 0 1-1.167 1.15 1.16 1.16 0 0 1-1.158-1.15c0-.638.52-1.15 1.162-1.15m-16.262-.347a3 3 0 0 1-.208.209c.57.15 1.062.5 1.4.958.147-.186.325-.347.524-.475a2.5 2.5 0 0 1-1.716-.692m17.658-2.875c.642 0 1.163.517 1.163 1.15a1.16 1.16 0 0 1-1.167 1.15 1.16 1.16 0 0 1-1.158-1.15c0-.633.516-1.15 1.162-1.15m1.45-3.22c.675 0 1.221.541 1.221 1.208s-.542 1.208-1.22 1.208a1.22 1.22 0 0 1-1.127-.743 1.2 1.2 0 0 1-.095-.465c0-.667.55-1.208 1.221-1.208M37.88 50.75c.834 0 1.513.67 1.513 1.5a1.5 1.5 0 0 1-1.513 1.492 1.5 1.5 0 0 1-1.508-1.496 1.5 1.5 0 0 1 1.508-1.496m3.896-.804c.708 0 1.28.566 1.28 1.266a1.27 1.27 0 0 1-1.28 1.263 1.27 1.27 0 0 1-1.28-1.263c0-.7.572-1.266 1.28-1.266M39.392 47.3c.833 0 1.512.67 1.512 1.5a1.5 1.5 0 0 1-1.512 1.492 1.5 1.5 0 0 1-1.513-1.496 1.5 1.5 0 0 1 1.513-1.496m3.72-.575a1.333 1.333 0 0 1 1.334 1.325 1.333 1.333 0 0 1-1.334 1.32 1.333 1.333 0 0 1-1.337-1.32 1.334 1.334 0 0 1 1.333-1.325zm-2.266-2.875a1.56 1.56 0 0 1 1.567 1.554 1.56 1.56 0 0 1-1.567 1.554 1.565 1.565 0 0 1-1.571-1.554c0-.858.704-1.554 1.57-1.554m3.662-.346a1.333 1.333 0 0 1 1.334 1.325 1.333 1.333 0 0 1-1.334 1.32 1.333 1.333 0 0 1-1.337-1.32 1.333 1.333 0 0 1 1.333-1.325zm-20.175-8.742c.905 0 1.7.45 2.167 1.142a2.52 2.52 0 0 1 3 1.304 2.34 2.34 0 0 1 3 1.359 2.108 2.108 0 0 1 2.817 1.85 1.92 1.92 0 0 1 2.033 1.075 1.746 1.746 0 0 1 3.317.745 1.746 1.746 0 0 1-3.292.796 1.92 1.92 0 0 1-1.767 1.159 1.913 1.913 0 0 1-1.904-1.667 2.125 2.125 0 0 1-2.358-1.1 2.333 2.333 0 0 1-3.042-.917 2.51 2.51 0 0 1-3.05-.737 2.6 2.6 0 0 1-3.537-2.421c0-1.43 1.17-2.588 2.616-2.588m18.134 5.634c.866 0 1.57.696 1.57 1.554a1.563 1.563 0 0 1-1.57 1.55 1.563 1.563 0 0 1-1.567-1.55c0-.858.7-1.554 1.567-1.554m24.25.987-.034.009q-.324.059-.654.029a2.53 2.53 0 0 1-1.062 1.629c.253-.023.509-.008.758.046a2.3 2.3 0 0 1 .988-1.709zm-20.763-1.1c.771 0 1.396.617 1.396 1.375 0 .767-.625 1.384-1.396 1.384a1.387 1.387 0 0 1-1.392-1.38c0-.762.626-1.379 1.392-1.379m-19.287-10.7c1.008 0 1.883.567 2.32 1.392a2.5 2.5 0 0 1 2.6 1.654 2.204 2.204 0 0 1 2.65 1.692 2.103 2.103 0 0 1 2.834 1.933 2 2 0 0 1-.017.254 1.916 1.916 0 0 1 2.1 1.2 1.75 1.75 0 0 1 3.263.846 1.746 1.746 0 0 1-3.346.683 1.917 1.917 0 0 1-3.625-.962 2.087 2.087 0 0 1-2.5-1.508 2.22 2.22 0 0 1-2.842-1.013 2.516 2.516 0 0 1-3.012-1.03 2.6 2.6 0 0 1-3.042-2.553c0-1.43 1.17-2.588 2.617-2.588m17.437 7.363c.867 0 1.571.696 1.571 1.554a1.56 1.56 0 0 1-1.57 1.55 1.56 1.56 0 0 1-1.572-1.55c0-.858.704-1.554 1.571-1.554m3.546.116c.804 0 1.454.642 1.454 1.438 0 .792-.65 1.437-1.454 1.437a1.447 1.447 0 0 1-1.454-1.437c0-.792.65-1.438 1.454-1.438m3.254-.233c.804 0 1.454.646 1.454 1.438 0 .795-.65 1.437-1.454 1.437a1.444 1.444 0 0 1-1.454-1.437 1.45 1.45 0 0 1 1.458-1.438zm14.313.12-.021.005q-.311.098-.638.104-.016.218-.07.43a2.4 2.4 0 0 1 .729-.542zm-19.484-3.457c.867 0 1.567.7 1.567 1.558a1.563 1.563 0 0 1-1.567 1.55 1.563 1.563 0 0 1-1.57-1.55c0-.858.704-1.558 1.57-1.558m-17.095-8.85a2.5 2.5 0 0 1 2.316 1.541 2.496 2.496 0 0 1 2.921 1.917 2.2 2.2 0 0 1 2.358 1.887 2.084 2.084 0 0 1 2.542 2.388h.033a1.92 1.92 0 0 1 2.096 1.22 1.75 1.75 0 0 1 3.021 1.167 1.745 1.745 0 0 1-3.342.688 1.92 1.92 0 0 1-3.387-1.43 2.085 2.085 0 0 1-2.538-1.64 2.23 2.23 0 0 1-2.691-1.355 2.5 2.5 0 0 1-2.854-1.483 2.488 2.488 0 0 1-2.976-2.43c0-1.362 1.121-2.47 2.5-2.47m20.345 7.25a1.56 1.56 0 0 1 1.571 1.55 1.563 1.563 0 0 1-1.57 1.554 1.565 1.565 0 0 1-1.572-1.554c0-.859.705-1.55 1.571-1.55M30.846 19.687a2.5 2.5 0 0 1 2.387 1.734 2.38 2.38 0 0 1 2.555 2.32 2.2 2.2 0 0 1 2.545 1.934l.125-.004a2.082 2.082 0 0 1 1.967 2.783 1.908 1.908 0 0 1 2.2 2.138 1.746 1.746 0 0 1 3.275.829 1.73 1.73 0 0 1-1.742 1.725 1.734 1.734 0 0 1-1.729-1.934 1.917 1.917 0 0 1-3.533-1.445 2.11 2.11 0 0 1-2.5-1.696 2.2 2.2 0 0 1-2.458-2 2.41 2.41 0 0 1-2.759-1.459 2.487 2.487 0 0 1-2.833-2.45c0-1.366 1.12-2.475 2.5-2.475m29.708 11.03-.029.025q-.155.135-.325.25l.254.141h.167a1.6 1.6 0 0 1-.071-.416zm-12.967-3.321a1.79 1.79 0 0 1 1.805 1.783 1.793 1.793 0 0 1-1.805 1.783 1.79 1.79 0 0 1-1.8-1.783 1.79 1.79 0 0 1 1.8-1.783M33.055 14.75c1.209 0 2.209.842 2.45 1.962a2.37 2.37 0 0 1 2.592 2.659 2.136 2.136 0 0 1 2.437 2.425A2.082 2.082 0 0 1 43 23.833c0 .435-.139.858-.396 1.209a1.925 1.925 0 0 1 2.717 1.725 1.91 1.91 0 0 1-1.917 1.9 1.91 1.91 0 0 1-1.917-1.9c0-.383.116-.757.334-1.071a2.101 2.101 0 0 1-2.992-2.134 2.137 2.137 0 0 1-2.57-2.2 2.404 2.404 0 0 1-2.834-1.695 2.488 2.488 0 0 1-2.87-2.446c0-1.367 1.124-2.471 2.5-2.471M47.18 22.8c1.092 0 1.98.875 1.98 1.954a1.97 1.97 0 0 1-1.98 1.958 1.967 1.967 0 0 1-1.975-1.958c0-1.083.883-1.954 1.975-1.954m4.304-.346a2.083 2.083 0 0 1 2.092 2.07 2.083 2.083 0 0 1-2.092 2.072 2.083 2.083 0 0 1-2.091-2.071 2.083 2.083 0 0 1 2.091-2.07M36.192 10.146a2.486 2.486 0 0 1 2.496 2.666 2.37 2.37 0 0 1 2.529 3.175 2.197 2.197 0 0 1 2.829 2.1 2.16 2.16 0 0 1-.375 1.209 2.1 2.1 0 0 1 3.162 1.779 2.085 2.085 0 0 1-2.095 2.07 2.083 2.083 0 0 1-2.092-2.07c0-.417.125-.8.333-1.125a2.215 2.215 0 0 1-3.354-1.867c0-.241.042-.475.112-.696a2.37 2.37 0 0 1-3.133-2.329 2.488 2.488 0 0 1-2.908-2.441c0-1.363 1.117-2.471 2.5-2.471zm25.291-2.53c1.28 0 2.321 1.03 2.321 2.3a2.313 2.313 0 0 1-3.396 2.042c.238.354.375.78.375 1.238a2.254 2.254 0 0 1-2.962 2.133 2.22 2.22 0 0 1 .273 2.453 2.254 2.254 0 0 1-2.698 1.118 2.23 2.23 0 0 1 .068 3.249 2.25 2.25 0 0 1-1.597.65 2.253 2.253 0 0 1-2.267-2.24 2.255 2.255 0 0 1 2.946-2.142 2.225 2.225 0 0 1-.49-2.678 2.254 2.254 0 0 1 2.71-1.114 2.22 2.22 0 0 1-.516-1.43 2.255 2.255 0 0 1 3.3-2 2.27 2.27 0 0 1-.396-1.278c0-1.271 1.046-2.3 2.33-2.3M49.217 17.855c1.187 0 2.15.95 2.15 2.125 0 1.18-.963 2.13-2.15 2.13a2.14 2.14 0 0 1-2.154-2.126c0-1.179.966-2.129 2.154-2.129M40.612 6.812a2.37 2.37 0 0 1 2.125 3.43 2.37 2.37 0 0 1 3.05 2.262c0 .527-.18 1.038-.508 1.45a2.275 2.275 0 0 1 3.296 2 2.254 2.254 0 0 1-2.267 2.246 2.254 2.254 0 0 1-2.266-2.246c0-.508.175-.983.466-1.358a2.39 2.39 0 0 1-3.487-2.096c0-.383.091-.75.258-1.07a2.37 2.37 0 0 1-3.05-2.263c0-1.305 1.067-2.359 2.383-2.359zm10.696 6.442c1.25 0 2.267 1 2.267 2.242a2.253 2.253 0 0 1-2.267 2.241 2.253 2.253 0 0 1-2.266-2.241 2.253 2.253 0 0 1 2.266-2.242m2.384-4.258c1.283 0 2.325 1.033 2.325 2.3 0 1.27-1.042 2.3-2.325 2.3a2.313 2.313 0 0 1-2.325-2.3c0-1.267 1.041-2.3 2.325-2.3m-5.234-.23c1.284 0 2.325 1.03 2.325 2.3 0 1.271-1.041 2.3-2.325 2.3a2.313 2.313 0 0 1-2.325-2.3c0-1.27 1.042-2.3 2.325-2.3m8.021-3.679c1.288 0 2.33 1.03 2.33 2.3 0 1.271-1.042 2.3-2.33 2.3a2.31 2.31 0 0 1-2.325-2.3c0-1.27 1.042-2.3 2.325-2.3m-10.867-.345c1.317 0 2.384 1.054 2.384 2.358a2.37 2.37 0 0 1-2.384 2.358A2.37 2.37 0 0 1 43.23 7.1c0-1.304 1.067-2.358 2.383-2.358m5.521-.575c1.284 0 2.325 1.029 2.325 2.3s-1.041 2.3-2.325 2.3a2.31 2.31 0 0 1-2.325-2.3c0-1.271 1.042-2.3 2.325-2.3" clip-rule="evenodd"/></svg>