<svg xmlns="http://www.w3.org/2000/svg" fill="none" viewBox="0 0 100 100"><g fill-rule="evenodd" clip-path="url(#a)" clip-rule="evenodd"><path fill="#891b26" d="M100 9.765c0-5.39-4.376-9.766-9.766-9.766H9.766C4.376 0 0 4.375 0 9.765v80.469c0 5.39 4.376 9.765 9.766 9.765h80.468c5.39 0 9.766-4.376 9.766-9.765z"/><path fill="url(#b)" d="M45.197 92.35 20.021 48.763 7 71.307v17.138a3.91 3.91 0 0 0 3.906 3.906zm18.359 0H49.04S30.236 59.785 23.937 48.889a6.91 6.91 0 0 1-.002-6.907l5.266-9.112zm18.358 0H67.398L31.335 29.175l7.045-12.196zm10.438-13.712v9.807a3.91 3.91 0 0 1-3.907 3.906h-2.688L40.3 13.65 44.144 7h6.83zM88.445 6.999H54.816l37.536 64.986v-61.08A3.91 3.91 0 0 0 88.445 7"/></g><defs><radialGradient id="b" cx="0" cy="0" r="1" gradientTransform="translate(72.23 -9.042)scale(101.393)" gradientUnits="userSpaceOnUse"><stop stop-color="#ffae71"/><stop offset="1" stop-color="#ff9350"/></radialGradient><clipPath id="a"><path fill="#fff" d="M0 0h100v100H0z"/></clipPath></defs></svg>