<svg xmlns="http://www.w3.org/2000/svg" fill="none" viewBox="0 0 100 100"><g clip-path="url(#a)"><g fill-rule="evenodd" clip-path="url(#b)" clip-rule="evenodd"><path fill="#4e3188" d="M100 9.765c0-5.39-4.376-9.766-9.766-9.766H9.766C4.376 0 0 4.375 0 9.765v80.469c0 5.39 4.376 9.765 9.766 9.765h80.468c5.39 0 9.766-4.376 9.766-9.765z"/><path fill="url(#c)" d="M92.678 63.484V88.77a3.91 3.91 0 0 1-3.828 3.905H63.027l-16.859-29.19zm-33.492 29.19H13.504l22.853-39.523zm-49.35-.257a3.91 3.91 0 0 1-2.5-3.359l-.01-17.428 18.572-32.153h14.515zm43.853-53c1.264.005 2.474.748 3.127 1.849l.02.033 3.838 6.646.033.055a3.67 3.67 0 0 1 .024 3.597c-1.286 2.25-2.592 4.49-3.89 6.734a3.71 3.71 0 0 1-3.122 1.82c-2.445.01-7.346.005-7.353.005-1.264-.006-2.494-.68-3.148-1.781-.015-.024-.042-.073-.042-.073l-3.848-6.661c-.628-1.097-.627-2.515 0-3.632l.028-.049 3.856-6.685c.637-1.092 1.845-1.843 3.125-1.86h.064l7.243.002zM90.03 7.53 59.635 60.156h33.043V11.23a3.91 3.91 0 0 0-2.648-3.7m-45.56-.207h41.839L63.68 46.5 42.76 10.28zm9.392 28.828H27.818L40.84 13.606z"/></g></g><defs><clipPath id="a"><path fill="#fff" d="M0 0h100v100H0z"/></clipPath><clipPath id="b"><path fill="#fff" d="M0 0h100v100H0z"/></clipPath><radialGradient id="c" cx="0" cy="0" r="1" gradientTransform="translate(72.564 -8.718)scale(101.392)" gradientUnits="userSpaceOnUse"><stop stop-color="#f9a6ff"/><stop offset="1" stop-color="#ea73ff"/></radialGradient></defs></svg>