<svg xmlns="http://www.w3.org/2000/svg" fill="none" viewBox="0 0 100 100"><g clip-path="url(#a)"><path fill="#f0529c" d="M39.804 39.075h-19.9V20.146h16.013a3.895 3.895 0 0 0 3.883-3.883V.242h18.933v19.904A18.925 18.925 0 0 1 39.8 39.076zm-19.9 1.946H0v18.93h16.02a3.9 3.9 0 0 1 3.884 3.883v16.02h18.93V59.95a18.923 18.923 0 0 0-18.93-18.929m63.638-.98a3.896 3.896 0 0 1-3.884-3.883V20.146H60.73v19.896a18.926 18.926 0 0 0 18.93 18.933h19.903V40.05h-16.02zM40.779 79.86v19.904h18.933V83.742a3.895 3.895 0 0 1 3.884-3.883h16.02V60.917H59.709A18.925 18.925 0 0 0 40.775 79.85z"/></g><defs><clipPath id="a"><path fill="#fff" d="M0 0h100v100H0z"/></clipPath></defs></svg>