<svg xmlns="http://www.w3.org/2000/svg" fill="none" viewBox="0 0 100 100"><g clip-path="url(#a)"><path fill="url(#b)" fill-rule="evenodd" d="M50 0h.075c6.137-.008 12 1.088 17.412 3.142C86.48 10.233 100 28.542 100 50c0 27.612-22.388 50-50 50S0 77.612 0 50 22.388 0 50 0m35.85 79.03A45.93 45.93 0 0 0 96.125 50c0-7.154-1.625-13.933-4.537-19.975a10.79 10.79 0 0 1-13.392 2.583 26.2 26.2 0 0 1-5.554-4.133c-4.796-4.6-9.688-9.058-15.575-12.225-13.38-7.204-28.438-6.254-40.396 1.863A45.97 45.97 0 0 0 3.875 50a46 46 0 0 0 4.267 19.404c3.125-4.054 8.879-5.608 13.466-2.958 2.78 1.6 5.238 3.833 7.654 6.029l.734.667c5.687 5.141 11.642 9.812 18.992 12.354 12.72 4.387 26.483 1.82 36.862-6.467" clip-rule="evenodd"/><path fill="url(#c)" d="M23.513 42.969c-3.459.458-5.838 3.191-5.867 6.741a7.146 7.146 0 0 0 6.042 7.167c3.354.533 6.833-1.775 7.791-5.25.192-.696.317-1.409.442-2.125.104-.584.208-1.175.35-1.75 1.325-5.488 5.154-8.125 11.617-8.042 4.525.054 5.491 1.13 7 7.73.07.316.179.629.291.941 1.084 2.975 4.067 4.875 6.959 4.438a6.86 6.86 0 0 0 5.75-5.992c.346-3.038-1.45-5.267-4.675-6.563-1.417-.566-2.767-.658-4.146-.587-3.025.154-4.67-1.5-5.58-4.071a14 14 0 0 1-.558-2.708c-.058-.388-.112-.775-.179-1.159-.65-3.695-3.479-6.291-6.954-6.383-3.296-.083-6.1 2.296-6.937 5.908l-.25 1.125-.105.488c-1.479 6.816-4.058 9.187-10.991 10.091"/><path fill="url(#d)" d="M75.246 56.85c4.12-.858 6.57-3.49 6.633-7.07.062-3.458-2.6-6.592-6.084-7.183-3.208-.542-6.662 1.596-7.683 4.916-.287.917-.487 1.867-.687 2.817-.25 1.208-.509 2.417-.938 3.558-1.529 4.109-6.637 6.442-12.191 5.809-3.434-.396-4.609-1.859-5.592-6.975-.75-3.909-3.6-6.396-7.004-6.113-3.542.292-6.313 3.454-6.117 6.971.208 3.717 2.825 6 7.104 6.204 5.73.267 7.292 1.65 8.025 7.446.28 2.212 1.113 4.03 2.854 5.367 4.25 3.262 10.03.866 11.084-4.617l.091-.475c.634-3.317 1.25-6.57 4.334-8.754 1.5-1.063 3.17-1.358 4.858-1.654.438-.08.875-.154 1.313-.25z"/><path fill="url(#e)" d="M57.625 33.171a3.146 3.146 0 1 1-6.292 0 3.146 3.146 0 0 1 6.292 0"/><path fill="url(#f)" d="M45.037 69.492a3.148 3.148 0 1 0-3.145-3.15 3.15 3.15 0 0 0 3.146 3.15"/></g><defs><linearGradient id="b" x1="50" x2="50" y1="0" y2="100" gradientUnits="userSpaceOnUse"><stop stop-color="#12b7fa"/><stop offset="1" stop-color="#006ffb"/></linearGradient><linearGradient id="c" x1="49.763" x2="49.763" y1="25.356" y2="74.077" gradientUnits="userSpaceOnUse"><stop stop-color="#006ffb"/><stop offset="1" stop-color="#12b7fa"/></linearGradient><linearGradient id="d" x1="49.762" x2="49.762" y1="25.355" y2="74.076" gradientUnits="userSpaceOnUse"><stop stop-color="#006ffb"/><stop offset="1" stop-color="#12b7fa"/></linearGradient><linearGradient id="e" x1="49.762" x2="49.762" y1="25.354" y2="74.075" gradientUnits="userSpaceOnUse"><stop stop-color="#006ffb"/><stop offset="1" stop-color="#12b7fa"/></linearGradient><linearGradient id="f" x1="49.762" x2="49.762" y1="25.354" y2="74.075" gradientUnits="userSpaceOnUse"><stop stop-color="#006ffb"/><stop offset="1" stop-color="#12b7fa"/></linearGradient><clipPath id="a"><path fill="#fff" d="M0 0h100v100H0z"/></clipPath></defs></svg>