<svg xmlns="http://www.w3.org/2000/svg" fill="none" viewBox="0 0 100 100"><path fill="#003e97" d="M36.908 71.313c.65-1.725.271-1.138 2.063.408 8.637 7.467 43.058-7.729 37.646-16.612-6.688-9.263-33.017-3-47.913-.2 2.375-1.08 11.813-4.158 15.359-5.054 4.87-1.234 6.874-1.634 11.408-2.713-10.208 1.042-25.9 6.221-40.363 11.654 7.05-5.608 21.155-10.575 24.392-12.087-6.692 1.512-19.15 7.116-28.52 11.854C5.657 61.251 3.882 62.251 0 64.409c2.9-2.48 6.375-5.763 12.296-9.234 7.142-4.179 7.562-4.366 9.72-5.662-5.183 2.158-9.928 4.32-13.166 5.4 3.22-2.225 9.28-5.612 11.654-6.692-.72.063-2.158.646-3.02.863 4.316-2.375 7.495-3.459 9.308-4.042 30.916-10.175 66.662-9.092 72.166 2.2 5.509 11.292-11.525 27.025-34.779 32.121-4.025.883-7.587 1.367-10.942 1.492-3.483.129-6.033-.021-8.487-.5-6.513-1.271-9.32-5.134-7.842-9.042"/><path fill="#d70d19" d="M47.917 25.77c2.804.433 4.1.65 5.612.65-2.375-1.513-2.925-1.688-8.417-4.75 5.392-.43 7.942-.1 14.026-.217-2.588-1.508-3.884-1.508-6.688-2.804a142 142 0 0 1 11.654-.433 5.4 5.4 0 0 0-1.729-1.509c6.042-.216 14.625.4 19.52 2.584 9.55 4.279 8.313 10.912-2.374 12.762-1.963.338-5.48.617-7.808.625a52 52 0 0 1-8.909-.883c-7.796-1.492-13.808-4.084-14.887-6.025"/></svg>