<svg xmlns="http://www.w3.org/2000/svg" fill="none" viewBox="0 0 100 100"><g clip-path="url(#a)"><path fill="#081a2b" d="M50.159 0c2.733.154 5.166 1 7.308 2.742.108.087.45.395 1.037.925a.2.2 0 0 0 .084.041q.218.061.35-.016 1.275-.73 2.7-.584c.77.075 1.675.1 2.108.159q1.444.189 2.57.804.481.264 1.442.916.04.028.088.034c.2.016.354-.113.533-.117.18-.008.325-.092.53-.112a14 14 0 0 1 3.704.066c.591.092 1.166.304 1.708.559 1.68.791 3.054 1.85 4.317 3.175a12.3 12.3 0 0 1 2.72 4.429c.275.779.425 1.804.53 2.341a.5.5 0 0 0 .029.096q.322.708.708 1.521c.554 1.17.75 2.304.946 3.75.017.125.063.288.138.48q.026.075.083.133l.408.375a8.8 8.8 0 0 1 2.025 2.716c.475.992.538 1.988.517 3.059-.021.883-.271 1.525-.584 2.429a.4.4 0 0 0-.016.17q.095.64.083.817-.024.532-.125 1.684a3.8 3.8 0 0 1-.225 1.02c-.95 2.496-2.966 3.796-5.533 4.146q-.184.061-.346.167a.1.1 0 0 0-.02.042c-.034.12.04.3.032.466-.024.375-.091.871-.208 1.475a6.23 6.23 0 0 1-3.32 4.542 6.3 6.3 0 0 1-2.509.733.19.19 0 0 0-.17.192c.012.367-.113.642-.113.996q.006.315-.071.62c-.054.192-.042.413-.071.613a52.9 52.9 0 0 1-6.583 19.942 29 29 0 0 1-1.542 2.404.28.28 0 0 0-.05.208q.45 2.67 1.125 5.213c.417 1.562.967 3.283 2.425 4.17 2.792 1.7 5.833 3.084 8.887 4.38q.02.002.025.016a.07.07 0 0 1 .017.055 91 91 0 0 1-3.487 3.941 52.4 52.4 0 0 1-7.609 6.53 33.3 33.3 0 0 1-11.812 5.166.2.2 0 0 1-.084.017 1.5 1.5 0 0 0-.537.091q-1.062.162-2.137.167a49 49 0 0 0-2.059.096h-.162c-.05-.02-.075-.02-.084 0h-1.683q-.063-.03-.075 0h-.208a71 71 0 0 1-1.554-.104 13 13 0 0 1-1.542-.204c-3.142-.638-6.108-1.667-8.871-3.338a18.1 18.1 0 0 1-5.32-4.883 5.1 5.1 0 0 1-.96-2.238 10 10 0 0 0-.145-.829l-.125-.97v-.026c.02-.375-.108-.82-.125-1.179a77 77 0 0 0-.767-5.062c-.058-.292-.058-.634-.154-.938a.5.5 0 0 1-.017-.154 1.25 1.25 0 0 0-.104-.567.3.3 0 0 1-.02-.112c.008-.404-.138-.817-.159-1.175a.6.6 0 0 0-.067-.259.14.14 0 0 1-.016-.091 1 1 0 0 0-.034-.421c-.091-.338-.075-.646-.179-.95a.4.4 0 0 1-.02-.146 1.5 1.5 0 0 0-.084-.546.5.5 0 0 1-.025-.15 2.1 2.1 0 0 0-.108-.641.4.4 0 0 1-.017-.134 1 1 0 0 0-.096-.508.1.1 0 0 1-.012-.042l-.05-.525a.3.3 0 0 0-.021-.083c-.083-.217-.042-.43-.104-.638a2.2 2.2 0 0 1-.08-.537.6.6 0 0 0-.033-.175c-.095-.25-.095-.542-.154-.85l-.258-1.388a1.6 1.6 0 0 0-.175-.487.1.1 0 0 0-.063-.05 9.3 9.3 0 0 1-3.116-1.708c-1.492-1.238-2.175-2.805-2.509-4.667-.116-.663-.687-1.37-.929-1.817a5.4 5.4 0 0 1-.612-2.016.1.1 0 0 0-.017-.046l-.033-.054a.084.084 0 0 1 .008-.1c.146-.175.125-.6-.167-.63a.13.13 0 0 1-.083-.045c-.825-.95-1.68-2.009-2.062-3.084a10 10 0 0 1-.513-2.196q-.09-.832-.133-1.666c0-.03 0-.059.012-.084.209-.562.292-1.216-.079-1.733a.6.6 0 0 1-.1-.23l-.317-1.616a6.9 6.9 0 0 1 1.15-3.708.09.09 0 0 0-.016-.117c-2.688-2.208-4.404-5.525-4.438-9.025a13 13 0 0 1 .346-3.37 9.36 9.36 0 0 1 2.404-4.25c.792-.821 1.617-1.405 2.517-2.005a.34.34 0 0 0 .142-.366l-.117-.467q-.07-2.4.025-4.8c.05-.808.358-1.75.67-2.608 1.126-3.075 3.197-5.75 6.138-7.25.68-.346 1.125-.513 1.483-1 .521-.709 1.209-1.471 2.055-2.292a9.27 9.27 0 0 1 4.804-2.483c.492-.092 1.087-.092 1.633-.146.15.066.25.041.292-.075a.6.6 0 0 0 .1-.059q1.018-.758 1.75-1.291a11.64 11.64 0 0 1 5.97-2.238c.63-.05 1.063.017 1.75.063a.5.5 0 0 1 .134.02c.342.096.625.071.975.146.154.047.316.061.475.042 1.14-.312 2.306-.52 3.483-.625h.63zM19.2 27.708c.667-.875 1.325-1.658 2.03-2.208a7.42 7.42 0 0 1 6.112-1.48q1.051.196 2.087.46a.05.05 0 0 0 .034-.029.05.05 0 0 0-.005-.043 6.4 6.4 0 0 1-.566-2.583l.075-.467q.27 2.508 1.808 4.384c.938 1.15 2.125 1.875 3.542 2.17q1.723.361 3.683.18a1 1 0 0 1 .408-.034 7.2 7.2 0 0 0 5.271-2.829l-.001-.024a.06.06 0 0 0-.03-.036l-.023-.007-1.829-.2a10.6 10.6 0 0 0-1.775-.654c-.542-.141-1.163-.154-1.7-.25a4.29 4.29 0 0 1-3.542-3.47c-.125-1.246.121-2.626.98-3.555q.548-.594.991-.987c.221-.192.113-.4.163-.625.083-.404.175-.813.266-1.217l.709-1.333a.04.04 0 0 0 .003-.052.04.04 0 0 0-.05-.015 5.13 5.13 0 0 0-3.553 2.342c-.842 1.291-1.225 2.95-.75 4.433v.013a.02.02 0 0 1-.021.012.02.02 0 0 1-.013-.012 5.4 5.4 0 0 1-.429-4.338c.608-1.725 2.4-3.108 4.104-3.683q.688-.238 1.663-.2a.12.12 0 0 0 .087-.038l.859-.891c.82-.863 1.85-1.563 3.1-2.1q.183-.083.346-.2a.04.04 0 0 0 .004-.021V8.1a3 3 0 0 0-1.105-.533q-2.763-.626-5.145.25a12.6 12.6 0 0 0-3.625 2.041.06.06 0 0 1-.059-.02.1.1 0 0 1-.008-.03c-.004-.041.013-.083.054-.141q.97-1.375 2.146-2.217c2.02-1.446 4.558-1.713 6.946-1.083q.587.157 1.104.458.48.288 1.013.65c.094.064.206.1.32.104.842.042 1.696-.442 1.88-1.325a1.07 1.07 0 0 0-.009-.587.2.2 0 0 0-.058-.084 1.07 1.07 0 0 1-.33-.5c-.112-.433.092-.991.617-.97.21.01.416.064.605.158.645.308.8 1.346.737 1.975v.012l.013.013.012.004h.017c.908-.342 1.841-.358 2.696-.375a.08.08 0 0 1 .054.025.1.1 0 0 1 .016.025q.006.015.005.03v.866a.05.05 0 0 1-.042.05c-.834.096-1.6.166-2.346.47a7.2 7.2 0 0 0-3.317 2.638 7.01 7.01 0 0 0-.7 6.65 7.25 7.25 0 0 0 4.775 4.23q1.913.5 3.988.087a4.7 4.7 0 0 0 1.35-.5l-.008-.009a5.17 5.17 0 0 1-3.975-1.667 9 9 0 0 1-.496-.566v-.008h.004a3.57 3.57 0 0 0 3.683.296 2.44 2.44 0 0 0 1.067-.917.1.1 0 0 0-.021-.075.1.1 0 0 0-.03-.025c-2.04-1.025-2.924-3.017-2.733-5.254a.4.4 0 0 1 .1-.225q.081-.074.117-.017.011.338.121.658.936 2.39 3.254 3.305 2.405.949 5.042-.021a4.5 4.5 0 0 0 1.05-.559c.471-.322.843-.77 1.075-1.291a1.76 1.76 0 0 0-.067-1.65c-.57-.838-1.308-1-2.208-.471a7 7 0 0 0-.388.237c-.47.31-1.036.444-1.596.375a3.28 3.28 0 0 1-2.583-1.754 2.8 2.8 0 0 1-.267-1.991 1.92 1.92 0 0 1 .967-1.238q.532-.304.958-.204c.009 0 .009.004.013.008l.008.013v.025a4.1 4.1 0 0 0-.708 1.316c-.25.934.03 1.675.85 2.221a1.53 1.53 0 0 0 1.53-.05c.34-.208.54-.57.778-.846a1.75 1.75 0 0 1 1.355-.604c1.97-.033 3.47 1.509 4.208 3.188q.377 1.224.367 2.504l-.155 1.337a7.2 7.2 0 0 0-.77 1.717 3 3 0 0 0-.155 1.096 2.9 2.9 0 0 0 1.125 1.9h.017l.008-.007.004-.01v-.012a4.1 4.1 0 0 1 .013-2.113q.067-.247.53-1.158c1.058-1.338 2.332-1.708 3.99-1.754a.04.04 0 0 0 .034-.017.04.04 0 0 0 .008-.017v-.012c-.124-.97-.166-1.83.209-2.696 1.312-3.07 4.846-2.833 7.25-1.417q.801.473 1.583.975a.05.05 0 0 0 .05-.037v-.033l-.208-.65a8.3 8.3 0 0 0-4.092-4.375 7.4 7.4 0 0 0-2.862-.671.04.04 0 0 1-.013-.017.03.03 0 0 1 0-.017v-.02a1.23 1.23 0 0 1 1.096-.605.042.042 0 0 0 .033-.066 7.2 7.2 0 0 0-5.216-.534.133.133 0 0 0-.088.196l.383.663a.145.145 0 0 0 .15.07c.992-.15 1.821-.208 2.7.313l.005.004v.017l-.013.004a7.5 7.5 0 0 0-5.541 3.3 1.5 1.5 0 0 0-.275-.48.15.15 0 0 1-.034-.082c-.025-.442.296-.875.58-1.221.403-.5.866-.917 1.387-1.259a.104.104 0 0 0 .037-.133 3.3 3.3 0 0 0-.82-1.104 5.83 5.83 0 0 0-2.85-1.733q-3.008-.812-5.496.695c-.596.367-1.292 1.021-1.75 1.367a.51.51 0 0 1-.48.096c-1.254-.383-2.525.012-3.491.887a3.45 3.45 0 0 0-1.184 2.567.1.1 0 0 1-.075.096c-1.175.342-2.562 1.125-2.974 2.342a3.52 3.52 0 0 0 .179 2.733l-.234.858a5.2 5.2 0 0 1-.775-1.104 4.12 4.12 0 0 1-.033-3.5c.413-.917 1.292-1.767 2.38-1.392q.047.017.083.055l.208.237a.09.09 0 0 0 .118.013.1.1 0 0 0 .028-.034.8.8 0 0 0 .066-.241q.125-.876.292-1.35c.692-1.975 2.413-3.467 4.542-3.505.137 0 .27-.041.387-.116l1.192-.767a.1.1 0 0 0 .02-.02.066.066 0 0 0-.008-.084C54.425 1.196 50.096.308 46.046 1.804a.57.57 0 0 1-.346.017 9.45 9.45 0 0 0-7.375.95 8.4 8.4 0 0 0-1.237.825l-2 1.712a.14.14 0 0 1-.117.034c-.496-.096-.825-.205-1.258-.18-.746.034-1.396.167-1.959.405-1.733.725-3.204 1.875-4.404 3.458a9.17 9.17 0 0 0-1.875 4.5q-.038.44-.108 1.042a.22.22 0 0 1-.092.154 8.4 8.4 0 0 0-1.746 1.496c-.866 1.062-1.57 2.229-1.754 3.483a25 25 0 0 0-.166 1.367 1 1 0 0 0 0 .166l.112 1.446q.001.025-.017.042a.06.06 0 0 1-.041.02 1.25 1.25 0 0 0-.592.213 6.9 6.9 0 0 0-2.375 3.02c-.187.438-.825 2.043-.525 2.426a.16.16 0 0 0 .113.058.23.23 0 0 0 .133-.033c.315-.168.584-.412.783-.708zm18.217-12.425c-.18.12-.333.278-.446.463a.2.2 0 0 0-.033.083q-.299 1.644.083 3.138c.608 2.412 2.942 3.87 5.325 4.091q1.83.168 3.542-.458c.541-.2 1-.5 1.479-.725a.03.03 0 0 0 .012-.013l.005-.016c0-.009 0-.013-.009-.017a5.746 5.746 0 0 1-4.925-5.667 8.53 8.53 0 0 1 .804-4.779q.557-1.088 1.313-2.037a.4.4 0 0 0 .075-.142l.001-.017-.005-.016a.04.04 0 0 0-.033-.012c-2.676.333-5.138 2.624-5.546 5.3a.08.08 0 0 1-.063.066 4.8 4.8 0 0 0-1.58.758M19.084 22.98a9 9 0 0 1 1.187-1.308.5.5 0 0 0 .162-.354c.055-.596.084-1.034.1-1.313a8.7 8.7 0 0 1 2.338-4.646 6 6 0 0 1 1.483-1.112.15.15 0 0 0 .084-.138 7.5 7.5 0 0 1 .495-2.937.08.08 0 0 0-.02-.087.08.08 0 0 0-.088-.013 10.7 10.7 0 0 0-3.508 2.996 13.2 13.2 0 0 0-1.792 3.262 12.6 12.6 0 0 0-.775 6.05.03.03 0 0 0 .025.011.03.03 0 0 0 .025-.01l.28-.405zm49.52-4.63q-1.1.857-.95 2.105c.077.467.263.91.542 1.292q1.239 1.667 3.27 1.991 2.725.438 4.705-1.225a5.1 5.1 0 0 0 1.583-2.362c.204-.613.263-1.304.334-2.058a.316.316 0 0 1 .262-.284c.173-.02.348 0 .513.059 1.775.562 2.779 2.425 3.175 4.195l-1.7.155a.045.045 0 0 0-.042.033v.03l.02.02c.642.392 1.176 1.167 1.097 1.946l-.2 1.908c-.075.617-.042 1.108-.054 1.854a.3.3 0 0 0 .016.1c.213.684.675 1.146 1.375.584a2.1 2.1 0 0 0 .775-1.334q.73-2.199-.346-4.062-.33-.562-.616-1.146a.26.26 0 0 1-.021-.15 7.6 7.6 0 0 0-.08-2.95 8.1 8.1 0 0 0-1.25-2.75c-.862-1.238-2.158-2.275-3.629-2.408-1.583-.146-3.179.675-3.75 2.229-.366 1.025-.17 1.958.18 2.904a.08.08 0 0 1-.042.1 4.5 4.5 0 0 1-2.517.4 2.83 2.83 0 0 1-2.2-1.47.05.05 0 0 0-.041-.01l-.021.01zm-5.62 2.793c-1.638 2.187-4.126 3.5-6.867 3.5-.654 0-1.446-.071-2.025.304q-.663.43-1.45.916a10.4 10.4 0 0 1-5.234 1.592q-.924.02-1.85-.02c-.5-.022-.858.04-1.179.403l-1.596 1.792a.7.7 0 0 1-.141.125c-.517.342-1.167.825-1.721 1.083-.38.18-1.067.5-1.508.796a5.54 5.54 0 0 0-2.184 2.771c-.041.12-.216.608-.512 1.47a6 6 0 0 1-1.563 2.388l-1.358.792a.1.1 0 0 0-.042.138c.059.116.171.375.334.766.637 1.542.416 3.375-.692 4.646a3.46 3.46 0 0 1-1.558.87c-1.896.45-3.5-.95-4.259-2.545a.03.03 0 0 0-.016-.012h-.017l-.01.003-.007.007-.004.009v.01q.111.574.292 1.341.176.752.383 1.146.494.93.938 1.834c-.175 1.008-.93 1.2-1.767.854a37 37 0 0 1-2.354-1.075 1.7 1.7 0 0 1-.625-.775 20 20 0 0 0-.592-1.784 4.4 4.4 0 0 0-2.591-2.47c-.159-.059-.325-.084-.496-.117l-.009-.042-.12-1.983a10 10 0 0 1-.009-.758c.004-.742.217-1.48.771-1.98.238-.214.524-.368.833-.45 1.942-.116 2.046 1.875 3.2 2.996a.08.08 0 0 0 .075.02.08.08 0 0 0 .059-.049s0-.03-.013-.083c-.204-1.35-.429-2.488-1.366-3.475q-.657-.688-1.763-.588c-1.654.204-2.383 1.438-2.596 2.975a10.7 10.7 0 0 0-.066 2.35c.024.5.083 1.009.162 1.53q.199 1.267.542 2.879.256 1.205.583 2.154c.346 1 .833 1.954 1.47 2.87q.793 1.139 2.017 1.984a5.33 5.33 0 0 0 4.963.687q-.01-.019.017-.008a.03.03 0 0 1 .025.03q.285 2.1.904 4.587c.187.75.387 1.358.6 1.837a15.7 15.7 0 0 0 3.029 5.084 22.5 22.5 0 0 0 3.78 3.358.7.7 0 0 0 .374.23c.134.166.242.282.334.345a37.5 37.5 0 0 0 5.941 3.333q2.449 1.095 3.154 1.334c1.146.404 2.171.725 3.084.975 1.241.345 2.625.541 4.141.604 2.138.083 4.488-.388 5.759-2.309 1.35-2.05.333-4.57-1.559-5.804a6.4 6.4 0 0 0-2.162-1.062 7.5 7.5 0 0 0-2.658-.25q.399-.733.6-.934c1.05-1.091 2.583-.662 3.9-.391.958.2 1.862.054 1.737-1.2-.07-.638-.42-1.038-1.004-1.325a9.3 9.3 0 0 0-2.763-.846 3.7 3.7 0 0 0-1.062-.004q-.58.086-1.604.191c-.286.024-.567.09-.834.196a2.2 2.2 0 0 0-.7.484c-.366-.105-.641-.196-.791-.505a.53.53 0 0 1-.034-.4c.313-.645.792-.958 1.45-.937.059 0 .117.025.159.067.72.695 1.583.404 2.429.116.783-.262 1.6-.312 2.383-.112.513.129 1.096.416 1.638.562q.5.133.808.059c.5-.113.75-.471.737-1.067a2.7 2.7 0 0 0-.725-.604.4.4 0 0 1-.141-.138 34 34 0 0 1-.542-.883c-.329-.57-.875-.796-1.483-.942a2.26 2.26 0 0 1-1.192-.654.05.05 0 0 1-.012-.03v-.037c.533-1.029 1.675-1.537 2.791-1.441q.418.036 1.417.47.582.255 1.72.667c1.097.396 2.447.454 3.18-.637.417-.625.513-1.075.542-1.904.241-6.767.416-11.438.516-14.021.034-.884.134-1.642.617-2.309.642-.891 1.608-1.091 2.642-1.125.466-.012.77-.029.912-.041 1.288-.159 1.75-1.192 1.683-2.367A5.12 5.12 0 0 0 70.658 29a7.2 7.2 0 0 0-1.683-.778 15.4 15.4 0 0 1-2.237-.834c-.53-.32-1.03-.688-1.492-1.1v-.02l.009-.009.012-.004h.025l.825.375a3.45 3.45 0 0 0 2.05.213 1.61 1.61 0 0 0 1.25-1.142 1.55 1.55 0 0 0-.35-1.367c-.658-.829-1.508-1.333-2.567-2.062a8.5 8.5 0 0 1-1.304-1.292 7.7 7.7 0 0 1-1.167-2.042.03.03 0 0 0-.016-.004l-.017.004a7 7 0 0 1-1.013 2.205m16.304 1.862a1.3 1.3 0 0 1-.25.5 9 9 0 0 1-1.025 1.05q-.555.438-1.13.85c-.55.365-.989.874-1.27 1.47l.008.018c0 .008.008.012.013.016a.04.04 0 0 0 .02.009c1.53.125 3.171-.375 3.592-2.034.152-.62.184-1.264.092-1.896a.03.03 0 0 0-.037 0 .03.03 0 0 0-.013.017m-65.6 13.604a10.4 10.4 0 0 0 2.646 5.475c.27.284.57.521.895.721q.133.126.234.07a9 9 0 0 0 1.441-.928.14.14 0 0 0 .055-.104v-.38a.284.284 0 0 0-.259-.283c-1.55-.133-2.854-1.304-3.325-2.725q-.154-.485-.354-.954l.08-.68a.03.03 0 0 1 .03-.021.03.03 0 0 1 .032.022q.231 1.495 1.275 2.408c.479.417 1.312.558 1.741.017a3.1 3.1 0 0 0 .634-1.384.27.27 0 0 0-.104-.262 8 8 0 0 1-.476-.388 2.054 2.054 0 0 1-.175-3.02c1.526-1.709 4.155-1.875 5.992-.567.5.358.825.542 1.25.95q.401.382.971.825c.962.742 2.017.987 3.25.933 1.8-.079 3.304-1.066 4.204-2.637.308-.542.633-1.434 1.033-1.975a3.8 3.8 0 0 1 2.113-1.446.03.03 0 0 0 0-.033 4.04 4.04 0 0 0-5.8.333c-.558.425-1.1.833-1.758.967a2.04 2.04 0 0 1-2.25-.917c-.15-.23-.225-.5-.213-.775a.03.03 0 0 1 .025-.011.03.03 0 0 1 .025.01c.854 1.155 2.125.43 2.309-.762a2.75 2.75 0 0 0-.438-1.962 4.1 4.1 0 0 0-1.696-1.488c-2-.916-4.562-.05-6.02 1.525-.205.221-.588.671-1.15 1.359-.38.458-1 .962-1.605 1.012-.633.05-1.27-.279-1.404-.946a2.3 2.3 0 0 1 .05-1.108.04.04 0 0 0-.042-.03 3 3 0 0 0-.729.518c-2.329 2.187-3.129 5.495-2.487 8.641m13.437 3.284c.084.291.2.554.358.791q.474.708 1.067 1.221c.575 1.292 2.133 2.104 3.367 1.067.666-.563.858-1.68.642-2.471a2.655 2.655 0 0 0-2.267-1.917 11 11 0 0 0-2.163.067c-.012 0-.029 0-.041-.008l-1.463-.85a.04.04 0 0 0-.062.016c.074.718.264 1.419.562 2.075zm-9.504 5.366c-.792 1.138-1.033 2.709-.396 3.967q.476.93 1.275 1.137.912.234 1.638-.845a3.1 3.1 0 0 0-.142-2l-.112-.292a11.7 11.7 0 0 1-.663-3.158.08.08 0 0 0-.042-.067.09.09 0 0 0-.083.004 6.4 6.4 0 0 0-1.475 1.25zm.467 10.209a7.4 7.4 0 0 0 1.391 1.9.1.1 0 0 0 .109-.03l.35-.412a5.8 5.8 0 0 1 2.783-.417c.264.075.513.193.738.35.916.6 1.575 1.063 2.191 1.784l.013.008h.016a.03.03 0 0 0 .013-.013 4.434 4.434 0 0 0-3.15-5.091q-.44-.438-.904-.925a4 4 0 0 0-.817-.709 2.04 2.04 0 0 0-1.05-.237 8 8 0 0 1-.7.096 3.3 3.3 0 0 1-1.588-.354.03.03 0 0 0-.03.017 7.33 7.33 0 0 0 .635 4.033m8.941 7.941-.016.163q.135 1.894.445 3.683c.163 1.7.334 3.125.526 4.275q1.574 9.476 2.004 12.138.189 1.162.508 4.279c.125 1.183.313 1.987.917 2.854 2.22 3.154 5.708 5.4 9.325 6.637q5.693 2.137 11.85 1.417a24 24 0 0 0 4.295-.808 27 27 0 0 0 3.467-1.242q.16-.09.334-.15.17-.064.333-.142a65 65 0 0 0 3.708-1.933 10 10 0 0 0 1.13-.77v-.026a.04.04 0 0 0-.017-.02 17.68 17.68 0 0 1-11.813-3.7 30 30 0 0 1-3.1-2.876 118 118 0 0 1-5.308-6 .17.17 0 0 0-.084-.054.3.3 0 0 0-.058-.116l-9.979-12.071a39 39 0 0 1-2.454-3.354 19 19 0 0 1-2.567-5.759l-.658-2.696a.087.087 0 0 0-.1-.075 2.8 2.8 0 0 0-2 1.305 5.26 5.26 0 0 0-.85 2.904c0 .875.033 1.57.108 2.083q.002.025.017.042c.02.025.029.029.037.012m-6.2-5.016c-.766 1.095-.266 2.375.688 3.145.216.175.346.238.633.155 1.246-.375 2.375-.571 3.621-.125h.012c.009 0 .013 0 .013-.009l.006-.012q0-.007-.002-.013a7.8 7.8 0 0 0-1.267-1.996c-.575-.745-1.82-1.808-2.82-1.733a1.08 1.08 0 0 0-.884.583zm4.03 9.325c.511.268 1.084.4 1.662.383a.067.067 0 0 0 .067-.063c.1-1.112 0-2.22-.292-3.316a.07.07 0 0 0-.067-.046 19 19 0 0 0-2.37.275 4.9 4.9 0 0 1-1.667-1.867h-.017a.03.03 0 0 0-.02.009.04.04 0 0 0-.009.016c-.262 1.934 1.117 3.7 2.712 4.609"/><path fill="#f9fbfc" d="m48.9 16.154.35.975a.1.1 0 0 1 .008.038l.046.592a.15.15 0 0 1-.107.158.2.2 0 0 1-.068.004 4.9 4.9 0 0 1-1.729-.617c-.117-.112-.233-.12-.37-.225a10 10 0 0 1-.726-.591.1.1 0 0 0-.041 0l-1.534.166a7 7 0 0 1 .7-6.645q1.211-1.78 3.317-2.642c.75-.304 1.508-.375 2.346-.47a.05.05 0 0 0 .041-.05v-.868a.08.08 0 0 0-.022-.057.08.08 0 0 0-.057-.022c-.85.017-1.783.034-2.692.375a.03.03 0 0 1-.024.002.03.03 0 0 1-.017-.018V6.25c.062-.629-.088-1.666-.738-1.975a1.5 1.5 0 0 0-.604-.158c-.525-.02-.729.542-.617.975q.064.251.334.496c.02.02.041.05.054.083.058.191.06.395.008.588-.183.883-1.037 1.362-1.879 1.329a.6.6 0 0 1-.32-.109q-.497-.34-1.013-.65a4.3 4.3 0 0 0-1.104-.458c-2.388-.625-4.925-.362-6.946 1.083q-1.177.846-2.146 2.221-.061.081-.054.138 0 .015.01.03a.1.1 0 0 0 .023.02.06.06 0 0 0 .059-.009 12.7 12.7 0 0 1 3.6-2.037c1.587-.583 3.304-.667 5.141-.25.402.1.778.284 1.104.537a.04.04 0 0 1 .005.021.04.04 0 0 1-.021.038 2 2 0 0 1-.334.183q-1.866.807-3.096 2.1-.446.462-.895.92a.1.1 0 0 1-.05.01 4.7 4.7 0 0 0-1.667.2c-1.7.578-3.492 1.958-4.1 3.683a5.4 5.4 0 0 0 .446 4.35.02.02 0 0 0 .012-.005l.006-.005.003-.007v-.008c-.48-1.48-.096-3.138.75-4.434a5.13 5.13 0 0 1 3.57-2.333.04.04 0 0 1 .026.023.04.04 0 0 1 0 .035l-.709 1.334q-.337-.014-.487.116l-.696.584a5.75 5.75 0 0 0-1.5 2.033 7.3 7.3 0 0 0-.53 1.596c-.116.683.059 1.766.813 2.054.338 1.812 1.725 3.158 3.542 3.47.541.097 1.162.11 1.7.25a10.6 10.6 0 0 1 1.775.655 2.1 2.1 0 0 1-.563.55c-1.083.712-2.295 1.02-3.625.92a17 17 0 0 1-1.425-.278l-.229-.013a26 26 0 0 1-1.57-.567 9.3 9.3 0 0 1-1.313-.741l-.688-.917a2.5 2.5 0 0 1-.02-.512q.001-.038-.067-.113a.03.03 0 0 0-.05.02c-.009.2-.284.21-.396.093a13 13 0 0 1-1.2-1.413 3.4 3.4 0 0 1-.458-.746 11 11 0 0 0-.571-1.391 8.9 8.9 0 0 1 .05-4.388.025.025 0 0 0-.027-.016l-.01.004a5.36 5.36 0 0 0-1.834 2.408.1.1 0 0 1-.083.067c-1.563.125-2.892.766-3.763 2.095a.025.025 0 0 0 .021.038q.599-.025 1.154.1a.12.12 0 0 0 .104-.025c1.142-.958 2.725-1.242 4.025-.363l-.291 1.584-.08.466q-.002.062-.041.067l-.025-.008-.025-.013a.07.07 0 0 0-.054.009q-.41.315-.888.508c-.291.092-.791.254-1.483.487a.6.6 0 0 1-.2.025 31 31 0 0 0-1.088-.037c-1.062-.017-2.125-.033-3.091.254-.24.07-.467.18-.671.325-.975.692-1.838 1.513-2.234 2.604-.183.513-.262 1.15-.575 1.696a.05.05 0 0 0 0 .05.06.06 0 0 0 .042.033q.026.001.071-.041.143-.157.262-.334a.05.05 0 0 1 .063.009l.25.254c-.2.297-.468.54-.783.708a.23.23 0 0 1-.134.034.16.16 0 0 1-.112-.059c-.3-.379.337-1.987.52-2.425q.787-1.876 2.38-3.02a1.25 1.25 0 0 1 .596-.209.06.06 0 0 0 .041-.025.06.06 0 0 0 .013-.042l-.117-1.445a1 1 0 0 1 0-.167c.05-.458.104-.917.167-1.363.187-1.254.892-2.42 1.758-3.487a8.4 8.4 0 0 1 1.75-1.496.21.21 0 0 0 .084-.15l.116-1.042a9.17 9.17 0 0 1 1.875-4.504c1.196-1.583 2.667-2.733 4.404-3.458.559-.233 1.209-.367 1.959-.404.429-.021.758.083 1.25.183a.14.14 0 0 0 .125-.033l1.991-1.721c.267-.23.684-.5 1.238-.82a9.45 9.45 0 0 1 7.375-.955c.114.03.235.024.346-.017C50.092.31 54.42 1.192 57.4 4.35a.07.07 0 0 1 .007.08.1.1 0 0 1-.02.02l-1.191.767a.74.74 0 0 1-.388.117c-2.129.041-3.85 1.533-4.541 3.504q-.169.474-.292 1.35a.8.8 0 0 1-.062.241.09.09 0 0 1-.09.05.1.1 0 0 1-.056-.029l-.217-.237a.2.2 0 0 0-.08-.054c-1.082-.375-1.966.475-2.378 1.391a4.12 4.12 0 0 0 .033 3.5c.125.275.38.646.77 1.104zM32.358 7.663c.005 0 .013 0 .021-.009a.2.2 0 0 0 .059-.066q-.008-.006-.021 0a.2.2 0 0 0-.055.07zm-.191.216.02-.008v-.017l-.008-.004h-.012c0 .004 0 .009-.013.017v.008h.008zm-.109.2q.038.009.038-.02l-.004-.013a.02.02 0 0 0-.021 0q-.007-.002-.008.008v.025zm6.725 2.171-.083-.029a.02.02 0 0 0-.025.008v.03l.1.02h.013a.02.02 0 0 0 .003-.024zm-2.762.242a.16.16 0 0 0 .058-.063v-.01a.02.02 0 0 0-.014-.014h-.01a1 1 0 0 0-.063.07q0 .008.004.014a.02.02 0 0 0 .012.007.02.02 0 0 0 .013 0zm-.246.033c.008 0 .02 0 .025-.008a.02.02 0 0 0 .009-.011.02.02 0 0 0 0-.014l-.01-.007-.011-.001q-.024 0-.017.033v.004zm-1.98 1.154-.04.042a.03.03 0 0 0-.011.017.03.03 0 0 0 .004.019q.006.008.016.01t.02-.004a.3.3 0 0 0 .037-.054.02.02 0 0 0 .004-.013.02.02 0 0 0-.004-.012.02.02 0 0 0-.013-.006l-.007.001zm11.055 1.863q-.012-.014-.025-.008l-.013.004v.016l.005.013.012.008c.013 0 .021 0 .025-.012v-.021zm-12.57.192.003-.013q-.001-.018-.02 0l-.003.006q0 .002 0 0l.003.007zm12.79.566s0-.008-.012-.02a.3.3 0 0 0-.075-.08l-.025-.008.009.025q.03.046.075.08.018.01.025.003zm.022.192-.009-.013a.02.02 0 0 0-.025 0l-.008.013q-.002.014.008.02c.021 0 .034-.003.034-.02"/><path fill="#798b98" d="M34.892 3.943q-.065.168-.292.075a.6.6 0 0 1 .291-.075"/><path fill="#f9fbfc" d="M67.259 6.248a2.5 2.5 0 0 1-.892-.396 1.8 1.8 0 0 0-.7-.308 16 16 0 0 0-1.271-.196.7.7 0 0 0-.283.034l-.984.329a.05.05 0 0 0-.037.054.055.055 0 0 0 .046.046 2.9 2.9 0 0 1 2.237 1.379c.084.133.092.27.196.37a.1.1 0 0 1 .03.05l.153.584v.033l-.011.02-.02.012H65.7l-.02-.01a4.8 4.8 0 0 0-2.713-1.217.2.2 0 0 1-.104-.05q-.032-.026-.05 0-.025.03-.1.037a.8.8 0 0 1-.3-.017.15.15 0 0 0-.084-.012q-.508.087-1.012.196a4.26 4.26 0 0 0-2.613 2.029 6.4 6.4 0 0 0-.633 1.77q-1.23-.824-.85-2.224a4.1 4.1 0 0 1 .708-1.334V7.42l-.008-.012-.013-.009c-.287-.066-.604 0-.958.209a1.92 1.92 0 0 0-.967 1.233 2.8 2.8 0 0 0 .263 1.992 3.28 3.28 0 0 0 2.587 1.758 2.38 2.38 0 0 0 1.596-.375c.075-.054.209-.138.388-.242q1.35-.786 2.208.471a.4.4 0 0 1-.183.02.1.1 0 0 1-.059-.028l-.237-.217a.117.117 0 0 0-.163 0l-.183.188a8 8 0 0 1-.437.675c-1.567 2.037-4.675 1.879-6.654.729a11.8 11.8 0 0 1-2.138-1.688.2.2 0 0 0-.083-.041.46.46 0 0 0-.321.066c.008-.066 0-.116-.017-.141q-.037-.063-.112.012a.38.38 0 0 0-.105.225q-.193-.087-.366.1a2.93 2.93 0 0 0-.825 2.242c.062 1.108.833 2.237 1.683 2.941l.008.013v.017l-.01.01-.014.002a3.5 3.5 0 0 1-.542-.13 6.45 6.45 0 0 1-3.13-2.145 3.53 3.53 0 0 1-.178-2.733c.412-1.213 1.8-2 2.974-2.342a.1.1 0 0 0 .075-.096 3.45 3.45 0 0 1 1.18-2.566c.97-.875 2.241-1.271 3.5-.888q.243.074.475-.096c.458-.346 1.154-1 1.75-1.366 1.658-1 3.491-1.238 5.5-.696a5.83 5.83 0 0 1 2.846 1.733zm-7.98.08q-.481.299-.904.679h.008s.013 0 .017-.009q.44-.334.904-.633.48-.295.984-.55V5.81a6.4 6.4 0 0 0-1.009.516"/><path fill="#c2d1d3" d="M67.258 6.251q.511.438.821 1.1a.104.104 0 0 1-.041.133c-.523.346-.99.77-1.384 1.259-.283.346-.604.779-.583 1.22q.007.046.037.084.187.212.28.48c-.184.574-.417.987-.334 1.678a.9.9 0 0 1-.117.467c-.733-1.68-2.233-3.22-4.2-3.188a1.74 1.74 0 0 0-1.358.605c-.233.275-.437.637-.779.845a1.52 1.52 0 0 1-1.53.05 6.4 6.4 0 0 1 .634-1.766q.844-1.499 2.613-2.03.087-.026 1.012-.195a.14.14 0 0 1 .084.012.8.8 0 0 0 .3.013q.075-.001.1-.034.018-.024.05 0 .042.045.104.05a4.8 4.8 0 0 1 2.741 1.225q.015.002.03-.008a.05.05 0 0 0 .016-.025v-.03l-.154-.582a.1.1 0 0 0-.03-.05c-.103-.1-.112-.242-.195-.375a2.9 2.9 0 0 0-2.237-1.375.054.054 0 0 1-.046-.046c0-.013 0-.025.008-.038a.05.05 0 0 1 .03-.02l.982-.33a.65.65 0 0 1 .284-.029q.644.076 1.275.196c.25.053.488.158.696.308.268.188.571.32.891.392z"/><path fill="#f9fbfc" d="M79.846 12.26a1.95 1.95 0 0 1-.817-.174 3 3 0 0 1-.45-.309l-.188-.096c-.287-.25-.704-.4-.958-.541a2 2 0 0 0-.512-.188.5.5 0 0 1-.092-.029 3 3 0 0 0-.33-.12 21 21 0 0 1-.64-.134 3.3 3.3 0 0 0-.655-.083q-.375-.013-.75.008a4.63 4.63 0 0 0-2.417.975c-.336.299-.62.65-.841 1.042a8.2 8.2 0 0 0-.792 1.658.47.47 0 0 1-.32.325 11 11 0 0 1-3.776.583 8 8 0 0 0-.37-2.504.9.9 0 0 0 .12-.47c-.087-.688.146-1.1.33-1.68a7.5 7.5 0 0 1 5.545-3.3l.004-.008v-.009l-.004-.008c-.88-.52-1.708-.462-2.7-.308a.15.15 0 0 1-.15-.075l-.38-.659a.138.138 0 0 1 .084-.2c1.48-.387 2.98-.291 4.417.25q.394.159.8.284a.04.04 0 0 1 .004.043.04.04 0 0 1-.037.023 1.23 1.23 0 0 0-1.1.625l.004.017.012.017a8.29 8.29 0 0 1 6.959 5.046"/><path fill="#798b98" d="M32.058 8.076v-.021l.006-.013.013-.006.013.006.006.013q0 .031-.038.025z"/><path fill="#f9fbfc" d="M43.258 11.38a.4.4 0 0 0-.2-.037.13.13 0 0 0-.083.046l-.93 1.145a.6.6 0 0 0-.062.1q-.07.135-.166.25-.074.098-.126.209l-.487 1a.4.4 0 0 0-.025.091.2.2 0 0 1-.025.075 1.4 1.4 0 0 0-.167.459l-.02.083c-.034.012-.042.054-.034.113l-.012.058a.2.2 0 0 0-.025.07l-.059.313a.5.5 0 0 0-.041.133l-.063.53v.075l-.008.05a.2.2 0 0 0-.025.095.1.1 0 0 0-.009.092l.017.859c.025.024.03.066.025.125l.021.066c0 .034 0 .059.02.084a.6.6 0 0 0 .01.312q-.002.039.008.07a.5.5 0 0 0 .083.226l.008.091c0 .034.004.071.021.105q-.001.055.03.116-.02.1.04.15c0 .113.034.209.093.292a.13.13 0 0 0 .008.096c0 .05.02.104.05.15l.008.02.292.617c.01.054.04.102.083.134l.01.008.003.012-.005.009-.008.008-.033.021a.04.04 0 0 1-.025 0l-.021-.004-.192-.154a.1.1 0 0 0-.116-.013l-1.75 1.013a.07.07 0 0 1-.042.008.07.07 0 0 1-.042-.02 7.4 7.4 0 0 1-1.25-1.96c-.295-.666-.366-1.5-.45-2.278a2.7 2.7 0 0 1 .042-.971.1.1 0 0 0-.02-.038l-.188-.2a4.8 4.8 0 0 1 1.583-.762.08.08 0 0 0 .054-.067c.417-2.679 2.875-4.966 5.55-5.3h.017c.008 0 .017.013.017.013l.008.016v.017a.4.4 0 0 1-.084.142q-.75.949-1.308 2.041z"/><path fill="#798b98" d="M38.775 10.275a.3.3 0 0 1-.096-.02.02.02 0 0 1-.004-.025s.004-.009.012-.009h.013l.083.03.008.004v.012l-.007.007zM36 10.46l.054-.054h.01l.01.005a.02.02 0 0 1 .005.02.15.15 0 0 1-.063.066h-.008L36 10.493l-.006-.006-.003-.007a.02.02 0 0 1 .009-.021m-.23.058q-.007-.03.017-.037a.02.02 0 0 1 .021.012v.013s0 .008-.008.008a.03.03 0 0 1-.025.008z"/><path fill="#c2d1d3" d="M78.392 11.682q.043.111.187.091.325.257.45.313c.257.117.535.176.817.175l.208.65a.06.06 0 0 1-.021.058.06.06 0 0 1-.062 0 48 48 0 0 0-1.55-.958c-2.409-1.425-5.942-1.658-7.254 1.413-.375.866-.334 1.725-.209 2.695v.017l-.008.017-.013.012h-.016c-1.659.046-2.938.417-4 1.759l-.313-.596a2.7 2.7 0 0 0-.458-.817l.158-1.337c1.292.024 2.55-.167 3.775-.584a.47.47 0 0 0 .321-.32q.269-.806.792-1.667c.223-.39.509-.74.846-1.038a4.4 4.4 0 0 1 1.166-.666c.4-.161.821-.265 1.25-.309q.156-.016.75-.008.294.007.65.083l.642.138q.061.005.33.116.044.02.09.03c.197.041.363.104.513.187.254.146.675.3.959.546"/><path fill="#f9fbfc" d="M20.542 20a19 19 0 0 0-1.517 2.154c-.125.208-.341.8.059.825l-.28.396a.03.03 0 0 1-.033.012.03.03 0 0 1-.025-.025c-.233-2.075.03-4.083.783-6.037q.715-1.85 1.792-3.263a10.7 10.7 0 0 1 3.508-2.991.08.08 0 0 1 .109.095 7.5 7.5 0 0 0-.5 2.938.15.15 0 0 1-.08.138c-.549.29-1.05.666-1.483 1.112A8.7 8.7 0 0 0 20.542 20"/><path fill="#c2d1d3" d="M43.259 11.378a8.5 8.5 0 0 0-.805 4.784q.15 1.286.863 2.429a7.63 7.63 0 0 0 4.062 3.233l.009.017-.005.017a.03.03 0 0 1-.012.012c-.48.225-.937.525-1.48.725a8.05 8.05 0 0 1-3.54.458c-2.384-.22-4.718-1.679-5.33-4.091a7.3 7.3 0 0 1-.08-3.142.2.2 0 0 1 .034-.08 1.5 1.5 0 0 1 .446-.457l.188.2a.1.1 0 0 1 .02.083c-.066.303-.08.616-.041.925.083.779.154 1.612.45 2.283.32.73.737 1.38 1.25 1.959a.066.066 0 0 0 .083.008l1.75-1.013a.11.11 0 0 1 .117.013l.191.154a.04.04 0 0 0 .021.008q.013.003.025-.004l.033-.02.009-.009v-.019l-.004-.01a.2.2 0 0 1-.084-.134l-.296-.616-.008-.021c.013-.075 0-.125-.05-.15a.13.13 0 0 1-.008-.096l-.088-.292q-.063-.05-.045-.15l-.03-.116a.2.2 0 0 1-.02-.104l-.005-.092a.43.43 0 0 1-.083-.225l-.013-.07a.6.6 0 0 1-.008-.317.2.2 0 0 0-.02-.08l-.022-.07c.013-.084.005-.121-.024-.121l-.017-.859.008-.091a.3.3 0 0 0 .03-.08l.004-.066v-.075l.062-.53a.2.2 0 0 0 .042-.133l.058-.312a.2.2 0 0 0 .025-.054.13.13 0 0 0 .013-.075q-.015-.093.033-.117a.1.1 0 0 0 .017-.075q.042-.246.166-.463a.2.2 0 0 0 .03-.075.4.4 0 0 1 .024-.091l.488-1q.051-.11.125-.208a1.4 1.4 0 0 0 .166-.25.6.6 0 0 1 .063-.1l.933-1.146a.13.13 0 0 1 .08-.042.33.33 0 0 1 .2.033"/><path fill="#798b98" d="M33.82 11.707a.3.3 0 0 1-.037.054.03.03 0 0 1-.029-.008l-.004-.013.004-.017.042-.041.01-.004q.006 0 .01.004a.02.02 0 0 1 .005.012c0 .005.003.009 0 .013m44.755.066c-.096.013-.154-.016-.183-.091z"/><path fill="#c2d1d3" d="M63.025 12.446a1.75 1.75 0 0 1 .07 1.65 3.07 3.07 0 0 1-1.078 1.291 4.6 4.6 0 0 1-1.05.559q-2.634.97-5.042.02a5.58 5.58 0 0 1-3.25-3.303 2.2 2.2 0 0 1-.108-.517.46.46 0 0 1 .325-.067q.047.009.083.042c.783.758 1.5 1.32 2.133 1.691 1.98 1.15 5.088 1.309 6.654-.729q.235-.326.438-.675l.183-.187a.117.117 0 0 1 .158 0l.242.216a.1.1 0 0 0 .059.026q.082.01.183-.017m-10.692-.2c-.191 2.237.692 4.229 2.733 5.25a.1.1 0 0 1 .05.067.1.1 0 0 1-.012.079c-.26.386-.627.69-1.054.875a3.57 3.57 0 0 1-3.688-.292q.213.27.5.567a5.18 5.18 0 0 0 3.98 1.679l-.009.012c-.42.23-.87.392-1.341.488-1.384.275-2.713.25-3.988-.088a7.25 7.25 0 0 1-4.775-4.233l1.533-.167a.1.1 0 0 1 .084.025c.187.18.416.367.683.571.137.104.254.113.37.225a4.9 4.9 0 0 0 1.734.617.154.154 0 0 0 .163-.096.2.2 0 0 0 .008-.067l-.046-.595-.008-.034-.346-.975.233-.862a6.47 6.47 0 0 0 3.125 2.15q.275.086.559.125a.02.02 0 0 0 .012-.009v-.016l-.008-.013c-.85-.704-1.625-1.833-1.684-2.941a2.93 2.93 0 0 1 .826-2.242q.173-.188.366-.1m-7.479 1.316q-.006.02-.025.013l-.013-.008-.008-.013.004-.017.013-.004c.008 0 .017 0 .025.009l.008.012zm-12.575.171-.006.003-.007-.003-.002-.006.002-.006q.012-.02.017 0z"/><path fill="#f9fbfc" d="M82.267 19.045c-.155-.05-.242-.166-.259-.358a.27.27 0 0 0-.066-.158l-.65-.725a.05.05 0 0 0-.03-.017q-.038-.007-.087-.058c-1.071-1.084-2.275-1.592-3.763-.921l-.025.012-.366.275a.2.2 0 0 0-.042.05c-.187.271-.342.484-.467.809q-.3.822-.65 1.625c-.224.41-.529.772-.895 1.062a3.5 3.5 0 0 1-1.25.6c-1.376.392-2.65.192-3.834-.596q-1.125-.75-1.275-2.3l.388-.296a.05.05 0 0 1 .041-.008.05.05 0 0 1 .033.02 2.83 2.83 0 0 0 2.188 1.46c.863.108 1.7-.017 2.517-.4a.083.083 0 0 0 .041-.1c-.35-.947-.55-1.876-.175-2.9.567-1.555 2.163-2.376 3.75-2.234 1.467.133 2.763 1.17 3.625 2.412a8.2 8.2 0 0 1 1.25 2.746"/><path fill="#798b98" d="M45 14.257c.033.03.063.05.067.042.008-.005-.013-.034-.042-.063-.033-.029-.062-.05-.067-.042-.008.005.013.034.042.063"/><path fill="#c2d1d3" d="m37.18 14.207-.267 1.208c-.05.23.058.438-.163.63q-.52.469-.992.987c-.858.933-1.104 2.308-.979 3.554-.75-.287-.929-1.37-.812-2.054.112-.55.288-1.086.525-1.596a5.9 5.9 0 0 1 1.504-2.037l.696-.584c.104-.083.262-.125.487-.112z"/><path fill="#798b98" d="M45.092 14.49q0 .02-.03.02c-.012-.003-.012-.012-.012-.024l.008-.008a.02.02 0 0 1 .025 0zm-4.159.425a.13.13 0 0 1-.012.07v-.016z"/><path fill="#081a2b" d="m29.621 19.854-.362-.079c-1.3-.88-2.884-.596-4.026.358a.12.12 0 0 1-.104.03 4.4 4.4 0 0 0-1.166-.105l-.013-.008v-.025c.875-1.333 2.209-1.97 3.763-2.1a.1.1 0 0 0 .083-.062 5.36 5.36 0 0 1 1.85-2.413.03.03 0 0 1 .02.017v.012a8.9 8.9 0 0 0-.045 4.375"/><path fill="#798b98" d="m40.738 16.093-.009.067v-.017l.004-.05zm26.187 1.837q-.305.559-.53 1.154a4.1 4.1 0 0 0-.012 2.125l-.012.013-.013.004-.016-.004a2.9 2.9 0 0 1-1.113-1.896 3 3 0 0 1 .154-1.096c.18-.6.438-1.175.771-1.716q.069.17.113.35c.078.18.195.34.341.47z"/><path fill="#c2d1d3" d="M82.267 19.041c.22.975.25 1.959.079 2.954a.25.25 0 0 0 .02.15q.181.383.617 1.146 1.077 1.862.346 4.067a7.05 7.05 0 0 0-1.387-3.433.33.33 0 0 1-.055-.313c.177-.498.231-1.03.159-1.554-.4-1.77-1.405-3.633-3.18-4.196a1.15 1.15 0 0 0-.512-.058.316.316 0 0 0-.267.283c-.066.754-.125 1.446-.329 2.058a5.1 5.1 0 0 1-1.583 2.363q-1.98 1.663-4.704 1.225a4.9 4.9 0 0 1-3.275-1.988 3 3 0 0 1-.538-1.295q-.15-1.25.95-2.105.15 1.55 1.275 2.3c1.184.792 2.459.988 3.834.596a3.5 3.5 0 0 0 1.25-.6c.366-.289.67-.649.895-1.058q.095-.18.65-1.63c.125-.324.28-.54.463-.808a.2.2 0 0 1 .046-.05l.366-.275a.1.1 0 0 1 .025-.016c1.488-.667 2.692-.163 3.759.925q.055.05.091.058.021.002.03.017l.65.72a.27.27 0 0 1 .066.163q.026.28.258.354"/><path fill="#798b98" d="M40.775 17.458a.1.1 0 0 1-.02-.083.2.2 0 0 1 .02.083M65.2 20.97c-.625.2-1.283.263-2.025.338l-.187-.167A7 7 0 0 0 64 18.933a.03.03 0 0 1 .017-.008l.017.004.008.012a7.7 7.7 0 0 0 1.158 2.03"/><path fill="#c2d1d3" d="M29.621 19.855c.22.445.417.912.57 1.391q.18.406.46.75.567.77 1.2 1.409c.112.116.387.108.395-.092a.03.03 0 0 1 .05-.021q.065.069.067.112-.015.255.02.509l-.062-.009a.042.042 0 0 0-.042.063 7.3 7.3 0 0 0 1.125 1.525.4.4 0 0 0 .113.083l.837.446c.625.33 1.238.846 1.755 1.196a.8.8 0 0 0 .22.1c.584.167 1.138.42 1.667.775a12.2 12.2 0 0 1-3.675-.18 6.1 6.1 0 0 1-3.546-2.166c-1.025-1.25-1.629-2.716-1.808-4.387l.292-1.584zm-9.08.145c-.016.28-.053.717-.103 1.313a.5.5 0 0 1-.163.35q-.655.6-1.191 1.312c-.4-.025-.184-.612-.059-.825q.665-1.1 1.517-2.15m45.584 6.625a4.7 4.7 0 0 1 .125-1.387.3.3 0 0 0 0-.142 1.5 1.5 0 0 0-.45-.791q-.33-.297-.65-.605c-.083-.079-.25-.175-.287-.233q-.38-.395-.771-.78c-.104-.103-.204-.262-.317-.4a2.5 2.5 0 0 1-.225-.312 16 16 0 0 1-.375-.666c.742-.075 1.404-.138 2.025-.334q.855.98 1.304 1.292c1.059.73 1.909 1.233 2.567 2.063q.513.642.346 1.366a1.61 1.61 0 0 1-1.25 1.142 3.45 3.45 0 0 1-2.042-.213"/><path fill="#f9fbfc" d="m62.987 21.143.188.166q.187.353.375.667.1.165.225.312c.112.142.208.296.316.4q.764.762.771.78c.034.058.209.158.292.237q.27.262.646.604.338.312.45.792a.3.3 0 0 1 0 .142c-.113.45-.154.916-.125 1.383l-.83-.375a.03.03 0 0 0-.041.012q-.008.013-.004.025l.012.017c.446.392.942.75 1.48 1.083a.7.7 0 0 0-.192.159.07.07 0 0 0 0 .079q.148.197.333.358c.159.142.271.25.338.334q.448.58.754 1.25a6.8 6.8 0 0 1 .75 1.791.2.2 0 0 1 0 .084c-.008.095.054.141.067.27a3.33 3.33 0 0 1-.925 2.805c-.292.308-.609.637-.976.941-.18.15-.335.33-.458.53a.06.06 0 0 1-.029.02.06.06 0 0 1-.037 0 .054.054 0 0 1-.034-.058c.042-.363.092-.767.138-1.208a2.8 2.8 0 0 0-.03-1.046 2.8 2.8 0 0 0-.383-.854q-.33-.429-.65-.867l-.496-1.242a.2.2 0 0 0-.058-.083c-.75-.658-1.087-1.417-1.833-1.85a226 226 0 0 1-1.18-.7 9 9 0 0 1-.779-.554A9 9 0 0 0 60.021 27a.18.18 0 0 0-.13-.013.65.65 0 0 1-.504-.045c-.104-.055-.22-.055-.312-.113a3.2 3.2 0 0 0-.813-.387l-.779-.417a.6.6 0 0 1-.183-.163l-.6-.75a.2.2 0 0 0-.067-.054c-.362-.179-.825-.2-1.237-.237a.04.04 0 0 0-.026.007.04.04 0 0 0-.016.022q0 .014.008.025.354.13.713.25c.47.154.783.667.991 1.092a.14.14 0 0 0 .059.058q.134.083.283.133c.463.121.875.267 1.225.434q.58.274 1.467.766a.2.2 0 0 1 .058.05l.033.042c.061.07.146.114.238.125q.162.02.225.133a.1.1 0 0 0 .07.05.2.2 0 0 1 .084.021q.973.576 1.608 1.22c.542.55.967.98 1.276 1.28q.473.47.641.7c.442.617.792 1.046 1.042 1.708q.148.407.216 1.013a32 32 0 0 1 .18 2.475c.02.717-.109 1.708-.125 2.346-.063 2.283-.1 3.616-.117 4.012q-.036 1.25-.142 3.354-.086 1.812-.129 3.355.006.276-.05.545a.1.1 0 0 0 0 .071c.034.084.025.142-.016.192a.07.07 0 0 0-.009.083q.069.102 0 .209a.07.07 0 0 0 0 .083.1.1 0 0 1 .008.092.3.3 0 0 0-.02.116c.004.063 0 .371-.021.917-.009.167-.084.358-.034.5a.16.16 0 0 1-.008.12l-.05.292q-.273 1.686-1.967 1.642a1.6 1.6 0 0 1-.508-.067.7.7 0 0 0-.237-.075.4.4 0 0 1-.096-.008 43 43 0 0 0-1.959-.517 2.4 2.4 0 0 0-.991-.112 7 7 0 0 1-1.246.204c-.033 0-.104 0-.22-.012a1.83 1.83 0 0 1-1.418-.875.04.04 0 0 0-.02 0 .04.04 0 0 0-.042.029q-.587 1.73.708 2.929.033.03.109.037a.06.06 0 0 0-.005.034q0 .017.013.029c.325.333.667.53 1.192.654.608.146 1.154.375 1.479.942q.105.187.541.887c.042.054.084.1.146.134.276.158.522.364.725.608a32 32 0 0 1-.87-.333 10 10 0 0 0-1.5-.471 4.33 4.33 0 0 0-2.559.241c-.704.275-1.458.542-2.183.675a1.53 1.53 0 0 1-.883-.133v-1.4c0-.017-.009-.03-.013-.042a.1.1 0 0 0-.025-.041c-1.654-1.513-2.942-2.688-4.133-4.18a.13.13 0 0 1-.03-.074.07.07 0 0 0-.041-.063c-.133-.062-.192-.28-.267-.375a14 14 0 0 1-.637-.937.2.2 0 0 1-.03-.084c-.004-.058-.087-.116-.133-.179a5.35 5.35 0 0 0-1.737-1.658c-.45-.263-1.213-.542-1.684-.875a5.6 5.6 0 0 1-1.187-1.18 4 4 0 0 1-.396-.558c-.054-.096-.167-.179-.217-.266a.11.11 0 0 1 0-.113c.313-.53.15-1.133-.158-1.646a17 17 0 0 0-1.375-1.933l-.392-.304a.5.5 0 0 1-.158-.104 47 47 0 0 1-.508-.746 5.6 5.6 0 0 0-1.242-1.2 7 7 0 0 0-.55-.409 7 7 0 0 1-.542-.416 19 19 0 0 0-.97-.775l-1.584-1.25a.06.06 0 0 0-.077.005l-.014.024-.013.042a.14.14 0 0 0 .063.158q.73.436 1.062.692c.417.316.483.691.688 1.129.129.279.25.566.416.725.304.291.446.304.888.441.304.092.583.334.825.584.441.475.7.75.762.825a.4.4 0 0 0 .084.075c.395.258.779.483.7 1.02a.18.18 0 0 1-.067.113.4.4 0 0 0-.15.196c.172.295.285.62.333.958.033.309-.025.75.042 1.092.094.498.335.956.692 1.317.156.218.265.466.32.729l-.17.283a.6.6 0 0 1-.076.1c-.279.292-.416.617-.25 1.033q.014.04.017.08l.075.804a.04.04 0 0 0 .033.033l.021-.004a.04.04 0 0 0 .017-.017q.098-.188.117-.4a.21.21 0 0 1 .096-.17c.724-.463 1.437-.492 2.129-.084.366.208.875.613 1.529 1.196 1.02.917 1.775 1.97 2.27 3.17a.32.32 0 0 1 .022.188 4.2 4.2 0 0 1-.3 1.034l-.475 1.041a1 1 0 0 0-.059.175c-.129.625-.137 1.554-.346 2.225a6 6 0 0 1-.783 1.592c-.258.383-.692.717-1.013 1.03-.223.197-.38.459-.45.75q-.032.36-.041.72c-.033.7.267 1.05.979 1.15a.1.1 0 0 1 .07.042.1.1 0 0 1 .018.041v.046l-.488 1.72a7.6 7.6 0 0 1-.137 1.763.18.18 0 0 1-.109.13.18.18 0 0 1-.166-.021l-1.009-.717a.1.1 0 0 0-.033-.012.13.13 0 0 1-.096-.034.7.7 0 0 0-.133-.116q-.456-.249-.888-.538-.435-.279-.883-.533a78 78 0 0 1-3.042-1.809q-.18-.122-.354-.25a1.85 1.85 0 0 0-.713-.3c.017 0 .021-.033 0-.1.13-.517.38-.996.73-1.4a.4.4 0 0 0 .062-.1l.571-1.241q.462-.458.867-.967c.3-.375.7-.675 1.104-1.042.083-.083.337-.458.254-.625-.025-.062-.03-.108 0-.137.02-.033.02-.08 0-.13q-.051-.098-.008-.166l.004-.017-.017-.416a.1.1 0 0 1 .03-.071l.529-.508a.08.08 0 0 0 .016-.084l-.012-.025-.005-.004a.06.06 0 0 0-.05-.02.06.06 0 0 0-.045.02l-.554.6a.13.13 0 0 0-.034.092l.063.996c0 .016 0 .037-.009.054-.084.198-.219.37-.391.5q-.642.491-1.271 1a3.9 3.9 0 0 0-.896.983c-.47.76-.85 1.57-1.133 2.417a.1.1 0 0 1-.125.02 50 50 0 0 1-4.771-3.229.5.5 0 0 1-.084-.079 2.7 2.7 0 0 0-1.02-.75 11.5 11.5 0 0 1-.6-1.837 43 43 0 0 1-.913-4.609.03.03 0 0 0-.017-.012c-.016-.004-.024 0-.016.012l-.159-1.408a.07.07 0 0 0-.042-.054.1.1 0 0 0-.04 0 .1.1 0 0 0-.03.017q-.157.162-.354.275a2.9 2.9 0 0 1-1.142.416 5.25 5.25 0 0 1-3.25-.633.3.3 0 0 1-.058-.05c-.154-.163-.354-.225-.525-.375a9.8 9.8 0 0 1-1.9-2.217 6 6 0 0 1-.525-1.066 7 7 0 0 1-.346-1.142 85 85 0 0 1-.488-2.95 5.6 5.6 0 0 1-.116-1.233 2 2 0 0 0 0-.43.3.3 0 0 0 .041-.116q.044-.18.192-.117l.009.042c-.009.179.075.375.1.5.308 1.67.541 3.016 1.154 4.458.243.586.564 1.137.954 1.638l.591.55a.1.1 0 0 0 .063.025l.054.004h.017a.03.03 0 0 0 .012-.034l-.004-.012a7.7 7.7 0 0 1-.87-1.133 57 57 0 0 0-.888-1.55l.004-.025.017-.017a8.5 8.5 0 0 1 2.47-.03c.127.315.345.585.626.776q1.116.557 2.358 1.07c.837.346 1.592.155 1.767-.854l.666.359q.026.015.054.016.064.001.146.034a2.15 2.15 0 0 0 1.1.146c.1-.013.183.041.267-.009q.166-.094.258-.083c.025 0 .046 0 .067-.013.3-.146.579-.336.825-.562a3.27 3.27 0 0 0 .875-2.55c1.108-1.275 1.329-3.104.692-4.646a16 16 0 0 0-.334-.767.1.1 0 0 1-.004-.075.1.1 0 0 1 .042-.058l1.362-.796a6 6 0 0 0 1.563-2.387q.444-1.29.512-1.467a5.54 5.54 0 0 1 2.184-2.775c.441-.292 1.129-.617 1.508-.792.554-.262 1.204-.75 1.72-1.091a.7.7 0 0 0 .142-.121l1.596-1.792c.321-.358.68-.42 1.18-.404.783.03 1.4.042 1.85.02a10.4 10.4 0 0 0 5.233-1.59q.787-.488 1.45-.917c.583-.375 1.375-.305 2.025-.305 2.741 0 5.229-1.308 6.866-3.495m-21.562 10.25c.075-.146.1-.246.062-.292l-.158-.238a.125.125 0 0 0-.217.034l-.208.554a.1.1 0 0 0-.008.03l-.021.532a.2.2 0 0 0 .062.15l.013.009a.084.084 0 0 0 .119.004.1.1 0 0 0 .023-.038q.125-.366.333-.745M39.945 37q.778.268 1.584.43c1.237.166 2.467.39 3.683.69q.269.057.542.067c.265.242.564.443.888.596l.529.159c.858.275 1.666.475 2.433.608 1.188.2 2.233.192 3.346-.083q.195-.047.375-.134a.14.14 0 0 0 .091-.025c.017-.02.034-.029.042-.025q.02.007.025.021a.1.1 0 0 1 .013.03v.028a1.8 1.8 0 0 1-.654.388 6.7 6.7 0 0 1-3.692.083.06.06 0 0 0-.068.02l-.011.022-.43 1.53a.1.1 0 0 0 0 .04c0 .01 0 .022.009.034q.02.032.058.042 1.274.343 2.642.316a12 12 0 0 0 2.041-.312c.292-.08.626-.208 1.017-.404.185.231.447.388.738.441 1.295.242 2.954-.541 3.983-1.333 1.046-.808 1.946-1.73 2.942-2.667-.054.417-.054.8-.013 1.138.013.108-.041.17-.008.262q.027.09.029.184.057 1.5-.362 2.837c-.375 1.225-.9 2.646-1.567 4.263-.188.45-.438.854-.658 1.275a.3.3 0 0 0-.025.083c-.038.183-.167.32-.238.533v.013l.008.012.013.009.017-.004q.024-.014.062-.146a.4.4 0 0 1 .083-.167c.154-.167.217-.442.359-.646.74-.998 1.328-2.1 1.745-3.27q.488-1.434.909-2.888l.133-.22a.3.3 0 0 1 .063-.076 1.47 1.47 0 0 0 .466-.946q.002-.045-.008-.083a1.7 1.7 0 0 1-.092-.542c0-.646-.016-1.333-.058-2.062a.5.5 0 0 1 .125-.367l.68-.767.016-.012 1.046-.833a.6.6 0 0 1 .125-.075c.216-.107.414-.249.583-.421.042-.042.063-.084.054-.125a.05.05 0 0 0-.083-.025l-.213.208a6.1 6.1 0 0 0-1.933 1.57q-.13.15-.288.272h-.029a.06.06 0 0 1-.037-.05 4.73 4.73 0 0 0-.892-2.459 3 3 0 0 0-.412-.433q-.266-.236-.542-.458l-.946-.5-.02-.009a.56.56 0 0 1-.288-.104 15 15 0 0 0-1.154-.375 31.4 31.4 0 0 0-6.267-.775 56 56 0 0 0-2.308 0c-.105 0-.209-.037-.288.009l-.025.004-2.408.191-.021.009a1 1 0 0 1-.217.058 28 28 0 0 0-3.058.675q-1.042.287-1.88.68c-.958.44-1.562.733-1.812.862a28 28 0 0 0-3.337 2.162.08.08 0 0 0-.034.075.08.08 0 0 0 .05.059l.584.216h.012c.104-.016.209.084.309.125q.937.337 1.925.492m-1.8 9.617c.009.025.021.041.026.041a.03.03 0 0 0 .025 0l.009-.008.003-.013a.3.3 0 0 0-.033-.05h-.025a.02.02 0 0 0-.008.013zm.309.354a.3.3 0 0 0-.062-.092l-.009-.008h-.012l-.017.008a.03.03 0 0 0-.004.018q0 .009.008.015l.071.075.008.005h.013l.004-.013zm.117.125c0-.009-.013-.021-.025-.034a.025.025 0 0 0-.034 0 .02.02 0 0 0-.008.017.02.02 0 0 0 .008.017.1.1 0 0 0 .042.02l.012-.004v-.016zm.17.27.009.005.004.004zm19.196 3.484-.104.067-.008.008v.012l.012.009h.013a.2.2 0 0 0 .108-.075v-.017l-.012-.004zm-1.375 1.242.05-.075V52a.02.02 0 0 0-.012-.008h-.013a.02.02 0 0 0-.012.004.17.17 0 0 0-.042.083v.013l.008.008h.013zm-.058.166q-.025.012-.025.042l.008.004h.009l.02-.033v-.013zm-15.787.584c-.009 0-.026.008-.042.025l-.006.011q-.001.008.002.014l.008.008h.012a.1.1 0 0 0 .042-.008.03.03 0 0 0 .009-.013.025.025 0 0 0-.017-.033c-.003 0-.006-.005-.008-.004"/><path fill="#c2d1d3" d="M28.892 21.826c.004.901.198 1.792.57 2.613a.05.05 0 0 1-.038.04l-.02.001a32 32 0 0 0-2.062-.458 7.42 7.42 0 0 0-6.113 1.48c-.704.55-1.358 1.332-2.029 2.207l-.25-.25a.06.06 0 0 0-.062-.008 3 3 0 0 1-.267.33c-.025.033-.05.045-.067.04a.06.06 0 0 1-.041-.028.05.05 0 0 1 0-.05c.312-.546.391-1.188.574-1.696.396-1.092 1.259-1.913 2.234-2.604.202-.145.428-.255.666-.325.971-.292 2.034-.271 3.096-.25.38 0 .742.016 1.084.033a.6.6 0 0 0 .204-.025l1.483-.492a3.8 3.8 0 0 0 .917-.516h.025l.025.016.025.009c.025 0 .046-.025.046-.067"/><path fill="#798b98" d="M82.042 22.058a3.3 3.3 0 0 1-.155 1.554.33.33 0 0 0 .055.313q1.1 1.4 1.387 3.433a2.1 2.1 0 0 1-.775 1.333c-.7.559-1.162.096-1.375-.587a.3.3 0 0 1-.017-.1c.017-.746-.02-1.238.055-1.854l.2-1.909c.083-.783-.455-1.554-1.096-1.945a.05.05 0 0 1-.019-.022.05.05 0 0 1-.002-.029.04.04 0 0 1 .012-.02.04.04 0 0 1 .03-.013zm-2.75.942q0-.014.012-.021l.014-.003q.008 0 .014.004a.03.03 0 0 1 .014.024q.13.968-.096 1.875c-.417 1.658-2.063 2.158-3.592 2.033a.04.04 0 0 1-.02-.008.04.04 0 0 1-.013-.017l-.004-.017v-.02a3.6 3.6 0 0 1 1.266-1.45c.625-.459 1-.738 1.13-.85q.481-.407 1.02-1.05a1.3 1.3 0 0 0 .25-.5zm-46.909.916.688.917a.9.9 0 0 0 .466.492.03.03 0 0 1 0 .025.14.14 0 0 0-.016.083c0 .025.025.046.062.058.375.105.821.396 1.271.6q.056.027.104.067.815.674.992.767.78.363 1.596.637c.029.004.087.05.183.142a.1.1 0 0 0 .025.017l.654.333a1 1 0 0 0-.408.033 6 6 0 0 0-1.67-.77.8.8 0 0 1-.222-.1c-.516-.35-1.129-.867-1.75-1.197l-.841-.445a.4.4 0 0 1-.113-.084 7.3 7.3 0 0 1-1.133-1.55.04.04 0 0 1 .015-.032.04.04 0 0 1 .035-.01z"/><path fill="#c2d1d3" d="M66.742 27.383q.93.445 2.237.834a7.3 7.3 0 0 1 1.683.775c1.513.929 2.434 2.396 2.53 4.183.062 1.175-.4 2.208-1.688 2.363q-.455.037-.912.045c-1.034.034-2 .234-2.642 1.125-.483.667-.583 1.425-.617 2.305q-.155 3.875-.516 14.025c-.03.829-.125 1.283-.542 1.904-.733 1.091-2.083 1.033-3.18.637a31 31 0 0 1-1.724-.666 5.4 5.4 0 0 0-1.409-.471c-1.125-.096-2.262.412-2.791 1.441a.2.2 0 0 1-.108-.033c-.863-.8-1.1-1.78-.709-2.93l.017-.02a.04.04 0 0 1 .025-.008.05.05 0 0 1 .041.02 1.83 1.83 0 0 0 1.617.867 7 7 0 0 0 1.25-.204 2.4 2.4 0 0 1 .983.108q1.644.411 1.963.517a.4.4 0 0 0 .096.013.7.7 0 0 1 .237.07c.084.042.25.063.509.067q1.69.05 1.966-1.637l.05-.292a.17.17 0 0 0 .009-.12c-.05-.147.025-.334.033-.5q.02-.459.02-.918-.002-.055.022-.116a.1.1 0 0 0-.009-.092.08.08 0 0 1 0-.083.18.18 0 0 0 0-.209.07.07 0 0 1 .009-.083c.041-.05.05-.112.016-.192a.1.1 0 0 1 0-.07q.057-.27.05-.546c.03-1.034.071-2.15.13-3.359q.104-2.099.141-3.354.024-.588.117-4.008c.016-.638.146-1.63.125-2.346a30 30 0 0 0-.18-2.475 4.2 4.2 0 0 0-.216-1.008c-.25-.667-.6-1.096-1.042-1.713a7 7 0 0 0-.641-.7q-.642-.638-1.275-1.283-.636-.643-1.609-1.217a.3.3 0 0 0-.083-.02.09.09 0 0 1-.07-.05q-.063-.121-.226-.134a.38.38 0 0 1-.27-.167.2.2 0 0 0-.059-.054 29 29 0 0 0-1.467-.762 7 7 0 0 0-1.225-.434 1.3 1.3 0 0 1-.283-.133.14.14 0 0 1-.058-.062c-.209-.425-.521-.938-.992-1.084a24 24 0 0 1-.713-.254.04.04 0 0 1-.004-.025.04.04 0 0 1 .042-.03c.408.034.87.06 1.233.234q.041.021.067.059l.596.75q.079.1.191.158l.776.417.02.012c.28.088.547.214.792.375.092.063.208.063.313.117.166.083.333.1.504.041a.18.18 0 0 1 .125.013q.888.425 1.045.55.543.411.78.554l1.183.7c.742.43 1.083 1.188 1.833 1.85a.2.2 0 0 1 .054.083l.492 1.242.013.02.641.847c.175.26.305.547.384.85.07.233.083.583.029 1.05-.046.441-.096.846-.138 1.208a.05.05 0 0 0 .02.049.05.05 0 0 0 .051.01.05.05 0 0 0 .034-.021q.185-.304.458-.534c.362-.3.675-.633.97-.937a3.33 3.33 0 0 0 .926-2.809c-.017-.125-.08-.17-.063-.266 0-.03 0-.059-.008-.088a6.9 6.9 0 0 0-.796-1.891 6.3 6.3 0 0 0-.704-1.146 3 3 0 0 0-.338-.334 2.3 2.3 0 0 1-.333-.362.066.066 0 0 1 0-.083.7.7 0 0 1 .192-.155m-.763 9.821-.002-.007-.006-.005h-.013s-.008 0-.012.008l-.008.013c0 .008 0 .02.012.033l.008.008h.013l.008-.004.004-.012v-.03zM41.796 24.958l1.833.209q.013-.002.025.008.014.01.021.025v.03a7.2 7.2 0 0 1-5.27 2.828l-.65-.337a.1.1 0 0 1-.026-.017q-.138-.136-.183-.141a15 15 0 0 1-1.596-.642 10 10 0 0 1-.992-.763.5.5 0 0 0-.104-.066c-.45-.209-.892-.5-1.27-.6-.042-.013-.059-.034-.063-.059q-.002-.044.02-.083a.03.03 0 0 0 0-.03l-.008-.003a.9.9 0 0 1-.462-.488q.777.511 1.317.746.774.309 1.566.567l.23.012q.704.17 1.42.28c1.334.095 2.542-.209 3.63-.926.22-.145.41-.332.562-.55"/><path fill="#f9fbfc" d="M34.07 29.77q-.218.22-.47.4-.14.091-.258.208a3 3 0 0 1-.242.238q-.188.17-.342.37-.448.565-.746.984c-.137.196-.333.38-.541.604q-.208.226-.467.392a6.3 6.3 0 0 1-1.283.637.5.5 0 0 1-.242.038.08.08 0 0 0-.07.017l-.017.012a.2.2 0 0 1-.096.042l-.85.104a.3.3 0 0 1-.1 0 3 3 0 0 0-.342-.042 2.5 2.5 0 0 1-.388-.05 5.8 5.8 0 0 1-1.941-.762.07.07 0 0 0-.092.02l-.687.959a.07.07 0 0 1-.057.028.07.07 0 0 1-.056-.028c-.983-1.27-2.17-2.154-3.85-2.092-1.525.059-2.692.759-3.5 2.109-.079.137-.146.304-.229.445a.15.15 0 0 1-.083.067 9.3 9.3 0 0 0-2.488 1.308q-.5.365-.946.83c-.641-3.146.159-6.45 2.488-8.638.216-.21.464-.385.733-.52q.01 0 .02.005a.04.04 0 0 1 .018.053c-.103.352-.12.723-.05 1.083.133.667.77.992 1.404.942.6-.05 1.225-.55 1.604-1.013q.844-1.025 1.15-1.358c1.458-1.575 4.02-2.438 6.02-1.525.667.304 1.234.804 1.697 1.487a2.75 2.75 0 0 1 .437 1.963c-.179 1.191-1.458 1.916-2.308.762a.03.03 0 0 0-.034-.012.03.03 0 0 0-.024.029q-.002.431.216.762a2.04 2.04 0 0 0 2.254.917c.659-.133 1.2-.546 1.759-.97a4.04 4.04 0 0 1 3-.805"/><path fill="#c2d1d3" d="M15.02 37.5a3.37 3.37 0 0 0-.016 1.832q.08.306.23.705.13.356.716 1.25c.063.091.117.237.167.266.137.096.158.196.245.354a.1.1 0 0 0 .026.034l.908.779q.009.01.012.02a.054.054 0 0 1-.016.067h-.063q-.495-.302-.896-.72a10.4 10.4 0 0 1-2.641-5.48c.291-.312.608-.587.941-.833a9.4 9.4 0 0 1 2.492-1.304.15.15 0 0 0 .08-.067c.083-.141.15-.312.228-.446q1.213-2.026 3.5-2.108c1.68-.062 2.867.82 3.85 2.096a.07.07 0 0 0 .088.017.1.1 0 0 0 .025-.021l.687-.959a.07.07 0 0 1 .092-.02 5.7 5.7 0 0 0 1.942.762q.205.038.387.05.172.007.342.038a.3.3 0 0 0 .1 0l.85-.105a.2.2 0 0 0 .096-.037l.016-.013a.1.1 0 0 1 .071-.02q.09.019.242-.038a6.3 6.3 0 0 0 1.283-.633 2.4 2.4 0 0 0 .467-.392c.208-.225.404-.408.542-.604q.36-.504.745-.988.154-.198.342-.366.128-.112.242-.238.118-.116.258-.208.252-.18.47-.4a5.2 5.2 0 0 1 1.184.108q.806.18 1.613.363a.03.03 0 0 1 0 .033 3.8 3.8 0 0 0-2.113 1.442c-.396.541-.72 1.437-1.029 1.979-.9 1.57-2.404 2.558-4.2 2.637-1.237.055-2.292-.191-3.25-.933a12 12 0 0 1-.975-.825c-.42-.404-.75-.592-1.25-.95-1.833-1.312-4.467-1.146-5.992.567a2.055 2.055 0 0 0 .175 3.02q.2.181.475.388a.27.27 0 0 1 .105.263 3.14 3.14 0 0 1-.634 1.383c-.429.542-1.262.4-1.741-.017A3.86 3.86 0 0 1 15.15 36.8l-.015-.005a.03.03 0 0 0-.028.012l-.007.014zm26.405-6.113q-.207.381-.333.75a.09.09 0 0 1-.108.057.1.1 0 0 1-.038-.024l-.008-.008a.2.2 0 0 1-.063-.15l.02-.538.005-.025.208-.554a.125.125 0 0 1 .168-.076q.032.014.053.043l.158.233c.038.05.013.15-.062.292m20.646 6.183a3.38 3.38 0 0 0-.488-2.063c-1.275-2.258-3.891-2.695-6.254-2.9-1.22-.108-3.387-.291-4.179.784-.142.187-.212.45-.292.67a.09.09 0 0 1-.075.063 17.5 17.5 0 0 0-4.291 1.18l-2.417 1a9.2 9.2 0 0 1-4.13.7c-.655-.103-1.3-.267-1.924-.492-.104-.042-.209-.146-.309-.125h-.016l-.58-.217a.08.08 0 0 1-.05-.063.08.08 0 0 1 .034-.075c1.18-.875 2.292-1.591 3.342-2.158.245-.133.846-.417 1.808-.867a12 12 0 0 1 1.88-.675 28 28 0 0 1 3.062-.675 1 1 0 0 0 .233-.066l2.408-.192q.013.002.025-.008c.084-.042.184-.004.288-.009a60 60 0 0 1 2.308.005c2.111.048 4.212.31 6.271.779q.584.165 1.154.375a.56.56 0 0 0 .284.1l.02.004.946.508c.38.226.707.53.959.892.528.724.84 1.584.9 2.48a.06.06 0 0 0 .058.024q.156-.12.287-.27.351-.438.709-.75.585-.45 1.22-.822l.209-.208a.06.06 0 0 1 .054-.017l.02.017a.05.05 0 0 1 .013.025q.014.062-.054.125-.257.258-.583.417a.6.6 0 0 0-.125.083l-1.046.833-.017.009-.679.766a.5.5 0 0 0-.125.367c.042.73.058 1.417.058 2.058q0 .28.088.542.016.042.012.088c-.034.36-.2.695-.466.941a.3.3 0 0 0-.063.08l-.133.22a12.6 12.6 0 0 1-2.65 6.159c-.146.2-.208.475-.358.641a.4.4 0 0 0-.088.167q-.038.138-.062.15h-.017l-.013-.004-.008-.013v-.016c.071-.209.2-.346.238-.534a.3.3 0 0 1 .025-.083c.22-.417.47-.825.658-1.27.667-1.622 1.192-3.043 1.567-4.263q.419-1.338.362-2.838a.6.6 0 0 0-.029-.183c-.033-.092.02-.159.008-.263a4.6 4.6 0 0 1 .013-1.133"/><path fill="#081a2b" d="M62.07 37.572c-.995.934-1.895 1.855-2.94 2.663-1.03.792-2.688 1.575-3.984 1.333a1.23 1.23 0 0 1-.738-.446 4.2 4.2 0 0 1-.15-1.541.166.166 0 0 0-.116-.171l-.654-.192c.275-.612.416-1.141.433-1.583.042-1.017-.654-1.72-1.592-1.996-1.5-.437-3.279-.112-4.637.654-.554.309-.863.742-1.342 1.292a.075.075 0 0 0-.012.087l.112.209-.696.312a3 3 0 0 1-.541-.07 35 35 0 0 0-3.684-.688 12 12 0 0 1-1.491-.388q.032-.067.033-.041a9.2 9.2 0 0 0 4.004-.696l2.417-1a17.5 17.5 0 0 1 4.291-1.18.09.09 0 0 0 .075-.062c.08-.225.15-.487.292-.675.792-1.075 2.958-.887 4.18-.783 2.362.208 4.978.646 6.253 2.904.38.616.55 1.338.488 2.058"/><path fill="#798b98" d="M53.488 39.215a6.4 6.4 0 0 0-3-1.654 6.6 6.6 0 0 0-4.042.317l-.108-.209a.1.1 0 0 1-.009-.041c0-.017.009-.034.021-.042.48-.554.788-.988 1.342-1.3 1.358-.763 3.137-1.083 4.637-.65.938.275 1.63.98 1.592 2a4.5 4.5 0 0 1-.433 1.58m-31.113-3.712a3.8 3.8 0 0 0-.192 1.179c-.31.081-.595.235-.833.45-.554.5-.767 1.237-.77 1.979-.005.375 0 .625.008.758a1.05 1.05 0 0 0-.559.446l-.316.517c-.064-.785-.04-1.575.07-2.354.209-1.542.938-2.771 2.592-2.975"/><path fill="#c2d1d3" d="M22.183 36.682q0-.599.192-1.18c.737-.066 1.325.134 1.762.588.938.987 1.167 2.125 1.367 3.475l.012.083a.08.08 0 0 1-.059.05.08.08 0 0 1-.074-.02c-1.154-1.117-1.258-3.113-3.2-2.996"/><path fill="#798b98" d="M40.071 37q0-.02-.033.04-.065-.002-.092-.04a.17.17 0 0 1 .125 0m25.908.203q.008.015.005.034l-.005.012-.008.004h-.013l-.008-.008-.012-.033.008-.013.013-.008h.016l.009.012z"/><path fill="#c2d1d3" d="m53.491 39.216.65.191a.166.166 0 0 1 .117.171c-.05.483 0 1 .154 1.542q-.49.255-1.02.408-1.008.243-2.042.313a9.5 9.5 0 0 1-2.675-.334.1.1 0 0 1-.038-.062v-.038l.438-1.525a.07.07 0 0 1 .075-.046 6.7 6.7 0 0 0 3.687-.083c.244-.082.468-.214.659-.387a.1.1 0 0 0 0-.034.06.06 0 0 0-.038-.046c-.008 0-.025 0-.042.021q-.095-.026-.091.03-.18.089-.375.137a7.9 7.9 0 0 1-3.346.08 18 18 0 0 1-2.433-.61q-.264-.084-.53-.158a3.6 3.6 0 0 1-.887-.595l.696-.313a6.59 6.59 0 0 1 6.379.77c.242.18.458.368.662.568"/><path fill="#798b98" d="M15.02 37.5c.084.175.197.496.355.958.47 1.425 1.775 2.592 3.325 2.73a.283.283 0 0 1 .258.279v.379a.14.14 0 0 1-.054.108q-.677.53-1.442.925-.1.056-.233-.07.05.012.063 0l.016-.017.005-.025v-.025l-.017-.021-.909-.78a.1.1 0 0 1-.024-.033c-.088-.154-.109-.258-.25-.35-.042-.033-.1-.175-.167-.27a8 8 0 0 1-.713-1.25 8 8 0 0 1-.229-.7 3.37 3.37 0 0 1 .017-1.838m13.53 4.404a3.6 3.6 0 0 0 1.7.48q.18 0 .342-.092a.05.05 0 0 0 .027-.055l-.006-.02a6 6 0 0 0-.267-.492c-.667-.617-1.354-.77-2.225-.95a1.6 1.6 0 0 1-.546-.27l-.45-.613c-.3-.658-.49-1.36-.562-2.08a.04.04 0 0 1 .041-.025q.012.002.021.009l1.462.841a.1.1 0 0 0 .042.013q1.413-.143 2.163-.067a2.65 2.65 0 0 1 2.266 1.917c.217.792.03 1.908-.641 2.47-1.234 1.038-2.792.222-3.367-1.066m8.292-2.308q-.018.186.183.291a.1.1 0 0 1 .033.034.1.1 0 0 1 .005.05l-.021.07a.12.12 0 0 0 .016.096c.242.392.142.971.771 1a.3.3 0 0 1 .146.042q.763.419.946.613l.875.887c.208.217.496.367.858.458a.4.4 0 0 0 .158.109.35.35 0 0 1-.062.183.12.12 0 0 0-.017.083q.12.749.6 1.28.232.248.284.316.184.25.396.475h-.009v.004l-.012.005h-.013c-.379-.342-.642-.613-.87-.792a1.03 1.03 0 0 1-.292-.5.05.05 0 0 0-.025-.03l-.025-.008h-.017l-.325.113a.4.4 0 0 1 .15-.196.18.18 0 0 0 .067-.112c.083-.538-.305-.767-.696-1.021a.4.4 0 0 1-.088-.075q-.376-.415-.762-.821a2.1 2.1 0 0 0-.825-.592c-.442-.137-.584-.15-.888-.437-.166-.159-.287-.446-.416-.725-.209-.442-.271-.813-.688-1.134a12 12 0 0 0-1.062-.687.14.14 0 0 1-.059-.07.14.14 0 0 1 0-.088l.009-.042a.06.06 0 0 1 .066-.04q.014.002.025.01zm16.575-.288a.14.14 0 0 1-.092.03c0-.042.025-.05.092-.03"/><path fill="#c2d1d3" d="M40.654 43.141a1.8 1.8 0 0 1-.862-.458l-.871-.892q-.186-.193-.946-.612a.3.3 0 0 0-.146-.042c-.625-.029-.53-.608-.77-1a.13.13 0 0 1-.017-.096l.02-.066a.1.1 0 0 0 0-.05.08.08 0 0 0-.037-.042q-.201-.103-.183-.292c.333.25.654.513.966.78q.23.198.546.416.35.239.55.409.102.08.208.154c.39.303.737.656 1.034 1.05zm-20.067-3.266.125 1.975c-.104-.042-.166 0-.195.12q-.037-.017-.055.021t.013.096q.034.272-.008.542c.012.433.05.808.125 1.12q.217 1.48.487 2.95c.042.255.158.638.346 1.138q.225.589.525 1.071a9.7 9.7 0 0 0 1.9 2.22c.167.147.375.21.525.372q.025.03.062.05 1.464.83 3.246.629a2.9 2.9 0 0 0 1.142-.413q.197-.112.354-.275a.07.07 0 0 1 .067-.016.07.07 0 0 1 .046.05l.158 1.412a5.33 5.33 0 0 1-4.963-.691 7.8 7.8 0 0 1-2.016-1.984A11.7 11.7 0 0 1 21 47.387a19 19 0 0 1-.583-2.15 57 57 0 0 1-.542-2.875 14 14 0 0 1-.163-1.533c.117-.18.221-.354.317-.513a1.04 1.04 0 0 1 .558-.441m7.963 2.029a6 6 0 0 1-1.067-1.225 2.7 2.7 0 0 1-.358-.792l.45.617c.162.125.348.217.546.27.87.18 1.558.334 2.225.95a5 5 0 0 1 .266.497.054.054 0 0 1-.02.07.65.65 0 0 1-.342.092 3.6 3.6 0 0 1-1.7-.48"/><path fill="#c2d1d3" d="M20.716 41.895c.171.037.338.058.496.116q1.815.682 2.592 2.475c.12.275.317.875.583 1.783-.819-.11-1.65-.1-2.466.03a.05.05 0 0 0-.013.066c.196.317.488.83.88 1.525q.383.614.874 1.146v.017a.03.03 0 0 1-.012.012.03.03 0 0 1-.017.005l-.054-.005a.1.1 0 0 1-.063-.025l-.583-.546-.008-.008a7 7 0 0 1-.954-1.633c-.613-1.442-.846-2.788-1.155-4.459-.025-.124-.108-.32-.1-.5"/><path fill="#798b98" d="M20.517 41.97a.3.3 0 0 1-.042.116c-.021-.042-.025-.07-.013-.096q.019-.038.055-.02"/><path fill="#c2d1d3" d="M33.4 44.6a3.27 3.27 0 0 1-.875 2.55 3.4 3.4 0 0 1-.825.562.1.1 0 0 1-.067.012c-.062-.008-.145.021-.262.084-.083.045-.163-.005-.263.008a2.15 2.15 0 0 1-1.1-.146.4.4 0 0 0-.145-.033.1.1 0 0 1-.055-.017l-.666-.362q-.444-.9-.938-1.83a5 5 0 0 1-.383-1.145 33 33 0 0 1-.288-1.363l.017-.008h.017q.011 0 .016.012c.759 1.596 2.363 3 4.259 2.542a3.46 3.46 0 0 0 1.558-.867m19.867 14.553a3.4 3.4 0 0 0-.567.013c-.725.125-1.075.562-1.042 1.317a.53.53 0 0 0 .034.4c.15.308.425.4.791.504a8.3 8.3 0 0 1-1.07 2.133c-.625.892-1.084 1.53-1.396 1.904q-.09.111-.084.142l-.008.025a.04.04 0 0 1-.025.02q-.05.024-.058.059a.04.04 0 0 0 0 .02.04.04 0 0 0 .008.017q.007.009.017.013a20 20 0 0 1 3.333-.562q.013.005.013.016v.021q-.258.083-.517.158a.3.3 0 0 0-.12.059c-.084.083-.188.029-.293.066q-.629.178-1.27.3a1.5 1.5 0 0 0-.434.071q-.329.044-.658.008a3 3 0 0 0-.383.038.1.1 0 0 0-.034.03q-.114.174-.22.353a3.07 3.07 0 0 0-.346 2.604c.529 1.68 2.529 2.738 4.158 3q1.47.243 2.82-.02 2.125-.408 2.992-2.271c.475-1.021.221-2 .125-3.063 1.892 1.234 2.909 3.759 1.559 5.804-1.271 1.925-3.621 2.392-5.759 2.309a18.3 18.3 0 0 1-4.145-.604 49 49 0 0 1-3.08-.971c-.47-.167-1.52-.609-3.154-1.334a37.6 37.6 0 0 1-5.941-3.333q-.193-.151-.334-.35a7.1 7.1 0 0 0-.95-1.837 1.67 1.67 0 0 1-.258-.85l.22-1.55c.255.049.497.151.71.3l.353.25q1.458.907 3.046 1.808c.27.15.567.333.883.533q.712.456.888.538.076.049.137.117a.13.13 0 0 0 .092.033q.02 0 .033.012l1.005.717a.183.183 0 0 0 .283-.113 7.6 7.6 0 0 0 .133-1.758l.488-1.72a.1.1 0 0 0 0-.042.104.104 0 0 0-.088-.092c-.708-.096-1.012-.446-.983-1.146q.03-.637.042-.725c.072-.29.232-.55.458-.746.317-.312.75-.645 1.008-1.029a6 6 0 0 0 .784-1.592c.208-.674.216-1.595.345-2.224a1 1 0 0 1 .059-.18l.475-1.037c.144-.33.245-.678.3-1.034a.35.35 0 0 0-.021-.187 8.66 8.66 0 0 0-2.27-3.167 10.5 10.5 0 0 0-1.53-1.204c-.692-.404-1.404-.375-2.125.084a.22.22 0 0 0-.1.175 1.1 1.1 0 0 1-.117.4.04.04 0 0 1-.016.016h-.021a.04.04 0 0 1-.021-.008.04.04 0 0 1-.013-.021l-.075-.804a.3.3 0 0 0-.016-.08c-.167-.416-.03-.745.25-1.033a.6.6 0 0 0 .075-.1l.166-.287a.15.15 0 0 0 .113-.067q.032-.05.008-.125a.96.96 0 0 0-.437-.533 2.54 2.54 0 0 1-.692-1.317c-.067-.341-.008-.783-.042-1.087a2.7 2.7 0 0 0-.333-.963l.325-.108a.05.05 0 0 1 .042 0l.012.012.009.017q.123.374.295.504c.23.18.492.45.871.792H42l.004-.008h.009l.004.004q0 .02-.4-.48a10 10 0 0 0-.284-.316 2.43 2.43 0 0 1-.6-1.28.1.1 0 0 1 .017-.083.35.35 0 0 0 .063-.183l.391.304q.756.92 1.375 1.938c.309.504.471 1.112.159 1.641a.11.11 0 0 0 0 .113c.05.087.166.17.216.267q.101.187.396.558c.2.246.325.4.383.458q.394.419.805.717c.47.342 1.233.617 1.683.875.667.387 1.25.941 1.737 1.662.042.063.125.121.134.175q.002.05.029.088c.292.458.508.767.637.937.075.092.134.313.267.375a.07.07 0 0 1 .042.063q.002.037.029.075c1.192 1.492 2.48 2.666 4.133 4.179q.017.018.025.042a.1.1 0 0 1 .009.041zm-5.988-6.387a5.5 5.5 0 0 0-.35-.7 1.7 1.7 0 0 1-.262-1.121v-.03a.054.054 0 0 0-.08-.025.35.35 0 0 1-.4-.032 37 37 0 0 0-1.824-1.28c-.205-.129-.405-.308-.642-.479l-.02-.02-.397-.509a.03.03 0 0 0-.016-.008h-.021l-.007.01-.002.01v.017c.095.207.222.399.375.567.353.387.76.721 1.209.992.483.291.8.541 1.05.987.137.242.475.313.666.504a.6.6 0 0 1 .1.154c.15.36.351.697.596 1h.017l.009-.008.003-.013zm-2.866 18.487.779-.254a.04.04 0 0 1 .025 0 .04.04 0 0 1 .02.013q.01.008.013.02 0 .014-.008.026c-.18.333.166.395.175.612q.102.249.241.48a.04.04 0 0 0 .055-.013.04.04 0 0 0 .008-.025c-.025-.992-.304-1.7-.813-2.713a3 3 0 0 0-.175-.267c-.145-.208-.158-.429-.029-.666a.05.05 0 0 0-.023-.071q-.012-.006-.027-.004a.05.05 0 0 0-.029.016c-.142.163-.167.376-.083.63l.558 1.304c.067.15.096.358-.042.446q-.341.211-.666.445v.013l.008.008zm4.65 2.067a.9.9 0 0 0-.134-.362 1.79 1.79 0 0 1-.008-1.65q.272-.54.57-1.063a.1.1 0 0 0 .01-.058.08.08 0 0 0-.05-.063h-.026l-.025.004q-.438.559-.804 1.167-.411.795.07 1.733c.072.142.18.25.326.334a.05.05 0 0 0 .05 0l.015-.019z"/><path fill="#798b98" d="M20.138 49.518a9.2 9.2 0 0 0-.8-1.704l-.834-1.292q-.42-.647-.883-1.262.65-.748 1.475-1.259a.08.08 0 0 1 .083 0 .08.08 0 0 1 .042.067 11.7 11.7 0 0 0 .775 3.454c.269.632.318 1.336.142 2z"/><path fill="#c2d1d3" d="M17.62 45.26c.313.416.61.833.884 1.262l.834 1.292c.32.533.583 1.1.8 1.708q-.726 1.077-1.638.842-.8-.207-1.275-1.138c-.637-1.254-.396-2.833.396-3.966"/><path fill="#798b98" d="m38.18 46.598.029.042-.004.012-.009.009-.012.004h-.013a.14.14 0 0 1-.03-.054v-.008l.005-.009.004-.004h.025v.008zm.25.392-.072-.075a.03.03 0 0 1-.008-.017l.004-.016a.03.03 0 0 1 .017-.009l.02.005a.3.3 0 0 1 .063.095v.01l-.004.007zm.12.125a.1.1 0 0 1-.041-.02l-.006-.009v-.01a.02.02 0 0 1 .01-.015.03.03 0 0 1 .016-.004l.017.004c.017.017.02.03.025.037v.009l-.004.004-.008.004zm.209.258v.005h-.009l-.008-.009-.008-.008h.016zm3.054 1.092a1.9 1.9 0 0 0-.321-.73c.208.12.364.311.437.538q.025.075-.008.125a.14.14 0 0 1-.108.067m5.425 4.325a4 4 0 0 1-.58-.987.5.5 0 0 0-.104-.155c-.187-.191-.525-.262-.662-.5a2.6 2.6 0 0 0-1.046-.995 5.4 5.4 0 0 1-1.208-.992 2.2 2.2 0 0 1-.38-.583l.009-.013a.03.03 0 0 1 .02-.004q.01-.002.017.008l.396.509.021.02c.238.167.438.346.642.48q.818.536 1.825 1.279a.345.345 0 0 0 .4.029.1.1 0 0 1 .029-.004c.008 0 .02 0 .025.008q.014.01.02.025a.1.1 0 0 1 .009.03 1.7 1.7 0 0 0 .258 1.116q.205.347.354.72l-.004.01-.008.007a.03.03 0 0 1-.017 0q-.008-.002-.016-.008"/><path fill="#c2d1d3" d="M57.959 50.875a.22.22 0 0 1-.109.075h-.012l-.009-.008v-.013l.005-.008.104-.067h.016l.005.013z"/><path fill="#f9fbfc" d="M19.77 51.675c-.028.196.05.354.234.463.196.125.4.241.604.366q.052.032.084.084c.062.112.191.133.283.22.237.234 1.146 1.188.57 1.426q-1.687.704-3.458 1.233a7.33 7.33 0 0 1-.633-4.033l.013-.013h.016c.749.192 1.52.279 2.292.258z"/><path fill="#c2d1d3" d="M22.542 53.55q.435.702.67 1.42.13.429.15.876c.021.333.055.675.096 1.012a2.5 2.5 0 0 0-.737-.35c-.104-.183-.738-.304-.938-.337a1.74 1.74 0 0 0-1.846.754l-.35.417a.1.1 0 0 1-.07.033c-.013 0-.025 0-.042-.008a7.4 7.4 0 0 1-1.392-1.9 36 36 0 0 0 3.463-1.23c.575-.241-.334-1.191-.571-1.425-.092-.091-.22-.112-.283-.225a.24.24 0 0 0-.084-.083l-.604-.367q-.276-.163-.233-.458a2.03 2.03 0 0 1 1.05.23c.303.196.578.435.816.708.309.329.609.637.905.933"/><path fill="#798b98" d="M56.533 52.081a.17.17 0 0 1 .042-.083s.004-.008.012-.008h.013l.008.012v.017l-.041.075-.013.008h-.013l-.008-.012z"/><path fill="#c2d1d3" d="M40.73 52.895a.1.1 0 0 1-.038.013h-.013a.02.02 0 0 1-.008-.013.02.02 0 0 1-.004-.015.02.02 0 0 1 .008-.014q.027-.02.042-.017h.016l.009.017v.017a.03.03 0 0 1-.013.012"/><path fill="#798b98" d="M23.459 56.856a17 17 0 0 1-.096-1.016 3.6 3.6 0 0 0-.15-.875 6.8 6.8 0 0 0-.667-1.417q1.895.757 2.608 2.583c.319.8.502 1.646.542 2.505a.03.03 0 0 1-.017.012h-.012l-.013-.008c-.62-.721-1.275-1.184-2.195-1.784m-.738-.35a5.8 5.8 0 0 0-2.783.417 1.74 1.74 0 0 1 1.846-.754c.204.033.833.154.937.337"/><path fill="#c2d1d3" d="M37.196 63.713c-.034-.063-.08-.096-.138-.088a.22.22 0 0 0-.125.059.23.23 0 0 0-.067.125q-.127.766-.195 1.541a.6.6 0 0 0 .058.317l1.075 2.154a22 22 0 0 1-3.78-3.358 15.6 15.6 0 0 1-3.028-5.083c.4.166.741.42 1.02.754a.5.5 0 0 0 .084.075 50 50 0 0 0 4.816 3.246.1.1 0 0 0 .084-.034 3.86 3.86 0 0 1 2.029-3.4q.864-.7 1.267-1c.172-.13.307-.302.391-.5a.14.14 0 0 0 .009-.058l-.063-.992a.12.12 0 0 1 .033-.091l.555-.6a.06.06 0 0 1 .05-.021.06.06 0 0 1 .045.02.07.07 0 0 1 .025.055.08.08 0 0 1-.025.058l-.529.504a.1.1 0 0 0-.029.075l.017.417-.004.017c-.03.041-.025.1.004.166q.037.075 0 .125-.036.051.008.138c.083.166-.17.541-.258.625-.404.37-.804.666-1.104 1.041q-.406.51-.867.967l-.57 1.25a.4.4 0 0 1-.063.096 3.4 3.4 0 0 0-.725 1.4"/><path fill="#f9fbfc" d="M45.53 81.127q0 .162.087.305c.7 1.166 1.396 2.479 2.008 3.537l.921 1.583-4.2.913a.04.04 0 0 0-.03.025l-.008.017v.02c.43 1.125.742 2 .946 2.625q.035.094.021.192a.075.075 0 0 1-.083.063 2.4 2.4 0 0 1-.475-.384q-.315-.333-.617-.679a.16.16 0 0 0-.075-.062.8.8 0 0 1-.358-.309c-.113-.17-.325-.516-.559-.716a10.6 10.6 0 0 1-1.474-1.559q-.39-.523-.809-1.025c-.3-.367-.542-.85-.829-1.208a.8.8 0 0 0-.167-.163 3.6 3.6 0 0 1-1.437-1.7c-.167-.375-.446-.541-.792-.733a.4.4 0 0 1-.092-.075c-.312-.333-.445-.554-.779-1.058a.5.5 0 0 0-.108-.117 3.8 3.8 0 0 1-.896-1.075c-.15-.263-.333-.525-.525-.804a.5.5 0 0 0-.1-.108c-.291-.226-.829-.596-1.158-.917-.742-.73-1.142-1.659-1.659-2.75a5.2 5.2 0 0 1-.379-1.23l-.425-1.762a.08.08 0 0 0-.075-.058h-.237a.25.25 0 0 1-.204-.113q-.297-.458-.575-.929c-.167-.275-.35-.454-.546-.708a1 1 0 0 0-.067-.071 1.6 1.6 0 0 1-.358-.437 5 5 0 0 0-.204-.409.3.3 0 0 1-.03-.083l-.208-.992a.43.43 0 0 0-.233-.3l-1.283-.62a38 38 0 0 1-.446-3.684c.641.792 1.679.875 2.383 1.583.213.232.389.494.52.78q.377.898.772 1.791a.7.7 0 0 0 .083.142v-.084a4.55 4.55 0 0 0-.875-2.15 1.94 1.94 0 0 0-.833-1.025q-.725-.404-1.459-.791a.3.3 0 0 1-.066-.05 1.5 1.5 0 0 0-.509-.358c-.008.016-.016.012-.037-.013a.1.1 0 0 1-.017-.042 14 14 0 0 1-.108-2.083c.004-1.07.287-2.042.85-2.904a2.8 2.8 0 0 1 2-1.304.1.1 0 0 1 .066.016.1.1 0 0 1 .034.059q0 .028.658 2.695c.492 1.992 1.396 3.967 2.567 5.759a38 38 0 0 0 2.454 3.354l9.98 12.07a.3.3 0 0 1 .053.113m-15.105-17.02q.014-.013.008-.025v-.009h-.008q-.014 0-.02.025v.008l.008.005h.012zm-5.892-4.567a3.2 3.2 0 0 1-2.145.57c-.192-.016-.542-.008-.709-.15a2.67 2.67 0 0 1-.85-1.57 1.08 1.08 0 0 1 .884-.584c1-.075 2.25.984 2.82 1.73z"/><path fill="#798b98" d="M61.262 59.173c.013.592-.233.95-.737 1.063-.27.044-.547.024-.808-.059-.542-.142-1.125-.433-1.638-.562a4.2 4.2 0 0 0-2.383.112c-.85.292-1.709.584-2.43-.116a.24.24 0 0 0-.158-.067c-.654-.017-1.137.292-1.45.937-.033-.754.317-1.191 1.042-1.316q.283-.03.566-.013c.275.132.583.178.884.133.725-.133 1.479-.4 2.183-.674.834-.334 1.688-.434 2.563-.242.458.1.97.262 1.5.47q.42.17.866.334"/><path fill="#c2d1d3" d="M20.83 58.39c.094.606.394 1.16.85 1.571.166.138.516.133.708.15q1.176.1 2.145-.575c.524.6.953 1.278 1.271 2.008q.002.013-.008.013l-.012.008h-.013c-1.246-.446-2.375-.25-3.625.125-.283.084-.417.021-.625-.154-.958-.775-1.458-2.05-.692-3.146"/><path fill="#f9fbfc" d="M60.45 62.693a1.7 1.7 0 0 1-1.025.125c-1.2-.266-2.334-.541-3.538-.554-.725-.008-1.262.092-1.62.292-.684.392-.988 1.133-.876 1.958l.059.4a.14.14 0 0 1-.042.125l-.083.071-.009.008a.02.02 0 0 0 .009.021h.091c.025 0 .05.013.071.025q.188.139.413.209a.14.14 0 0 0 .083 0 .5.5 0 0 0 .23-.155 7.4 7.4 0 0 1 2.658.25 6.5 6.5 0 0 1 2.162 1.063c.096 1.062.35 2.041-.125 3.062-.583 1.242-1.575 2-2.992 2.271a8 8 0 0 1-2.82.021c-1.625-.263-3.63-1.32-4.159-3a3.06 3.06 0 0 1 .35-2.604c.125-.213.196-.334.217-.354a.13.13 0 0 1 .083-.046q.166-.021.334-.021.33.034.658-.008.211-.068.433-.071c.025 0 .046 0 .071-.009q.986-.217 1.204-.291c.1-.038.209.017.292-.067a.3.3 0 0 1 .117-.058q.259-.076.516-.158l.002-.01q0-.007-.002-.011a.03.03 0 0 0-.008-.017h-.02q-.705.126-1.397.313c-.458.124-.975.216-1.566.283a2.4 2.4 0 0 1-.355-.034l-.016-.012-.009-.017v-.02c.005-.026.025-.042.059-.059a.05.05 0 0 0 .025-.02.05.05 0 0 0 .004-.03q0-.024.087-.137c.309-.375.775-1.013 1.396-1.905a8.3 8.3 0 0 0 1.071-2.133c.2-.205.437-.37.7-.483a2.8 2.8 0 0 1 .833-.196q1.024-.104 1.605-.192c.352-.05.71-.049 1.062.005q1.494.22 2.763.845c.583.292.933.688 1.004 1.325"/><path fill="#c2d1d3" d="M60.45 62.69c.125 1.258-.78 1.404-1.738 1.208-1.316-.275-2.85-.704-3.9.383q-.2.207-.6.938a.5.5 0 0 1-.229.15.15.15 0 0 1-.083 0 1.4 1.4 0 0 1-.413-.205.1.1 0 0 0-.066-.025h-.096l-.008-.008v-.012s0-.009.008-.009l.08-.075a.14.14 0 0 0 .04-.054.14.14 0 0 0 0-.067c0-.05-.02-.179-.05-.4-.116-.825.188-1.566.876-1.958q.53-.305 1.616-.292c1.209.013 2.334.288 3.534.559a1.7 1.7 0 0 0 1.029-.134m-36.592 2.266.209.433.083.167q.52 1.013.708 2.163c-1.596-.909-2.975-2.675-2.712-4.605q-.002-.013.008-.02a.04.04 0 0 1 .042-.009l.016.017c.355.72.905 1.342 1.646 1.854"/><path fill="#798b98" d="m29.896 65.632-.5-.475c-.709-.708-1.738-.795-2.384-1.587l.017-.163a1.5 1.5 0 0 1 .508.359c.017.02.042.037.063.05q.736.386 1.467.791.536.3.829 1.025m7.3-1.92q.022.093-.005.1l-.22 1.55c.007.301.097.595.258.85q.663.95.95 1.837a.7.7 0 0 1-.375-.23l-1.075-2.153a.6.6 0 0 1-.058-.321q.068-.771.196-1.533a.23.23 0 0 1 .066-.125.2.2 0 0 1 .125-.063q.088-.006.138.087m-6.771.395-.009.009-.008-.009V64.1q.008-.025.021-.025l.008.008q0 .013-.012.025m-5.567 3.609a7.4 7.4 0 0 0-.708-2.167c.017-.08-.013-.133-.083-.167l-.209-.433a18 18 0 0 1 2.371-.275q.025-.002.042.008.02.016.025.042a9.5 9.5 0 0 1 .291 3.313.066.066 0 0 1-.066.062 3.36 3.36 0 0 1-1.663-.383"/><path fill="#c2d1d3" d="M48.546 86.553q1.238 1.967 2.25 3.254c.75.958 1.583 1.875 2.491 2.729a19 19 0 0 0 3.417 2.562 50 50 0 0 0 2.775 1.475q.189.093.87.23-1.723.752-3.466 1.241a23.7 23.7 0 0 1-4.296.804l-1.45-.97a.2.2 0 0 1-.041-.038.9.9 0 0 0-.325-.217.15.15 0 0 1-.071-.07l-.02-.03a.1.1 0 0 0-.022-.029l-.479-.416a.4.4 0 0 1-.067-.076 3.5 3.5 0 0 0-.558-.708 14.5 14.5 0 0 1-1.53-1.437 18 18 0 0 1-.99-1.363 57 57 0 0 1-1.11-2.025.75.75 0 0 0-.25-.279l-1.307-.85a.14.14 0 0 1-.05-.062 1.2 1.2 0 0 0-.3-.359.4.4 0 0 1-.059-.062 7.3 7.3 0 0 0-.9-1.05.1.1 0 0 0-.05-.055.35.35 0 0 0-.154-.037c-.012 0-.03 0-.042-.008a.07.07 0 0 1-.025-.034q-.019-.075-.095-.062a.1.1 0 0 1-.071-.017 1.9 1.9 0 0 0-.604-.241.55.55 0 0 1-.238-.1 1 1 0 0 1-.192-.184 4.5 4.5 0 0 0-.85-1.22 1 1 0 0 1-.133-.176 13 13 0 0 1-.208-.408 2.8 2.8 0 0 0-.625-.775c-.45-.412-.938-.954-1.217-1.225a2 2 0 0 1-.667-1.367c-.025-.291-.37-.329-.57-.437a.4.4 0 0 1-.113-.088 24 24 0 0 0-1.133-1.212c-.417-.413-.7-1.008-1.113-1.359a4 4 0 0 0-.383-.304.3.3 0 0 1-.088-.079.76.76 0 0 0-.287-.242.2.2 0 0 1-.08-.066.6.6 0 0 0-.112-.133c-.304-.196-.362-.334-.537-.571a.04.04 0 0 0-.05-.017.04.04 0 0 0-.021.02q.019.286.104.56c.57 1.562 1.188 3.574 1.817 5.35.262.74.454 1.27.579 1.6l.3.824q.094.282.208.675.142.49.3.975.937 2.998 2.242 5.858c.167.355.517 1 1.062 1.934.03.054.163.25.4.604.138.2.25.417.325.646-3.612-1.238-7.104-3.484-9.32-6.638-.609-.866-.796-1.67-.917-2.854q-.325-3.118-.513-4.279l-2-12.138a65 65 0 0 1-.529-4.275l1.284.621a.43.43 0 0 1 .233.3l.208.996q.007.045.03.084c.066.112.133.25.208.404q.137.25.354.437a1 1 0 0 1 .067.071c.195.254.379.433.541.708.163.271.354.584.584.93a.25.25 0 0 0 .2.112h.237a.08.08 0 0 1 .075.058l.425 1.763q.139.72.38 1.229c.516 1.092.916 2.025 1.658 2.75.333.32.862.692 1.158.917a.5.5 0 0 1 .1.108c.192.283.375.542.525.804.246.43.542.788.896 1.075q.063.053.108.117c.333.5.467.729.78 1.058a.4.4 0 0 0 .095.075c.342.192.625.359.783.734a3.62 3.62 0 0 0 1.442 1.7q.096.067.167.166c.283.354.529.838.833 1.204q.499.606.804 1.025c.417.567 1.071 1.221 1.475 1.563.234.196.446.541.559.708.1.154.22.254.362.313q.046.02.07.062.028.038.622.684.212.22.475.379a.08.08 0 0 0 .062-.025.1.1 0 0 0 .017-.038.4.4 0 0 0-.02-.187q-.442-1.336-.947-2.65l.009-.017.012-.017.02-.008 4.197-.917z"/><path fill="#081a2b" d="M30.766 67.865a.3.3 0 0 1 .005-.084v.084z"/><path fill="#798b98" d="M44.396 71.221q.038-.036.663-.433c.137-.088.108-.296.041-.446q-.284-.65-.558-1.304-.128-.387.083-.63a.05.05 0 0 1 .03-.016q.018-.002.037.008a.05.05 0 0 1 .017.067q-.201.355.024.666.096.129.175.267c.509 1.013.788 1.721.813 2.709a.04.04 0 0 1-.033.041h-.03a3.5 3.5 0 0 1-.241-.479c-.009-.22-.354-.28-.175-.613a.04.04 0 0 0 .006-.018.04.04 0 0 0-.014-.035.04.04 0 0 0-.017-.009.04.04 0 0 0-.025 0l-.78.254H44.4s-.008 0-.008-.008zm4.667 2.1-.005.025a.05.05 0 0 1-.042.02l-.024-.003a.8.8 0 0 1-.325-.334c-.321-.625-.346-1.208-.067-1.733q.364-.608.8-1.167l.025-.008h.025l.021.017a.09.09 0 0 1 .02.108q-.299.525-.57 1.063a1.8 1.8 0 0 0 .008 1.65c.092.174.138.291.134.362"/><path fill="#f9fbfc" d="M52.583 98.85a24.9 24.9 0 0 1-11.846-1.416 2.8 2.8 0 0 0-.325-.642q-.205-.298-.4-.604a28 28 0 0 1-1.062-1.934 49 49 0 0 1-2.542-6.833 12 12 0 0 0-.208-.675c-.125-.362-.23-.637-.3-.825q-.186-.494-.583-1.6c-.625-1.775-1.242-3.787-1.817-5.35a2.4 2.4 0 0 1-.1-.558.04.04 0 0 1 .05-.017.04.04 0 0 1 .02.013c.176.237.234.375.538.57a.6.6 0 0 1 .113.134q.032.046.083.066.151.065.283.242a.3.3 0 0 0 .088.083q.102.057.383.3c.413.35.692.946 1.113 1.359q.445.431 1.133 1.208.046.056.108.092c.209.108.55.146.575.437a2 2 0 0 0 .667 1.367c.28.27.767.812 1.217 1.22.253.221.464.485.625.78l.208.408q.058.095.13.171c.362.375.645.78.853 1.225q.018.032.192.183c.054.042.133.08.238.1.213.046.418.128.604.242q.032.021.07.017.077-.013.096.062a.07.07 0 0 0 .025.034q.02.01.042.008c.042 0 .088.012.15.037a.1.1 0 0 1 .054.055c.013.041.059.087.142.154q.161.126.754.896l.058.062q.224.198.305.358a.14.14 0 0 0 .05.063l1.304.85c.108.07.196.167.254.28.417.79.783 1.466 1.108 2.024q.18.313.992 1.363c.183.237.696.716 1.53 1.441q.324.316.557.704.027.045.067.075l.48.417.02.025.02.033a.13.13 0 0 0 .072.071.9.9 0 0 1 .325.217.2.2 0 0 0 .041.037l1.45.971zm-5.533-.191h-.02l-.01.012v.008c0 .005 0 .009.01.013h.007q.024-.002.03-.017v-.012l-.009-.004z"/><path fill="#798b98" d="M60.35 96.803a4.5 4.5 0 0 1-.871-.23 50 50 0 0 1-2.775-1.474 18.8 18.8 0 0 1-3.417-2.563 25 25 0 0 1-2.491-2.73 39 39 0 0 1-2.25-3.253l-.917-1.584c-.617-1.058-1.312-2.375-2.012-3.537a.57.57 0 0 1-.084-.3.16.16 0 0 1 .084.054 124 124 0 0 0 5.308 6 30 30 0 0 0 3.104 2.875 17.6 17.6 0 0 0 4.946 2.792 15.6 15.6 0 0 0 6.862.908.03.03 0 0 1 .017.02v.026q-.54.425-1.133.77a65 65 0 0 1-3.7 1.934 4 4 0 0 1-.338.142q-.172.06-.333.15m-13.284 1.87c0 .013-.012.017-.029.021l-.008-.004-.008-.008v-.013l.008-.008.02-.004h.013l.005.008z"/></g><defs><clipPath id="a"><path fill="#fff" d="M0 0h100v100H0z"/></clipPath></defs></svg>