<svg xmlns="http://www.w3.org/2000/svg" fill="none" viewBox="0 0 100 100"><g fill="#ff6a00" clip-path="url(#a)"><path d="M61.467 19.332h21.975c9.233 0 16.558 7.646 16.558 16.879v29.62a16.45 16.45 0 0 1-4.815 11.745 16.45 16.45 0 0 1-11.743 4.818H61.467l5.412-7.645 15.925-5.092c2.867-.959 4.775-3.825 4.775-6.688V38.761c0-2.863-1.908-5.73-4.775-6.687l-15.93-5.096-5.416-7.646zM12.417 62.96c0 2.867 1.916 5.733 4.779 6.692l15.925 4.775 5.416 7.645H16.558A16.447 16.447 0 0 1 0 65.512V36.207c0-9.233 7.325-16.875 16.562-16.875h21.971l-5.408 7.642-15.93 5.095c-2.866.959-4.774 3.825-4.774 6.692z"/><path d="M66.88 46.72H33.437v7.646h33.441z"/></g><defs><clipPath id="a"><path fill="#fff" d="M0 0h100v100H0z"/></clipPath></defs></svg>