<svg xmlns="http://www.w3.org/2000/svg" fill="none" viewBox="0 0 100 100"><path fill="#f9ab00" d="M95.333 87.486c.037 6.866-5.5 12.457-12.362 12.494-.51.004-1.024-.025-1.53-.087a12.745 12.745 0 0 1-10.877-12.917V13.003A12.75 12.75 0 0 1 81.461.085c6.817-.798 12.991 4.081 13.79 10.898q.087.752.082 1.51z"/><path fill="#e37400" d="M17.386 75.227c6.841 0 12.387 5.545 12.387 12.386 0 6.842-5.546 12.387-12.387 12.387C10.546 100 5 94.455 5 87.614c0-6.842 5.545-12.387 12.386-12.387m32.59-37.538c-6.875.379-12.206 6.142-12.046 13.024v33.268c0 9.03 3.974 14.51 9.795 15.678 6.718 1.361 13.262-2.979 14.624-9.697q.253-1.235.247-2.497V50.137c.012-6.866-5.541-12.44-12.407-12.452-.07 0-.144 0-.214.004"/></svg>