<svg xmlns="http://www.w3.org/2000/svg" fill="none" viewBox="0 0 100 100"><g clip-path="url(#a)"><path fill="url(#b)" d="M53.32 26.173a1.88 1.88 0 0 1-1.4-1.312 4.24 4.24 0 0 1 0-2.104c.65-3.584 1.25-7.188 2.088-10.738a22.3 22.3 0 0 1 3.43-8.167A9.64 9.64 0 0 1 62.695.144c3.654-.904 5.166 2.62 3.904 5.617-1.08 2.47-3.654 3.808-5.559 5.616-3.479 3.313-4.566 8.917-5.566 13.384a1.78 1.78 0 0 1-.775 1.154 1.82 1.82 0 0 1-1.38.258"/><path fill="url(#c)" d="M38.892 19.463c1.375-.504 2.841.608 3.941 1.238a7.84 7.84 0 0 0 3.755.891c.962.042 1.941 0 2.866.075 17.075.734 31.184 13.417 33.542 30.155 2.354 16.733-7.717 32.745-23.937 38.058-16.225 5.317-33.971-1.584-42.192-16.396a34.746 34.746 0 0 1 8.687-43.983 38 38 0 0 1 4.592-3.146 35 35 0 0 0 5.492-3.292c1.166-1.012 1.875-3.091 3.254-3.6m18.358 8.959c-11.837.012-20.408 10.554-19.283 23.508s11.587 23.504 23.387 23.604 20.55-10.467 19.409-23.517C79.625 38.963 69.088 28.41 57.25 28.422m1.488 2.375a19.6 19.6 0 0 1 13.766 6.025 23.76 23.76 0 0 1 6.846 14.541 20.17 20.17 0 0 1-4.754 15.438v.062a16.35 16.35 0 0 1-11.7 5.43 19.43 19.43 0 0 1-14.03-5.78 23.66 23.66 0 0 1-7.124-14.658 20.13 20.13 0 0 1 4.75-15.638 16.35 16.35 0 0 1 11.72-5.416z"/><path fill="url(#d)" d="M22.275 8.556a5.25 5.25 0 0 1 1.6-2.475 3.51 3.51 0 0 1 4.854.459c2.892 3.416.704 8.658.592 12.583a22.3 22.3 0 0 0 2.375 9.658c.35.559.612 1.163.775 1.792a2.245 2.245 0 0 1-1.25 2.404c-1.438.709-2.367-.791-2.954-1.858a82 82 0 0 1-3.655-7.692 36.2 36.2 0 0 1-2.575-8.279 31 31 0 0 1-.212-1.542q-.082-.706-.1-1.416a10.4 10.4 0 0 1 .55-3.634"/></g><defs><linearGradient id="b" x1="530.23" x2="1681.19" y1="2504.73" y2="363.731" gradientUnits="userSpaceOnUse"><stop stop-color="#06f"/><stop offset=".2" stop-color="#1677ff"/><stop offset="1" stop-color="#04a6ff"/></linearGradient><linearGradient id="c" x1="321.74" x2="6726.94" y1="4791.59" y2="2487.07" gradientUnits="userSpaceOnUse"><stop stop-color="#06f"/><stop offset=".2" stop-color="#1677ff"/><stop offset="1" stop-color="#04a6ff"/></linearGradient><linearGradient id="d" x1="628.218" x2="-67.412" y1="2769.28" y2="202.366" gradientUnits="userSpaceOnUse"><stop stop-color="#06f"/><stop offset=".2" stop-color="#1677ff"/><stop offset="1" stop-color="#04a6ff"/></linearGradient><clipPath id="a"><path fill="#fff" d="M0 0h100v100H0z"/></clipPath></defs></svg>