<svg xmlns="http://www.w3.org/2000/svg" fill="none" viewBox="0 0 100 100"><path fill="#0163fb" d="M73.263 51.433 60.858 72.917h24.975a2.58 2.58 0 0 0 2.23-1.284l11.662-20.2zm26.462-2.866-11.662-20.2a2.57 2.57 0 0 0-2.23-1.284H60.858l12.405 21.484zm-63.67-21.484h24.803L48.371 5.454a2.57 2.57 0 0 0-2.23-1.287H22.818zM20.337 5.596l-11.659 20.2a2.58 2.58 0 0 0 0 2.57l12.488 21.63 12.4-21.484zM33.57 71.479 21.17 50 8.679 71.634a2.58 2.58 0 0 0 0 2.571l11.659 20.2 13.229-22.917h.004zM22.817 95.833h23.325a2.58 2.58 0 0 0 2.229-1.283l12.487-21.633H36.054L22.821 95.833z"/></svg>