<svg xmlns="http://www.w3.org/2000/svg" fill="none" viewBox="0 0 100 100"><g clip-path="url(#a)"><path fill="url(#b)" d="M29.634 46.195a2.853 2.853 0 0 0-3.99-.538 2.96 2.96 0 0 0-.835 1.041L.31 95.713a2.93 2.93 0 0 0 2.619 4.239h34.135a2.81 2.81 0 0 0 2.62-1.62c7.367-15.217 2.9-38.353-10.05-52.137"/><path fill="#fff" d="M47.642 1.59a64.66 64.66 0 0 0-3.777 63.826l16.458 32.916a2.93 2.93 0 0 0 2.62 1.62H97.07a2.924 2.924 0 0 0 2.929-2.93 3 3 0 0 0-.303-1.309L52.625 1.577a2.757 2.757 0 0 0-4.983 0z"/></g><defs><linearGradient id="b" x1="43.115" x2="17.296" y1="53.807" y2="98.602" gradientUnits="userSpaceOnUse"><stop stop-color="#fff" stop-opacity=".4"/><stop offset=".923" stop-color="#fff"/></linearGradient><clipPath id="a"><path fill="#fff" d="M0 0h100v100H0z"/></clipPath></defs></svg>