<svg xmlns="http://www.w3.org/2000/svg" fill="none" viewBox="0 0 100 100"><path stroke="#fff" stroke-width="1.677" d="m50 19.984 34.847 60.358m-69.694 0L50 19.984"/><path fill="red" stroke="#fff" stroke-width="1.677" d="M15.153 93.755c7.407 0 13.413-6.005 13.413-13.413S22.56 66.929 15.153 66.929c-7.408 0-13.413 6.005-13.413 13.413 0 7.407 6.005 13.413 13.413 13.413Z"/><path fill="#0f0" stroke="#fff" stroke-width="1.677" d="M50 33.397c7.408 0 13.413-6.005 13.413-13.413 0-7.407-6.005-13.412-13.413-13.412s-13.413 6.005-13.413 13.412S42.592 33.397 50 33.397Z"/><path fill="#00f" stroke="#fff" stroke-width="1.677" d="M84.847 93.755c7.408 0 13.413-6.005 13.413-13.413s-6.005-13.413-13.413-13.413c-7.407 0-13.413 6.005-13.413 13.413 0 7.407 6.005 13.413 13.413 13.413Z"/></svg>