<svg xmlns="http://www.w3.org/2000/svg" fill="none" viewBox="0 0 100 100"><g clip-path="url(#a)"><path fill="#416fdc" d="M79.442.544c-.267-.442-.883-.708-1.417-.442l-9.958 5.554c-5.025 2.825-8.2 5.821-10.142 11.55a19.5 19.5 0 0 0 1.413 15.609c.262.442.883.708 1.408.442l9.967-5.555c5.025-2.825 8.2-5.82 10.137-11.55A19.5 19.5 0 0 0 79.442.54zM8.025 22.586A1.354 1.354 0 0 0 6.7 23.91a24.26 24.26 0 0 0 7.938 17.983c5.641 5.117 10.929 6.438 18.162 6.438h14.284c.704 0 1.32-.617 1.32-1.321a24.28 24.28 0 0 0-7.933-17.988c-5.646-5.112-10.933-6.442-18.167-6.442H8.03zm91.25 21.337a1.354 1.354 0 0 0-1.32-1.32v.083h-14.46c-7.32 0-12.696 1.416-18.43 6.529-4.937 4.316-8.107 10.929-8.107 18.162 0 .705.616 1.321 1.32 1.321h14.459c7.32 0 12.696-1.412 18.429-6.525a24.55 24.55 0 0 0 5.995-8.263 24.55 24.55 0 0 0 2.113-9.987M0 65.79c0-.971.792-1.854 1.85-1.854h20.017c10.137 0 17.542 1.941 25.48 9.083 6.79 6.083 11.02 15.167 11.107 25.125 0 .97-.791 1.854-1.85 1.854H36.592c-10.142 0-17.546-1.85-25.483-8.992C4.317 84.833.088 75.749 0 65.79"/></g><defs><clipPath id="a"><path fill="#fff" d="M0 0h100v100H0z"/></clipPath></defs></svg>