<svg xmlns="http://www.w3.org/2000/svg" fill="none" viewBox="0 0 100 100"><g clip-path="url(#a)"><path fill="url(#b)" fill-rule="evenodd" d="M67.638 0c2.97 0 5.604 2.296 6.55 5.538.945 3.241 6.479 23.291 6.479 23.291v39.842H60.612L61.021 0z" clip-rule="evenodd"/><path fill="url(#c)" d="M97.075 31.126c0-1.417-1.146-2.5-2.5-2.5H82.763a15.07 15.07 0 0 0-15.059 15.062v24.983h14.317a15.07 15.07 0 0 0 15.054-15.058z"/><path fill="url(#d)" fill-rule="evenodd" d="M67.637 0a4.09 4.09 0 0 0-4.12 4.12l-.405 75.826A20.06 20.06 0 0 1 43.058 100H6.666a2.49 2.49 0 0 1-2.038-1.042 2.49 2.49 0 0 1-.324-2.266L33.47 13.438A20.08 20.08 0 0 1 52.375 0h15.329z" clip-rule="evenodd"/></g><defs><linearGradient id="b" x1="76.008" x2="59.129" y1="70.154" y2="2.567" gradientUnits="userSpaceOnUse"><stop stop-color="#712575"/><stop offset=".09" stop-color="#9a2884"/><stop offset=".18" stop-color="#bf2c92"/><stop offset=".27" stop-color="#da2e9c"/><stop offset=".34" stop-color="#eb30a2"/><stop offset=".4" stop-color="#f131a5"/><stop offset=".5" stop-color="#ec30a3"/><stop offset=".61" stop-color="#df2f9e"/><stop offset=".72" stop-color="#c92d96"/><stop offset=".83" stop-color="#aa2a8a"/><stop offset=".95" stop-color="#83267c"/><stop offset="1" stop-color="#712575"/></linearGradient><linearGradient id="c" x1="82.425" x2="82.425" y1="1.417" y2="96.759" gradientUnits="userSpaceOnUse"><stop stop-color="#da7ed0"/><stop offset=".08" stop-color="#b17bd5"/><stop offset=".19" stop-color="#8778db"/><stop offset=".3" stop-color="#6276e1"/><stop offset=".41" stop-color="#4574e5"/><stop offset=".54" stop-color="#2e72e8"/><stop offset=".67" stop-color="#1d71eb"/><stop offset=".81" stop-color="#1471ec"/><stop offset="1" stop-color="#1171ed"/></linearGradient><linearGradient id="d" x1="76.683" x2="13.483" y1="3.579" y2="104.929" gradientUnits="userSpaceOnUse"><stop stop-color="#da7ed0"/><stop offset=".05" stop-color="#b77bd4"/><stop offset=".11" stop-color="#9079da"/><stop offset=".18" stop-color="#6e77df"/><stop offset=".25" stop-color="#5175e3"/><stop offset=".33" stop-color="#3973e7"/><stop offset=".42" stop-color="#2772e9"/><stop offset=".54" stop-color="#1a71eb"/><stop offset=".68" stop-color="#1371ec"/><stop offset="1" stop-color="#1171ed"/></linearGradient><clipPath id="a"><path fill="#fff" d="M0 0h100v100H0z"/></clipPath></defs></svg>