<svg xmlns="http://www.w3.org/2000/svg" fill="none" viewBox="0 0 100 100"><g clip-path="url(#a)"><path fill="#fff" fill-rule="evenodd" d="M0 19.5 35.875 0l14.93 8.35L63.72 1.12 100 21.418V57.67l-14.925 8.35v14.454L50.158 100 14.817 81.167v-16.03L0 57.918zm5.35 6.133v12.225l33.067 17.075-.134 5.913-32.933-17V54.92l41.846 22.096V49.042zm44.754 18.884L90.9 22.308l-10.958-6.125-30.825 17.238-5.213-3.067 30.692-17.166L63.72 7.104l-40.858 22.25 27.241 15.167zM17.5 26.367l27.954-15.025-9.579-5.359L7.9 21.025zm46 60.183-10.908 6.104V49.75l27.133-15.175v42.908L68.85 83.567V49.229l-5.346 2.842v34.487zM20.167 68.133 47.196 83v9.292l-27.03-14.113V68.133M94.65 54.675V26.217l-9.575 5.366v28.455l9.575-5.359z" clip-rule="evenodd"/></g><defs><clipPath id="a"><path fill="#fff" d="M0 0h100v100H0z"/></clipPath></defs></svg>