<svg xmlns="http://www.w3.org/2000/svg" fill="none" viewBox="0 0 100 100"><g clip-path="url(#a)"><path fill="#5bca87" d="M90.48 23.375 73.882 33a3.76 3.76 0 0 1-3.733 0L51.833 22.433a3.76 3.76 0 0 0-3.737 0L29.816 33a3.76 3.76 0 0 1-3.733 0l-16.6-9.596L50.008 0z"/><path fill="#ec5d3e" d="M77.67 39.447a3.71 3.71 0 0 0-1.824 3.208v21.133a3.73 3.73 0 0 1-1.855 3.209l-18.45 10.458a3.68 3.68 0 0 0-1.854 3.238v19.195l18.454-10.566 22.125-12.696V29.822z"/><path fill="#2464f5" d="M45.75 78.922a3.9 3.9 0 0 0-1.27-1.467L26.024 66.972a3.76 3.76 0 0 1-1.796-3.184V42.63a3.71 3.71 0 0 0-1.883-3.154l-1.88-1.084L5.75 29.826v46.8l22.13 12.696L46.357 100V80.8a3.7 3.7 0 0 0-.608-1.88"/></g><defs><clipPath id="a"><path fill="#fff" d="M0 0h100v100H0z"/></clipPath></defs></svg>