<svg xmlns="http://www.w3.org/2000/svg" fill="none" viewBox="0 0 100 100"><path fill="#2932e1" d="M36.913 48.896c4.237-7.125 16.912-12.846 25.841 1.191 6.58 9.517 17.85 18.321 17.85 18.321s8.446 6.671 3.042 19.517c-5.167 12.317-23.5 6.696-25.02 6.208l-.1-.037s-7.276-2.367-15.734-.467c-8.442 1.908-15.721 1.192-15.721 1.192l-.188-.004c-1.366-.042-9.916-.78-12.504-12.367-2.812-12.617 9.854-19.53 10.8-20.7.942-1.2 7.509-5.708 11.734-12.854m4.108 7.242v8.466h-6.833s-6.834.575-9.221 8.392c-.834 5.217.737 8.292 1.008 8.95.28.654 2.483 4.47 8.03 5.591h12.824V56.23zm14.95 9.129-6 .1V81.85s.267 4.104 6 5.6h14.754V65.367h-6.367v16.579h-6.083s-1.942-.284-2.304-1.863zm-15.054 4.379v12.75H35.75s-3.596-.188-4.692-4.371c-.566-1.854.084-3.996.367-4.833.263-.846 1.47-2.796 3.963-3.542zm39.687-37.65c8.692 0 11.025 8.583 11.025 11.425 0 2.867 1.184 14.987-9.62 15.229-10.813.238-11.267-7.375-11.267-12.833 0-5.725 1.154-13.821 9.862-13.821m-62.937-6.663c6.346-.562 11.02 6.459 11.508 10.471.292 2.604 1.638 14.525-8.23 16.667C11.096 54.617 7.43 43.1 8.514 37.704c0 0 1.166-11.654 9.154-12.37m36.862-6.179c.584-5.458 7.042-13.817 12.213-12.617 5.15 1.188 9.862 8.1 8.904 14.042-.933 5.95-5.604 13.804-12.896 12.842-7.283-.942-8.93-7.596-8.22-14.267M39.271 4.167c5.446 0 9.85 6.329 9.85 14.158 0 7.83-4.404 14.167-9.85 14.167s-9.863-6.338-9.863-14.167c0-7.833 4.417-14.158 9.863-14.158"/></svg>