<svg xmlns="http://www.w3.org/2000/svg" fill="none" viewBox="0 0 100 100"><path fill="url(#a)" d="M52.228 65.97h14c.973 0 1.768.804 1.768 1.79v8.273a7.746 7.746 0 0 1 5.891 7.55c0 4.287-3.432 7.764-7.659 7.764-4.232 0-7.664-3.477-7.664-7.763 0-3.669 2.519-6.746 5.896-7.555v-6.477H52.232v21.195a1.8 1.8 0 0 1-.854 1.537L39.15 99.743a1.75 1.75 0 0 1-1.84-.01L14.918 85.707a1.8 1.8 0 0 1-.84-1.527V69.547l-11.187-6.5A1.8 1.8 0 0 1 2 61.615V38.21c0-.636.332-1.227.873-1.545l11.204-6.646V15.674c0-.587.282-1.132.75-1.464l.096-.064L37.319.264a1.75 1.75 0 0 1 1.85 0l12.227 7.614a1.8 1.8 0 0 1 .841 1.527v20.596h17.527v-8.714a7.745 7.745 0 0 1-5.89-7.554c0-4.287 3.431-7.764 7.659-7.764 4.231 0 7.659 3.477 7.659 7.764 0 3.668-2.514 6.745-5.891 7.554v10.505a1.776 1.776 0 0 1-1.768 1.791H52.237v8.21h30.11a7.68 7.68 0 0 1 7.454-5.969c4.227 0 7.66 3.473 7.66 7.76 0 4.286-3.428 7.763-7.66 7.763a7.68 7.68 0 0 1-7.455-5.973H52.228v8.805h22.514l4.159 5.363a7.55 7.55 0 0 1 3.818-1.031c4.232 0 7.66 3.472 7.66 7.759 0 4.286-3.428 7.764-7.66 7.764-4.227 0-7.66-3.478-7.66-7.764 0-1.573.465-3.037 1.255-4.26l-3.29-4.25H52.228zM38.24 3.892l-9.286 5.754v13.491h-3.536v-11.3l-7.805 4.841v13.387l9.59 6.182 9.851-6.2V19.7h3.536v11.346c0 .618-.318 1.195-.836 1.522l-10.65 6.696v9.46l6.464 4.585-2.028 2.937-6.39-4.536-6.955 4.568-1.923-3 7.296-4.796v-9.045l-9.76-6.3-10.273 6.09v7.619l8.964-5.405 1.81 3.078-10.774 6.495v9.441l9.846 5.718L25.7 59.956l1.805 3.077-9.891 5.96v14.19l8.527 5.342 10.75-6.482 1.81 3.081-9.169 5.528 8.718 5.459 10.446-6.377V63.46L27.069 76.61l-1.819-3.068 23.446-14.255V10.406zM66.228 79.41a4.15 4.15 0 0 0-4.127 4.182c0 2.304 1.845 4.172 4.127 4.172a4.15 4.15 0 0 0 4.123-4.177 4.15 4.15 0 0 0-2.536-3.855 4.2 4.2 0 0 0-1.587-.322m16.5-17.319a4.15 4.15 0 0 0-4.127 4.182c0 2.31 1.845 4.182 4.123 4.182a4.15 4.15 0 0 0 4.127-4.182 4.15 4.15 0 0 0-4.123-4.182m7.069-22.682a4.15 4.15 0 0 0-4.128 4.182c0 2.305 1.85 4.173 4.127 4.173a4.15 4.15 0 0 0 4.123-4.177 4.15 4.15 0 0 0-4.123-4.182zM71.528 9.546a4.15 4.15 0 0 0-4.123 4.182c0 2.31 1.846 4.182 4.123 4.182a4.15 4.15 0 0 0 4.127-4.182 4.15 4.15 0 0 0-4.127-4.182"/><defs><linearGradient id="a" x1="7638.82" x2="1645.29" y1="2000" y2="7721.44" gradientUnits="userSpaceOnUse"><stop stop-color="#6350fb"/><stop offset=".5" stop-color="#3d8fff"/><stop offset="1" stop-color="#9ad8f8"/></linearGradient></defs></svg>