<svg xmlns="http://www.w3.org/2000/svg" fill="none" viewBox="0 0 100 100"><g clip-path="url(#a)"><path fill="#fff" fill-rule="evenodd" d="M49.98 0c9.183-.004 15.42 8.625 18.738 16.142 1.558 3.537 2.8 7.2 3.716 10.991a.38.38 0 0 0 .275.275q5.532 1.307 10.538 3.459c4.875 2.1 9.316 4.875 12.816 8.875.813.933 1.609 2.166 2.392 3.708 3.25 6.412 1.125 13.308-3.77 18.125-5.884 5.792-14.1 8.904-21.934 10.867a.24.24 0 0 0-.184.196q-.226 1.417-1.845 6.341c-2.959 9-9.75 21.017-20.692 21.021-10.937.004-17.742-12-20.708-21-1.084-3.283-1.7-5.396-1.859-6.342a.25.25 0 0 0-.179-.195c-7.833-1.95-16.054-5.059-21.946-10.842-4.904-4.813-7.033-11.708-3.787-18.125.783-1.542 1.575-2.775 2.387-3.709 3.496-4.008 7.938-6.783 12.809-8.887a63.6 63.6 0 0 1 10.537-3.47.36.36 0 0 0 .271-.276 65 65 0 0 1 3.708-10.996C34.568 8.633 40.801.004 49.98 0m24.646 37.475.733 5.375c.012.071.05.136.109.18 1.729 1.324 2.862 2.832 3.395 4.512a8.316 8.316 0 0 1-7.691 10.816 8.337 8.337 0 0 1-8.575-9.508q.468-3.252 3.55-5.704a.22.22 0 0 0 .083-.196c-.425-4.075-1.296-7.963-2.33-12.47-1.25-5.46-3.028-10.538-6.04-15.438a16 16 0 0 0-2.11-2.771c-2-2.059-4.153-3.738-7.066-3.033-1.983.483-4.454 2.725-5.583 4.345a42 42 0 0 0-5.83 12.242.083.083 0 0 0 .092.067l6.617-.309a.3.3 0 0 0 .192-.083c2.658-2.633 6.541-3.167 9.737-1.283q1.987 1.168 3.142 3.637c1.9 4.071-.513 8.917-4.417 10.342-3.662 1.337-7.5-.025-9.558-3.371a.28.28 0 0 0-.254-.133 98 98 0 0 0-10.05.87c-2.817.392-5.846 1.234-8.392 2.084a44 44 0 0 0-8.187 3.65c-3.688 2.125-9.121 6.529-6.4 11.354.495.88.97 1.554 1.429 2.03 3.708 3.833 8.333 5.895 13.75 7.716a.09.09 0 0 0 .12-.096l-.654-4.77a.28.28 0 0 0-.137-.21 8.67 8.67 0 0 1-3.533-4c-1.73-3.853-.126-8.262 3.3-10.374a8.35 8.35 0 0 1 10.062.996c1.438 1.312 2.596 3.562 2.675 5.65.108 2.904-1.054 5.162-3.258 7.096a.24.24 0 0 0-.084.208c.688 5.229 2.021 10.604 3.28 15.437 1.091 4.184 2.874 8.742 5.4 12.671 1.312 2.042 2.904 3.834 4.729 4.954 2.191 1.346 4.375 1.3 6.541-.137 2.775-1.842 4.355-4.308 6.125-7.592a39.6 39.6 0 0 0 3.209-7.875.07.07 0 0 0-.075-.058l-5.567.262a.25.25 0 0 0-.208.138 7.59 7.59 0 0 1-5.33 4.2 7.71 7.71 0 0 1-7.824-2.771c-2.326-3.013-2.321-6.658-.013-9.667a7.42 7.42 0 0 1 4.43-2.783q3.75-.83 7.053 1.862c.06.05.136.074.213.071a91 91 0 0 0 10.129-.887c2.583-.375 5.683-1.2 7.95-1.842a48 48 0 0 0 9.317-3.75c3.05-1.608 6.808-4.304 7.875-7.696 1.666-5.287-6-10.025-9.8-11.675q-3.982-1.731-6.163-2.375a.09.09 0 0 0-.079.013.1.1 0 0 0-.025.037q-.007.021-.004.042" clip-rule="evenodd"/></g><defs><clipPath id="a"><path fill="#fff" d="M0 0h100v100H0z"/></clipPath></defs></svg>