<svg xmlns="http://www.w3.org/2000/svg" fill="none" viewBox="0 0 100 100"><g clip-path="url(#a)"><path fill="url(#b)" fill-rule="evenodd" d="M49.875 31.536a3.834 3.834 0 0 0-3.354 3.596c-.054.812-.042.87 1.791 5.612 4.167 10.792 5.175 13.392 5.346 13.759.413.887.988 1.72 1.709 2.466.558.575.925.884 1.541 1.296 1.084.733 1.625.933 5.854 2.196 4.121 1.23 6.371 2.042 8.309 3.012 2.512 1.259 4.266 2.684 5.375 4.38.796 1.216 1.5 3.395 1.808 5.591.12.859.12 2.754 0 3.53a10.4 10.4 0 0 1-1.567 4.274c-.416.63-.27.525.338-.241 1.73-2.167 3.492-5.867 4.392-9.221a28 28 0 0 0 .425-12.55A27.6 27.6 0 0 0 68.129 40.36a435 435 0 0 0-5.508-2.908l-1.059-.555A3011 3011 0 0 1 55 33.453c-2.283-1.209-3.25-1.692-3.525-1.775a5.7 5.7 0 0 0-1.208-.188l-.388.042z" clip-rule="evenodd"/><path fill="url(#c)" d="M54.85 71.831q-.428.25-.842.521-3.745 2.315-7.48 4.646a688 688 0 0 1-4.12 2.558l-1.93 1.2a414 414 0 0 1-6.257 3.921 11.8 11.8 0 0 1-4.542 1.612c-.75.1-2.167.1-2.917 0a11.7 11.7 0 0 1-5.491-2.241 15.3 15.3 0 0 1-2.263-2.271 11.8 11.8 0 0 1-2.108-4.754 9 9 0 0 0-.171-.758c-.033-.034.025.575.133 1.374.113.83.354 2.03.613 3.055 2.008 7.945 7.708 14.404 15.437 17.479a26.3 26.3 0 0 0 6.909 1.716c.916.105 3.516.146 4.475.071 4.391-.333 8.216-1.637 12.137-4.133q1.95-1.245 3.904-2.483l1.6-1.017 2.85-1.812.975-.621.038-.021.104-.071.054-.03.717-.458 2.487-1.583c3.167-2.004 4.113-2.708 5.584-4.158.616-.608 1.541-1.642 1.587-1.771a8 8 0 0 1 .367-.567 10.4 10.4 0 0 0 1.554-4.262c.12-1.174.12-2.356 0-3.53a18 18 0 0 0-1.325-4.737c-.933-1.966-2.917-3.75-5.763-5.187a12.4 12.4 0 0 0-1.691-.755c-.042 0-2.692 1.634-5.888 3.625l-6.908 4.296z"/><path fill="url(#d)" d="m16.68 62.273.016 13.875.175.804c.558 2.517 1.525 4.334 3.208 6.021a11.25 11.25 0 0 0 8.146 3.392c2.233 0 4.167-.563 6.163-1.792l2.929-1.812 2.316-1.442V33.344c0-9.608-.016-15.312-.05-15.758a11.4 11.4 0 0 0-3.32-7.354c-.605-.6-1.117-1-2.655-2.067a7347 7347 0 0 1-9.6-6.658C22.525.477 22.417.407 21.962.244a3.93 3.93 0 0 0-5.224 2.9c-.059.263-.071 3.767-.071 22.783v22.475z"/></g><defs><radialGradient id="b" cx="0" cy="0" r="1" gradientTransform="matrix(-3360 -2790.3 5464.27 -3360.06 765.355 -3672.56)" gradientUnits="userSpaceOnUse"><stop stop-color="#00cacc"/><stop offset="1" stop-color="#048fce"/></radialGradient><radialGradient id="c" cx="0" cy="0" r="1" gradientTransform="matrix(5100.95 -3642.9 1329.9 5101.07 1135.61 2154.89)" gradientUnits="userSpaceOnUse"><stop stop-color="#00bbec"/><stop offset="1" stop-color="#2756a9"/></radialGradient><linearGradient id="d" x1="1165" x2="1165" y1="-.004" y2="8636.93" gradientUnits="userSpaceOnUse"><stop stop-color="#00bbec"/><stop offset="1" stop-color="#2756a9"/></linearGradient><clipPath id="a"><path fill="#fff" d="M0 0h100v100H0z"/></clipPath></defs></svg>