<svg xmlns="http://www.w3.org/2000/svg" fill="none" viewBox="0 0 100 100"><g clip-path="url(#a)"><g fill="#fff" clip-path="url(#b)"><path d="m60.669 43.97-10.793-6.231-10.793 6.23v12.465l10.793 6.234 10.793-6.233z"/><path d="m39.067 5.34 5.837-3.37A9.94 9.94 0 0 1 49.877.626a9.94 9.94 0 0 1 4.982 1.35l34.354 19.835c1.642.947 2.89 2.205 3.727 3.724.816 1.483 1.24 3.214 1.24 5.155v39.458c0 3.73-1.688 6.663-4.89 8.51L54.997 98.46c-3.328 1.921-6.93 1.912-10.277-.021q-9.033-5.214-18.063-10.429l-.1-.057-16.048-9.265c-1.431-.827-2.723-2.098-3.629-3.697a10.1 10.1 0 0 1-1.309-4.992V28.942c0-3.608 1.702-5.429 4.888-7.268l13.7-7.912v51.343l25.718 14.847 25.716-14.847V35.41L49.875 20.565l-10.81 6.24z"/></g></g><defs><clipPath id="a"><path fill="#fff" d="M0 0h100v100H0z"/></clipPath><clipPath id="b"><path fill="#fff" d="M5 0h89.437v100H5z"/></clipPath></defs></svg>