<svg xmlns="http://www.w3.org/2000/svg" fill="none" viewBox="0 0 100 100"><g clip-path="url(#a)"><path fill="#00a87b" d="M54.167 14.288a35.47 35.47 0 0 1 23.095 8.508l9.225-10.892A49.66 49.66 0 0 0 54.167 0c-27.559 0-50 22.442-50 50s22.441 50 50 50c12.32 0 23.57-4.463 32.32-11.846l-8.183-10.891c-6.25 5.295-15.33 8.45-24.137 8.45-19.705 0-35.713-16.009-35.713-35.713s16.008-35.712 35.713-35.712"/><path fill="#fff" d="M44.254 67.796c2.916 1.787 6.25 2.679 9.942 2.679h.058c3.275 0 6.37-.713 9.346-2.084a20.5 20.5 0 0 0 4.704-2.975l-5.18-6.133c-.178.18-.416.358-.654.538a11.4 11.4 0 0 1-3.454 1.846 10 10 0 0 1-3.75.654c-2.141 0-4.108-.596-5.833-1.667a11.4 11.4 0 0 1-4.167-4.404A12.8 12.8 0 0 1 43.721 50c0-2.321.475-4.467 1.487-6.313a11.1 11.1 0 0 1 4.046-4.404 10.94 10.94 0 0 1 5.896-1.604c1.25 0 2.558.296 3.866.77 1.25.48 2.5 1.193 3.634 2.026.116.058.416.296.416.296l5.296-6.25a18.6 18.6 0 0 0-4.525-2.975c-2.917-1.367-5.95-2.025-9.641-2.025-3.692 0-7.026.895-9.942 2.679-2.975 1.787-5.238 4.229-6.963 7.32-1.725 3.096-2.558 6.55-2.558 10.48 0 3.929.833 7.379 2.558 10.475a19.6 19.6 0 0 0 6.963 7.32"/></g><defs><clipPath id="a"><path fill="#fff" d="M0 0h100v100H0z"/></clipPath></defs></svg>