<svg xmlns="http://www.w3.org/2000/svg" fill="none" viewBox="0 0 100 100"><path fill="#f15a29" fill-rule="evenodd" d="M58.837 11.254a38.746 38.746 0 1 0 0 77.491v5.838c-24.625 0-44.583-19.963-44.583-44.588S34.208 5.412 58.833 5.412v5.837zm19.8 15.32a30.64 30.64 0 0 0-49.06 14.185 30.64 30.64 0 0 0 9.673 32.753l-3.755 4.475a36.474 36.474 0 0 1-4.5-51.392 36.48 36.48 0 0 1 51.396-4.5zm-9.396 3.517a22.529 22.529 0 0 0-21.033 39.846l-2.733 5.166a28.375 28.375 0 0 1 26.491-50.179zm-10.408 5.487a14.421 14.421 0 1 0 0 28.842v5.842a20.263 20.263 0 0 1 0-40.525z" clip-rule="evenodd"/><path fill="#fff" d="M64.195 45.149a9.3 9.3 0 0 0-2.125-1.704 4.5 4.5 0 0 0-2.266-.633q-1.594 0-2.85.583a6.58 6.58 0 0 0-3.5 3.8 7.7 7.7 0 0 0-.459 2.629c0 .908.15 1.792.459 2.63a6.64 6.64 0 0 0 3.5 3.803c.833.388 1.791.584 2.85.584.9 0 1.737-.192 2.508-.563a5.4 5.4 0 0 0 1.98-1.633l3.866 4.191a9 9 0 0 1-2.008 1.513 14 14 0 0 1-4.513 1.583q-1.063.165-1.833.167c-1.681.01-3.35-.286-4.925-.875a11.8 11.8 0 0 1-4.004-2.487 11.7 11.7 0 0 1-2.684-3.871 12.45 12.45 0 0 1-.991-5.042q.002-2.775.991-5.042a11.8 11.8 0 0 1 2.68-3.87 11.9 11.9 0 0 1 4.008-2.484 13.8 13.8 0 0 1 4.925-.875q2.217 0 4.466.85c1.505.575 2.855 1.5 3.934 2.704z"/></svg>