<svg xmlns="http://www.w3.org/2000/svg" fill="none" viewBox="0 0 100 100"><path fill="url(#a)" fill-rule="evenodd" d="M41.321 8.333c20.442 0 42.408 16.446 37.208 44.084-.058.291-.154.583-.237.875l-.013-1.154c-.346-12.5-6.391-37.225-36.958-37.225-14.137 0-33.904 12.724-33.042 33.991-.166 19.908 14.813 35 33.125 34.717l.304-.004c5-.138 11.513-1.788 12.917-6.904.263-.13 1.084 2.225 1.117 2.491q.3 1.6.8 1.417c4.087-1.45 9.525-5.092 8.133-9.917-.733-2.541-7.396-.612-8.004-1.446 1.742-4.079 9.308-3.858 13.137-2.983 1.846.425 2.738 1.583 4.217 1.842 1.209.216 4.088-.834 4 1.008-6.25 12.675-20.387 22.542-36.7 22.542C15.225 91.667 0 69.058 0 48.904 0 24.78 20.663 8.334 41.321 8.334m-.07 13.75c2.016 0 4.687.938 5.75 2.438 15.287.604 17.97 11.191 19.557 22.683 1.063 7.658 1.313 9.584.759 5.78l.346 2.458c.283 1.866 2.308 3.07 4.091 2.15.6-.313 1.059-.963 1.367-1.959a.833.833 0 0 1 1.075-.541l2.604.916a.833.833 0 0 1 .517.992 9.05 9.05 0 0 1-2.125 3.833c-3.658 3.821-11.488 2.767-12.833-2.583-.584-2.308-.23-2.608-1.438-5.175-1.217-2.588-5.158-2.954-7.042-1.23-1.437 1.313-1.695 3.355-1.691 5.343l.312 9.062A3.75 3.75 0 0 1 48.75 70h-5.833a3.75 3.75 0 0 1-3.75-3.75v-2.708a4.79 4.79 0 0 0-4.792-4.792 4.79 4.79 0 0 0-4.791 4.792v2.708a3.75 3.75 0 0 1-3.75 3.75H20a3.75 3.75 0 0 1-3.75-3.75l.146-13.496c.05-7.85 1.483-15.241 10.292-17.225.833-.187 1.05.542 1.208 1.425.104.642.18 1.05.22 1.225 2.922 12.742 7.292 17.913 13.1 15.508l2.75-1.379 1.06-.541c.657-.342 1.04-.546 1.15-.625.05-.042-.688-.859-1.697-1.934l-4.216-4.445a37 37 0 0 1-.83-.9q-.292-.213-.866 1.275c-.309.654-1.046 1.05-1.133 1.358q-.08.361 1.508 3c.683 1.2.916 2.116-1.292 1.429-4.333-3.333-6.325-9.47-7.016-15.52-.017-.147-.675-7.972-.675-7.972a5 5 0 0 1 4.637-5.337zM95.39 58.25c.155 2.904-1.678 2.933-5.053 2.462l-7.43-1.15c-1.104-.22-1.604-.412-1.304-.612 1.959-1.312 13.617-3.875 13.792-.7zm-3.812-.346-3.858.175c-3.542.321-6.05 1 1.408 1.4l.43.013c3.395.05 5.266-1.496 2.02-1.588M98.525 42.9h.042c3.291 1.658.279 4.292-2.708 5.804-.584.292-2.046.733-4.384 1.313-1.004.166-1.904.383-1.387.666l.041.021c8.134 3.992-13.012 6.392-10.395 5.354l1.583-.616c2.833-1.109 6.725-2.842 6.942-5.571.158-2 5.22-1.842 6.22-4.034q.3-.663-.6-1.62c-.208-.196-.391-.392-.446-.617-.304-1.27 2.917-1.796 5.092-.7m-10.7-1.975c-.562 4.992-10.329 17.467-8.12 11.93l.07-.176c1.242-2.987 1.567-9.254 5.571-13.42 1.042-1.084 2.65.145 2.48 1.666m-33.233-1.054c.083-2.892 4.175-4.034 5.608-1.446.042-5.308-8.087-3.2-5.608 1.446" clip-rule="evenodd"/><defs><linearGradient id="a" x1="-1875.58" x2="6441.69" y1="4122.58" y2="8750.85" gradientUnits="userSpaceOnUse"><stop stop-color="#504af4"/><stop offset="1" stop-color="#3485ff"/></linearGradient></defs></svg>