<svg xmlns="http://www.w3.org/2000/svg" fill="none" viewBox="0 0 100 100"><g clip-path="url(#a)"><g clip-path="url(#b)"><path fill="#fff" d="M50 74.989c13.807 0 25-11.193 25-25s-11.193-25-25-25-25 11.193-25 25 11.193 25 25 25"/><path fill="url(#c)" d="M50 25h43.294a49.987 49.987 0 0 0-86.591.006L28.35 62.5l.02-.005A24.97 24.97 0 0 1 50 25"/><path fill="#1a73e8" d="M50 69.792c10.93 0 19.792-8.861 19.792-19.792 0-10.93-8.861-19.792-19.792-19.792-10.93 0-19.792 8.861-19.792 19.792 0 10.93 8.861 19.792 19.792 19.792"/><path fill="url(#d)" d="M71.649 62.506 50.002 100a49.99 49.99 0 0 0 43.29-74.993H49.998l-.005.019a24.97 24.97 0 0 1 21.656 37.48"/><path fill="url(#e)" d="M28.351 62.507 6.704 25.013A49.987 49.987 0 0 0 50.005 100l21.647-37.494-.014-.014a24.97 24.97 0 0 1-43.287.015"/></g></g><defs><linearGradient id="c" x1="6.703" x2="93.294" y1="31.25" y2="31.25" gradientUnits="userSpaceOnUse"><stop stop-color="#d93025"/><stop offset="1" stop-color="#ea4335"/></linearGradient><linearGradient id="d" x1="43.171" x2="86.466" y1="99.332" y2="24.341" gradientUnits="userSpaceOnUse"><stop stop-color="#fcc934"/><stop offset="1" stop-color="#fbbc04"/></linearGradient><linearGradient id="e" x1="55.413" x2="12.117" y1="96.878" y2="21.887" gradientUnits="userSpaceOnUse"><stop stop-color="#1e8e3e"/><stop offset="1" stop-color="#34a853"/></linearGradient><clipPath id="a"><path fill="#fff" d="M0 0h100v100H0z"/></clipPath><clipPath id="b"><path fill="#fff" d="M0 0h100v100H0z"/></clipPath></defs></svg>