<svg xmlns="http://www.w3.org/2000/svg" fill="none" viewBox="0 0 100 100"><g clip-path="url(#a)"><path fill="#00e7e7" d="M56.321 50.442c3.43 0 5.105 4.133 2.746 6.584L36.663 79.538a3.855 3.855 0 0 1-5.487 0L1.142 49.218a3.9 3.9 0 0 1 0-5.513l25.23-25.346a5.363 5.363 0 0 1 7.541 0 5.43 5.43 0 0 1 0 7.579L16.233 43.78a3.9 3.9 0 0 0 0 5.512l15.018 15.084a3.855 3.855 0 0 0 5.487 0l1.98-1.988a3.77 3.77 0 0 0 1.14-2.758v-3.91c0-.537 0-1.07.08-1.608a3.86 3.86 0 0 1 3.888-3.6H56.32v-.075z"/><path fill="#00bfff" d="M98.917 53.658 73.625 79.083a5.363 5.363 0 0 1-7.542 0 5.43 5.43 0 0 1 0-7.583l17.75-17.842a3.9 3.9 0 0 0 0-5.513L68.75 33.063a3.856 3.856 0 0 0-5.487 0l-1.98 1.988a3.96 3.96 0 0 0-1.141 2.762v3.904c0 .542 0 1.071-.08 1.609a3.86 3.86 0 0 1-3.887 3.6H43.679c-3.429 0-5.108-4.134-2.746-6.584l16.992-17.083 2.208-2.304 3.125-3.142a3.854 3.854 0 0 1 5.492 0l30.104 30.25a4.07 4.07 0 0 1 .075 5.592l-.004.004z"/></g><defs><clipPath id="a"><path fill="#fff" d="M0 0h100v100H0z"/></clipPath></defs></svg>