<svg xmlns="http://www.w3.org/2000/svg" fill="none" viewBox="0 0 100 100"><path fill="url(#a)" d="M60.575 93.284H39.192a1.27 1.27 0 0 1-1.117-.608L.233 9.73A1.37 1.37 0 0 1 1.35 7.597h21.383c.459 0 .863.204 1.117.608l37.842 82.896c.608.966-.05 2.183-1.117 2.183"/><path fill="url(#b)" d="M98.77 7.646H77.084a1.17 1.17 0 0 0-1.016.558l-37.992 83.15a1.242 1.242 0 0 0 1.013 1.93H60.78a1.17 1.17 0 0 0 1.017-.56l37.992-83.15a1.242 1.242 0 0 0-1.017-1.928"/><path fill="#191935" d="M89.983 12.218c-3.658-.2-7.72 2.188-13.612 9.296-1.37 1.68-6.55 1.68-5.892 5.233 3.1 17.575-13.154 54.4-9.55 54.6 3.609.209 12.75-6.75 15.95-10.816 3.2-4.063 5.334-7.417 7.821-12.446 2.492-5.03 5.03-12.292 7.267-20.113 2.233-7.82 2.333-15.541 2.487-19.912.1-1.32-.812-5.637-4.47-5.842"/><path fill="#fff" d="M75.05 25.071c-.862-4.725-4.52-14.275-7.008-17.32-2.488-3.05-4.875-4.472-8.788-3-2.133.812-7.162 3.708-10.82 14.883-1.167 3.554-3.096 5.333-4.825 7.72-1.726 2.334-4.467 5.588-4.467 10.059 0 4.52 1.825 8.329 4.316 11.225 2.488 2.896 13.105 11.429 15.338 13.762 2.288 2.338 8.483 8.534 10.108 11.33l1.625 2.791s3.05-7.058 4.013-9.346c.966-2.233 2.746-14.12 2.896-20.875.154-6.708-1.78-17.829-2.388-21.229"/><path fill="#fff" d="M62.3 85.31c-.404.204-.658-.967.713-2.946 1.375-1.979 4.112-5.791 6.3-7.467 2.229-1.675 7.77-6.145 9.854-6.604 2.083-.458 2.083 1.375 1.067 2.134-1.934 1.475-2.288 1.12-4.725 3.354-2.438 2.233-5.438 3.404-7.263 5.08-1.833 1.674-4.825 5.84-5.946 6.45"/><path fill="#fff" d="M42.392 51.633c-6.35-1.83-16.663-3.859-20.571 10.616 0 0-2.792 1.217-4.875 5.992-3.354 7.67 4.012 28.142 25.8 22.808 10.362-2.541 19-8.025 21.537-10.516 3.859-3.759 6.35-3.959 6.35-3.959-1.729-5.487-14.125-20.829-28.241-24.941m36.62 18.083c2.084-1.93 4.775-4.825 5.942-6.858 1.167-2.03 2.338-4.875 2.542-5.688s-.304-3.354.916-3.2c1.217.15.455 2.133-.054 3.1-.708 1.267-1.575 3.25-2.133 4.62-.558 1.422-2.592 3.96-4.167 5.793-1.625 1.825-3.2 3.095-3.2 3.095z"/><path fill="#fff" d="M78.404 70.375s2.588-1.525 4.671-2.995c2.083-1.475 6.3-5.284 7.317-6.655 1.066-1.375 1.216-2.641 1.775-2.333.966.608-.659 2.03-1.321 2.688-.708.662-3.096 3-4.925 4.52-1.88 1.525-6.708 5.03-7.517 4.775"/><path fill="url(#c)" d="M71.9 71.595c.054.204.208.354.208.1.454-4.417 2.23-9.65 2.284-22.55.05-13.667 0-19.913-9.959-22.45-.658-.154-1.266 0-1.166.658.254 1.525 3.708 9.042 5.433 18.896 2.083 12.137 2.792 23.312 3.2 25.346"/><path fill="url(#d)" d="M28.779 65.5c-3.404.967 4.775 2.642 12.596 4.167 5.333 1.067 22.146 3.654 27.833 3.958.104 0 .154-.15.05-.2-5.687-3.708-18.283-11.787-21.891-11.787-6.5-.05-16.05 3.15-18.588 3.862"/><path fill="url(#e)" d="M48.283 39.136s2.692 5.637 6.908 9.145c3.655 2.996 6.859 4.926 8.026 6.346 4.012 4.725 5.583 13.005 7.566 16.917.304.558-14.575-14.17-22.146-26.77-1.725-2.892-.812-6.4-.354-5.638"/><path fill="url(#f)" d="M57.833 14.403c1.575-.309 5.738 2.083 5.738 3.3 0 .558-5.992-.558-7.008-1.067-1.375-.708.25-2.033 1.27-2.233"/><path fill="url(#g)" d="M55.088 18.773c.762-.663 3.962.05 4.575.608.608.662-3.15 1.067-4.371 1.22-1.067.1-.963-1.162-.204-1.828"/><path fill="url(#h)" d="M62.458 8.917c2.334.205 7.004 7.059 5.992 7.875-.558.405-7.825-4.066-8.892-5.333-.916-1.12 1.121-2.696 2.9-2.542"/><path fill="url(#i)" d="M85.667 19.532c1.166.15 3.504 2.742 3.25 3.659-.1.404-4.063-1.78-4.671-2.388-.812-.867.663-1.375 1.42-1.27"/><path fill="url(#j)" d="M82.721 22.225c.558-.354 2.846.917 2.896 1.525.05.508-2.238-.054-3.15-.208-.763-.1-.354-.913.25-1.317z"/><path fill="url(#k)" d="M89.525 16.738c1.625.663 3 5.233 2.492 5.692-.559.504-4.625-3.404-5.084-4.521-.404-.967 1.375-1.63 2.592-1.17"/><path fill="url(#l)" d="M66.975 55.293c-.508-2.542-1.32-13.054-3.958-19.354-1.934-4.571-7.167-13.055-8.234-10.159-1.575 4.267-5.129 8.23-3.908 11.375 1.217 3.154 5.334 7.471 8.43 10.163 3 2.641 7.724 8.229 7.67 7.975"/><path fill="url(#m)" d="M38.583 71.901c-4.012-.558-10.158-1.829-13.97-2.591-2.388-.459.408 6.146 3.658 7.875 2.791 1.47 15.392.658 23.72-.154 6.909-.709 17.472-2.542 13.867-2.588a262 262 0 0 1-27.275-2.542"/><path fill="url(#n)" d="M66.77 76.116c.205-.105.459-.509.305-.409-3.096 1.017-14.525 4.167-27.021 5.538-9.55 1.016-11.583.204-12.696.708-1.32.563 2.334 5.542 10.513 5.084 9.346-.559 23.566-7.467 28.9-10.921"/><path fill="url(#o)" d="M29.642 60.773c-.609 0-.609-1.775 1.375-2.642 0 0 2.233-2.841 6.7-1.979 3.1.609 8.025 3.404 7.366 3.25-2.333-.558-12.496 1.371-15.441 1.371"/><path fill="url(#p)" d="M74.9 69.614c0-.2 1.979-3.3 4.57-17.067 1.626-8.529 1.217-16.05.963-17.52-.15-1.067 3.504 1.066 3.558 5.078.05 2.896-.612 14.476-5.841 24.888-2.134 4.317-3.25 4.87-3.25 4.62"/><path fill="url(#q)" d="M82.467 58.897c-.05.104-.255.054-.205-.05 1.067-2.334 3.963-12.292 4.571-19.859.254-2.945.254-5.333.613-6.095.354-.917 2.587-3.459 3.096-3.759 1.066-.608.558 5.638-1.83 13.409-1.42 4.825-4.366 13.054-6.245 16.354"/><defs><linearGradient id="a" x1="9.054" x2="48.017" y1="13.747" y2="79.043" gradientUnits="userSpaceOnUse"><stop stop-color="#19d46a"/><stop offset="1" stop-color="#0d00b5"/></linearGradient><linearGradient id="b" x1="53.304" x2="80.55" y1="85.583" y2="24.329" gradientUnits="userSpaceOnUse"><stop stop-color="#d70066"/><stop offset="1" stop-color="#0d00b5"/></linearGradient><linearGradient id="c" x1="67.879" x2="74.142" y1="27.078" y2="71.878" gradientUnits="userSpaceOnUse"><stop stop-color="#8890f4"/><stop offset=".283" stop-color="#ffcffd"/><stop offset=".606" stop-color="#f4f0fe"/><stop offset=".734" stop-color="#efffff"/><stop offset="1" stop-color="#75d9dd"/></linearGradient><linearGradient id="d" x1="25.587" x2="71.775" y1="60.696" y2="73.379" gradientUnits="userSpaceOnUse"><stop offset=".005" stop-color="#6f69f4"/><stop offset=".415" stop-color="#ffcead"/><stop offset=".596" stop-color="#efefb9"/><stop offset=".673" stop-color="#e7ffbf"/><stop offset="1" stop-color="#75d9dd"/></linearGradient><linearGradient id="e" x1="44.946" x2="77.016" y1="37.394" y2="75.744" gradientUnits="userSpaceOnUse"><stop offset=".005" stop-color="#6f69f4"/><stop offset=".382" stop-color="#ffafff"/><stop offset=".513" stop-color="#f5d1e4"/><stop offset=".673" stop-color="#e7ffbf"/><stop offset=".972" stop-color="#75d9dd"/></linearGradient><linearGradient id="f" x1="62.508" x2="59.679" y1="20.074" y2="16.636" gradientUnits="userSpaceOnUse"><stop stop-color="#ffa2ff"/><stop offset=".557" stop-color="#ffffb0"/><stop offset=".713" stop-color="#ddffca"/><stop offset="1" stop-color="#97ffff"/></linearGradient><linearGradient id="g" x1="58.596" x2="56.063" y1="21.785" y2="18.514" gradientUnits="userSpaceOnUse"><stop stop-color="#ffa2ff"/><stop offset=".557" stop-color="#ffffb0"/><stop offset=".713" stop-color="#ddffca"/><stop offset="1" stop-color="#97ffff"/></linearGradient><linearGradient id="h" x1="67.892" x2="63.962" y1="19.313" y2="13.301" gradientUnits="userSpaceOnUse"><stop stop-color="#ffa2ff"/><stop offset=".557" stop-color="#ffffb0"/><stop offset=".713" stop-color="#ddffca"/><stop offset="1" stop-color="#97ffff"/></linearGradient><linearGradient id="i" x1="87.571" x2="86.425" y1="24.62" y2="21.553" gradientUnits="userSpaceOnUse"><stop stop-color="#ffa2ff"/><stop offset=".557" stop-color="#ffffb0"/><stop offset=".713" stop-color="#ddffca"/><stop offset="1" stop-color="#97ffff"/></linearGradient><linearGradient id="j" x1="84.504" x2="83.342" y1="25.133" y2="22.275" gradientUnits="userSpaceOnUse"><stop stop-color="#ffa2ff"/><stop offset=".557" stop-color="#ffffb0"/><stop offset=".713" stop-color="#ddffca"/><stop offset="1" stop-color="#97ffff"/></linearGradient><linearGradient id="k" x1="90.8" x2="89.513" y1="24.021" y2="19.651" gradientUnits="userSpaceOnUse"><stop stop-color="#ffa2ff"/><stop offset=".557" stop-color="#ffffb0"/><stop offset=".713" stop-color="#ddffca"/><stop offset="1" stop-color="#97ffff"/></linearGradient><linearGradient id="l" x1="68.896" x2="51.579" y1="49.622" y2="29.447" gradientUnits="userSpaceOnUse"><stop offset=".005" stop-color="#6f69f4"/><stop offset=".329" stop-color="#ffd9ad"/><stop offset=".635" stop-color="#eafabd"/><stop offset=".673" stop-color="#e7ffbf"/><stop offset="1" stop-color="#75d9dd"/></linearGradient><linearGradient id="m" x1="67.658" x2="23.917" y1="75.522" y2="73.351" gradientUnits="userSpaceOnUse"><stop offset=".005" stop-color="#6f69f4"/><stop offset=".33" stop-color="#ffecec"/><stop offset=".591" stop-color="#edfacb"/><stop offset=".673" stop-color="#e7ffbf"/><stop offset=".972" stop-color="#75d9dd"/></linearGradient><linearGradient id="n" x1="27.062" x2="67.375" y1="82.674" y2="80.545" gradientUnits="userSpaceOnUse"><stop offset=".005" stop-color="#6f69f4"/><stop offset=".33" stop-color="#ffecec"/><stop offset=".591" stop-color="#edfacb"/><stop offset=".673" stop-color="#e7ffbf"/><stop offset=".972" stop-color="#75d9dd"/></linearGradient><linearGradient id="o" x1="61.492" x2="27.808" y1="65.511" y2="56.927" gradientUnits="userSpaceOnUse"><stop offset=".005" stop-color="#6f69f4"/><stop offset=".601" stop-color="#ffcead"/><stop offset=".707" stop-color="#efefb9"/><stop offset=".752" stop-color="#e7ffbf"/><stop offset=".976" stop-color="#75d9dd"/></linearGradient><linearGradient id="p" x1="83.296" x2="75.562" y1="34.601" y2="73.731" gradientUnits="userSpaceOnUse"><stop stop-color="#8890f4"/><stop offset=".425" stop-color="#ffb8fd"/><stop offset=".549" stop-color="#f4d9fe"/><stop offset=".673" stop-color="#e7ffff"/><stop offset="1" stop-color="#75d9dd"/></linearGradient><linearGradient id="q" x1="82.583" x2="89.971" y1="58.168" y2="30.922" gradientUnits="userSpaceOnUse"><stop offset=".005" stop-color="#6f69f4"/><stop offset=".329" stop-color="#ffcead"/><stop offset=".571" stop-color="#efefb9"/><stop offset=".673" stop-color="#e7ffbf"/><stop offset="1" stop-color="#75d9dd"/></linearGradient></defs></svg>