<svg xmlns="http://www.w3.org/2000/svg" fill="none" viewBox="0 0 100 100"><g clip-path="url(#a)"><path fill="url(#b)" d="m63.629 68.978 23.833 20.32s-13.65 13.021-30.095-11.941z"/><path fill="url(#c)" d="m64.167 68.848 19.15 24.779s-16.042 9.958-26.988-17.888l7.842-6.892z"/><path fill="url(#d)" d="M57.637 87.677h-15.5a1.835 1.835 0 0 1-1.708-1.125L8.433 12.248c-.362-.808.271-1.754 1.167-1.754h15.692c.766 0 1.441.45 1.708 1.125l31.812 74.296c.317.854-.27 1.758-1.17 1.758z"/><path fill="url(#e)" d="M31.82 14.778C23.126 17.12 19.926 25.05 19.926 25.05s5.542-1.937 13.25-3.65a126 126 0 0 1 10.63-1.754c-.18-2.57-5.318-6.667-11.984-4.867"/><path fill="url(#f)" d="M27.767 21.043c-6.85 5.9-6.667 14.417-6.667 14.417s3.916-3.783 9.82-9.012c3.963-3.513 8.467-6.667 8.467-6.667-1.395-2.163-6.12-3.47-11.62 1.262"/><path fill="url(#g)" d="M26.279 29.916c-5.68 6.937-4.375 14.104-4.375 14.104s3.337-3.2 8.337-9.238a130 130 0 0 1 7.346-7.883c-1.712-1.9-6.804-2.433-11.308 3.017"/><path fill="url(#h)" d="M62.32 17.255s-1.708-4.458-5.224-6.396c-3.425-1.891-12.617-2.3-19.104 2.567-8.605 6.4-11.534 16.85-12.167 19.333-6.217 24.146 6.491 37.75 20.592 44.334L62.32 17.259z"/><path fill="url(#i)" d="M20.467 46.857a30.85 30.85 0 0 0 31.491 30.188L50.654 15.32c-17.033.404-30.55 14.504-30.187 31.537"/><path fill="url(#j)" d="M26.234 52.583c1.845 16.8 17.029 28.921 33.833 27.075l-6.754-60.916a30.69 30.69 0 0 0-27.08 33.841"/><path fill="url(#k)" d="M38.804 15.771a12.946 12.946 0 0 0-.404 17.48 13.025 13.025 0 0 0 17.392 2.029z"/><path fill="url(#l)" d="M49.125 33.655a12.12 12.12 0 1 0 .45-24.236 12.12 12.12 0 0 0-.45 24.236"/><path fill="url(#m)" d="M36.37 56.77c4.234 13.47 18.609 20.996 32.08 16.758L53.129 24.691A25.574 25.574 0 0 0 36.37 56.77"/><path fill="url(#n)" d="M39.842 50.328a22.11 22.11 0 0 0 25.996 17.388l-8.65-43.383C45.246 26.677 37.454 38.34 39.842 50.328"/><path fill="url(#o)" d="M46.146 11.757s-2.7 4.688-1.213 9.917c1.846 6.483 8.738 7.429 11.667 6.708l4.191-8.783-7.345-9.825z"/><path fill="url(#p)" d="M53.762 24.194s-2.25.675-3.696 3.375c-1.216 2.254-.854 5.363-.854 5.363l9.146-7.025z"/><path fill="url(#q)" d="M63.854 41.542s-7.75-.092-9.687-7.3c-1.305-4.908 1.037-8.292 1.037-8.292l5.046-1.483z"/><path fill="url(#r)" d="M29.25 3.153s1.667 7.704 10.05 10.813c6.35 2.342 16.983-4.054 16.983-4.054s-5.583-2.3-13.875-2.3c-6.216 0-13.158-4.459-13.158-4.459"/><path fill="url(#s)" d="M70.434 19.462s.991-5.179-2.3-10c-2.521-3.696-8.834-7.841-20.542-5.27C37.722 6.353 36.238 0 36.238 0 35.92 1.625 37 12.167 47.275 10.633 59.888 8.741 58.81 21.087 63.267 23.158c3.696 1.625 7.167-3.696 7.167-3.696"/><path fill="url(#t)" d="M57.32 26.715a6.217 6.217 0 1 0 0-12.434 6.217 6.217 0 0 0 0 12.434"/><path fill="url(#u)" d="M41.913 87.677h15.95a1.83 1.83 0 0 0 1.708-1.125l31.996-74.304c.362-.808-.271-1.754-1.167-1.754H74.267a1.83 1.83 0 0 0-1.713 1.125L40.742 85.915c-.317.854.27 1.762 1.17 1.762"/><path fill="url(#v)" d="M41.913 87.68h15.95a1.83 1.83 0 0 0 1.708-1.126l25.417-58.933c.358-.812-.271-1.758-1.175-1.758H67.687a1.83 1.83 0 0 0-1.716 1.125L40.74 85.92c-.316.854.272 1.758 1.172 1.758"/><path fill="url(#w)" d="M66.963 20.365s.225-7.479-7.525-11.4c-10.813-5.454-20.725 7.48-32.08 0 0 0 2.3 11.534 25.459 7.167 5.72-1.084 8.246.716 9.504 2.791 1.083 1.755.992 3.288.992 4.188z"/><path fill="url(#x)" d="M65.296 21.761s.583-4.054-2.792-6.533c-3.65-2.658-6.583-2.117-6.583-2.117s2.075-1.262 5.05-1.262c1.58 0 2.117-.225 2.117-.225s.225-.721-.767-1.85c8.47 3.741 6.262 10.137 6.262 10.137z"/><path fill="url(#y)" d="M68.133 28.565s-3.333 3.108-8.108 1.483c-.317-.087-.27-1.979 0-3.195.27-1.4 1.217-2.93 1.983-3.876 5.18.45 6.125 5.588 6.125 5.588"/><path fill="url(#z)" d="M70.433 19.149s2.567 4.008 1.8 8.558c-.9 5.27-5.9 7.75-5.9 7.75s2.388-9.192-4.375-12.48c0 0 1.4-1.532 3.43-2.478 2.97-1.35 5.045-1.35 5.045-1.35"/><path fill="url(#A)" d="M56.333 22.932a3.019 3.019 0 1 0 0-6.038 3.019 3.019 0 0 0 0 6.038"/><path fill="url(#B)" d="M55.654 21.537c1.07 0 1.938-.93 1.938-2.075 0-1.142-.867-2.071-1.938-2.071s-1.937.929-1.937 2.07c0 1.147.866 2.076 1.937 2.076"/><path fill="#fff" d="M57.004 18.43a.452.452 0 1 0 0-.905.452.452 0 0 0 0 .904"/></g><defs><linearGradient id="b" x1="58.625" x2="84.637" y1="78.549" y2="83.678" gradientUnits="userSpaceOnUse"><stop offset=".006" stop-color="#e8096a"/><stop offset="1" stop-color="#00afff"/></linearGradient><linearGradient id="d" x1="49.017" x2="16.296" y1="85.552" y2="8.048" gradientUnits="userSpaceOnUse"><stop stop-color="#412df5"/><stop offset=".691" stop-color="#0606b6"/><stop offset="1" stop-color="#4b00b4"/></linearGradient><linearGradient id="e" x1="21.792" x2="35.204" y1="20.274" y2="18.824" gradientUnits="userSpaceOnUse"><stop stop-color="#e60030"/><stop offset="1" stop-color="#690040"/></linearGradient><linearGradient id="f" x1="22.329" x2="33.054" y1="28.139" y2="25.056" gradientUnits="userSpaceOnUse"><stop stop-color="#ff6500"/><stop offset="1" stop-color="#ee182c"/></linearGradient><linearGradient id="g" x1="23.033" x2="35.791" y1="33.782" y2="36.245" gradientUnits="userSpaceOnUse"><stop stop-color="#ea4d07"/><stop offset="1" stop-color="#c5171e"/></linearGradient><linearGradient id="h" x1="50.096" x2="29.404" y1="12.53" y2="75.084" gradientUnits="userSpaceOnUse"><stop stop-color="#0091ff"/><stop offset=".005" stop-color="#0292fc"/><stop offset=".126" stop-color="#37a5c2"/><stop offset=".249" stop-color="#65b58e"/><stop offset=".372" stop-color="#8cc363"/><stop offset=".496" stop-color="#accf3f"/><stop offset=".62" stop-color="#c4d823"/><stop offset=".745" stop-color="#d6de10"/><stop offset=".871" stop-color="#e1e204"/><stop offset="1" stop-color="#e4e300"/></linearGradient><linearGradient id="i" x1="28.346" x2="56.733" y1="20.028" y2="76.665" gradientUnits="userSpaceOnUse"><stop offset=".006" stop-color="#de003b"/><stop offset=".241" stop-color="#d976ff"/><stop offset="1" stop-color="#00a4ea"/></linearGradient><linearGradient id="m" x1="47.646" x2="52.537" y1="32.749" y2="67.291" gradientUnits="userSpaceOnUse"><stop stop-color="#ff9500"/><stop offset="1" stop-color="#f7ff2b"/></linearGradient><linearGradient id="n" x1="64.563" x2="44.15" y1="56.545" y2="35.316" gradientUnits="userSpaceOnUse"><stop offset=".207" stop-color="#ff8e00"/><stop offset="1" stop-color="#f41b56"/></linearGradient><linearGradient id="p" x1="50.129" x2="53.4" y1="30.99" y2="27.432" gradientUnits="userSpaceOnUse"><stop stop-color="#ffb41f"/><stop offset="1" stop-color="#f42a56"/></linearGradient><linearGradient id="q" x1="56.133" x2="62.212" y1="39.892" y2="28.867" gradientUnits="userSpaceOnUse"><stop stop-color="#ffb900"/><stop offset="1" stop-color="#f41880"/></linearGradient><linearGradient id="s" x1="36.192" x2="70.575" y1="11.733" y2="11.733" gradientUnits="userSpaceOnUse"><stop stop-color="#ff6500"/><stop offset="1" stop-color="#ee182c"/></linearGradient><linearGradient id="u" x1="43.983" x2="88.942" y1="88.298" y2="8.456" gradientUnits="userSpaceOnUse"><stop stop-color="#008dff"/><stop offset=".181" stop-color="#331dea"/><stop offset=".833" stop-color="#39c3fe"/><stop offset="1" stop-color="#60f5a9"/></linearGradient><linearGradient id="x" x1="62.279" x2="62.504" y1="10.961" y2="20.615" gradientUnits="userSpaceOnUse"><stop stop-color="#e60030"/><stop offset="1" stop-color="#690040"/></linearGradient><linearGradient id="y" x1="63.896" x2="64.275" y1="29.765" y2="23.744" gradientUnits="userSpaceOnUse"><stop stop-color="#ffd71f"/><stop offset="1" stop-color="#dd001b"/></linearGradient><linearGradient id="z" x1="63.542" x2="71.362" y1="26.965" y2="27.511" gradientUnits="userSpaceOnUse"><stop stop-color="#ff4c00"/><stop offset="1" stop-color="#ffff1e"/></linearGradient><radialGradient id="c" cx="0" cy="0" r="1" gradientTransform="rotate(5.75 -775.454 695.394)scale(26.7866)" gradientUnits="userSpaceOnUse"><stop stop-color="#00caff"/><stop offset="1" stop-color="#38e700"/></radialGradient><radialGradient id="j" cx="0" cy="0" r="1" gradientTransform="rotate(-6.338 363.559 -399.785)scale(47.8408)" gradientUnits="userSpaceOnUse"><stop stop-color="#00dfff"/><stop offset="1" stop-color="#abe700"/></radialGradient><radialGradient id="k" cx="0" cy="0" r="1" gradientTransform="rotate(-40.957 56.621 -46.483)scale(11.5371)" gradientUnits="userSpaceOnUse"><stop stop-color="#0068ff"/><stop offset="1" stop-color="#9ce830"/></radialGradient><radialGradient id="l" cx="0" cy="0" r="1" gradientTransform="translate(49.125 21.538)scale(12.1456)" gradientUnits="userSpaceOnUse"><stop stop-color="#008a43"/><stop offset="1" stop-color="#a3e830"/></radialGradient><radialGradient id="o" cx="0" cy="0" r="1" gradientTransform="translate(55.85 20.29)scale(9.99187)" gradientUnits="userSpaceOnUse"><stop stop-color="red"/><stop offset="1" stop-color="#ff0"/></radialGradient><radialGradient id="r" cx="0" cy="0" r="1" gradientTransform="rotate(-9.492 78.287 -239.71)scale(13.8147)" gradientUnits="userSpaceOnUse"><stop offset=".001" stop-color="#72003f"/><stop offset="1" stop-color="#ca1d67"/></radialGradient><radialGradient id="t" cx="0" cy="0" r="1" gradientTransform="translate(57.404 20.457)scale(4.91858)" gradientUnits="userSpaceOnUse"><stop stop-color="#d1dee7"/><stop offset="1" stop-color="#fff"/></radialGradient><radialGradient id="v" cx="0" cy="0" r="1" gradientTransform="rotate(203.84 40.125 27.383)scale(11.4812 31.8382)" gradientUnits="userSpaceOnUse"><stop offset=".001" stop-color="#7f06fb"/><stop offset="1" stop-color="#7a10fb" stop-opacity="0"/></radialGradient><radialGradient id="w" cx="0" cy="0" r="1" gradientTransform="translate(29.584 11.753)scale(36.002)" gradientUnits="userSpaceOnUse"><stop offset=".001" stop-color="#ff0042"/><stop offset=".422" stop-color="#0068ff"/><stop offset=".659" stop-color="#1877e2"/><stop offset="1" stop-color="#4eefbe"/></radialGradient><radialGradient id="A" cx="0" cy="0" r="1" gradientTransform="translate(54.888 19.998)scale(3.77125)" gradientUnits="userSpaceOnUse"><stop stop-color="#ff9100"/><stop offset=".226" stop-color="#ff9500"/><stop offset=".443" stop-color="#fea000"/><stop offset=".657" stop-color="#fcb400"/><stop offset=".867" stop-color="#f9cf00"/><stop offset="1" stop-color="#f7e400"/></radialGradient><radialGradient id="B" cx="0" cy="0" r="1" gradientTransform="matrix(4.05566 0 0 4.05567 54.708 19.332)" gradientUnits="userSpaceOnUse"><stop/><stop offset=".092" stop-color="#000004"/><stop offset=".177" stop-color="#01000f"/><stop offset=".258" stop-color="#020021"/><stop offset=".338" stop-color="#03003c"/><stop offset=".417" stop-color="#05005d"/><stop offset=".494" stop-color="#080087"/><stop offset=".571" stop-color="#0a00b8"/><stop offset=".645" stop-color="#0e00f0"/><stop offset=".654" stop-color="#0e00f7"/></radialGradient><clipPath id="a"><path fill="#fff" d="M0 0h100v100H0z"/></clipPath></defs></svg>