<svg xmlns="http://www.w3.org/2000/svg" fill="none" viewBox="0 0 100 100"><path fill="#39594d" fill-rule="evenodd" d="M33.867 58.746c2.466 0 7.375-.138 14.158-2.93 7.904-3.254 23.633-9.166 34.98-15.233 7.937-4.241 11.416-9.858 11.416-17.416a19 19 0 0 0-19.004-19H31.454A27.29 27.29 0 0 0 4.167 31.458c0 15.071 11.437 27.288 29.7 27.288" clip-rule="evenodd"/><path fill="#d18ee2" fill-rule="evenodd" d="M41.3 77.541a18.28 18.28 0 0 1 11.27-16.883l13.847-5.75c14.004-5.809 29.416 4.483 29.416 19.646a21.267 21.267 0 0 1-21.27 21.266l-14.988-.004A18.276 18.276 0 0 1 41.3 77.537z" clip-rule="evenodd"/><path fill="#ff7759" d="M19.9 62.341A15.73 15.73 0 0 0 4.167 78.075v2.037a15.733 15.733 0 0 0 31.462 0V78.07A15.73 15.73 0 0 0 19.9 62.341"/></svg>