<svg xmlns="http://www.w3.org/2000/svg" fill="none" viewBox="0 0 100 100"><g fill="#5eae91" clip-path="url(#a)"><path d="M25.058 0q10.938 1.514 16.863 10.508c.662 1 1.275 2.392 1.733 3.242a.32.32 0 0 0 .308.167 64 64 0 0 1 12.009 0 .32.32 0 0 0 .308-.167c.567-1.042 1.225-2.512 2.063-3.72C62.3 4.32 67.812.982 74.867 0h4.791q3.451.646 4.334.933 7.356 2.412 11.75 8.555a22.4 22.4 0 0 1 4.25 13.879q-.162 7.455-5.142 13.775a.47.47 0 0 0-.042.525 39.3 39.3 0 0 1 4.854 13.958c.18 1.208.28 2.596.3 4.15q.043 3.263-.045 4.175c-1.975 20.087-18.3 34.37-37.15 38.642q-4.107.93-8.988 1.375h-7.57a209 209 0 0 1-4.655-.596 54 54 0 0 1-8.65-1.938C21.467 93.858 11.18 86.43 5.158 75.98q-3.5-6.075-4.583-12.225Q.263 61.82 0 59.88v-6.066a40.6 40.6 0 0 1 5.163-16.209.43.43 0 0 0-.042-.487 21.9 21.9 0 0 1-4.667-9.792c-.142-.73-.296-1.458-.454-2.2v-4.812q.57-3.764 1.633-6.259c2.85-6.7 8.73-11.929 15.988-13.508Q18.945.257 20.283 0zm15.75 22.688a18.1 18.1 0 1 0-36.195 0 18.1 18.1 0 0 0 36.2 0zm54.55 0a18.099 18.099 0 0 0-30.898-12.8 18.1 18.1 0 1 0 30.898 12.8M49.967 74.979q1.032 0 1.97-.025c3.62-.105 7.235-.36 10.834-.762a80.7 80.7 0 0 0 15.016-3.163C83.55 69.233 92.1 65.5 94.721 59.633q.799-1.782.591-4.57c-.412-5.38-1.762-10.084-4.054-14.126a.15.15 0 0 0-.162-.07.2.2 0 0 0-.059.029q-6.356 4.482-13.237 4.583c-4.833.075-9.167-1.154-12.983-3.696-5.875-3.908-9.292-9.458-10.242-16.662-.292-2.18-.104-4.054.242-6.38a.24.24 0 0 0-.05-.191.25.25 0 0 0-.175-.096q-1.494-.164-4.613-.166-3.114.002-4.604.166a.26.26 0 0 0-.175.092.25.25 0 0 0-.05.192c.342 2.325.53 4.2.238 6.379Q43.95 35.916 35.138 41.77q-5.737 3.805-12.992 3.691c-4.584-.07-9-1.604-13.234-4.595a.155.155 0 0 0-.18 0 .2.2 0 0 0-.04.046q-3.439 6.049-4.059 14.116-.218 2.787.584 4.575c2.616 5.871 11.166 9.604 16.925 11.409a80.4 80.4 0 0 0 15.016 3.17c3.538.404 7.146.659 10.834.771q.937.025 1.975.025m.012 20.367c3.53 0 6.567-.275 10.304-.996 14.509-2.8 27.338-11.896 32.946-25.767a.08.08 0 0 0-.07-.104.06.06 0 0 0-.042.017 36 36 0 0 1-5.855 3.625c-7.504 3.737-16.095 5.779-24.487 6.729-4.137.47-8.492.75-12.792.75s-8.65-.28-12.787-.75c-8.392-.958-16.983-2.992-24.488-6.73a35.6 35.6 0 0 1-5.85-3.633.1.1 0 0 0-.045-.012.08.08 0 0 0-.071.104c5.604 13.871 18.433 22.967 32.941 25.767 3.738.725 6.775 1 10.3 1z"/><path d="M24.992 38.5a13.512 13.512 0 1 0 0-27.025 13.512 13.512 0 0 0 0 27.024m49.987 0a13.512 13.512 0 1 0 0-27.025 13.512 13.512 0 0 0 0 27.024M38.45 65.411a3.89 3.89 0 1 0 .255-7.777 3.89 3.89 0 0 0-.255 7.777m23.07.004a3.896 3.896 0 1 0 0-7.792 3.896 3.896 0 0 0 0 7.792"/></g><defs><clipPath id="a"><path fill="#fff" d="M0 0h100v100H0z"/></clipPath></defs></svg>