<svg xmlns="http://www.w3.org/2000/svg" fill="none" viewBox="0 0 100 100"><g clip-path="url(#a)"><path fill="#461816" d="M80.875 44.93a11.47 11.47 0 0 1 10.296 5.646 14.57 14.57 0 0 1 1.604 11.167l-.567 2.175a41.64 41.64 0 0 1-13.15 21.075c-2.52 2.154-5.346 4.425-8.679 6.35l-.117.07c-1.674.967-3.683 2.13-5.824 3.15a48.9 48.9 0 0 1-15.826 4.863c-3.558.463-7.15.646-10.737.55H37.8a35.8 35.8 0 0 1-21.025-7.792l-.05-.041-.05-.042A33.43 33.43 0 0 1 5.083 72.584a45.5 45.5 0 0 1-.425-15.745A65.1 65.1 0 0 1 12 35a90.7 90.7 0 0 1 10.133-15.325A64.3 64.3 0 0 1 36.967 6.418 41.5 41.5 0 0 1 51.833.434h.017l.012-.008c8.571-1.6 15.596 1.558 20.934 5.25a34.5 34.5 0 0 1 9.979 10.47l.1.168.096.175a22.8 22.8 0 0 1 2.117 16.716 60.4 60.4 0 0 1-4.213 11.725"/><path fill="#fff" d="M78.587 54.853a3.116 3.116 0 0 1 5.233.129 6 6 0 0 1 .663 4.596l-.571 2.175a33.07 33.07 0 0 1-10.433 16.725c-2.384 2.041-4.742 3.912-7.392 5.442-1.78 1.029-3.57 2.066-5.43 2.945a40.1 40.1 0 0 1-13.145 4.055c-3.117.408-6.262.57-9.404.483a27.2 27.2 0 0 1-15.988-5.925 24.86 24.86 0 0 1-8.629-14.558 36.9 36.9 0 0 1-.354-12.834 56.5 56.5 0 0 1 6.417-19.033 82 82 0 0 1 9.216-13.95 55.8 55.8 0 0 1 12.867-11.5 32.9 32.9 0 0 1 11.8-4.75c5.446-1.021 10.142.862 14.504 3.887a25.9 25.9 0 0 1 7.525 7.884 14.24 14.24 0 0 1 1.309 10.479 51.6 51.6 0 0 1-4.126 11.125l-.929 2.07a1073 1073 0 0 1-4.041 8.905 3.175 3.175 0 0 1-4.042 1.946 14.12 14.12 0 0 1-9.513-10.375 18.95 18.95 0 0 1 1.625-10.109c1.2-3.108 2.542-6.154 3.888-9.2l1.033-2.346a2.21 2.21 0 0 0-.85-3.091 9.8 9.8 0 0 0-5 2.925 105 105 0 0 0-6.725 7.362A89.8 89.8 0 0 0 37.183 47.75a31.6 31.6 0 0 0-3.4 11.47 29.3 29.3 0 0 0 .291 9.246 8.56 8.56 0 0 0 8.059 7.146 36.14 36.14 0 0 0 21.316-5.533 79 79 0 0 0 6.98-5.392c3.133-2.958 5.733-6.329 8.158-9.833"/></g><defs><clipPath id="a"><path fill="#fff" d="M0 0h100v100H0z"/></clipPath></defs></svg>