<svg xmlns="http://www.w3.org/2000/svg" fill="none" viewBox="0 0 100 100"><g clip-path="url(#a)"><path fill="#fff" fill-opacity=".965" stroke="#fffffe" stroke-linecap="round" stroke-width=".378" d="M50 100c27.614 0 50-22.387 50-50 0-27.615-22.386-50-50-50S0 22.384 0 50c0 27.613 22.386 50 50 50Z"/><path fill="#000" d="M83.02 58.935 58.903 83.003c-.096.097-.24.145-.337.097l-32.944-8.827c-.145-.048-.241-.145-.241-.241l-8.875-32.896c-.048-.144 0-.24.096-.337L40.72 16.73c.097-.096.242-.145.338-.096L74 25.46c.144.049.24.145.24.242l8.828 32.895c.096.145.048.241-.049.338M50.704 32.744l-32.365 8.634c-.048 0-.097.096-.048.144l23.682 23.635c.049.048.145.048.145-.048L50.8 32.792c.048 0-.048-.096-.096-.048"/></g><defs><clipPath id="a"><path fill="#fff" d="M0 0h100v100H0z"/></clipPath></defs></svg>