<svg xmlns="http://www.w3.org/2000/svg" fill="none" viewBox="0 0 100 100"><g clip-path="url(#a)"><path fill="#4285f4" fill-rule="evenodd" d="M24.95 6.758a35.58 35.58 0 0 0-10.575 28.434c1.454 18.366 18.775 33.312 34.483 33.312 14.613 0 20.334-12.754 18.921-21.417a18 18 0 0 0-3.958-8.637 36.7 36.7 0 0 1 7.537 5.417c6.334 5.896 10.167 13.454 10.78 21.25C83.5 82.346 70.75 100 49.429 100c-7.062 0-14.5-1.8-20.75-4.763C11.733 87.238 0 69.988 0 50.009c0-18.462 10.02-34.591 24.95-43.25M50.567 0c7.066 0 14.504 1.8 20.75 4.763 16.958 8 28.683 25.25 28.683 45.229 0 18.462-10.02 34.596-24.95 43.25a35.58 35.58 0 0 0 10.575-28.434C84.171 46.442 66.85 31.496 51.142 31.496c-14.613 0-20.334 12.754-18.921 21.417a17.9 17.9 0 0 0 3.97 8.637 36.3 36.3 0 0 1-7.541-5.417c-6.333-5.896-10.167-13.446-10.787-21.25C16.5 17.654 29.25 0 50.57 0z" clip-rule="evenodd"/></g><defs><clipPath id="a"><path fill="#fff" d="M0 0h100v100H0z"/></clipPath></defs></svg>