<svg xmlns="http://www.w3.org/2000/svg" fill="none" viewBox="0 0 100 100"><g clip-path="url(#a)"><path fill="#4e81ee" d="m82.25 90.075 17.554-43.892q.083-.2.113-.416l.012-.125a1.7 1.7 0 0 0-.083-.696l-.03-.108a2 2 0 0 0-.187-.355l-.012-.02L68.867.541c-.009-.013 0-.025-.013-.042h.017v.72h-.042C68.404.163 67.675.034 66.975.188l-.004-.012c-.004.004-.013-.013-.013-.013h-.025s0-.158-.008-.158L18.608 13.096c-.025.008-.05-.021-.075-.013-.091.03-.183.042-.266.088q-.084.041-.163.091c-.054.034-.108.063-.154.105a1.9 1.9 0 0 0-.492.641l-.041.071L0 57.996c-.017.054.096.108.096.166v.617c0 .08 0 .158.012.238l-.012.004v.025c0 .204-.046.4.066.579H.125c0 .008-.033.008-.033.008l-.042.005c.03.05.033.095.067.141l30.737 39.525v.021l.025.02c.025.034.054.055.083.084q.04.044.084.084c.033.033.062.07.096.095l.083.059q.205.132.433.22c.046.013.088.034.134.042.02.008.041.021.066.025.236.052.48.058.717.017l48.32-8.784q.088-.015.172-.041l.046.004h.004c.02 0 .041-.03.062-.038a1 1 0 0 0 .125-.054q.053-.021.104-.05l.042-.029q.22-.123.4-.3c.017-.017.025-.041.042-.054q.174-.187.287-.417l.021-.033.013-.025.004-.013.025-.062zm-3.208-3.725-30.48-19.054L82.85 40.629zM46.458 64.392l-11.591-42.5L81.229 37.35zm40.046-24.513 9.446 6.3-12.592 31.475zm4.721-1.158-4.867-3.242-6.483-12.97zm-9.792-5.083-44.508-14.83L66.6 3.975l14.833 29.667zM32.125 17.204l-6.863-2.287L50.418 8.05 32.125 17.2zm-12.004-.22 9.17 3.058-21.404 27.52L20.121 16.98zm11.354 6.083L42.95 65.133 4.704 57.488 31.475 23.07zm11.442 45.716L31.804 94.708 5.875 61.375zm3.346 1.305L75.7 88.492l-40.483 7.362z"/></g><defs><clipPath id="a"><path fill="#fff" d="M0 0h100v100H0z"/></clipPath></defs></svg>