<svg xmlns="http://www.w3.org/2000/svg" fill="none" viewBox="0 0 100 100"><g clip-path="url(#a)"><mask id="b" width="100" height="100" x="0" y="0" maskUnits="userSpaceOnUse" style="mask-type:luminance"><path fill="#fff" d="M0 0h100v100H0z"/></mask><g mask="url(#b)"><path fill="#7748f9" d="M90.25 29.238a13.782 13.782 0 0 0-9.692-23.7 13.78 13.78 0 0 0-9.796 4.208L56.354 24.155a13.784 13.784 0 1 0 19.492 19.487zM43.646 75.846a13.785 13.785 0 0 0-4.408-22.586 13.78 13.78 0 0 0-15.084 3.095L9.746 70.763A13.784 13.784 0 1 0 29.237 90.25z"/><path fill="#bfabfb" d="M75.846 56.355a13.782 13.782 0 0 0-23.623 9.719 13.78 13.78 0 0 0 4.131 9.773l14.409 14.408a13.783 13.783 0 0 0 19.491-19.491zM29.238 9.747A13.783 13.783 0 1 0 9.746 29.24l14.408 14.404A13.784 13.784 0 0 0 43.642 24.15z"/></g></g><defs><clipPath id="a"><path fill="#fff" d="M0 0h100v100H0z"/></clipPath></defs></svg>