<svg xmlns="http://www.w3.org/2000/svg" fill="none" viewBox="0 0 100 100"><g clip-path="url(#a)"><mask id="b" width="100" height="100" x="0" y="0" maskUnits="userSpaceOnUse" style="mask-type:luminance"><path fill="#fff" d="M0 0h100v100H0z"/></mask><g mask="url(#b)"><path fill="#5468ff" d="M47.217 100H3.979a3.96 3.96 0 0 1-2.81-1.154A3.97 3.97 0 0 1 0 96.042h47.254a46.28 46.28 0 0 0 40.159-22.83 45.86 45.86 0 0 0 .225-46.041A46.28 46.28 0 0 0 47.704 3.963H0A3.967 3.967 0 0 1 3.98 0h43.724a50.38 50.38 0 0 1 35.542 14.708 49.93 49.93 0 0 1 14.675 35.43C97.846 77.788 74.97 100 47.217 100"/><path fill="#fff" d="M0 89.332h30.68a15.24 15.24 0 0 0 10.262-3.921H0zm0-10.667h47.063c.95-1.275 1.833-2.554 2.654-3.97H0zm0-10.68h53.08a39 39 0 0 0 1.412-3.957H0zM0 57.32h56.03c.195-1.275.35-2.633.437-3.958H0zm0-10.666h56.454a50 50 0 0 0-.437-3.975H0zm0-10.68h54.492a48 48 0 0 0-1.413-3.958H0zm0-10.666h49.717a46 46 0 0 0-2.654-3.959H0zm0-14.642v3.975h40.98a15.22 15.22 0 0 0-10.263-3.92z"/></g></g><defs><clipPath id="a"><path fill="#fff" d="M0 0h100v100H0z"/></clipPath></defs></svg>