<svg xmlns="http://www.w3.org/2000/svg" fill="none" viewBox="0 0 100 100"><path fill="#fff" fill-opacity=".5" fill-rule="evenodd" d="M22.125 65.65c.717-15.625 7.846-24.996 10.62-28.08-13.582 8.576-22.603 23.576-26.49 34.618v4.666C6.254 89.638 17.607 100 31.624 100a27.5 27.5 0 0 0 9.167-1.562c1.47-.5 2.916-1.034 4.329-1.576 3.804-3.745 6.875-7.958 9.346-12.466-20.321 10.129-33.225.3-32.346-18.75z" clip-rule="evenodd"/><path fill="#fff" fill-rule="evenodd" d="M94.042 42.846c-5.05-3.754-17.121-10.017-30.821-11.667 1.229 15.8.387 36.525-8.75 53.221a53.3 53.3 0 0 1-9.35 12.467c15.683-6.034 28.108-14.404 35.817-21.746 11.75-11.18 13.97-21.575 14.004-27.75a11.4 11.4 0 0 0-.9-4.517zM59.596 7.779C53.979 2.917 46.866 0 39.125 0c-7.742 0-14.612 2.82-20.187 7.53-7.31 6.177-12.16 15.623-12.688 26.323v38.338C10.133 61.15 19.154 46.15 32.737 37.579a46 46 0 0 1 6.538-3.454c7.846-3.337 16.158-3.883 23.942-2.942-.925-11.791-2.992-20.841-3.625-23.404z" clip-rule="evenodd"/><path fill="#fff" fill-opacity=".5" fill-rule="evenodd" d="M72.104 20.67a834 834 0 0 1-4.5-4.558c-.841-.887-1.658-1.745-2.441-2.591l-5.555-5.742c.63 2.563 2.7 11.609 3.621 23.404C76.93 32.83 89 39.092 94.046 42.85c-5.442-5.312-14.48-14.53-21.942-22.18" clip-rule="evenodd"/></svg>