<svg xmlns="http://www.w3.org/2000/svg" fill="none" viewBox="0 0 100 100"><g clip-path="url(#a)"><path fill="#fff" fill-rule="evenodd" d="M76.113 80.346a.28.28 0 0 1 .15.137.2.2 0 0 1 .02.1l-.004.875q0 .04-.029.067a.1.1 0 0 1-.07.033h-1.105l-.042-.012a.1.1 0 0 1-.029-.021.1.1 0 0 1-.029-.075v-.875a.25.25 0 0 1 .083-.175.3.3 0 0 1 .196-.075h.75q.058.001.108.02m-43.8-63.68a.21.21 0 0 1 .208.209v.925c0 .025.008.054.029.07a.1.1 0 0 0 .067.026h1.07a.06.06 0 0 0 .042-.017.07.07 0 0 0 .021-.042v-1.141l.008-.013.009-.008.016-.008h1.221l.017.016q.015.019.017.042v.987c0 .046.02.096.054.13a.2.2 0 0 0 .129.054h.817a.23.23 0 0 0 .166-.067.23.23 0 0 0 .067-.162v-.959c0-.008 0-.02.008-.025.008-.016.017-.016.025-.016h1.15q.018-.002.03.008a.04.04 0 0 1 .016.033v1.013a.18.18 0 0 0 .175.179h.946a.18.18 0 0 0 .175-.18v-.932a.125.125 0 0 1 .12-.121h.897a.22.22 0 0 1 .145.062.2.2 0 0 1 .059.15v.921c0 .025.012.054.029.07a.1.1 0 0 0 .066.026h1.071q.024 0 .042-.017a.06.06 0 0 0 .017-.042v-1.129l.012-.025.025-.016h1.208q.02.002.034.016.015.016.017.038v.991q.002.077.054.13a.18.18 0 0 0 .125.054h.82a.23.23 0 0 0 .23-.23v-.958a.04.04 0 0 1 .012-.025.04.04 0 0 1 .025-.008h1.15c.008 0 .021 0 .03.008a.04.04 0 0 1 .012.03v1.016a.2.2 0 0 0 .046.125.17.17 0 0 0 .12.042h12.155c.058 0 .116.029.158.07a.2.2 0 0 1 .063.155v2.27q0 .014.012.022a.04.04 0 0 0 .02.008h1.138c.013 0 .025 0 .038-.013a.05.05 0 0 0 .012-.033v-1.067a.19.19 0 0 1 .184-.183h.875q.069 0 .12.05c.03.031.047.073.046.117v.962c0 .046.021.092.055.125.03.03.073.046.116.046h.9a.23.23 0 0 0 .158-.062.24.24 0 0 0 .071-.167v-.95c0-.017 0-.034.009-.05a.13.13 0 0 1 .066-.067.1.1 0 0 1 .046-.008h.9a.21.21 0 0 1 .209.208v.921a.18.18 0 0 0 .05.125.2.2 0 0 0 .054.033q.033.015.07.017h.892a.16.16 0 0 0 .154-.158v-.95a.18.18 0 0 1 .059-.138.2.2 0 0 1 .137-.058h.858a.25.25 0 0 1 .25.25v.933q.001.047.034.084a.13.13 0 0 0 .083.041h.9a.2.2 0 0 0 .15-.058.2.2 0 0 0 .054-.146v-.92c0-.05.021-.093.055-.126a.18.18 0 0 1 .124-.054h.876c.045 0 .091.017.124.05a.17.17 0 0 1 .046.12v.972a.165.165 0 0 0 .159.158h.916a.22.22 0 0 0 .221-.217v-.916c0-.017 0-.042.013-.063a.18.18 0 0 1 .096-.091.2.2 0 0 1 .066-.013h.838a.22.22 0 0 1 .201.137q.016.04.015.084v.908c0 .046.021.088.05.121a.17.17 0 0 0 .121.046h4.733q.03.004.05.025a.07.07 0 0 1 .021.05v.983a.167.167 0 0 0 .167.167h.917c.058 0 .112.025.154.062a.2.2 0 0 1 .062.15v2.017c0 .08-.033.154-.091.208a.3.3 0 0 1-.209.092h-.929a.1.1 0 0 0-.029 0l-.02.017a.1.1 0 0 0-.017.025v.966a.22.22 0 0 1-.225.221h-.809a.2.2 0 0 1-.141-.062.2.2 0 0 1-.063-.142v-.967a.06.06 0 0 0-.017-.041.06.06 0 0 0-.041-.017h-1.13q-.01-.002-.02.008l-.009.025v2.28a.13.13 0 0 1-.041.095.13.13 0 0 1-.092.042h-2.217a.18.18 0 0 0-.166.104.2.2 0 0 0-.009.071v.962a.16.16 0 0 1-.046.113.2.2 0 0 1-.054.033.2.2 0 0 1-.058.013h-2.292a.1.1 0 0 0-.05.02.1.1 0 0 0-.025.055V30.3c0 .017.013.037.025.05a.07.07 0 0 0 .055.02h.991a.2.2 0 0 1 .084.022q.046.015.083.05a.24.24 0 0 1 .062.162v1.063l-1.216-.005a.1.1 0 0 0-.063.021.08.08 0 0 0-.025.059v.958a.196.196 0 0 0 .196.192h.908c.05 0 .098-.02.134-.055a.2.2 0 0 0 .054-.133l.012-1.037 1.08-.005a.1.1 0 0 1 .05.009.14.14 0 0 1 .083.075.14.14 0 0 1 .008.058v.909c0 .041.021.087.054.12a.18.18 0 0 0 .121.055h.917a.12.12 0 0 1 .096.041.12.12 0 0 1 .041.092v1.091l-1.066-.004c-.042 0-.084.013-.109.042a.16.16 0 0 0-.05.113v.97c0 .046.021.092.05.125a.18.18 0 0 0 .125.055h.875a.18.18 0 0 0 .18-.18l-.005-1.12h1.159l.054.004a.14.14 0 0 1 .041.033.14.14 0 0 1 .046.1v1.042c0 .029.013.062.034.083a.12.12 0 0 0 .083.033h.946a.15.15 0 0 1 .112.05c.034.03.046.071.046.113v.992c0 .02.013.041.025.054q.02.02.05.02h1.088a.06.06 0 0 1 .046.021q.018.017.02.042v1.092l.004.025c0 .008.009.016.017.025l.025.012.025.008h1.013q.089 0 .154.063a.24.24 0 0 1 .066.154v.775a.31.31 0 0 1-.308.304h-.904a.1.1 0 0 0-.067.025.1.1 0 0 0-.029.067l.004.987q0 .064.042.109a.15.15 0 0 0 .1.042h2.208c.046 0 .092.012.125.045a.17.17 0 0 1 .05.125v2.192a.156.156 0 0 0 .159.162h2.216a.13.13 0 0 1 .1.042c.03.025.046.063.046.1V45.3q-.001.025.017.042a.06.06 0 0 0 .041.016h.988c.046 0 .092.021.125.05a.2.2 0 0 1 .054.134l.004 1.116h-1.125l-.041.005a.1.1 0 0 0-.042.02.1.1 0 0 0-.033.075v.884a.24.24 0 0 0 .246.245h.683a.33.33 0 0 0 .22-.087.32.32 0 0 0 .088-.22l.004-.917H82.4a.08.08 0 0 1 .054.02.07.07 0 0 1 .021.054v3.68h-1.137a.1.1 0 0 0-.059.025.08.08 0 0 0-.025.058v1.083c0 .017 0 .03.013.038q.007.006.015.01l.018.002h1.138q.017.002.029-.008a.04.04 0 0 0 .012-.03l-.004-1.178h1.192a.12.12 0 0 1 .083.029q.03.036.03.083v1.038c0 .016.007.033.016.041a.07.07 0 0 0 .046.025h.987a.18.18 0 0 1 .125.046.18.18 0 0 1 .046.125v3.5c0 .021.013.042.025.054q.02.02.05.021h1.07q.034 0 .06.025a.08.08 0 0 1 .028.063v1.066a.06.06 0 0 1-.025.05.1.1 0 0 1-.046.025h-1.045a.12.12 0 0 0-.084.034.12.12 0 0 0-.033.083v.98a.14.14 0 0 0 .138.137h2.108a.25.25 0 0 1 .108.025.3.3 0 0 1 .092.058.3.3 0 0 1 .083.204v2.096a.13.13 0 0 1-.037.092.13.13 0 0 1-.088.033H86.38a.15.15 0 0 0-.15.15v.938q-.001.045.017.083.022.04.058.066a.18.18 0 0 0 .167.034c.32-.095.663-.08.975.041a.15.15 0 0 1 .054.046.13.13 0 0 1 .02.071v.867a.233.233 0 0 0 .234.233h.8q.083.001.142.059a.22.22 0 0 1 .058.145v.817a.21.21 0 0 1-.204.204h-.98a.054.054 0 0 0-.053.05v1.063a.13.13 0 0 0 .037.083.12.12 0 0 0 .084.042h.82a.3.3 0 0 1 .209.083c.054.054.083.13.083.208v.925c0 .013.008.034.02.042q.018.015.043.017h1.104c.016 0 .033.004.041.016a.05.05 0 0 1 .021.042v1.112c0 .009 0 .013.008.021 0 .009.005.021.013.025l.02.017.026.004h1.083q.064 0 .108.042a.16.16 0 0 1 .042.104v1.037l.017.021q.017.015.041.017h.867c.08 0 .154.033.209.092a.28.28 0 0 1 .087.208v.808a.11.11 0 0 1-.07.104 1.9 1.9 0 0 1-1.076.034.1.1 0 0 1-.058-.034.1.1 0 0 1-.021-.062v-1.02a.13.13 0 0 0-.075-.118.1.1 0 0 0-.05-.012h-.992a.184.184 0 0 0-.179.183v.975a.1.1 0 0 0 .021.059.1.1 0 0 0 .046.029q.562.126.95-.004a.2.2 0 0 1 .1-.009.21.21 0 0 1 .183.209V71.6l-1.258-.004a.05.05 0 0 0-.03.008.05.05 0 0 0-.012.034v1.154q.002.015.013.025c.004.008.012.008.025.012h1.054a.2.2 0 0 0 .137-.058.2.2 0 0 0 .059-.133l.008-1.034 1.15-.008q.031 0 .054-.021a.08.08 0 0 0 .021-.058v-1.042q.001-.04.02-.075a.2.2 0 0 1 .05-.058.2.2 0 0 1 .068-.034.2.2 0 0 1 .079.009l.162.054.058.008h2.892q.046 0 .084-.025.186-.123.316.121.025.046.025.1l-.004 1.03-1.196-.022a.04.04 0 0 0-.025.013.04.04 0 0 0-.008.02v1.176q.001.015.012.025.007.012.025.012h1.03c.02 0 .041 0 .062-.012a.2.2 0 0 0 .096-.096.2.2 0 0 0 .012-.063l-.008-1.054h1.15q.034.001.058.025.02.023.021.054v3.588q-.001.031.017.058a.1.1 0 0 0 .058.021h1.075c.042 0 .075.017.1.042a.15.15 0 0 1 .046.104v1.012l.004.025c0 .009.008.017.013.021l.02.017h.884a.31.31 0 0 1 .304.308v3.238a.22.22 0 0 1-.062.154.22.22 0 0 1-.15.058h-.85a.18.18 0 0 1-.126-.05.17.17 0 0 1-.05-.125v-.937a.12.12 0 0 0-.033-.084.13.13 0 0 0-.083-.037h-1.092a.1.1 0 0 1-.058-.021.1.1 0 0 1-.021-.05l.008-1.225 1.25-.013a.04.04 0 0 0 .03-.012q.01-.011.008-.03v-1.124q.002-.021-.008-.03a.04.04 0 0 0-.03-.012h-1.137a.1.1 0 0 0-.042.009.1.1 0 0 0-.041.025.1.1 0 0 0-.021.033.1.1 0 0 0-.013.046l.004 1.108-1.133-.004a.1.1 0 0 0-.075.029.1.1 0 0 0-.025.07v1.043a.167.167 0 0 1-.167.166h-.933a.133.133 0 0 1-.13-.125v-1.008a.167.167 0 0 0-.166-.167h-1.058l-.025-.008-.025-.013-.013-.02a.1.1 0 0 1 0-.03v-1.037a.12.12 0 0 0-.038-.09.13.13 0 0 0-.09-.035h-.93a.184.184 0 0 0-.175.179v.87a.18.18 0 0 1-.05.13.18.18 0 0 1-.133.054h-.971c-.021 0-.042 0-.063-.012a.1.1 0 0 1-.041-.042.13.13 0 0 1-.021-.117 2.05 2.05 0 0 0 .041-.862.22.22 0 0 0-.216-.196h-.942a.13.13 0 0 0-.087.037.13.13 0 0 0-.042.088v1.07l-.004.026a.04.04 0 0 1-.025.008h-1.154a.04.04 0 0 1-.03-.012.04.04 0 0 1-.012-.025V76.65a.07.07 0 0 0-.07-.07h-1.076a.08.08 0 0 1-.05-.026.07.07 0 0 1-.025-.054v-1.146l1.146-.012c.02 0 .038-.013.05-.025a.07.07 0 0 0 .025-.05l.008-1.217h1.18a.04.04 0 0 0 .041-.042v-1.141a.04.04 0 0 0-.012-.03.05.05 0 0 0-.034-.008h-1.179v-1.225l1.188-.008q.012.002.025-.008a.04.04 0 0 0 .012-.03v-1.233l-.004-.013-.008-.008-.013-.008-.012.004a1.75 1.75 0 0 1-1.117-.017.11.11 0 0 1-.07-.096v-.804a.31.31 0 0 0-.308-.308h-.714a.2.2 0 0 0-.15.058.2.2 0 0 0-.054.146v.917a.1.1 0 0 1-.025.062.1.1 0 0 1-.054.042 2.04 2.04 0 0 1-1.146.008.1.1 0 0 1-.075-.096V69.2a.13.13 0 0 0-.037-.088.13.13 0 0 0-.088-.037h-.925a.183.183 0 0 0-.18.183v.913c.001.02.01.041.018.058a.1.1 0 0 0 .046.042c.27.133.624.146 1.075.046h.029l.025.012c.008.004.012.017.016.025a.1.1 0 0 1 .009.03l.004 1.22H85.03l-.016.013-.009.008v1.154l.013.038a.05.05 0 0 0 .042.013h1.078a.09.09 0 0 0 .084-.088v-1.138l1.216-.012a.09.09 0 0 0 .088-.084v-1.041q.002-.037.017-.063a.2.2 0 0 1 .041-.05.2.2 0 0 1 .055-.029h.066c.273.086.567.081.838-.013a.16.16 0 0 1 .212.15v1.142l-1.183-.008a.04.04 0 0 0-.03.008.05.05 0 0 0-.012.034v1.154q.002.015.013.025a.04.04 0 0 0 .029.012h1.183l.004 1.221h-1.096a.14.14 0 0 0-.095.042.14.14 0 0 0-.042.096l.004 1.166-1.22-.004a.07.07 0 0 0-.055.025.08.08 0 0 0-.025.05v1.067q-.001.034-.025.058a.1.1 0 0 1-.058.025h-1.15l.008-1.23 1.138-.007q.035-.002.062-.025a.1.1 0 0 0 .025-.063V74.1a.05.05 0 0 0-.016-.033.05.05 0 0 0-.03-.017H85.05a.05.05 0 0 0-.033.013l-.01.015-.003.018v1.25h-1.183q-.009 0-.018.003a.04.04 0 0 0-.028.039v1.15q0 .015.012.029a.04.04 0 0 0 .03.012l1.179-.004.004 1.042a.2.2 0 0 1-.05.133.2.2 0 0 1-.138.054h-.9a.14.14 0 0 1-.141-.137v-1.013q0-.031-.021-.054a.1.1 0 0 0-.054-.025h-1.138a.07.07 0 0 0-.07.05.1.1 0 0 0-.005.03v1.074a.07.07 0 0 1-.02.05.08.08 0 0 1-.055.025h-1.066a.1.1 0 0 0-.063.025.1.1 0 0 0-.025.054v1.084a.14.14 0 0 1-.042.092.14.14 0 0 1-.095.041h-.992a.1.1 0 0 1-.042-.008.1.1 0 0 1-.041-.025.11.11 0 0 1-.03-.084l.021-1.183h1.18q.015 0 .029-.008a.04.04 0 0 0 .012-.03v-1.145a.05.05 0 0 0-.012-.03.04.04 0 0 0-.025-.012h-1.1a.1.1 0 0 0-.03.008c-.012 0-.02.009-.029.017l-.016.03a.1.1 0 0 0-.009.028V77.8h-1.225a.07.07 0 0 0-.073.045.1.1 0 0 0-.006.03v1.192l-.004.02a.04.04 0 0 1-.03.013h-1.157a.05.05 0 0 1-.03-.012.05.05 0 0 1-.012-.03l.012-1.258h1.184a.04.04 0 0 0 .029-.013.05.05 0 0 0 .008-.029V76.6l-.008-.012-.017-.009-.016-.004h-1.18V75.35l1.142-.008q.031-.003.054-.025a.08.08 0 0 0 .021-.054v-1.205h1.163a.14.14 0 0 1 .097.04.14.14 0 0 1 .04.098v1.158h-1.213a.1.1 0 0 0-.033.008.1.1 0 0 0-.025.017.04.04 0 0 0-.012.03l-.013.024v1.104q0 .017.013.03a.05.05 0 0 0 .029.012h1.216a.04.04 0 0 0 .03-.012.05.05 0 0 0 .012-.034v-1.179l.95.013a.3.3 0 0 0 .2-.08.3.3 0 0 0 .084-.204v-.712a.325.325 0 0 0-.317-.325h-.838a.08.08 0 0 1-.058-.017.08.08 0 0 1-.02-.058v-1.117l-.013-.016-.017-.009h-1.225a.05.05 0 0 0-.033.009.05.05 0 0 0-.013.033v1.187h-1.137q-.032.002-.055.025a.08.08 0 0 0-.025.055l-.004 1.212-1.187-.004a.04.04 0 0 0-.025.012.04.04 0 0 0-.013.03v1.15q0 .015.013.029a.04.04 0 0 0 .025.012l1.187-.004V77.8h-1.154a.08.08 0 0 0-.05.025.1.1 0 0 0-.02.05v1.067a.18.18 0 0 1-.047.116.17.17 0 0 1-.112.042h-.987a.16.16 0 0 1-.108-.046l-.038-.05a.2.2 0 0 1-.013-.062v-.996c0-.042.017-.075.042-.1a.15.15 0 0 1 .104-.046h1.1a.06.06 0 0 0 .042-.017.06.06 0 0 0 .016-.041v-1.109a.05.05 0 0 0-.016-.041.05.05 0 0 0-.042-.013h-1.208l-.025-.012a.04.04 0 0 1-.013-.025v-1.154c0-.013.008-.021.013-.026a.04.04 0 0 1 .029-.012h1.175c.025 0 .041-.008.062-.025a.08.08 0 0 0 .025-.062v-1.059a.16.16 0 0 1 .042-.108.15.15 0 0 1 .108-.042h1a.08.08 0 0 0 .054-.02.1.1 0 0 0 .021-.05V73a.175.175 0 0 1 .175-.17h.967a.08.08 0 0 0 .058-.022.08.08 0 0 0 .021-.058v-1.08c0-.008 0-.02.008-.028l.013-.025a.06.06 0 0 1 .05-.013h1.142a.1.1 0 0 0 .08-.058.1.1 0 0 0 .007-.034v-1.095a.1.1 0 0 1 .013-.042.1.1 0 0 1 .033-.042.1.1 0 0 1 .042-.012c.016 0 .037 0 .05.008.154.059.37.084.654.059a.2.2 0 0 0 .075-.021q.213-.105.333.07.03.046.03.1l-.005 1.075-1.183-.008a.04.04 0 0 0-.03.012l-.009.014-.003.016v1.158c0 .008.008.017.013.021a.03.03 0 0 0 .02.013h1.021a.18.18 0 0 0 .175-.18l-.004-1.046 1.18-.008a.05.05 0 0 0 .033-.012.05.05 0 0 0 .012-.034V70.35l-.004-.02-.012-.013a.04.04 0 0 0-.017-.009h-.021a1.95 1.95 0 0 1-1.092.009.11.11 0 0 1-.083-.1v-.954q.001-.069.054-.126a.18.18 0 0 1 .121-.05h.958q.033 0 .059-.025A.1.1 0 0 0 82.47 69l.008-1.138 1.063.009a.24.24 0 0 0 .166-.071.2.2 0 0 0 .059-.075.3.3 0 0 0 .012-.096v-.854q.002-.025-.008-.05a.15.15 0 0 0-.075-.08.14.14 0 0 0-.054-.012h-.813q-.02.002-.033-.008-.17-.088-.271.017a.1.1 0 0 0-.03.041.1.1 0 0 0-.008.042l-.008 1.138-1.15-.009a.1.1 0 0 1-.054-.025.08.08 0 0 1-.025-.05v-.987a.1.1 0 0 0-.025-.071c-.112-.13-.233-.163-.354-.096a.1.1 0 0 1-.046.013h-.65a.15.15 0 0 1-.1-.042.15.15 0 0 1-.046-.104v-1.075a.083.083 0 0 0-.083-.084h-.854a.1.1 0 0 0-.042.017q-.131.058-.237.008a.13.13 0 0 1-.059-.046.14.14 0 0 1-.02-.075l.008-1.129h1.25a.04.04 0 0 0 .025-.008.05.05 0 0 0 .012-.033v-1.138c0-.008 0-.02-.012-.029L80 62.89l-.018-.002h-1.158a.1.1 0 0 0-.062.025.08.08 0 0 0-.021.058v1.137l-1.159-.004a.08.08 0 0 1-.058-.02.08.08 0 0 1-.02-.059v-1.067a.08.08 0 0 0-.022-.05.08.08 0 0 0-.054-.02h-.979a.2.2 0 0 1-.067-.013.17.17 0 0 1-.1-.154v-1.042a.1.1 0 0 0-.029-.067.1.1 0 0 0-.062-.029h-.859a.1.1 0 0 0-.033.009c-.092.041-.17.05-.237.016a.13.13 0 0 1-.055-.05.13.13 0 0 1-.02-.066v-1.125l1.208-.009c.025 0 .041-.012.062-.025a.1.1 0 0 0 .025-.062v-1.03a.1.1 0 0 0-.029-.074.1.1 0 0 0-.075-.03h-1.112l-.03.009a.08.08 0 0 0-.041.041l-.008.03v1.15l-1.155-.013a.08.08 0 0 1-.054-.02.08.08 0 0 1-.025-.055v-.958a.19.19 0 0 0-.187-.188h-.909a.12.12 0 0 1-.125-.116v-1a.125.125 0 0 1 .088-.117c.277-.09.574-.095.854-.017a.2.2 0 0 0 .104.013.2.2 0 0 0 .096-.042.2.2 0 0 0 .067-.079.2.2 0 0 0 .025-.1v-1.062h1.187l.025-.026V55.43a.04.04 0 0 0-.012-.029.04.04 0 0 0-.03-.012l-1.179.008.005-1.233 1.137-.009a.07.07 0 0 0 .05-.025.08.08 0 0 0 .025-.054l.004-1.208 1.217-.013q.031-.002.058-.029a.1.1 0 0 0 .03-.062v-1.071l-.005-.021-.012-.021-.017-.004-.02-.004h-1.21a.04.04 0 0 0-.024.008.04.04 0 0 0-.013.03l-.004 1.187-1.137.008q-.031.001-.055.02a.08.08 0 0 0-.02.055v1.212h-1.213a.04.04 0 0 0-.02.021v1.15q-.002.018.008.03a.05.05 0 0 0 .033.012l1.183.02.005 1.217h-1.155a.07.07 0 0 0-.054.026.1.1 0 0 0-.02.05v1.041a.22.22 0 0 1-.063.159.1.1 0 0 1-.05.025.13.13 0 0 1-.063.004c-.375-.105-.645-.117-.808-.025a.2.2 0 0 1-.108.02.217.217 0 0 1-.209-.208v-1.02a.1.1 0 0 0-.016-.05.07.07 0 0 0-.05-.022h-1.105a.06.06 0 0 1-.041-.016.06.06 0 0 1-.013-.042v-1.092l-.007-.03-.013-.02a.1.1 0 0 0-.024-.017l-.03-.008h-.991a.17.17 0 0 1-.113-.042.17.17 0 0 1-.05-.125v-1.058h1.154a.1.1 0 0 0 .054-.025.08.08 0 0 0 .021-.055v-1.216h1.184q.015 0 .029-.009a.04.04 0 0 0 .012-.029v-1.15a.04.04 0 0 0-.012-.025.04.04 0 0 0-.03-.012h-1.095a.08.08 0 0 0-.059.02.1.1 0 0 0-.025.063l-.004 1.142h-1.15a.075.075 0 0 0-.07.075l-.009 1.22h-3.633a.1.1 0 0 1-.075-.033.1.1 0 0 1-.034-.07v-1.197h1.088c.035.002.07-.01.096-.033a.14.14 0 0 0 .041-.1v-1.054l-.008-.012-.008-.009-.004-.008-.017-.004h-1.154a.04.04 0 0 0-.042.041l.008 1.18-1.22.004a.1.1 0 0 1-.054-.025.08.08 0 0 1-.026-.059v-1.07a.07.07 0 0 0-.02-.05.1.1 0 0 0-.05-.021h-.95a.21.21 0 0 1-.196-.133.2.2 0 0 1-.017-.084l.009-1.008 1.137-.009a.085.085 0 0 0 .081-.053.1.1 0 0 0 .006-.034v-1.167a.05.05 0 0 0-.012-.029.05.05 0 0 0-.033-.013H62.55a.05.05 0 0 0-.03.013q-.014.013-.016.033l.009 1.259H61.37a.09.09 0 0 0-.084.087v.825a.32.32 0 0 1-.316.321h-.675a.33.33 0 0 1-.3-.2.3.3 0 0 1-.021-.125l.017-.908 1.162-.005q.024.002.054-.008a.1.1 0 0 0 .042-.029.2.2 0 0 0 .03-.042.14.14 0 0 0 .008-.058v-.996a.17.17 0 0 0-.05-.117.17.17 0 0 0-.117-.05h-.95c-.025 0-.05 0-.071.013a.2.2 0 0 0-.062.042.2.2 0 0 0-.042.066.2.2 0 0 0-.009.071l.005 1.113-1.034-.009a.2.2 0 0 1-.2-.196v-.916a.17.17 0 0 0-.175-.175H57.6a.07.07 0 0 1-.042-.025.07.07 0 0 1-.02-.046v-1.112a.05.05 0 0 0-.013-.034.06.06 0 0 0-.042-.012h-1.195a.05.05 0 0 0-.034.012c-.008.008-.017.021-.017.033v1.146c0 .009 0 .021-.008.025-.004.009-.017.009-.025.009h-1.158c-.008 0-.021 0-.025-.009l-.008-.025v-1.116a.08.08 0 0 0-.026-.054.1.1 0 0 0-.05-.021h-.991a.17.17 0 0 1-.117-.05.17.17 0 0 1-.041-.117v-1.058l1.15-.009a.1.1 0 0 0 .05-.02.06.06 0 0 0 .025-.046V45.37h1.183q.015 0 .029-.009a.05.05 0 0 0 .012-.033v-1.15a.05.05 0 0 0-.012-.029.04.04 0 0 0-.03-.012h-1.182v-1.221h1.083a.15.15 0 0 0 .15-.15l-.004-1.155 1.25.005a.05.05 0 0 0 .033-.013.04.04 0 0 0 .013-.025v-1.142a.04.04 0 0 0-.013-.029.04.04 0 0 0-.03-.012l-1.253.004.004-1.192-.017-.029a.04.04 0 0 0-.029-.012h-1.17l-.01.008-.008.013v1.029a.183.183 0 0 0 .18.179l1.05.004v1.212H55.17a.15.15 0 0 0-.108.05.16.16 0 0 0-.05.109v1.146l-1.184-.005h-.017l-.012.013-.008.013v1.166q0 .016.01.028a.04.04 0 0 0 .027.014l1.184-.008v1.233h-1.15a.07.07 0 0 0-.05.025.07.07 0 0 0-.021.046l-.005 1.225h-1.22a.1.1 0 0 0-.05.02.08.08 0 0 0-.025.059v.933a.22.22 0 0 1-.063.154.22.22 0 0 1-.154.059h-.808a.205.205 0 0 1-.209-.2v-.867a.16.16 0 0 0-.162-.167h-.946a.12.12 0 0 1-.083-.029.1.1 0 0 1-.03-.075V45.37h1.05a.18.18 0 0 0 .125-.05.2.2 0 0 0 .055-.13v-.874a.17.17 0 0 0-.175-.175h-.967a.1.1 0 0 0-.054.025.1.1 0 0 0-.025.054l-.004 1.15-1.225-.004-.03-.009a.1.1 0 0 1-.024-.016.1.1 0 0 1-.017-.025.1.1 0 0 1 0-.03v-.958a.19.19 0 0 0-.192-.191h-.858a.195.195 0 0 0-.192.191v.98a.06.06 0 0 1-.012.041.07.07 0 0 1-.042.02h-1.125l-.025-.012-.012-.025v-1.016a.18.18 0 0 0-.046-.125.18.18 0 0 0-.125-.05h-.975a.16.16 0 0 1-.109-.046.16.16 0 0 1-.046-.108l.009-1.071H46a.29.29 0 0 0 .275-.175.3.3 0 0 0 .017-.113v-1.012l1.183.004a.04.04 0 0 0 .025-.013.04.04 0 0 0 .013-.025v-1.15a.04.04 0 0 0-.013-.029c-.004-.004-.013-.012-.02-.012h-1.1a.1.1 0 0 0-.063.025.1.1 0 0 0-.025.062v1.138h-1.146a.2.2 0 0 0-.059.008.16.16 0 0 0-.084.083.2.2 0 0 0-.011.059l.004 1.15-1.146-.005h-.03a.1.1 0 0 0-.028.026.1.1 0 0 0-.025.058v.95a.2.2 0 0 1-.059.142.2.2 0 0 1-.145.062h-.813a.2.2 0 0 1-.083-.02.2.2 0 0 1-.071-.043.2.2 0 0 1-.046-.075.2.2 0 0 1-.017-.087l.009-1.012h1.145a.1.1 0 0 0 .055-.025.1.1 0 0 0 .025-.055v-1.125a.09.09 0 0 0-.092-.092h-1.083a.06.06 0 0 0-.042.017.07.07 0 0 0-.012.046l.004 1.233-1.192-.02a.08.08 0 0 1-.058-.025.08.08 0 0 1-.021-.059l-.017-1.196 1.242.005a.05.05 0 0 0 .033-.013.05.05 0 0 0 .013-.029v-1.138a.05.05 0 0 0-.013-.033.05.05 0 0 0-.033-.012h-1.159a.1.1 0 0 0-.062.025.1.1 0 0 0-.025.062l.004 1.133h-1.083c-.017 0-.038 0-.054.009a.16.16 0 0 0-.096.146v.904q-.03.255-.43.25-.463-.002-.608-.017c-.02 0-.05 0-.07.008a.2.2 0 0 0-.067.034.2.2 0 0 0-.042.058.2.2 0 0 0-.012.071v.95a.125.125 0 0 0 .125.125h.912a.18.18 0 0 1 .133.05.2.2 0 0 1 .055.137v.846a.187.187 0 0 1-.184.188h-.958a.08.08 0 0 0-.062.02.1.1 0 0 0-.017.055l-.004 1.22-1.255-.008a.04.04 0 0 0-.042.042v1.154c0 .008 0 .021.01.025a.04.04 0 0 0 .028.013h.984a.27.27 0 0 0 .275-.267v-.958l1.062-.009a.15.15 0 0 1 .113.046.2.2 0 0 1 .037.054.2.2 0 0 1 .013.059v.9c0 .046.016.091.05.125a.18.18 0 0 0 .125.05h1.029q.008-.002.017.008a.04.04 0 0 1 .008.02v1.16c0 .008-.004.02-.013.024a.04.04 0 0 1-.02.013h-1.034a.2.2 0 0 0-.062.012.17.17 0 0 0-.084.084.2.2 0 0 0-.016.066v1.138l-1.184-.009-.029.017-.012.025v1.154q-.001.016.008.03a.05.05 0 0 0 .033.012h1.184l-.013 1.154a.07.07 0 0 1-.07.07h-1.092q-.008.002-.021-.008l-.017-.008-.008-.017-.004-.02V51.72a.08.08 0 0 0-.021-.058.1.1 0 0 0-.063-.021H37.65a.18.18 0 0 1-.15-.104.2.2 0 0 1-.013-.059l.013-1.07h1.258a.04.04 0 0 0 .03-.013l.008-.03v-1.2a.06.06 0 0 0-.017-.042.06.06 0 0 0-.042-.016h-1.154a.083.083 0 0 0-.083.084l-.004 1.216-1.142-.008a.083.083 0 0 0-.083.083v.917a.23.23 0 0 1-.071.167.24.24 0 0 1-.167.07h-.75a.27.27 0 0 1-.233-.158.3.3 0 0 1-.017-.1l.009-.975 1.154-.004a.07.07 0 0 0 .046-.02c.012-.013.025-.03.025-.05l.004-1.222h1.183a.04.04 0 0 0 .03-.012.04.04 0 0 0 .012-.03v-1.141l-.004-.017-.013-.016-.012-.009h-.017l-1.183.005.008-1.234 1.138-.008c.016 0 .037-.004.05-.021a.1.1 0 0 0 .02-.05l.009-1.213 1.25-.012a.05.05 0 0 0 .037-.017.05.05 0 0 0 .017-.037v-1.113l-.004-.016-.025-.025-.021-.005h-1.15a.11.11 0 0 0-.1.1l-.004 1.125-1.138.009a.08.08 0 0 0-.054.02.1.1 0 0 0-.02.05l-.005 1.213h-1.196a.04.04 0 0 0-.025.008l-.012.026v1.141a.05.05 0 0 0 .012.03.04.04 0 0 0 .03.012l1.183.017.004 1.22-1.15.005-.03.004a.1.1 0 0 0-.024.016l-.013.025-.008.03v1.216l-1.18-.004a.12.12 0 0 1-.083-.033.13.13 0 0 1-.033-.084V49.18a.07.07 0 0 0-.07-.07h-1.11a.06.06 0 0 1-.05-.059v-1.096a.1.1 0 0 0-.02-.05.08.08 0 0 0-.054-.02h-.988a.163.163 0 0 1-.163-.163V46.65l1.155.004a.08.08 0 0 0 .05-.025.1.1 0 0 0 .025-.046v-1.225h1.183a.04.04 0 0 0 .03-.012.04.04 0 0 0 .012-.03v-1.133a.054.054 0 0 0-.054-.054h-1.084a.1.1 0 0 0-.058.03.08.08 0 0 0-.025.058l-.004 1.141-1.15.009a.1.1 0 0 0-.03 0 .08.08 0 0 0-.04.041.1.1 0 0 0 0 .03l-.01 1.212-1.187-.02a.08.08 0 0 1-.058-.022.08.08 0 0 1-.02-.058l-.022-1.192 1.209-.004q.034-.001.058-.025a.08.08 0 0 0 .025-.062v-1.03a.1.1 0 0 0-.1-.1h-1.108a.1.1 0 0 0-.063.026.1.1 0 0 0-.02.054v1.141h-1.176a.06.06 0 0 1-.041-.016.06.06 0 0 1-.021-.042v-1.096a.1.1 0 0 0-.021-.05.1.1 0 0 0-.05-.02h-1.075a.08.08 0 0 1-.054-.022.1.1 0 0 1-.025-.054v-1.104q.002-.02.017-.033a.04.04 0 0 1 .029-.013h1.1q.031-.002.054-.025a.08.08 0 0 0 .025-.058l.008-1.217h1.18a.04.04 0 0 0 .029-.012.04.04 0 0 0 .012-.025v-1.146a.04.04 0 0 0-.012-.03.05.05 0 0 0-.034-.012l-1.179.009v-1.059a.17.17 0 0 0-.046-.12.17.17 0 0 0-.125-.05h-1.02q-.013-.002-.026.008a.04.04 0 0 0-.012.025v1.154c0 .008.008.02.017.025.008.008.016.017.029.017h1.183l.004 1.22h-1.154a.08.08 0 0 1-.058-.029.1.1 0 0 1-.025-.054v-1.092l-.03-.02-.012-.025h-1.18a.07.07 0 0 1-.054-.024.08.08 0 0 1-.02-.056v-1.108a.04.04 0 0 1 .017-.029.04.04 0 0 1 .029-.012h1.175q.03 0 .054-.021a.1.1 0 0 0 .025-.063l.004-1.212h1.087a.13.13 0 0 0 .096-.042.14.14 0 0 0 .042-.092V36.68l-.008-.017-.009-.008-.012-.008-.013-.004h-1.15a.04.04 0 0 0-.041.041l.008 1.184-1.225-.005a.1.1 0 0 1-.054-.02.08.08 0 0 1-.021-.059v-1.075a.06.06 0 0 0-.02-.045.07.07 0 0 0-.05-.021h-.972a.2.2 0 0 1-.133-.059.2.2 0 0 1-.054-.129l.008-1.041 1.188-.005c.008 0 .016 0 .025-.008a.04.04 0 0 0 .008-.025v-1.23l-.012-.02a.03.03 0 0 0-.021-.008h-1.084a.1.1 0 0 0-.066.029.1.1 0 0 0-.03.066l-.012 1.205-1.15.004q-.032 0-.054.02a.07.07 0 0 0-.021.055v.958a.196.196 0 0 1-.196.192h-.916c-.03 0-.055 0-.075-.013a.2.2 0 0 1-.067-.041.2.2 0 0 1-.042-.067.2.2 0 0 1-.017-.075l.013-1.033 1.196-.005a.1.1 0 0 0 .07-.029.1.1 0 0 0 .034-.066v-1.205l1.18.009q.016 0 .028-.009a.04.04 0 0 0 .013-.029V32.93c0-.008 0-.02-.009-.029l-.029-.004h-1.1q-.032 0-.054.02a.08.08 0 0 0-.025.059l-.004 1.137-1.18.005a.13.13 0 0 0-.11.07.1.1 0 0 0-.01.046v1.184l-1.142-.009-.033.005-.025.02a.1.1 0 0 0-.03.063v.946a.2.2 0 0 1-.2.204h-.82a.22.22 0 0 1-.154-.067.2.2 0 0 1-.042-.07.2.2 0 0 1-.016-.084l.008-1.012 1.146-.005a.075.075 0 0 0 .075-.075v-1.125a.1.1 0 0 0-.025-.062.1.1 0 0 0-.063-.03h-1.083a.063.063 0 0 0-.054.063v1.238l-1.192-.025a.1.1 0 0 1-.054-.025.1.1 0 0 1-.021-.054l-.017-1.196h1.263l.012-.009.009-.012v-1.154a.05.05 0 0 0-.009-.034A.05.05 0 0 0 20 32.9h-1.187a.1.1 0 0 0-.03.02.1.1 0 0 0-.016.03.1.1 0 0 0-.009.033v1.134h-1.075c-.041 0-.083.012-.108.041a.17.17 0 0 0-.05.117v.967c0 .025 0 .05-.012.07a.2.2 0 0 1-.042.055.2.2 0 0 1-.054.041.2.2 0 0 1-.071.013h-.888a.16.16 0 0 1-.112-.042.17.17 0 0 1-.05-.125v-1.07a.06.06 0 0 0-.017-.042.06.06 0 0 0-.041-.021h-1.209l-.017.008a.03.03 0 0 0-.008.017v1.137a.14.14 0 0 1-.141.138h-1.009l-.029.004a.1.1 0 0 0-.025.017.1.1 0 0 0-.017.025.1.1 0 0 0-.004.033v.946a.2.2 0 0 1-.062.142.2.2 0 0 1-.142.062h-.817a.2.2 0 0 1-.083-.017.23.23 0 0 1-.133-.204l.012-1.012 1.146-.005a.08.08 0 0 0 .054-.02.1.1 0 0 0 .021-.05V34.12h1.188a.04.04 0 0 0 .029-.013.05.05 0 0 0 .012-.029v-1.146a.04.04 0 0 0-.012-.029.05.05 0 0 0-.034-.008l-1.183.008.008-1.233 1.134-.008.029-.009a.1.1 0 0 0 .025-.017.1.1 0 0 0 .017-.024.1.1 0 0 0 0-.03l.016-1.208 1.25-.012a.05.05 0 0 0 .03-.017.05.05 0 0 0 .016-.034v-1.104a.07.07 0 0 0-.02-.045.06.06 0 0 0-.043-.017h-1.129a.1.1 0 0 0-.066.025.1.1 0 0 0-.025.067l-.013 1.129-1.146.012a.07.07 0 0 0-.054.021.08.08 0 0 0-.017.054l-.004 1.209h-1.2a.04.04 0 0 0-.025.012.04.04 0 0 0-.008.02v1.142q-.002.015.008.03a.05.05 0 0 0 .03.012l1.183.021v1.217l-1.15.004a.07.07 0 0 0-.046.02.08.08 0 0 0-.025.055v1.217l-1.225.004a.08.08 0 0 0-.054.02.07.07 0 0 0-.021.055v.958a.2.2 0 0 1-.058.137.2.2 0 0 1-.142.059h-.812a.23.23 0 0 1-.159-.067.2.2 0 0 1-.042-.07.2.2 0 0 1-.02-.084l.012-1.012 1.138-.009q.031 0 .058-.025a.1.1 0 0 0 .025-.058v-1.163a.05.05 0 0 0-.012-.033.05.05 0 0 0-.034-.008h-1.137a.05.05 0 0 0-.034.008.04.04 0 0 0-.012.03l.008 1.258H8.875a.07.07 0 0 0-.054.025.1.1 0 0 0-.025.054v.97c0 .025 0 .046-.013.071a.2.2 0 0 1-.033.054.18.18 0 0 1-.13.054H7.58a.08.08 0 0 0-.055.022.08.08 0 0 0-.025.058v1.108c0 .008 0 .021-.008.03q-.015.01-.03.008H6.297l-.013-.009-.008-.012v-1.13q0-.031-.02-.053a.08.08 0 0 0-.055-.021H5.13a.083.083 0 0 0-.084.083v.954a.2.2 0 0 1-.05.133.2.2 0 0 1-.138.059h-.916a.19.19 0 0 1-.196-.188v-.975a.07.07 0 0 0-.013-.041l-.02-.017-.026-.004H2.522l.004-1.233 1.142-.009q.039 0 .066-.029a.1.1 0 0 0 .021-.058v-1.05a.15.15 0 0 1 .15-.155h1.063a.08.08 0 0 0 .062-.02.1.1 0 0 0 .025-.063v-1.054a.084.084 0 0 1 .083-.083l1.142.008v1.217l-1.154.004a.07.07 0 0 0-.062.046.1.1 0 0 0-.005.029l-.004 1.22h-1.22a.08.08 0 0 0-.059.03.08.08 0 0 0-.025.058v1.1c0 .008 0 .017.008.025a.04.04 0 0 0 .03.013h1.22a.04.04 0 0 0 .03-.013.04.04 0 0 0 .012-.029v-1.183l1.146-.009a.08.08 0 0 0 .054-.02.07.07 0 0 0 .02-.05l.01-1.221h1.195l.013-.013.008-.012v-1.163a.04.04 0 0 0-.009-.029.04.04 0 0 0-.029-.008L6.28 32.9l-.004-1.154q.001-.034.025-.058a.1.1 0 0 1 .058-.021H7.4a.1.1 0 0 0 .033-.009q.016-.007.03-.016a.1.1 0 0 0 .029-.063l.008-1.208 1.208-.008a.08.08 0 0 0 .063-.026.1.1 0 0 0 .025-.058v-1.075l-.03-.029a.1.1 0 0 0-.062-.03H7.587l-.033.005-.02.02a.1.1 0 0 0-.017.026l-.009.029-.008 1.146-1.187-.004c-.013 0-.026 0-.03-.009a.04.04 0 0 1-.012-.025V29.18a.06.06 0 0 1 .037-.029h1.109a.083.083 0 0 0 .083-.083v-1.084c0-.016.008-.033.02-.041a.07.07 0 0 1 .047-.025h1.091a.14.14 0 0 0 .138-.138v-1.091a.07.07 0 0 1 .07-.067h1.092A.06.06 0 0 0 10 26.6a.06.06 0 0 0 .02-.046v-.987a.17.17 0 0 1 .172-.171h1a.06.06 0 0 0 .041-.017.07.07 0 0 0 .017-.042v-2.325a.13.13 0 0 1 .042-.1.14.14 0 0 1 .1-.041h2.304c.02 0 .042-.008.054-.025a.07.07 0 0 0 .02-.046v-.98c0-.04.022-.087.05-.12a.18.18 0 0 1 .126-.054h.979a.1.1 0 0 0 .05-.021.1.1 0 0 0 .025-.05V20.45q-.002-.01.008-.02a.03.03 0 0 1 .017-.01h1.213a.07.07 0 0 1 .041.017.06.06 0 0 1 .017.042v1.084c0 .02.008.041.02.054a.08.08 0 0 0 .059.025l1.146.008v1.18q-.002.02.008.028a.04.04 0 0 0 .03.013h1.145a.04.04 0 0 0 .03-.013.04.04 0 0 0 .012-.029v-1.1a.08.08 0 0 0-.025-.058.1.1 0 0 0-.063-.025l-1.137.004V20.5q.001-.034.025-.058a.08.08 0 0 1 .058-.025h1.021q.047-.001.083-.034a.13.13 0 0 0 .038-.083v-1.03a.147.147 0 0 1 .146-.15h1.066a.08.08 0 0 0 .082-.053.1.1 0 0 0 .006-.034v-1.058a.084.084 0 0 1 .083-.083h6.034a.08.08 0 0 0 .058-.017.08.08 0 0 0 .025-.058v-1.125l.008-.009.013-.008.012-.008h1.233q.014 0 .021.012a.03.03 0 0 1 .009.021v1.02a.2.2 0 0 0 .05.126c.033.029.083.05.125.05h.829a.23.23 0 0 0 .162-.067.23.23 0 0 0 .063-.162v-.959c0-.008 0-.02.008-.025.013-.016.017-.016.025-.016h1.154q.021-.002.03.008.01.011.008.03v1.012a.183.183 0 0 0 .179.179h.946a.18.18 0 0 0 .12-.054.17.17 0 0 0 .055-.125v-.925q.001-.052.037-.088a.13.13 0 0 1 .084-.037zm-21.204 61.14c.084 0 .146.067.146.146l.008 1.008a.145.145 0 0 1-.145.146l-.938.008a.146.146 0 0 1-.146-.145l-.008-1.009c0-.083.067-.145.146-.145zm83.95-1.196a.1.1 0 0 0-.025.063c-.012.337-.008.696 0 1.075 0 .008.021.025.025.029l.025.02q.57.02 1.075 0a.1.1 0 0 0 .067-.024.1.1 0 0 0 .03-.071v-.867c0-.05-.034-.108-.093-.166q-.086-.088-.166-.088h-.867a.1.1 0 0 0-.07.03m-12.541-2.52a.1.1 0 0 0-.03.07l-.008 1.204h-1.141a.08.08 0 0 0-.059.03.08.08 0 0 0-.025.058v1.083c0 .013 0 .025.013.034q.013.014.033.016h1.138a.04.04 0 0 0 .029-.012.04.04 0 0 0 .012-.03v-1.178h1.117a.2.2 0 0 0 .18-.112.2.2 0 0 0 .007-.076v-.933a.19.19 0 0 0-.11-.168.2.2 0 0 0-.073-.016h-1.017a.1.1 0 0 0-.066.03m7.487-.013a.08.08 0 0 0-.025.058l-.004 1.23h-1.137a.1.1 0 0 0-.059.029.1.1 0 0 0-.029.058v1.104l.017.013.016.012h1.15q.016 0 .03-.008l.012-.013v-1.196h1.05a.26.26 0 0 0 .183-.075.26.26 0 0 0 .071-.183v-.708a.336.336 0 0 0-.338-.342h-.887a.1.1 0 0 0-.05.021m5.042 0a.1.1 0 0 0-.021.058v1.225h-1.217a.083.083 0 0 0-.083.084v1.1a.04.04 0 0 0 .042.041h1.216a.04.04 0 0 0 .03-.012.05.05 0 0 0 .012-.034V75.36l.958.009a.3.3 0 0 0 .1-.021.27.27 0 0 0 .175-.25v-.75a.3.3 0 0 0-.083-.209.3.3 0 0 0-.217-.083h-.854a.1.1 0 0 0-.058.021m-1.309-1.233q-.01.014-.008.029v1.183l-1-.012a.2.2 0 0 0-.083.02.2.2 0 0 0-.084.05.2.2 0 0 0-.041.08.2.2 0 0 0-.025.083v1.03a.06.06 0 0 0 .017.037.04.04 0 0 0 .033.012h1.125a.05.05 0 0 0 .041-.016.05.05 0 0 0 .013-.038l.004-1.25h1.213a.08.08 0 0 0 .077-.054.1.1 0 0 0 .006-.033v-1.084l-.002-.02-.01-.017a.04.04 0 0 0-.03-.009h-1.216a.04.04 0 0 0-.03.009m-9.929-.009-.016.013-.013.016v1.142l.004.021.013.02.016.01.021.003h1.121q.008.002.021-.008l.017-.008.008-.017.004-.02v-1.142c-.004-.005-.012-.009-.012-.017a.07.07 0 0 0-.042-.013zm-1.291-3.72a.13.13 0 0 0-.034.087v.942a.23.23 0 0 0 .23.225h.9c.041 0 .083.016.108.041.025.03.041.071.041.109v1.091l-1.237-.008h-.017l-.016.008-.009.017-.004.017v1.154q.002.015.013.025a.04.04 0 0 0 .029.012h1.166a.1.1 0 0 0 .038-.008l.025-.013a.1.1 0 0 0 .02-.029v-.033l-.007-1.142 1.212-.004.02-.008c.01-.008.01-.017.01-.025v-1.23c0-.003 0-.008-.01-.012l-.016-.008h-.008a3.2 3.2 0 0 1-1.113.02.1.1 0 0 1-.062-.033.1.1 0 0 1-.021-.062v-.875a.3.3 0 0 0-.083-.209.3.3 0 0 0-.209-.083h-.875a.14.14 0 0 0-.091.034m10.041 2.495h-.02l-.021.013-.013.02-.008.026.004 1.104.004.025.013.02.025.013.025.009 1.1-.009h.02l.021-.012.017-.021.004-.025v-1.104l-.008-.025-.013-.021c-.004 0-.012-.013-.02-.013l-.021-.004h-1.105zm-81.383-1.25c.042 0 .083.038.083.084v1.083a.083.083 0 0 1-.083.083h-1.062a.084.084 0 0 1-.084-.079V70.44c0-.042.034-.08.08-.084zm.083-2.458-.008 1.142a.04.04 0 0 1-.042.041h-1.141a.04.04 0 0 1-.042-.041V67.9a.04.04 0 0 1 .014-.031.04.04 0 0 1 .032-.01h1.137c.025 0 .05.016.05.041m76.284-1.263c-.009.009-.013.025-.013.038l-.004 1.188h-1.213l-.033.004-.025.02c-.008.009-.017.013-.02.025v1.134l.004.025a.04.04 0 0 0 .029.012h1.22a.04.04 0 0 0 .03-.012.04.04 0 0 0 .012-.03l-.004-1.178h1.083a.145.145 0 0 0 .146-.15v-.975a.12.12 0 0 0-.033-.084.1.1 0 0 0-.08-.029H87.58a.06.06 0 0 0-.037.013m-2.496-.012-.021.004-.017.013-.012.016v.021l.012 1.13.005.02.012.017.017.012.02.004 1.126-.016h.02l.013-.017q.012-.002.012-.016l.004-.021-.016-1.13v-.02l-.017-.017-.012-.013h-.021zM8.563 65.333a.25.25 0 0 1 .241.25v.809a.25.25 0 0 1-.254.25l-.808-.013a.25.25 0 0 1-.25-.25l.012-.808a.25.25 0 0 1 .25-.242h.809zm2.5 0a.2.2 0 0 1 .195.204v.896a.2.2 0 0 1-.204.2h-.833a.2.2 0 0 1-.2-.204l.004-.9a.2.2 0 0 1 .2-.196zm2.516 0a.2.2 0 0 1 .2.196v.904a.196.196 0 0 1-.196.196l-.837.004a.2.2 0 0 1-.2-.2v-.904c0-.104.083-.191.196-.191l.833-.005zm71.438-1.212a.05.05 0 0 0-.013.033v1.188l-1.183-.009c-.013 0-.021.009-.03.017a.04.04 0 0 0-.012.025v1.22c0 .01 0 .022.008.026q.013.01.025.008h1.046a.14.14 0 0 0 .1-.037.14.14 0 0 0 .042-.096l.004-1.154.858-.013q.045.002.076.021c.108.058.195.05.262-.033q.03-.046.03-.1v-1.071a.05.05 0 0 0-.013-.03c-.004-.008-.017-.008-.025-.008H85.05a.05.05 0 0 0-.033.013m-1.209-1.213a.1.1 0 0 0-.025.059v1.141l-1.262-.012a.04.04 0 0 0-.042.041v1.175l.017.017.012.009h1.167a.1.1 0 0 0 .067-.025.1.1 0 0 0 .029-.067l.012-1.138h1.18q.015.001.029-.008a.04.04 0 0 0 .008-.03v-1.145q.002-.017-.008-.03a.04.04 0 0 0-.025-.012h-1.1a.08.08 0 0 0-.059.025m-3.766 1.209a.04.04 0 0 0-.013.025V65.3q0 .016.013.03a.04.04 0 0 0 .025.008h.987a.2.2 0 0 0 .146-.067.22.22 0 0 0 .058-.15v-.796a.23.23 0 0 0-.058-.158.2.2 0 0 0-.146-.059h-.987c-.009 0-.021 0-.025.009M6.158 62.875A.125.125 0 0 1 6.28 63l-.012.992a.125.125 0 0 1-.125.125l-.975-.013a.125.125 0 0 1-.125-.125l.016-.996a.125.125 0 0 1 .125-.125zm7.5 0a.124.124 0 0 1 .121.125l-.012 1a.125.125 0 0 1-.125.117l-.98-.013a.125.125 0 0 1-.125-.125l.017-.996a.125.125 0 0 1 .125-.125l.975.017zm-12.441.008c.05 0 .091.042.087.092v1.042c0 .05-.042.096-.096.096l-1.12-.009A.09.09 0 0 1 0 64.017l.004-1.042a.09.09 0 0 1 .092-.092zm7.437 0a.15.15 0 0 1 .15.15v.93a.156.156 0 0 1-.154.15l-1-.009a.15.15 0 0 1-.15-.15l.008-.929a.15.15 0 0 1 .15-.15l1 .008zm7.5 0a.15.15 0 0 1 .15.15v.93a.16.16 0 0 1-.158.15l-1-.009a.15.15 0 0 1-.146-.15v-.929c0-.083.075-.15.158-.15zm-12.491-.008c.05 0 .091.042.091.092l.004 1.046a.093.093 0 0 1-.091.095H2.625a.1.1 0 0 1-.068-.025.1.1 0 0 1-.028-.066v-1.042c0-.054.042-.096.092-.096zm7.5-.004c.05 0 .091.041.091.091l.004 1.05a.093.093 0 0 1-.091.096H10.12a.096.096 0 0 1-.096-.091v-1.05c0-.05.042-.092.092-.092zm7.52 0c.038 0 .067.029.067.062l.004 1.113a.067.067 0 0 1-.067.066h-1.1q-.012.002-.025-.003a.06.06 0 0 1-.036-.034l-.005-.025v-1.112c0-.034.025-.063.062-.063h1.1zm58.875-3.733-.029.016a.1.1 0 0 0-.012.03.1.1 0 0 0-.009.033v1.141l-1.054-.016a.2.2 0 0 0-.066.012.2.2 0 0 0-.059.042.2.2 0 0 0-.041.054.2.2 0 0 0-.009.067v.945q-.001.037.017.075a.14.14 0 0 0 .041.055q.032.026.071.033h.071a1.4 1.4 0 0 1 .713-.008.2.2 0 0 0 .125-.009l.091-.041a.1.1 0 0 1 .034-.009l.033.009a.1.1 0 0 1 .02.025q.01.015.01.033v1.196q.001.027.02.041.016.021.042.026h1.104a.07.07 0 0 0 .041-.021.06.06 0 0 0 .021-.042v-1.062a.18.18 0 0 0-.183-.18h-.954q-.019.002-.038-.008a.1.1 0 0 1-.05-.05.1.1 0 0 1 0-.033v-1.134l1.184.005a.05.05 0 0 0 .029-.013.05.05 0 0 0 .008-.03v-1.153a.04.04 0 0 0-.008-.03.05.05 0 0 0-.03-.012h-1.1q-.016.002-.033.013m7.538 2.466a.15.15 0 0 0-.084.084.2.2 0 0 0-.012.058v.987q-.002.028.008.055.012.03.034.054a.2.2 0 0 0 .054.033.2.2 0 0 0 .058.013h.921c.02 0 .042-.005.058-.013a.15.15 0 0 0 .084-.083.2.2 0 0 0 .008-.059l.004-.987a.2.2 0 0 0-.012-.054.2.2 0 0 0-.03-.054.16.16 0 0 0-.112-.042h-.917a.2.2 0 0 0-.062.008m-3.959-.037-.07.025a.1.1 0 0 1-.042.008l-.854-.02c-.017 0-.042 0-.059.008a.15.15 0 0 0-.07.079.1.1 0 0 0-.013.05v1.054a.114.114 0 0 0 .117.112h.875a.24.24 0 0 0 .233-.237v-1a.1.1 0 0 0-.008-.042.1.1 0 0 0-.03-.029.1.1 0 0 0-.037-.017zm1.396-2.43a.1.1 0 0 0-.025.017.1.1 0 0 0-.016.03l-.009.029v1.154l-1.158-.009a.1.1 0 0 0-.03.005l-.02.012a.1.1 0 0 0-.017.025l-.004.025v1.1l.004.02a.07.07 0 0 0 .063.042q.5-.016 1.05.017.05.002.108-.058v1.204c0 .033.017.07.042.096q.04.037.096.037h1.058c.013 0 .03 0 .042-.008a.1.1 0 0 0 .037-.02l.021-.038a.1.1 0 0 0 .004-.042v-.892a.283.283 0 0 0-.27-.287l-.617-.021a.2.2 0 0 0-.084.017q-.17.082-.333-.042l.008-1.183h1.071a.23.23 0 0 0 .225-.225v-.805a.21.21 0 0 0-.208-.208h-1.008a.1.1 0 0 0-.03.009m-68.97 1.217a.214.214 0 0 1 .216.217v.842a.2.2 0 0 1-.025.104.24.24 0 0 1-.17.116c-.034 0-.072 0-.105-.012q-.262-.099-.887.033h-.013a.04.04 0 0 1-.017-.008l-.008-.013-.004-.016v-1.225q0-.017.012-.03a.04.04 0 0 1 .026-.008zm-2.342.013c.02 0 .037.016.041.041l-.016 1.167a.04.04 0 0 1-.042.033l-1.146-.012c-.02 0-.037-.021-.037-.042l.012-1.162c0-.021.021-.042.042-.042zm-2.58-.013c.088 0 .159.075.159.167v.904a.16.16 0 0 1-.158.158h-.975a.16.16 0 0 1-.159-.158v-.908c0-.084.071-.163.159-.163h.979zm71.43-1.22a.1.1 0 0 0-.025.016l-.013.025-.008.025v1.117q.002.013.017.02l.02.017q.015.005.03.004l1.083.005h.03a.1.1 0 0 0 .024-.021l.013-.021.008-.025.004-1.088q.001-.015-.004-.029c0-.008-.013-.012-.017-.02a.1.1 0 0 0-.025-.017l-.025-.009H80.1a.1.1 0 0 0-.03 0m4.962 0-.016.012-.013.017v1.166l.013.013q.007.008.016.012l.021.004H86.2l.013-.016.012-.013.004-.02v-1.146l-.016-.017-.013-.013h-1.167m-73.85-3.75q.024.01.042.029a.13.13 0 0 1 .033.087v1.03c0 .012 0 .028-.008.04a.1.1 0 0 1-.05.05.1.1 0 0 1-.042 0h-.987a.15.15 0 0 0-.1.043.15.15 0 0 0-.042.104v.95q0 .061.042.104a.15.15 0 0 0 .1.041h.992a.08.08 0 0 1 .062.034c.017.017.03.041.03.062v1.03q-.004.056-.043.095a.13.13 0 0 1-.087.034h-.958a.146.146 0 0 1-.142-.146v-1.013a.1.1 0 0 0-.033-.062.1.1 0 0 0-.063-.03H8.887a.083.083 0 0 1-.083-.083V56.7q0-.032.025-.058a.08.08 0 0 1 .058-.025H9.93q.02.001.038-.005a.1.1 0 0 0 .029-.02.1.1 0 0 0 .029-.067v-1.012c0-.038.017-.075.046-.1a.14.14 0 0 1 .1-.042h.958c.021 0 .038.008.054.012m63.8 1.245v1.117a.176.176 0 0 0 .159.175.2.2 0 0 0 .091-.013.88.88 0 0 1 .667-.033.3.3 0 0 0 .133.017.29.29 0 0 0 .25-.28v-.945a.05.05 0 0 0-.016-.042.06.06 0 0 0-.042-.013H75zm3.771-1.241-.012.008-.009.017v1.191h-1.196l-.02.013a.03.03 0 0 0-.009.02v1.25l.009.013q-.002.012.008.013l.008.004a1.75 1.75 0 0 1 1.017-.03q.035.012.07.009a.14.14 0 0 0 .105-.08q.015-.029.017-.062l-.009-1.15 1.209-.004a.085.085 0 0 0 .087-.083v-1.088a.04.04 0 0 0-.012-.029c-.009-.008-.021-.017-.034-.017h-1.208a.04.04 0 0 0-.02.005m1.288 1.229c-.009.004-.013.016-.013.025v1.25l.004.008.009.008.012.009h.017a1.5 1.5 0 0 1 .896-.042q.049.015.1.008a.225.225 0 0 0 .187-.22v-.884a.18.18 0 0 0-.05-.125.17.17 0 0 0-.116-.046h-1.025c-.009 0-.017 0-.021.009m3.766-1.209a.1.1 0 0 0-.025.059v1.141l-1.266-.004a.04.04 0 0 0-.025.013l-.007.011-.002.014v1.262l.009.004.012.005h.013c.416-.096.72-.109.895-.042q.063.029.125.02a.274.274 0 0 0 .25-.274l-.004-1.009 1.18.009q.015 0 .029-.013a.05.05 0 0 0 .008-.033v-1.146q.002-.017-.008-.03a.04.04 0 0 0-.025-.012h-1.1a.08.08 0 0 0-.059.025m-3.725-1.262a.08.08 0 0 0-.041.041.1.1 0 0 0-.009.03l-.02 1.083.008.03.012.024a.1.1 0 0 0 .055.025l.866.017a.3.3 0 0 0 .217-.1.36.36 0 0 0 .091-.233l.013-.563a.35.35 0 0 0-.183-.317.3.3 0 0 0-.113-.025l-.867-.016q-.015-.001-.029.004m2.475.008a.13.13 0 0 0-.062.058.1.1 0 0 0-.008.042l-.013 1.017c0 .025.013.054.033.075q.031.03.075.033l1.075.013c.017 0 .034 0 .042-.009a.1.1 0 0 0 .037-.02.1.1 0 0 0 .021-.038.1.1 0 0 0 .013-.042l.012-1.012a.12.12 0 0 0-.029-.084.1.1 0 0 0-.079-.029l-1.08-.012c-.012 0-.02 0-.037.008m-12.458 0q-.025-.002-.042.008a.1.1 0 0 0-.046.055.1.1 0 0 0-.008.033v1.042c0 .012.008.025.013.033a.1.1 0 0 0 .02.033.1.1 0 0 0 .063.03l1.042-.005q.013.002.033-.008a.1.1 0 0 0 .033-.02.1.1 0 0 0 .021-.034.1.1 0 0 0 .008-.03l-.004-1.041-.008-.042a.1.1 0 0 0-.02-.029.1.1 0 0 0-.072-.029zm7.458.004a.1.1 0 0 0-.029.021.1.1 0 0 0-.012.03.1.1 0 0 0-.009.033v1.087a.1.1 0 0 0 .021.03.1.1 0 0 0 .03.02l.033.004 1.054.005a.1.1 0 0 0 .033-.009.1.1 0 0 0 .03-.02.1.1 0 0 0 .02-.03v-.033l.008-1.05-.008-.042-.016-.025-.03-.017a.1.1 0 0 0-.037-.008h-1.05zm-2.533 0a.04.04 0 0 0-.042.038v1.146l.004.016.009.013.017.012h1.024a.3.3 0 0 0 .096-.016.27.27 0 0 0 .134-.125.2.2 0 0 0 .02-.092v-.767a.23.23 0 0 0-.079-.166.26.26 0 0 0-.175-.067l-1.008.004zm-63.858-1.3a.1.1 0 0 1 .058.021.08.08 0 0 1 .025.063v1.129c0 .025-.017.041-.033.058a.07.07 0 0 1-.055.03l-.937-.005a.2.2 0 0 1-.083-.02.22.22 0 0 1-.113-.134.3.3 0 0 1-.017-.096l.005-.808a.28.28 0 0 1 .066-.175.2.2 0 0 1 .15-.071zm30.066-2.441q.016.018.017.041v1.1a.08.08 0 0 0 .08.075h1.09a.096.096 0 0 1 .093.092v1.092a.05.05 0 0 1-.013.033.05.05 0 0 1-.033.008h-1.175q-.013.002-.025-.008a.03.03 0 0 1-.009-.017v-1.1a.1.1 0 0 0-.025-.066.1.1 0 0 0-.062-.021l-1.158-.008v-1.23l1.179-.012c.016 0 .033.008.041.02m26.292 1.22h-.017l-.016.017-.013.013v.016l.004 1.125.004.025.013.017.017.008h.016l1.196-.008h.021l.025-.025v-.02l-.004-1.126-.004-.02-.013-.013-.012-.013-.021-.004zm5.017.009a.06.06 0 0 0-.017.041v1.117q.002.019.017.038.015.016.037.016h1.117a.05.05 0 0 0 .041-.012.06.06 0 0 0 .013-.042l.004-1.117a.06.06 0 0 0-.058-.05l-1.113-.004a.06.06 0 0 0-.041.013m4.958 1.166c0 .013 0 .03.013.038a.04.04 0 0 0 .024.008h1.155q.015 0 .029-.008l.008-.03v-1.103a.1.1 0 0 0-.025-.063.1.1 0 0 0-.058-.02H77.5zm2.575-1.183a.1.1 0 0 0-.025.017l-.017.02a.1.1 0 0 0-.008.03l-.008 1.079.008.03q.006.013.017.024a.1.1 0 0 0 .025.017l.029.008 1.07.008c.013 0 .022-.008.03-.012a.1.1 0 0 0 .029-.013.1.1 0 0 0 .017-.025l.004-.029.008-1.075-.004-.033a.07.07 0 0 0-.042-.042h-.033l-1.07-.008q-.015-.001-.03.004m2.446.009q-.013.002-.021.016l-.017.021-.004.025-.004 1.083v.03a.07.07 0 0 0 .042.041h.025l1.162.008.025-.012.025-.013c.004-.008.013-.012.013-.02a.1.1 0 0 0 .004-.03v-1.083a.1.1 0 0 0 0-.029l-.017-.02-.02-.013-.03-.009h-1.179zm-71.28-1.221a.05.05 0 0 1 .013.029l.004.992a.2.2 0 0 1-.016.075.25.25 0 0 1-.13.108.3.3 0 0 1-.087.02h-.763a.26.26 0 0 1-.166-.062.2.2 0 0 1-.071-.137v-.992q-.002-.014.008-.03a.05.05 0 0 1 .034-.012l1.146-.004q.016 0 .029.013m56.355-1.296a.2.2 0 0 0-.1.104.2.2 0 0 0-.017.067v1.125h-1.133l-.034.004a.1.1 0 0 0-.029.02.1.1 0 0 0-.03.063v1.084a.04.04 0 0 0 .018.033.07.07 0 0 0 .041.012h1.142l.017-.008.008-.017v-1.191l1.004-.005a.3.3 0 0 0 .213-.083.3.3 0 0 0 .091-.22v-.834a.18.18 0 0 0-.175-.17h-.945a.2.2 0 0 0-.071.016m4.962.008a.08.08 0 0 0-.025.059v1.224H71.32a.1.1 0 0 0-.034.009l-.025.012a.1.1 0 0 0-.025.059v1.104q0 .016.013.029l.025.008h1.22a.04.04 0 0 0 .026-.012.04.04 0 0 0 .012-.03v-1.174l.942-.005a.3.3 0 0 0 .204-.091.3.3 0 0 0 .083-.204v-.804a.2.2 0 0 0-.058-.146.2.2 0 0 0-.142-.059h-.941q-.034-.001-.059.021m4.959-.012a.05.05 0 0 0-.013.033v1.258l-1.183-.004h-.013l-.012.013-.013.008v1.183l.013.017.012.008H77.5l.004-1.225 1.142-.008.033-.004a.09.09 0 0 0 .05-.08V49.15a.05.05 0 0 0-.008-.033.04.04 0 0 0-.03-.013h-1.15l-.024.013m-2.459 0a.1.1 0 0 0-.041.025.13.13 0 0 0-.034.083v1.058l.004.046a.12.12 0 0 0 .071.067l.042.012h1.058q.027.002.046-.008a.1.1 0 0 0 .042-.025.1.1 0 0 0 .025-.042l.012-.041v-1.063c0-.012 0-.029-.008-.041a.1.1 0 0 0-.025-.042.1.1 0 0 0-.042-.03.1.1 0 0 0-.041-.008h-1.063a.1.1 0 0 0-.041.005zm5.063 0-.042.004a.1.1 0 0 0-.029.02c-.008.009-.02.022-.025.034v.042l.004 1.096q-.002.018.008.037a.1.1 0 0 0 .021.033q.017.016.038.025h.033l1.025-.004a.1.1 0 0 0 .042-.008.1.1 0 0 0 .033-.021.1.1 0 0 0 .03-.075l-.009-1.096a.1.1 0 0 0-.033-.07.1.1 0 0 0-.034-.026h-.033l-1.03.005zm-15.033 0a.1.1 0 0 0-.03.016.1.1 0 0 0-.02.03v.033l-.009 1.125.008.033.017.025a.1.1 0 0 0 .063.03h1.054l.033-.005a.1.1 0 0 0 .03-.02.1.1 0 0 0 .016-.03l.004-.033.004-1.125c0-.008 0-.025-.008-.033a.1.1 0 0 0-.017-.03c-.004-.008-.016-.012-.025-.016a.1.1 0 0 0-.041-.009H65.12l-.033.005zm4.95-.009-.013.009-.008.012-.004.017-.005 1.208v.021l.013.013.012.008h.013l1.146.008.016-.004.013-.008a.05.05 0 0 0 .012-.03v-1.229l-.008-.012-.012-.009h-.017l-1.142-.008zm-10.03-2.429a.1.1 0 0 0-.025.063v.891a.24.24 0 0 0 .084.184c.057.05.132.077.208.075h.717c.076 0 .15-.026.208-.075a.24.24 0 0 0 .083-.175l.005-.896a.1.1 0 0 0-.009-.034l-.017-.029-.029-.016a.1.1 0 0 0-.033-.009h-1.133a.1.1 0 0 0-.059.021m10.03-2.52a.1.1 0 0 0-.025.053v1.15h-1.155a.08.08 0 0 0-.05.026.07.07 0 0 0-.02.045l-.005 1.225h-1.22a.08.08 0 0 0-.059.021.08.08 0 0 0-.02.058v.946a.2.2 0 0 0 .208.209h.8a.29.29 0 0 0 .291-.292v-.942h1.15c.021 0 .038-.016.05-.029a.07.07 0 0 0 .025-.046l.005-1.22h1.179a.05.05 0 0 0 .033-.013.05.05 0 0 0 .013-.03v-1.15l-.013-.024a.04.04 0 0 0-.03-.013h-1.103a.1.1 0 0 0-.055.025m-34.967 0a.1.1 0 0 0-.021.058l-.008 1.145h-1.217a.08.08 0 0 0-.054.03.1.1 0 0 0-.017.05l-.008 1.212-1.175.008c-.013 0-.025 0-.033.013a.06.06 0 0 0-.017.042v1.116c0 .013 0 .025.012.034q.014.014.034.016h1.066q.047 0 .08-.033a.1.1 0 0 0 .029-.075v-1.12l1.225-.01c.016 0 .037-.003.05-.02a.1.1 0 0 0 .02-.05l.005-1.213h1.187a.04.04 0 0 0 .03-.012.04.04 0 0 0 .008-.025v-1.142c0-.012 0-.025-.013-.033q-.012-.012-.037-.012h-1.084a.1.1 0 0 0-.062.025zm20 2.5-.021.004-.02.012-.013.02-.009.026.005 1.1.008.025c0 .008.008.017.012.02q.019.015.042.017h1.104l.025-.008.021-.013c.008-.004.008-.012.012-.02l.005-.025v-1.1l-.009-.025-.012-.021-.021-.013-.025-.008-1.1.004zm9.987-2.5a.1.1 0 0 0-.025.053v1.155h-1.22l-.026.008a.1.1 0 0 0-.024.017l-.017.02a.1.1 0 0 0-.004.03v1.212l-1.154.004a.1.1 0 0 0-.055.025.08.08 0 0 0-.025.054v.971c0 .046.021.092.054.125a.18.18 0 0 0 .126.05h.87a.18.18 0 0 0 .18-.179v-1.05l1.216-.008c.021 0 .042-.004.054-.021a.1.1 0 0 0 .021-.05l.004-1.208 1.046-.005a.2.2 0 0 0 .134-.05.2.2 0 0 0 .05-.129v-.875a.18.18 0 0 0-.05-.125.17.17 0 0 0-.125-.05h-.971a.08.08 0 0 0-.059.025m5.021 2.5a.12.12 0 0 0-.07.104v1.008c0 .012 0 .029.008.041a.12.12 0 0 0 .104.071h1.004q.046 0 .08-.033.015-.014.024-.033a.1.1 0 0 0 .008-.046v-1.004l-.004-.042a.12.12 0 0 0-.062-.062.1.1 0 0 0-.042-.009H70.12zm4.95.037a.16.16 0 0 0-.05.108l-.008.917a.14.14 0 0 0 .05.108.16.16 0 0 0 .112.046l.98.008a.17.17 0 0 0 .112-.041.17.17 0 0 0 .05-.117l.008-.908q0-.03-.012-.059a.2.2 0 0 0-.042-.054.2.2 0 0 0-.041-.037.2.2 0 0 0-.063-.013l-.983-.008a.17.17 0 0 0-.113.05m2.542-.038a.1.1 0 0 0-.038.021.1.1 0 0 0-.025.071l-.004 1.03q-.002.02.008.04.007.017.017.03.015.014.034.02a.1.1 0 0 0 .037.01l1.033.003a.1.1 0 0 0 .071-.029.1.1 0 0 0 .03-.07v-1.03c0-.012 0-.025-.009-.041a.1.1 0 0 0-.05-.055h-.037l-1.034-.008-.037.008zm-17.533-2.47a.2.2 0 0 0-.059.133v1.041l-1.133.009a.07.07 0 0 0-.054.02.1.1 0 0 0-.021.05l-.008 1.213-1.15.004a.08.08 0 0 0-.059.025.08.08 0 0 0-.017.059v1.033c0 .03.009.058.026.075a.1.1 0 0 0 .079.03h.908a.2.2 0 0 0 .2-.193l.017-1.033 1.137-.008c.021 0 .042-.004.054-.021a.1.1 0 0 0 .021-.05V45.36l1.209-.004a.1.1 0 0 0 .095-.1v-.92a.21.21 0 0 0-.204-.205h-.912a.2.2 0 0 0-.13.054m5.025 2.491a.1.1 0 0 0-.03.071v1.033q0 .04.025.067c.021.02.042.03.071.03h.896a.22.22 0 0 0 .167-.084.3.3 0 0 0 .07-.2v-.654a.32.32 0 0 0-.066-.209.22.22 0 0 0-.167-.083h-.896a.1.1 0 0 0-.07.03m7.512.021a.17.17 0 0 0-.05.125v.887a.167.167 0 0 0 .167.167h.891a.18.18 0 0 0 .125-.05.17.17 0 0 0 .046-.117v-.891a.18.18 0 0 0-.05-.121.18.18 0 0 0-.12-.05h-.892a.17.17 0 0 0-.117.05m-20-2.558a.1.1 0 0 0-.067.025.1.1 0 0 0-.02.058l.008 1.058c0 .013 0 .021.008.034l.013.025a.1.1 0 0 0 .029.02h.033l1.133-.004a.083.083 0 0 0 .084-.083l-.013-1.058v-.034a.1.1 0 0 0-.025-.025.1.1 0 0 0-.058-.025zm15.13-.009a.23.23 0 0 0-.23.234l.008.933.004.03.017.02q.018.015.042.017l1.175-.013q.024 0 .041-.017a.07.07 0 0 0 .025-.041l-.008-.942a.2.2 0 0 0-.02-.087.3.3 0 0 0-.05-.08.2.2 0 0 0-.072-.045.2.2 0 0 0-.091-.017zm7.374 0a.1.1 0 0 0-.07.034.1.1 0 0 0-.03.075l.004 1.02.004.038a.1.1 0 0 0 .026.033q.014.016.033.025a.1.1 0 0 0 .037.009l1.092-.005.038-.008a.12.12 0 0 0 .058-.054.1.1 0 0 0 .008-.042l-.004-1.025-.008-.037-.021-.033a.1.1 0 0 0-.075-.03zm-17.529.013-.008.012-.005.013v1.166s0 .009.009.013l.008.008h1.183l.013-.004.008-.012v-1.18l-.004-.008-.012-.008-.017-.004h-1.167c-.003.002-.006 0-.008.004m4.996-.008q-.014-.002-.021.008l-.012.02-.005.017v1.142l.017.02.017.01h.02l1.126.008.016-.005c.008 0 .013-.008.017-.012l.012-.017v-1.162l-.012-.017c-.004-.004-.008-.012-.017-.012l-.02-.005h-1.138zm10.008.025a.1.1 0 0 0-.025.066v1.042a.1.1 0 0 0 .025.062.1.1 0 0 0 .071.03h1.033a.1.1 0 0 0 .096-.096v-1.038a.1.1 0 0 0-.096-.096h-1.033a.1.1 0 0 0-.07.03m4.975-.025-.008.008c-.004 0-.013.004-.013.012v.013l-.004 1.146v.016l.013.017.012.008h1.18l.016-.008.008-.013v-.016l.009-1.142a.04.04 0 0 0-.009-.017l-.008-.016-.012-.008-.017-.005h-1.163zm-46.208-3.73a.1.1 0 0 0-.021.063v1.137l-1.23.009a.08.08 0 0 0-.05.025.07.07 0 0 0-.02.05v1.225h-1.142a.09.09 0 0 0-.087.083v1.087q0 .02.012.034a.05.05 0 0 0 .034.017h1.137a.04.04 0 0 0 .03-.013.04.04 0 0 0 .012-.03L30 42.918h.996a.31.31 0 0 0 .304-.309v-1l1.18.005h.016l.012-.013.009-.013v-1.162a.04.04 0 0 0-.009-.03.04.04 0 0 0-.029-.012h-1.096a.1.1 0 0 0-.062.025m6.208-3.729a.13.13 0 0 0-.029.096l-.004 1.096h-1.138a.08.08 0 0 0-.054.029.1.1 0 0 0-.02.05l-.009 1.212h-1.183a.05.05 0 0 0-.034.009.04.04 0 0 0-.012.029v1.154q.002.016.012.025a.04.04 0 0 0 .03.013h1.183l.008 1.22-1.15.005a.08.08 0 0 0-.07.047.1.1 0 0 0-.005.028l-.008 1.225h-1.217a.08.08 0 0 0-.058.025.1.1 0 0 0-.021.058v1.1q0 .016.013.03a.04.04 0 0 0 .025.012H35a.04.04 0 0 0 .03-.013.04.04 0 0 0 .012-.029v-1.183l1.016-.009a.22.22 0 0 0 .217-.22l.004-1.075h1.171a.04.04 0 0 0 .042-.042V40.43a.05.05 0 0 0-.013-.033.04.04 0 0 0-.029-.013l-1.18.009v-1.23l1.142-.012c.017 0 .038-.004.05-.017a.08.08 0 0 0 .021-.054l.013-1.208 1.229-.013a.07.07 0 0 0 .05-.02q.018-.02.017-.05V36.7a.06.06 0 0 0-.017-.042.05.05 0 0 0-.042-.016h-1.108a.14.14 0 0 0-.092.041zm12.53 2.5a.07.07 0 0 0-.021.042v1.067q.002.03.029.062c.016.012.037.025.058.025l1.142.013v1.22l-1.15.009a.1.1 0 0 0-.05.02.08.08 0 0 0-.021.055l-.008 1.22h-1.213a.1.1 0 0 0-.062.026.1.1 0 0 0-.026.058v1.1q0 .016.013.029a.04.04 0 0 0 .03.013h1.216a.04.04 0 0 0 .029-.013.04.04 0 0 0 .013-.03v-1.178l.958-.005a.28.28 0 0 0 .275-.279v-1.02h1.179a.04.04 0 0 0 .03-.013.04.04 0 0 0 .012-.025V40.43a.04.04 0 0 0-.013-.029l-.017-.012h-.016l-1.18.004V39.32a.16.16 0 0 0-.045-.113.16.16 0 0 0-.113-.041H50.1a.06.06 0 0 0-.042.012m-12.505 2.433a.1.1 0 0 0-.05.055.1.1 0 0 0-.008.033l-.004 1.112a.1.1 0 0 0 .03.067.1.1 0 0 0 .028.021.1.1 0 0 0 .038.008h1.108l.037-.004a.1.1 0 0 0 .03-.02.1.1 0 0 0 .02-.034.1.1 0 0 0 .009-.033v-1.15a.1.1 0 0 0-.055-.05.1.1 0 0 0-.033-.009h-1.112l-.034.005zm23.763-1.204a.1.1 0 0 0-.025.063l-.005 1.137H60.17c-.021 0-.05 0-.071.009a.2.2 0 0 0-.062.041.2.2 0 0 0-.038.063.2.2 0 0 0-.017.067v.966a.16.16 0 0 0 .159.159h.87a.3.3 0 0 0 .105-.025.28.28 0 0 0 .17-.259v-1.02l1.18.003a.05.05 0 0 0 .033-.008.05.05 0 0 0 .013-.025v-1.15a.04.04 0 0 0-.013-.029.04.04 0 0 0-.03-.012h-1.1a.08.08 0 0 0-.053.025zm3.733-1.233a.06.06 0 0 0-.017.046v1.067a.1.1 0 0 0 .025.062.1.1 0 0 0 .063.025l1.137.013.005 1.22h-1.15a.08.08 0 0 0-.059.025.1.1 0 0 0-.025.063v1.017a.2.2 0 0 0 .204.2h.75a.277.277 0 0 0 .28-.275v-1.03h1.179a.04.04 0 0 0 .03-.012l.008-.013.003-.016v-1.142a.05.05 0 0 0-.012-.033.05.05 0 0 0-.034-.013l-1.179.009v-1.084a.15.15 0 0 0-.041-.104.14.14 0 0 0-.105-.042h-1.016a.07.07 0 0 0-.046.017m4.967-.008-.009.012-.004.013v1.016c0 .05.021.096.054.125a.17.17 0 0 0 .125.055l1.054.004v1.212h-1.07q-.032-.002-.063.008a.2.2 0 0 0-.046.042.2.2 0 0 0-.041.042.2.2 0 0 0-.009.062v.975a.183.183 0 0 0 .18.18h.87a.18.18 0 0 0 .18-.18v-1.125h1.266l.013-.012.008-.013.004-.012v-1.142a.04.04 0 0 0-.012-.029.04.04 0 0 0-.025-.012l-1.255.004v-1.184q.001-.015-.008-.029a.05.05 0 0 0-.033-.012h-1.167l-.012.008zm5.062 2.441a.2.2 0 0 0-.05.034.16.16 0 0 0-.041.104l-.009 1.017a.1.1 0 0 0 .013.054.2.2 0 0 0 .029.045c.027.026.063.04.1.042l.904.008a.25.25 0 0 0 .183-.075.27.27 0 0 0 .075-.187l.009-.78a.27.27 0 0 0-.08-.182.3.3 0 0 0-.083-.063.3.3 0 0 0-.096-.02h-.9zM33.76 40.4a.04.04 0 0 0-.013.025l-.004 1.183-1.167.005-.02.004-.017.012-.009.017-.004.017v1.208l.017.02.012.013h1.092a.08.08 0 0 0 .062-.025.1.1 0 0 0 .03-.062l.004-1.209 1.22-.008q.032-.002.055-.025a.1.1 0 0 0 .025-.054v-1.092a.05.05 0 0 0-.013-.033.05.05 0 0 0-.033-.013h-1.209a.04.04 0 0 0-.029.013zm13.783 1.233a.08.08 0 0 0-.025.059v1.129l.008.033.017.03a.1.1 0 0 0 .029.016l.033.008h1.059l.025-.008q.015-.006.029-.017a.1.1 0 0 0 .02-.029l.005-.033v-1.13a.083.083 0 0 0-.084-.083h-1.054a.1.1 0 0 0-.062.025m5.004-.02a.1.1 0 0 0-.03.02.1.1 0 0 0-.016.034.1.1 0 0 0-.008.033v1.154q.018.03.05.042a.1.1 0 0 0 .041.012h1.113a.1.1 0 0 0 .033-.008l.03-.017a.1.1 0 0 0 .02-.033l.004-.033.005-1.113c0-.012 0-.025-.009-.037a.1.1 0 0 0-.02-.03.1.1 0 0 0-.063-.029h-1.113zm5.017.016a.08.08 0 0 0-.026.059v1.133c0 .012 0 .025.009.033q.005.015.017.03a.1.1 0 0 0 .024.016.1.1 0 0 0 .034.008h.892a.2.2 0 0 0 .095-.02.3.3 0 0 0 .084-.067.28.28 0 0 0 .075-.2v-.73a.3.3 0 0 0-.017-.112.3.3 0 0 0-.142-.154.2.2 0 0 0-.095-.02h-.892a.1.1 0 0 0-.059.024m4.979.004a.1.1 0 0 0-.03.071v1.104c0 .025.009.054.03.071.016.017.041.03.066.03h1.03a.1.1 0 0 0 .092-.062.1.1 0 0 0 .008-.039v-1.104a.1.1 0 0 0-.1-.1h-1.03a.1.1 0 0 0-.066.03m4.966 0a.1.1 0 0 0-.025.063v1.125c0 .025.013.046.03.062a.1.1 0 0 0 .062.025h.958a.3.3 0 0 0 .096-.02.25.25 0 0 0 .142-.134.3.3 0 0 0 .016-.096v-.812a.24.24 0 0 0-.079-.171.27.27 0 0 0-.183-.07h-.958a.1.1 0 0 0-.059.028m5.046 0a.1.1 0 0 0-.025.059l.004 1.129a.085.085 0 0 0 .088.087h.892a.24.24 0 0 0 .179-.091.32.32 0 0 0 .07-.209V41.9a.33.33 0 0 0-.07-.208.3.3 0 0 0-.088-.067.2.2 0 0 0-.096-.02h-.891a.1.1 0 0 0-.034.005q-.015.01-.029.023m-14.987-2.475a.04.04 0 0 0-.025.009.04.04 0 0 0-.009.025l.009 1.166c0 .009 0 .017.008.021l.025.013 1-.009a.2.2 0 0 0 .075-.016.2.2 0 0 0 .1-.109.2.2 0 0 0 .02-.075l-.008-.833a.2.2 0 0 0-.058-.142.2.2 0 0 0-.137-.058zm-24.942-2.504a.2.2 0 0 0-.058.038.2.2 0 0 0-.034.058.2.2 0 0 0-.016.067v1.05h-1.142a.08.08 0 0 0-.07.075l-.013 1.225-1.213.004a.08.08 0 0 0-.058.025.08.08 0 0 0-.025.058v1.104a.04.04 0 0 0 .037.042h1.221a.05.05 0 0 0 .03-.017.05.05 0 0 0 .012-.029l-.004-1.187h1.154a.1.1 0 0 0 .05-.021.1.1 0 0 0 .025-.054V37.87h1.183q.016 0 .03-.009a.04.04 0 0 0 .012-.029v-1.145a.05.05 0 0 0-.013-.03l-.012-.012-.017-.004h-1.008a.2.2 0 0 0-.071.016zm9.98 2.513a.1.1 0 0 0-.034.025c-.008.008-.021.016-.025.029l-.004.042-.005 1.029c0 .012 0 .025.009.037a.1.1 0 0 0 .02.033q.016.012.034.017a.1.1 0 0 0 .042.009l1.02.004c.017 0 .03 0 .042-.009a.1.1 0 0 0 .03-.02.1.1 0 0 0 .029-.071v-1.03l-.005-.037a.1.1 0 0 0-.02-.033.1.1 0 0 0-.075-.03h-1.025zm29.937 0-.009.025v1.162l.004.025c.009.009.021.009.03.009l.979.004a.22.22 0 0 0 .15-.075.27.27 0 0 0 .062-.171v-.742a.26.26 0 0 0-.127-.224.2.2 0 0 0-.081-.022h-.983c-.009 0-.017 0-.025.009m-39.988 0-.017.012a.07.07 0 0 0-.016.046v1.13l.02.016q.019.015.042.017h1.13l.02-.021.013-.017v-1.154l-.017-.021-.02-.008H32.58l-.025.004zm5 0a.1.1 0 0 0-.054.054.1.1 0 0 0-.004.037v1.03q-.002.018.008.037a.1.1 0 0 0 .088.063h1.1c.012 0 .025 0 .037-.009a.1.1 0 0 0 .034-.017.1.1 0 0 0 .02-.033.1.1 0 0 0 .009-.041v-1.025l-.005-.042a.1.1 0 0 0-.024-.033.1.1 0 0 0-.03-.021.1.1 0 0 0-.041-.009h-1.096l-.033.009zm2.48.012a.06.06 0 0 0-.017.042v1.108c0 .017.008.033.016.042a.06.06 0 0 0 .046.017h1.104q.024-.001.042-.017a.06.06 0 0 0 .017-.042v-1.108a.06.06 0 0 0-.013-.042.07.07 0 0 0-.046-.02H40.08a.07.07 0 0 0-.041.02zm5.016-.012a.1.1 0 0 0-.046.054.1.1 0 0 0-.008.037l-.004 1.034q-.002.019.008.037a.1.1 0 0 0 .02.033.1.1 0 0 0 .034.017.1.1 0 0 0 .033.009h1.146l.025-.026a.1.1 0 0 0 .021-.029.1.1 0 0 0 .008-.041l.005-1.034a.1.1 0 0 0-.025-.07.1.1 0 0 0-.034-.021.1.1 0 0 0-.041-.009h-1.1zm2.48.008a.06.06 0 0 0-.017.042v1.112c0 .013.008.033.016.042q.017.015.042.017h1.112q.024-.001.042-.017a.06.06 0 0 0 .017-.042v-1.112a.06.06 0 0 0-.017-.042.06.06 0 0 0-.042-.017h-1.112a.06.06 0 0 0-.042.017m5-.017a.04.04 0 0 0-.026.013.04.04 0 0 0-.012.029v1.15c0 .008.008.02.016.025a.04.04 0 0 0 .025.013h1.013a.3.3 0 0 0 .092-.021.23.23 0 0 0 .154-.209v-.779a.22.22 0 0 0-.071-.158.27.27 0 0 0-.18-.067zm7.52.009a.1.1 0 0 0-.033.02.1.1 0 0 0-.021.034.1.1 0 0 0-.004.037v1.071a.1.1 0 0 0 .02.033q.015.012.034.017a.1.1 0 0 0 .037.009h1.146l.025-.026.025-.029.004-.041.005-1.034c0-.012 0-.025-.009-.037a.1.1 0 0 0-.02-.033.1.1 0 0 0-.034-.021.1.1 0 0 0-.038-.009h-1.1zm2.475.008a.06.06 0 0 0-.017.042v1.112c0 .013.005.033.017.042q.017.015.042.017h1.112q.024-.001.042-.017a.07.07 0 0 0 .017-.042v-1.112a.06.06 0 0 0-.017-.042.06.06 0 0 0-.042-.017H62.57a.06.06 0 0 0-.046.017m5.004-.017a.05.05 0 0 0-.033.013.04.04 0 0 0-.013.029l.004 1.15q.003.015.013.025a.04.04 0 0 0 .03.013h1.007a.3.3 0 0 0 .096-.021.225.225 0 0 0 .154-.209v-.775a.22.22 0 0 0-.075-.162.27.27 0 0 0-.179-.067zm-7.416-2.512a.14.14 0 0 0-.121.083.14.14 0 0 0-.009.054l.009.959c0 .033.012.07.041.096q.04.036.096.037l1.021-.008a.1.1 0 0 0 .05-.013.14.14 0 0 0 .075-.07.2.2 0 0 0 .013-.055l-.009-.958a.14.14 0 0 0-.137-.133l-1.025.008zm-30.063 0a.1.1 0 0 0-.03.017l-.016.029v.029l-.012 1.062q.001.034.025.059a.1.1 0 0 0 .058.025h1.167a.1.1 0 0 0 .025-.017l.02-.025v-.033l.009-1.067-.004-.03a.1.1 0 0 0-.017-.024.1.1 0 0 0-.058-.025l-1.138-.004h-.029zm5.025 0-.017.012-.012.017v1.158c0 .009.008.013.012.017q.007.008.017.012h.02l1.117.009.021-.004.017-.013.013-.017.004-.02.004-1.117a.07.07 0 0 0-.017-.042l-.02-.012-.022-.004h-1.137zm9.98 0a.1.1 0 0 0-.034.02.1.1 0 0 0-.03.067l-.004 1.034c0 .012 0 .025.009.041a.1.1 0 0 0 .02.03q.015.012.034.02.016.008.033.009h1.105l.037-.005a.09.09 0 0 0 .063-.087v-1.067a.1.1 0 0 0-.021-.033.1.1 0 0 0-.034-.02.1.1 0 0 0-.041-.01l-1.105-.008c-.012 0-.025 0-.033.009m2.503 0q-.01.002-.02.017l-.017.02v.025l-.008 1.092.008.025.012.02.021.017h.025l1.1.009.021-.009c.008 0 .017-.008.02-.012.01-.004.01-.013.013-.02l.009-.026v-1.12l-.021-.021-.021-.013-.02-.008h-1.122zm2.542 0a.11.11 0 0 0-.062.096v1.062a.1.1 0 0 0 .029.033q.031.03.075.03h1.016l.042-.005a.1.1 0 0 0 .054-.058.1.1 0 0 0 .009-.037v-1.025a.1.1 0 0 0-.03-.071.1.1 0 0 0-.033-.021.1.1 0 0 0-.038-.008l-1.02-.005c-.013 0-.03 0-.042.009m2.45 0a.1.1 0 0 0-.033.025.1.1 0 0 0-.025.066v1.034q-.002.017.008.041a.1.1 0 0 0 .02.03.1.1 0 0 0 .03.02.1.1 0 0 0 .042.009l1.104-.004c.012 0 .025 0 .033-.009a.1.1 0 0 0 .05-.054.1.1 0 0 0 .008-.037v-1.03q.002-.02-.008-.033a.1.1 0 0 0-.05-.054.1.1 0 0 0-.041-.008h-1.1c-.013 0-.026-.005-.038.004m9.988-.004-.013.008-.012.017-.005.016v1.159a.04.04 0 0 0 .025.02h.021l1.138.009.016-.004.017-.009.008-.016v-1.175l-.008-.013-.013-.008-.016-.004-1.142-.005zm2.508 0-.009.033-.008 1.154a.04.04 0 0 0 .013.025.04.04 0 0 0 .025.013H66.1c.02 0 .042 0 .063-.013a.2.2 0 0 0 .054-.05.3.3 0 0 0 .029-.075.3.3 0 0 0 .017-.083v-.771a.3.3 0 0 0-.042-.167c-.03-.041-.071-.066-.113-.066l-1.033-.005c-.008 0-.02 0-.03.009zm4.991 0-.016.008-.008.017-.005.016v1.159l.013.012.012.008h.013l1.146.009q.015 0 .029-.013l.012-.016v-1.175l-.008-.013-.017-.008-.016-.004-1.138-.005zm-67.516 0 .004 1.066q0 .03-.008.059a.2.2 0 0 1-.034.054.2.2 0 0 1-.054.033.2.2 0 0 1-.062.013h-1.03c-.008 0-.016 0-.024-.009a.04.04 0 0 1-.013-.029v-1.15l.004-.017.008-.012.017-.012h.017l1.175.008zm37.496 1.183q-.001.015.008.03a.04.04 0 0 0 .03.012h1.153q.015 0 .025-.009a.04.04 0 0 0 .009-.029v-1.108a.083.083 0 0 0-.084-.083h-1.141zm2.537-1.17a.04.04 0 0 0-.012.028v1.142q0 .016.012.03a.04.04 0 0 0 .025.012h1.146a.04.04 0 0 0 .03-.013.04.04 0 0 0 .012-.029v-1.142a.04.04 0 0 0-.013-.029.04.04 0 0 0-.029-.012h-1.146a.04.04 0 0 0-.025.012m12.488-2.53a.04.04 0 0 0-.013.03l-.012 1.262-1.188-.009-.017.005-.012.008-.008.017V36.6q-.002.02.008.033a.04.04 0 0 0 .03.013l1.183-.004v1.183q-.002.015.008.03a.04.04 0 0 0 .029.012h1.15c.012 0 .02 0 .03-.009q.01-.01.008-.029v-1.108a.1.1 0 0 0-.026-.054.08.08 0 0 0-.058-.025H55.01l.005-1.225 1.083-.005a.14.14 0 0 0 .1-.041.14.14 0 0 0 .042-.092v-1.133c0-.008-.009-.013-.013-.021l-.02-.008H55.07a.04.04 0 0 0-.03.008m2.516 2.542a.1.1 0 0 0-.025.066v1.042a.095.095 0 0 0 .096.092h1.033l.038-.005a.1.1 0 0 0 .033-.02.1.1 0 0 0 .021-.034V36.7a.1.1 0 0 0-.02-.033.1.1 0 0 0-.034-.021.1.1 0 0 0-.038-.008h-1.03a.1.1 0 0 0-.07.029m10.163-.03a.27.27 0 0 0-.171.063.2.2 0 0 0-.054.07.2.2 0 0 0-.017.084v.925a.1.1 0 0 0 .03.063.1.1 0 0 0 .062.025h1.125a.1.1 0 0 0 .029-.009.1.1 0 0 0 .033-.02l.017-.03a.1.1 0 0 0 .008-.037l-.004-.921a.2.2 0 0 0-.07-.154.26.26 0 0 0-.167-.063zm4.82.017a.04.04 0 0 0-.012.025v1.146q0 .016.013.03a.04.04 0 0 0 .025.012h1.15a.04.04 0 0 0 .029-.013c.008-.008.008-.02.008-.029v-1.146c0-.008 0-.02-.008-.025a.04.04 0 0 0-.03-.012h-1.15a.04.04 0 0 0-.024.012m-63.71-3.737a.08.08 0 0 0-.029.058v1.142l-1.225.008a.07.07 0 0 0-.046.02.08.08 0 0 0-.025.055L7.5 35.417l-1.146.008a.09.09 0 0 0-.083.083v1.088c0 .012.008.025.016.033a.05.05 0 0 0 .034.013h1.137a.04.04 0 0 0 .03-.013.04.04 0 0 0 .012-.029v-1.183l1.22-.009a.1.1 0 0 0 .047-.025.1.1 0 0 0 .025-.054l.004-1.208h1.183q.016 0 .03-.009a.04.04 0 0 0 .012-.029V32.93a.05.05 0 0 0-.013-.029l-.025-.004H8.887a.1.1 0 0 0-.062.02zm21.188 1.22a.1.1 0 0 0-.025.063v1.22l-1.138.005a.09.09 0 0 0-.091.083v1.088q.002.02.016.033a.05.05 0 0 0 .034.013h1.133q.016 0 .03-.013l.012-.012.004-1.196 1.02-.008a.287.287 0 0 0 .283-.283v-.81a.21.21 0 0 0-.212-.203h-1.004a.08.08 0 0 0-.062.02m5.046 0a.08.08 0 0 0-.025.059v1.225h-1.217a.1.1 0 0 0-.03.004.1.1 0 0 0-.028.02.1.1 0 0 0-.025.06v1.1q.004.015.016.024a.04.04 0 0 0 .025.013H35a.04.04 0 0 0 .03-.013.04.04 0 0 0 .012-.029v-1.18h1.041a.2.2 0 0 0 .13-.058.2.2 0 0 0 .058-.129v-.941a.18.18 0 0 0-.054-.125.2.2 0 0 0-.125-.05h-.967a.08.08 0 0 0-.058.02m4.991.005a.1.1 0 0 0-.029.066l-.012 1.209-1.184-.009a.04.04 0 0 0-.029.013c-.004.008-.012.02-.012.033V36.6q0 .015.008.03l.017.012 1.2-.005v-1.22l1.191-.009c.009 0 .017 0 .025-.008a.04.04 0 0 0 .009-.03v-1.228c0-.005 0-.013-.009-.021a.04.04 0 0 0-.02-.009h-1.088a.1.1 0 0 0-.067.03m4.984.029a.18.18 0 0 0-.055.129v1.12l-1.137.005a.1.1 0 0 0-.058.025.1.1 0 0 0-.025.058v1.088c0 .012 0 .025.012.033q.016.013.038.013h1.133l.012-.005.017-.008.008-.012V35.42h1.009a.3.3 0 0 0 .208-.084.3.3 0 0 0 .088-.212v-.842a.17.17 0 0 0-.046-.12.18.18 0 0 0-.125-.046h-.946c-.05 0-.097.02-.133.054m5.054-.05a.1.1 0 0 0-.033.025.1.1 0 0 0-.026.033.1.1 0 0 0-.008.042l.008 1.196-1.212.004-.033.004a.1.1 0 0 0-.03.02.1.1 0 0 0-.025.06v1.1l.013.024a.04.04 0 0 0 .03.013h1.216a.05.05 0 0 0 .033-.013.04.04 0 0 0 .013-.029l-.005-1.183 1.088-.005q.226-.002.12-1.179a.133.133 0 0 0-.133-.116h-.974zm17.483 0a.2.2 0 0 0-.05.025c-.012.012-.02.033-.029.05a.2.2 0 0 0-.013.058l-.008 1.013q.003.06.046.104c.027.025.063.04.1.041l.9.009a.26.26 0 0 0 .183-.08.27.27 0 0 0 .08-.183v-.783a.28.28 0 0 0-.071-.187.27.27 0 0 0-.184-.076l-.9-.008a.2.2 0 0 0-.054.008zM33.76 32.9c-.009.008-.009.02-.009.03v1.187l-1.046-.005a.18.18 0 0 0-.133.05.2.2 0 0 0-.042.059.2.2 0 0 0-.008.07v.947a.18.18 0 0 0 .179.179h.958a.1.1 0 0 0 .059-.025.1.1 0 0 0 .025-.063l.008-1.212 1.208-.009a.1.1 0 0 0 .06-.026.08.08 0 0 0 .024-.061v-1.084c0-.012 0-.024-.013-.033a.05.05 0 0 0-.033-.008h-1.209zm8.833 1.22a.1.1 0 0 0-.025.022l-.021.025-.004.033-.005 1.125.009.033q.006.015.017.03a.1.1 0 0 0 .029.02l.033.005 1.05.004a.1.1 0 0 0 .033-.009q.016-.006.03-.016a.1.1 0 0 0 .02-.03v-.029l.009-1.125-.009-.033-.016-.03-.03-.016a.1.1 0 0 0-.033-.008h-1.054l-.03.004zm4.991 0a.1.1 0 0 0-.033.022.1.1 0 0 0-.033.075v1.091l.004.042a.1.1 0 0 0 .025.03q.014.015.033.024a.1.1 0 0 0 .042.008l1.017.005c.012 0 .029 0 .041-.009a.1.1 0 0 0 .03-.025q.015-.014.024-.033a.1.1 0 0 0 .009-.042l.004-1.087c0-.013 0-.025-.009-.038a.1.1 0 0 0-.025-.037.1.1 0 0 0-.075-.03h-1.012zm4.984 0a.1.1 0 0 0-.042.03.1.1 0 0 0-.02.042.1.1 0 0 0-.013.041l-.005 1.059q0 .025.013.045.006.023.02.042.02.017.042.025.022.01.046.013h1.059c.016 0 .029 0 .041-.009a.1.1 0 0 0 .042-.025.1.1 0 0 0 .03-.041.1.1 0 0 0 .008-.046l.004-1.054a.1.1 0 0 0-.009-.046.14.14 0 0 0-.066-.071.1.1 0 0 0-.046-.008h-1.059a.1.1 0 0 0-.045.004m4.996.018a.1.1 0 0 0-.026.066v1.125q.002.034.026.059a.1.1 0 0 0 .062.029l.93-.005a.2.2 0 0 0 .153-.07.23.23 0 0 0 .059-.163v-.833a.25.25 0 0 0-.063-.167.2.2 0 0 0-.154-.062h-.925a.1.1 0 0 0-.062.02m2.466.012a.15.15 0 0 0-.042.104v1.017a.14.14 0 0 0 .042.1q.044.045.104.046h.9a.26.26 0 0 0 .184-.08.28.28 0 0 0 .075-.187v-.775a.255.255 0 0 0-.259-.263h-.9a.14.14 0 0 0-.056.01.1.1 0 0 0-.048.028m2.575-.03a.15.15 0 0 0-.083.084.2.2 0 0 0-.004.059l-.009 1q0 .031.013.058a.15.15 0 0 0 .137.092l.93.004c.016 0 .041 0 .054-.009a.15.15 0 0 0 .095-.137v-1l-.004-.059a.2.2 0 0 0-.033-.05.15.15 0 0 0-.104-.041l-.93-.009a.2.2 0 0 0-.062.009m-60.112.034a.13.13 0 0 1 .033.092v1.166l-1.18-.008a.04.04 0 0 1-.028-.012.04.04 0 0 1-.013-.03v-1.216l.008-.021a.03.03 0 0 1 .021-.008h1.063c.033 0 .07.016.096.041zm25.091-2.47a.04.04 0 0 0-.029.008.05.05 0 0 0-.012.033v1.133q0 .02.012.034.016.01.034.008h1.183l.004 1.217h-1.15a.08.08 0 0 0-.058.02.08.08 0 0 0-.025.059v1.158c0 .017.012.034.02.042a.06.06 0 0 0 .042.017h1.13c.012 0 .024 0 .028-.009.009-.008.009-.017.009-.029l.004-1.258 1.18-.005q.016.001.028-.008a.04.04 0 0 0 .013-.029V32.93a.04.04 0 0 0-.013-.029.05.05 0 0 0-.033-.008l-1.18.008c0-.367-.008-.742-.028-1.112q-.014-.2-1.159-.105m11.238 1.233a.1.1 0 0 0-.021.058l-.004 1.142H37.6a.11.11 0 0 0-.1.104v1.133q.002.025.017.042.016.013.037.012h1.221l.013-.012.008-.013v-1.258h1.187q.016 0 .03-.008a.04.04 0 0 0 .008-.03v-1.15q0-.015-.008-.029a.04.04 0 0 0-.03-.008h-1.108a.08.08 0 0 0-.058.02zm26.242 1.216a.1.1 0 0 0-.03.067v1.125a.1.1 0 0 0 .03.063.1.1 0 0 0 .062.025h.888a.24.24 0 0 0 .179-.084.3.3 0 0 0 .075-.208v-.717a.32.32 0 0 0-.075-.208.24.24 0 0 0-.18-.084h-.887a.1.1 0 0 0-.062.021m-12.546-2.45a.08.08 0 0 0-.025.063l-.005.908c0 .063.021.125.059.167a.2.2 0 0 0 .154.075h.875a.2.2 0 0 0 .08-.013.23.23 0 0 0 .112-.133q.015-.044.016-.092l.005-.904a.08.08 0 0 0-.025-.062.08.08 0 0 0-.059-.021l-1.125-.008a.1.1 0 0 0-.062.02m7.5.005a.1.1 0 0 0-.034.062v.93c0 .053.021.108.059.15a.24.24 0 0 0 .15.066h.879a.22.22 0 0 0 .15-.059.22.22 0 0 0 .062-.15l.005-.929a.1.1 0 0 0-.025-.066.1.1 0 0 0-.063-.021l-1.125-.008a.1.1 0 0 0-.062.024zm5.025-.013a.03.03 0 0 0-.009.02v1.163c0 .009 0 .017.009.025l.025.013h1.004a.2.2 0 0 0 .075-.013.22.22 0 0 0 .1-.116.3.3 0 0 0 .017-.088v-.804a.23.23 0 0 0-.055-.15.18.18 0 0 0-.137-.062l-1-.005a.04.04 0 0 0-.03.013zm-54.909-2.52a.18.18 0 0 0-.095.1.2.2 0 0 0-.017.066l.004 1.046-1.146.004a.1.1 0 0 0-.054.025.07.07 0 0 0-.02.05v1.22H7.582q-.03 0-.054.021a.1.1 0 0 0-.025.063v1.1a.04.04 0 0 0 .042.042h1.216a.04.04 0 0 0 .025-.013.04.04 0 0 0 .013-.029l.004-1.183 1.15-.009a.08.08 0 0 0 .07-.075v-1.216l1.184-.005a.04.04 0 0 0 .042-.041v-1.142a.04.04 0 0 0-.042-.041H10.2c-.02 0-.046 0-.067.012zm2.446.012a.1.1 0 0 0-.02.058l-.009 1.146-1.217.004a.07.07 0 0 0-.07.05.1.1 0 0 0-.005.03l-.008 1.208-1.17.008h-.022l-.016.012-.013.017v1.145q-.002.02.008.034.015.014.034.017h1.07a.1.1 0 0 0 .076-.034.1.1 0 0 0 .033-.079v-1.12l1.22-.005a.08.08 0 0 0 .055-.02.08.08 0 0 0 .02-.055v-1.208h1.197a.04.04 0 0 0 .025-.017l.008-.025v-1.137c0-.013-.004-.03-.013-.038l-.037-.012h-1.083c-.025 0-.05.004-.063.02m6.183-3.759a.04.04 0 0 0-.012.025l.004 1.184h-1.07c-.042 0-.084.012-.109.041a.16.16 0 0 0-.05.113v1.146h-1.183a.04.04 0 0 0-.03.008.04.04 0 0 0-.012.03v1.15q0 .015.012.028a.04.04 0 0 0 .03.013h1.179l.004 1.22-1.15.005a.07.07 0 0 0-.05.025.08.08 0 0 0-.025.05v1.22l-1.258-.003a.04.04 0 0 0-.025.012.04.04 0 0 0-.013.025v1.175l.008.008.009.009h1.125a.14.14 0 0 0 .108-.046.15.15 0 0 0 .046-.113v-1.066l1.15-.005a.07.07 0 0 0 .07-.07l.005-1.225h1.183c.013 0 .021 0 .03-.009a.05.05 0 0 0 .012-.033v-1.146a.04.04 0 0 0-.028-.039l-.018-.003-1.183.009.004-1.23 1.08.005a.154.154 0 0 0 .15-.15v-1.154l1.207-.005a.1.1 0 0 0 .063-.024.1.1 0 0 0 .025-.063v-1.083a.05.05 0 0 0-.012-.034.05.05 0 0 0-.034-.012h-1.212a.04.04 0 0 0-.03.012m1.313 3.759a.1.1 0 0 0-.02.058l-.005 1.142-1.22.008a.07.07 0 0 0-.05.025c-.013.013-.026.03-.026.05v1.217l-1.058-.013a.18.18 0 0 0-.125.05.18.18 0 0 0-.05.125v.888a.18.18 0 0 0 .179.179h.97a.08.08 0 0 0 .06-.021.08.08 0 0 0 .024-.058v-1.15l1.213-.009q.015.001.029-.004a.1.1 0 0 0 .025-.017.1.1 0 0 0 .017-.024l.008-.03.004-1.216 1.183.004h.017l.012-.008.005-.017.004-.017v-1.146a.04.04 0 0 0-.009-.029.04.04 0 0 0-.029-.012h-1.1a.08.08 0 0 0-.058.025m2.458 0a.08.08 0 0 0-.029.058l-.008 1.146-1.138.008a.07.07 0 0 0-.054.021.08.08 0 0 0-.02.054l-.009 1.209h-1.187q-.015-.002-.03.008l-.008.025v1.179l.008.013h.009l.012.008h1.017a.2.2 0 0 0 .125-.054.2.2 0 0 0 .054-.13v-1.05l1.142-.004q.032-.002.054-.025a.08.08 0 0 0 .017-.054l.008-1.208 1.12.004a.2.2 0 0 0 .072-.017.2.2 0 0 0 .058-.037.2.2 0 0 0 .037-.059.2.2 0 0 0 .017-.07v-.875a.18.18 0 0 0-.05-.125.18.18 0 0 0-.125-.05h-1.042a.1.1 0 0 0-.05.025m.025 2.5a.1.1 0 0 0-.05.054.1.1 0 0 0-.008.033v1.042l.004.037a.1.1 0 0 0 .021.034.1.1 0 0 0 .033.02h.034l1.108.009.042-.008a.1.1 0 0 0 .029-.021.1.1 0 0 0 .02-.03V32.8l.009-1.042q.002-.018-.008-.037a.1.1 0 0 0-.021-.03.1.1 0 0 0-.03-.016.1.1 0 0 0-.037-.008l-1.108-.005c-.013 0-.025-.004-.038.005m5.013-2.5a.08.08 0 0 0-.025.058v1.15l-1.221.004a.08.08 0 0 0-.055.023.08.08 0 0 0-.02.056v1.209l-1.187-.005a.04.04 0 0 0-.042.042v1.154q0 .017.012.03a.04.04 0 0 0 .03.012h1.041a.14.14 0 0 0 .142-.142v-1.091l1.22-.009c.021 0 .042-.008.05-.02a.07.07 0 0 0 .022-.055l.008-1.208h1.05a.18.18 0 0 0 .163-.111.2.2 0 0 0 .012-.068v-.884a.17.17 0 0 0-.046-.125.17.17 0 0 0-.125-.041h-.97a.1.1 0 0 0-.06.02m5.058-.009a.2.2 0 0 0-.062.042.2.2 0 0 0-.054.13l.008 1.045h-1.15a.1.1 0 0 0-.05.025.07.07 0 0 0-.021.05l-.008 1.217-1.255-.005h-.016l-.017.013-.008.008v1.171q-.001.016.008.03a.04.04 0 0 0 .025.012h1.113a.15.15 0 0 0 .104-.05.16.16 0 0 0 .05-.113l-.004-1.066 1.15-.005.029-.004.02-.016a.1.1 0 0 0 .017-.025l.009-.03.004-1.212H33.7a.05.05 0 0 0 .033-.012.04.04 0 0 0 .013-.03V29.18a.04.04 0 0 0-.013-.025.04.04 0 0 0-.025-.008h-1.012a.2.2 0 0 0-.067.012m-.062 2.517a.02.02 0 0 0-.021.012l-.017.021-.004.03-.004 1.083v.029l.02.025.022.017h.029l1.079.008.029-.004a.08.08 0 0 0 .042-.042v-.029l.008-1.083-.004-.03a.1.1 0 0 0-.017-.024l-.025-.013a.1.1 0 0 0-.029-.004l-1.08-.004q-.011-.002-.028.008m4.975-2.47a.2.2 0 0 0-.055.128v1.042l-1.133.008a.08.08 0 0 0-.054.021.08.08 0 0 0-.02.054l-.005 1.209h-1.192q-.014-.002-.029.008a.04.04 0 0 0-.012.025v1.167l.004.012.008.013h.008l.013.008h1.012a.187.187 0 0 0 .188-.183v-1.05l1.138-.009c.016 0 .037-.012.05-.025a.08.08 0 0 0 .02-.054l.005-1.204 1.22-.012q.034-.001.059-.026a.1.1 0 0 0 .025-.058v-.954a.2.2 0 0 0-.05-.13.2.2 0 0 0-.13-.053h-.945a.2.2 0 0 0-.13.058zm.012 2.47a.1.1 0 0 0-.054.046.1.1 0 0 0-.008.033v1.042l.008.037a.1.1 0 0 0 .02.034q.015.014.034.02h.033l1.109.009.037-.008a.1.1 0 0 0 .055-.05.1.1 0 0 0 .008-.038v-1.042l-.008-.037a.09.09 0 0 0-.088-.054l-1.113-.005c-.008 0-.025 0-.033.009zm5.013-2.508a.1.1 0 0 0-.025.054l-.005 1.15-1.216.004a.08.08 0 0 0-.054.025.08.08 0 0 0-.021.054v1.209l-1.192-.005a.04.04 0 0 0-.029.013l-.008.025v1.158q0 .017.012.03a.05.05 0 0 0 .03.012H41.1a.17.17 0 0 0 .104-.046.15.15 0 0 0 .042-.104v-1.084h1.212a.08.08 0 0 0 .055-.02.08.08 0 0 0 .025-.055V30.38h1.05a.183.183 0 0 0 .183-.179v-.875a.18.18 0 0 0-.054-.13.18.18 0 0 0-.125-.05h-.967q-.034 0-.058.022m.033 2.5a.1.1 0 0 0-.033.02.1.1 0 0 0-.021.034l-.008.033v1.042l.004.037a.1.1 0 0 0 .02.034q.016.014.034.02h.033l1.042.009.029-.004a.1.1 0 0 0 .033-.021.1.1 0 0 0 .03-.071v-1.037a.1.1 0 0 0-.026-.071.1.1 0 0 0-.029-.017.1.1 0 0 0-.037-.008zm5.025-2.513a.2.2 0 0 0-.058.042.2.2 0 0 0-.042.058.2.2 0 0 0-.012.071v1.046h-1.146l-.03.008a.1.1 0 0 0-.025.017l-.012.02a.1.1 0 0 0-.008.03v1.22h-1.25a.09.09 0 0 0-.055.08v.954c0 .05.021.1.055.137a.2.2 0 0 0 .141.059h.9a.2.2 0 0 0 .142-.054.2.2 0 0 0 .054-.138l.008-1.041h1.155c.016 0 .041-.009.05-.021a.07.07 0 0 0 .02-.055v-1.216l1.188.004a.04.04 0 0 0 .03-.012.04.04 0 0 0 .012-.03V29.18l-.013-.025a.04.04 0 0 0-.02-.008h-1.017c-.021 0-.046-.004-.067.008m4.917.042a.2.2 0 0 0-.055.137v1.042l-1.141.004a.08.08 0 0 0-.054.021.08.08 0 0 0-.017.054l-.004 1.209-1.188-.005a.05.05 0 0 0-.033.013.05.05 0 0 0-.012.029v1.175l.012.013h.008l.013.008H51.1a.17.17 0 0 0 .117-.05.17.17 0 0 0 .05-.121v-1.058l1.137-.009a.08.08 0 0 0 .054-.025.08.08 0 0 0 .025-.054v-1.208l1.209-.008a.1.1 0 0 0 .096-.096v-.917a.21.21 0 0 0-.209-.208h-.904a.2.2 0 0 0-.137.058zm5 2.479-.005.02v1.163c0 .009 0 .021.009.03l.025.008h1.012a.17.17 0 0 0 .125-.067.25.25 0 0 0 .059-.154v-.792q-.001-.086-.055-.154a.17.17 0 0 0-.125-.062h-1.016c-.008 0-.021 0-.03.008m-9.959-.008a.1.1 0 0 0-.033.02.1.1 0 0 0-.025.042.1.1 0 0 0-.008.038v1.008q0 .046.029.08.016.015.037.024a.1.1 0 0 0 .042.009h1.008l.042-.009a.1.1 0 0 0 .033-.025q.016-.014.025-.033a.1.1 0 0 0 .009-.042l.004-1.008a.1.1 0 0 0-.033-.08.1.1 0 0 0-.034-.02.1.1 0 0 0-.041-.013h-1.009c-.017 0-.033 0-.046.009m7.459.016a.1.1 0 0 0-.03.071v1.03c0 .024.009.053.026.074a.12.12 0 0 0 .07.03h1.034a.1.1 0 0 0 .095-.1l.005-1.034a.1.1 0 0 0-.03-.07.1.1 0 0 0-.066-.026h-1.034a.1.1 0 0 0-.07.025m7.533-.02a.1.1 0 0 0-.058.05l-.005.041-.004 1.03c0 .012 0 .024.009.037a.12.12 0 0 0 .054.058h.033l1.034.009a.1.1 0 0 0 .07-.03.1.1 0 0 0 .021-.033.1.1 0 0 0 .008-.038v-1.029a.1.1 0 0 0-.025-.075.1.1 0 0 0-.075-.029h-1.029c-.012 0-.025 0-.033.009m-2.458-2.517a.14.14 0 0 0-.1.041.14.14 0 0 0-.034.096l.009.954q-.001.058.041.096a.14.14 0 0 0 .096.042l1.021-.012a.14.14 0 0 0 .138-.138l-.009-.954a.14.14 0 0 0-.142-.138zm-35.03 0h-.024a.1.1 0 0 0-.021.02l-.013.021-.008.025V30.3l.008.03c0 .008.009.016.017.02a.1.1 0 0 0 .025.017l.02.004h1.092l.025-.008a.1.1 0 0 0 .025-.017l.013-.021a.1.1 0 0 0 0-.03v-1.087a.07.07 0 0 0-.017-.045.1.1 0 0 0-.025-.017h-.025zm5.013 0a.1.1 0 0 0-.075.029.1.1 0 0 0-.033.075l.004 1.012a.1.1 0 0 0 .03.074.1.1 0 0 0 .074.03h1.087q.047 0 .08-.033a.1.1 0 0 0 .029-.075l-.004-1.008a.11.11 0 0 0-.03-.083.1.1 0 0 0-.079-.025zm4.98 0h-.017l-.013.004-.008.017v.016l.004 1.15v.013l.008.012a.05.05 0 0 0 .03.013h1.145l.013-.008a.04.04 0 0 0 .02-.021l.005-.013v-1.15l-.009-.016-.008-.013-.013-.008h-.012zm5.003 0h-.025a.1.1 0 0 0-.025.02.07.07 0 0 0-.016.042V30.3q0 .015.008.03l.013.02a.1.1 0 0 0 .025.017l.024.004h1.092l.025-.008a.1.1 0 0 0 .025-.017l.008-.021.009-.03v-1.087l-.013-.025-.008-.02a.1.1 0 0 0-.025-.017h-.025zm5.009 0a.1.1 0 0 0-.071.029.1.1 0 0 0-.03.075v1.012c0 .026.013.059.034.075q.031.03.075.03h1.087a.1.1 0 0 0 .071-.034.1.1 0 0 0 .03-.075V29.25a.11.11 0 0 0-.03-.083.1.1 0 0 0-.075-.025zm4.983 0h-.013l-.012.004-.008.017-.005.016v1.15l.009.013.008.012.013.009.012.004h1.146l.017-.008.012-.009.009-.012v-.009l-.005-1.15v-.016l-.008-.013-.013-.008zm4.98 0a.04.04 0 0 0-.03.008.04.04 0 0 0-.012.025v1.146c0 .012.008.02.012.03a.04.04 0 0 0 .03.012H56.2a.04.04 0 0 0 .03-.013.04.04 0 0 0 .012-.029V29.18a.04.04 0 0 0-.017-.029c-.008-.004-.013-.012-.025-.012zm2.508.02a.1.1 0 0 0-.03.067v1.038c0 .025.009.05.03.066.016.021.041.03.066.03h1.034c.012 0 .025 0 .037-.009a.1.1 0 0 0 .033-.02.1.1 0 0 0 .021-.034v-1.108a.1.1 0 0 0-.02-.03.1.1 0 0 0-.034-.02.1.1 0 0 0-.038-.009H57.63a.1.1 0 0 0-.066.03m5-.024a.06.06 0 0 0-.042.016.05.05 0 0 0-.013.038v1.116l.009.021c0 .009.008.013.012.017l.017.012.02.005h1.117a.06.06 0 0 0 .042-.017.06.06 0 0 0 .017-.042l-.005-1.112-.004-.021-.012-.02-.017-.013zm2.529 0a.1.1 0 0 0-.055.058.1.1 0 0 0-.008.038v1.029l.008.033q.016.04.055.058a.1.1 0 0 0 .037.009h1.025q.044 0 .075-.03a.1.1 0 0 0 .017-.033.1.1 0 0 0 .008-.033v-1.03a.1.1 0 0 0-.025-.074.1.1 0 0 0-.033-.021.1.1 0 0 0-.042-.009h-1.02zm-50.05-7.471a.1.1 0 0 0-.025.062l-.009 1.138-1.145.008a.08.08 0 0 0-.055.021.08.08 0 0 0-.016.054l-.005 1.209H12.58l-.012.012-.009.012-.004.021v1.15q0 .017.013.03a.04.04 0 0 0 .025.012h1.187l.008 1.22-1.154.01a.1.1 0 0 0-.05.02.1.1 0 0 0-.02.05l-.009 1.22h-1.22a.1.1 0 0 0-.063.026.08.08 0 0 0-.025.058v1.1q0 .016.012.03l.013.008.016.004h1.217a.04.04 0 0 0 .03-.013.05.05 0 0 0 .012-.033v-1.18h1.062a.175.175 0 0 0 .171-.166v-1.129h1.18a.04.04 0 0 0 .029-.012.04.04 0 0 0 .012-.03V25.44a.04.04 0 0 0-.012-.025.05.05 0 0 0-.034-.013h-1.183l.008-1.23 1.133-.008a.08.08 0 0 0 .055-.02.08.08 0 0 0 .025-.055L15 22.88l1.242-.012c.016 0 .029 0 .041-.013a.05.05 0 0 0 .013-.033v-1.117a.06.06 0 0 0-.017-.042.06.06 0 0 0-.041-.016h-1.142a.1.1 0 0 0-.063.029zm8.787 3.75a.1.1 0 0 0-.02.054l-.005 1.146-1.15-.004a.15.15 0 0 0-.108.041.15.15 0 0 0-.042.109v1.15l-1.142.008a.08.08 0 0 0-.062.025.08.08 0 0 0-.025.058v1.084q0 .02.013.033a.05.05 0 0 0 .033.017h1.141a.04.04 0 0 0 .026-.013.04.04 0 0 0 .012-.029l.004-1.183h1.146c.042 0 .083-.013.108-.042a.16.16 0 0 0 .042-.108v-1.15h1.183a.04.04 0 0 0 .042-.042v-1.146a.04.04 0 0 0-.008-.025.04.04 0 0 0-.03-.012h-1.104a.1.1 0 0 0-.054.029m3.73-1.242a.04.04 0 0 0-.013.03v1.15q0 .016.012.028a.04.04 0 0 0 .03.013h1.187l.004 1.22h-1.154a.083.083 0 0 0-.083.084v1.046a.18.18 0 0 0 .175.17h.875a.18.18 0 0 0 .175-.18l.008-1.123h1.18a.04.04 0 0 0 .04-.042v-1.154l-.012-.017-.016-.008-.017-.004-1.175.008-.004-1.058a.17.17 0 0 0-.046-.125.18.18 0 0 0-.125-.05h-1.017a.04.04 0 0 0-.025.012m6.204 1.23c-.009.004-.009.016-.009.024v1.184l-1.066-.005a.17.17 0 0 0-.117.046.17.17 0 0 0-.046.117v.967a.18.18 0 0 0 .18.179h.87a.18.18 0 0 0 .18-.18v-1.124l1.207-.005q.034 0 .059-.024a.1.1 0 0 0 .025-.063v-1.083c0-.013 0-.025-.013-.034a.05.05 0 0 0-.033-.012h-1.208a.04.04 0 0 0-.03.012m6.358 1.22a.2.2 0 0 0-.05.025.16.16 0 0 0-.042.104l-.008 1.005q.001.059.041.104.021.025.05.041a.2.2 0 0 0 .059.005l.925.008a.16.16 0 0 0 .142-.092.2.2 0 0 0 .008-.058l.008-1a.16.16 0 0 0-.091-.138.2.2 0 0 0-.059-.012l-.925-.004q-.03 0-.058.012m7.496-.004a.2.2 0 0 0-.05.03.15.15 0 0 0-.042.107l-.008 1a.15.15 0 0 0 .146.15l.933.009a.16.16 0 0 0 .104-.042.17.17 0 0 0 .046-.108l.004-1a.15.15 0 0 0-.042-.108.15.15 0 0 0-.104-.042l-.929-.004q-.03-.001-.058.008m4.975-.004a.14.14 0 0 0-.05.029.2.2 0 0 0-.03.046.2.2 0 0 0-.012.054l-.013 1.017c0 .02 0 .041.013.058q.01.023.03.042a.2.2 0 0 0 .045.033.2.2 0 0 0 .058.013l.904.008a.25.25 0 0 0 .255-.254l.008-.788a.3.3 0 0 0-.017-.096.27.27 0 0 0-.233-.166l-.904-.009a.14.14 0 0 0-.054.013m2.525.008a.2.2 0 0 0-.05.025.2.2 0 0 0-.034.05.2.2 0 0 0-.012.058v1l.004.059q.013.025.033.046.021.025.05.041a.2.2 0 0 0 .055.005l.929.008a.2.2 0 0 0 .062-.013.16.16 0 0 0 .092-.137l.004-1a.154.154 0 0 0-.15-.15l-.93-.004a.2.2 0 0 0-.053.012m-45.017 0a.1.1 0 0 0-.037.021.1.1 0 0 0-.026.042.1.1 0 0 0-.008.037v1.075q.001.046.034.084.035.03.083.029h1a.12.12 0 0 0 .083-.034.12.12 0 0 0 .03-.083v-1.07a.1.1 0 0 0-.034-.08.12.12 0 0 0-.08-.03h-1a.1.1 0 0 0-.045.01m4.963-.004a.1.1 0 0 0-.03.02.1.1 0 0 0-.016.026.1.1 0 0 0-.009.041l-.004 1.113q-.002.013.008.033a.1.1 0 0 0 .05.055h.034l1.116.004c.009 0 .021 0 .03-.009a.1.1 0 0 0 .054-.05l.004-.033.004-1.113q.002-.018-.008-.037a.1.1 0 0 0-.021-.025.1.1 0 0 0-.062-.03zm5.041 0a.1.1 0 0 0-.033.017l-.013.025a.1.1 0 0 0-.004.029l-.004 1.146q-.002.012.008.025a.07.07 0 0 0 .042.041l.025.009h1.104a.1.1 0 0 0 .025-.021.08.08 0 0 0 .021-.059v-1.17l-.025-.021a.1.1 0 0 0-.025-.017l-.03-.008h-1.07a.1.1 0 0 0-.03 0zm5 0a.1.1 0 0 0-.041.025.14.14 0 0 0-.025.046.1.1 0 0 0-.013.05v1.042c0 .033.013.07.038.091a.13.13 0 0 0 .087.042h.975a.1.1 0 0 0 .046-.013.1.1 0 0 0 .041-.029.13.13 0 0 0 .042-.087v-1.046a.13.13 0 0 0-.037-.092.13.13 0 0 0-.088-.033l-.975-.004q-.026-.002-.05.008m4.959 0a.1.1 0 0 0-.03.025.1.1 0 0 0-.033.08v1.078l.004.042a.1.1 0 0 0 .025.03q.014.015.034.024a.1.1 0 0 0 .041.009l1.084.004a.1.1 0 0 0 .079-.034.1.1 0 0 0 .025-.029.1.1 0 0 0 .008-.041v-1.084q0-.045-.03-.079a.1.1 0 0 0-.078-.033h-1.084a.2.2 0 0 0-.046.008m5.062 0a.1.1 0 0 0-.042.025.14.14 0 0 0-.037.083v1.063q-.002.024.008.041.009.024.025.042.018.017.042.025a.1.1 0 0 0 .041.013h.988c.013 0 .03 0 .042-.009a.1.1 0 0 0 .041-.025.1.1 0 0 0 .025-.041.1.1 0 0 0 .013-.042v-1.058c0-.017 0-.034-.008-.05a.1.1 0 0 0-.026-.038.13.13 0 0 0-.083-.033l-.987-.004c-.013 0-.03 0-.042.008m2.533-.004a.18.18 0 0 0-.116.042.2.2 0 0 0-.034.058.2.2 0 0 0-.012.062v.971l.012.063q.014.027.038.05.02.025.05.041.03.01.062.009h.975c.021 0 .042 0 .063-.013a.2.2 0 0 0 .054-.037.2.2 0 0 0 .038-.05.2.2 0 0 0 .012-.067l-.004-.967a.2.2 0 0 0-.013-.066.2.2 0 0 0-.041-.054.2.2 0 0 0-.05-.034.2.2 0 0 0-.059-.012zm4.959 0-.034.029a.1.1 0 0 0-.029.042.1.1 0 0 0-.008.05l-.004 1.05c0 .016 0 .033.008.05a.1.1 0 0 0 .03.041q.019.015.04.021.022.01.047.013h.979c.012 0 .033 0 .046-.009a.1.1 0 0 0 .041-.029.13.13 0 0 0 .034-.083v-1.054l-.005-.05-.029-.038a.14.14 0 0 0-.087-.033l-.98-.004c-.016 0-.033-.005-.05.004m2.541 0a.18.18 0 0 0-.116.042.17.17 0 0 0-.05.116v.975a.17.17 0 0 0 .054.112q.02.027.05.042.03.01.062.009h.971a.2.2 0 0 0 .063-.013.18.18 0 0 0 .087-.087.2.2 0 0 0 .013-.067v-.967a.17.17 0 0 0-.05-.116.2.2 0 0 0-.05-.042.2.2 0 0 0-.067-.008zm4.959 0a.1.1 0 0 0-.042.029.1.1 0 0 0-.02.042.1.1 0 0 0-.013.046v1.054q-.002.024.008.05.009.024.025.041.019.015.042.021.022.01.046.013h.979a.13.13 0 0 0 .083-.034.1.1 0 0 0 .03-.041.1.1 0 0 0 .012-.046v-1.054c0-.017 0-.03-.009-.042a.1.1 0 0 0-.025-.042.1.1 0 0 0-.041-.029.1.1 0 0 0-.05-.008l-.975-.004c-.017 0-.034-.005-.05.004m7.5 0a.1.1 0 0 0-.042.029.1.1 0 0 0-.03.042.1.1 0 0 0-.003.05l-.005 1.05.009.05q.008.024.025.041.018.015.041.021a.1.1 0 0 0 .05.013h.976c.016 0 .033 0 .05-.009a.1.1 0 0 0 .041-.029.1.1 0 0 0 .025-.042l.009-.041v-1.054l-.005-.05-.029-.038a.13.13 0 0 0-.083-.033l-.983-.004a.1.1 0 0 0-.042.008zm2.462 0a.15.15 0 0 0-.079.075.1.1 0 0 0-.004.054l-.009 1.025c0 .017 0 .038.009.054q.013.024.033.042a.14.14 0 0 0 .1.046h.875a.29.29 0 0 0 .288-.284l.004-.725a.3.3 0 0 0-.084-.208.3.3 0 0 0-.091-.058.3.3 0 0 0-.108-.025l-.88-.005c-.018.001-.037.001-.054.009m5.038 0a.1.1 0 0 0-.042.029.1.1 0 0 0-.03.042.1.1 0 0 0-.008.046v1.054l.005.05q.01.024.029.041.018.015.041.021a.1.1 0 0 0 .042.013h.98a.13.13 0 0 0 .091-.034.13.13 0 0 0 .033-.087l.005-1.054a.14.14 0 0 0-.033-.083.1.1 0 0 0-.043-.03.1.1 0 0 0-.045-.008l-.98-.004c-.015 0-.03-.002-.045.004m-20.092-2.43a.1.1 0 0 0-.03.063l-.003.925q0 .09.058.154a.2.2 0 0 0 .154.063l.875.008a.2.2 0 0 0 .084-.017.2.2 0 0 0 .066-.05.23.23 0 0 0 .063-.154l.004-.925a.1.1 0 0 0-.025-.062.1.1 0 0 0-.063-.025l-1.125-.004a.08.08 0 0 0-.058.025m7.496 0a.1.1 0 0 0-.025.063l-.004.93c0 .053.02.112.058.15q.06.059.146.062l.879.008a.2.2 0 0 0 .083-.017.22.22 0 0 0 .13-.2l.004-.929a.1.1 0 0 0-.025-.062.1.1 0 0 0-.063-.025l-1.12-.004a.1.1 0 0 0-.063.025m7.5 0a.1.1 0 0 0-.034.063v.925q.001.09.059.154a.2.2 0 0 0 .15.063l.879.008a.2.2 0 0 0 .083-.017.23.23 0 0 0 .113-.12.2.2 0 0 0 .017-.084l.004-.925a.1.1 0 0 0-.025-.062.1.1 0 0 0-.063-.025l-1.125-.004a.1.1 0 0 0-.034.006q-.014.006-.024.019m7.492 0a.1.1 0 0 0-.026.063v.925q.001.09.059.154a.2.2 0 0 0 .15.063l.875.008a.2.2 0 0 0 .083-.017.2.2 0 0 0 .067-.05.2.2 0 0 0 .05-.07.2.2 0 0 0 .016-.084v-.925a.1.1 0 0 0-.025-.062.1.1 0 0 0-.062-.025l-1.125-.004a.1.1 0 0 0-.062.025m-32.43-.024-.025.012q-.012.007-.012.025l.004 1.159c0 .008 0 .016.008.024a.04.04 0 0 0 .03.013l1-.004a.2.2 0 0 0 .129-.067.23.23 0 0 0 .058-.154v-.792a.22.22 0 0 0-.054-.158.2.2 0 0 0-.142-.062h-.996zm7.521.008a.1.1 0 0 0-.029.02.1.1 0 0 0-.025.03.1.1 0 0 0-.008.042v1.029l.004.041a.1.1 0 0 0 .025.03.1.1 0 0 0 .029.02.1.1 0 0 0 .042.009h1.025l.041-.004a.1.1 0 0 0 .05-.054.1.1 0 0 0 .009-.038v-1.033l-.005-.038a.1.1 0 0 0-.02-.029.1.1 0 0 0-.071-.03l-1.03-.003c-.012 0-.029 0-.041.008zm7.5 0a.1.1 0 0 0-.033.02.1.1 0 0 0-.03.067l-.003 1.03q0 .042.029.075.031.028.075.029h1.02l.042-.004a.1.1 0 0 0 .059-.055v-1.07l-.005-.038a.1.1 0 0 0-.054-.05.1.1 0 0 0-.037-.008l-1.025-.004q-.019-.002-.038.008m7.5 0a.1.1 0 0 0-.037.02.1.1 0 0 0-.021.03.1.1 0 0 0-.004.042l-.005 1.029c0 .012 0 .025.009.041q.008.017.02.03a.1.1 0 0 0 .03.02.1.1 0 0 0 .042.009h1.025l.037-.004a.1.1 0 0 0 .033-.021.1.1 0 0 0 .021-.034.1.1 0 0 0 .009-.037v-1.033l-.005-.038a.1.1 0 0 0-.02-.029.1.1 0 0 0-.034-.02.1.1 0 0 0-.037-.01l-1.03-.003c-.012 0-.02 0-.033.008m7.442 0c-.004.008-.013.017-.013.03v1.158q.002.014.013.024a.04.04 0 0 0 .025.013h1.012a.2.2 0 0 0 .071-.017.2.2 0 0 0 .096-.12.3.3 0 0 0 .017-.084v-.791a.25.25 0 0 0-.05-.159.18.18 0 0 0-.134-.062h-1.012q-.016-.002-.025.008m-50.03 0q-.01.011-.008.03v1.153q0 .017.013.03a.04.04 0 0 0 .02.008h1.072a.26.26 0 0 0 .137-.042c.042-.025.058-.058.058-.091v-.971a.1.1 0 0 0-.016-.05.22.22 0 0 0-.183-.083h-1.072a.04.04 0 0 0-.02.016m5.055-2.525-.013.008-.004.013-.004.017v1.187l-1.217.004a.1.1 0 0 0-.05.021.08.08 0 0 0-.025.054v1.209l-1.15.012a.08.08 0 0 0-.058.02.1.1 0 0 0-.02.055v1.033a.11.11 0 0 0 .107.113h1.059a.06.06 0 0 0 .058-.059l.004-1.17 1.213-.005q.031-.002.054-.024a.08.08 0 0 0 .025-.055v-1.208h1.067a.17.17 0 0 0 .116-.046.16.16 0 0 0 .042-.112v-1.038l-.004-.025-.025-.008h-1.163zm-.009 2.525a.04.04 0 0 0-.008.03v1.153q0 .016.009.03a.04.04 0 0 0 .024.008h1a.2.2 0 0 0 .138-.063.24.24 0 0 0 .054-.154v-.796a.24.24 0 0 0-.054-.158.18.18 0 0 0-.133-.058h-1q-.018-.002-.03.008m2.5 0a.1.1 0 0 0-.033.02.1.1 0 0 0-.02.026.1.1 0 0 0-.009.041v1.034l.008.041q.009.017.021.03.015.014.034.02a.1.1 0 0 0 .037.009h1.1l.042-.009a.1.1 0 0 0 .054-.05.1.1 0 0 0 0-.041v-1.071a.1.1 0 0 0-.025-.03.1.1 0 0 0-.067-.028H22.6q-.019-.002-.038.008m2.484.008a.05.05 0 0 0-.021.042v1.108q.001.025.02.042c.01.008.026.02.042.02h1.105q.024-.001.041-.02.02-.017.021-.042v-1.112a.07.07 0 0 0-.02-.042.06.06 0 0 0-.042-.012h-1.109l-.022.004q-.009.005-.015.012m5.008-.008a.1.1 0 0 0-.029.02.1.1 0 0 0-.03.06L30 25.307l.004.034q.008.015.021.029a.1.1 0 0 0 .03.02h1.157a.1.1 0 0 0 .059-.024.1.1 0 0 0 .029-.063l-.008-1.054-.005-.033a.1.1 0 0 0-.02-.025.1.1 0 0 0-.03-.021l-.029-.004h-1.125a.1.1 0 0 0-.029.008m2.492.008a.07.07 0 0 0-.021.042v1.108c0 .017.008.034.02.042q.017.019.042.02h1.105q.023 0 .041-.016a.07.07 0 0 0 .021-.042v-1.112a.07.07 0 0 0-.02-.042.06.06 0 0 0-.042-.016h-1.109a.05.05 0 0 0-.037.016m4.987.021a.13.13 0 0 0-.037.084v.979a.13.13 0 0 0 .125.129h1.05a.1.1 0 0 0 .05-.013.1.1 0 0 0 .042-.025.1.1 0 0 0 .025-.041.1.1 0 0 0 .012-.05v-.975c0-.017-.008-.03-.012-.042a.1.1 0 0 0-.025-.042.1.1 0 0 0-.042-.029.1.1 0 0 0-.05-.008h-1.05a.12.12 0 0 0-.088.033m2.546-.033a.1.1 0 0 0-.029.02.1.1 0 0 0-.02.026.1.1 0 0 0-.01.041v1.034l.005.041a.1.1 0 0 0 .05.055.1.1 0 0 0 .037 0l1.038.008.038-.009a.1.1 0 0 0 .033-.02.1.1 0 0 0 .017-.034.1.1 0 0 0 .008-.037l.004-1.033c0-.013 0-.03-.008-.042a.1.1 0 0 0-.017-.025.1.1 0 0 0-.033-.021.1.1 0 0 0-.038-.008l-1.033-.005c-.013 0-.03 0-.042.009m15 0a.09.09 0 0 0-.062.091v1.03l.004.041a.1.1 0 0 0 .02.03q.016.014.034.02a.1.1 0 0 0 .037.009h1.034l.033-.005a.1.1 0 0 0 .033-.02q.015-.015.021-.034a.1.1 0 0 0 .009-.037l.004-1.033c0-.013 0-.03-.009-.042a.1.1 0 0 0-.054-.046.1.1 0 0 0-.033-.008l-1.033-.005c-.013 0-.021 0-.038.009m7.5 0a.1.1 0 0 0-.058.054l-.004.033-.005 1.034c0 .012 0 .025.009.041a.1.1 0 0 0 .02.03.1.1 0 0 0 .067.029h1.034q.039-.001.07-.025.015-.015.021-.034a.1.1 0 0 0 .009-.037v-1.033l-.005-.038a.1.1 0 0 0-.02-.03.1.1 0 0 0-.075-.028l-1.03-.005c-.012 0-.025 0-.033.009m7.492 0a.1.1 0 0 0-.03.02.1.1 0 0 0-.028.067l-.005 1.034c0 .012 0 .025.009.041a.1.1 0 0 0 .05.05.1.1 0 0 0 .041.009h1.03l.041-.005a.1.1 0 0 0 .03-.02.1.1 0 0 0 .028-.071v-1.033l-.004-.038a.1.1 0 0 0-.02-.03.1.1 0 0 0-.034-.02.1.1 0 0 0-.037-.008l-1.034-.005c-.012 0-.025 0-.037.009m-22.492 0a.1.1 0 0 0-.033.02.1.1 0 0 0-.03.072v1.029l.005.041q.01.017.025.03a.1.1 0 0 0 .066.029h1.038l.038-.005a.1.1 0 0 0 .029-.024.1.1 0 0 0 .02-.03.1.1 0 0 0 .009-.037v-1.038c0-.012 0-.025-.009-.037a.1.1 0 0 0-.05-.05l-.041-.004-1.03-.005c-.012 0-.024 0-.037.009m-2.454-2.521a.14.14 0 0 0-.138.138l.009.958c0 .037.02.067.041.091.03.026.059.042.096.042l1.025-.008a.14.14 0 0 0 .096-.042.1.1 0 0 0 .03-.041.14.14 0 0 0 .008-.055l-.009-.958a.13.13 0 0 0-.041-.092.14.14 0 0 0-.096-.041zm14.996 0a.14.14 0 0 0-.1.042.14.14 0 0 0-.034.096l.009.954a.137.137 0 0 0 .137.137l1.021-.008a.14.14 0 0 0 .138-.142l-.009-.946a.14.14 0 0 0-.141-.141zm-37.583.02a.1.1 0 0 0-.034.072l-.008 1.033q.002.038.029.063.029.03.07.029l1.11.008a.1.1 0 0 0 .062-.03.1.1 0 0 0 .029-.062v-1.041a.1.1 0 0 0-.021-.063.1.1 0 0 0-.07-.029l-1.105-.008a.1.1 0 0 0-.062.029m5.075-.02a.1.1 0 0 0-.034.02.1.1 0 0 0-.029.076v1.02a.11.11 0 0 0 .058.097.1.1 0 0 0 .042.008l1.02.004q.02.002.038-.008a.1.1 0 0 0 .03-.025.1.1 0 0 0 .024-.03.1.1 0 0 0 .009-.041l.004-1.021c0-.012 0-.03-.008-.042a.1.1 0 0 0-.055-.054.1.1 0 0 0-.041-.008h-1.017zm9.916.02a.1.1 0 0 0-.029.072l-.004 1.033q0 .038.025.063.026.03.07.029l1.105.008q.039 0 .067-.03a.1.1 0 0 0 .029-.062l.008-1.041a.1.1 0 0 0-.03-.063.1.1 0 0 0-.07-.029l-1.108-.008a.1.1 0 0 0-.063.029m2.554-.016a.1.1 0 0 0-.033.021.1.1 0 0 0-.03.075v1.02l.005.038.02.034q.033.03.076.029l1.025.004q.018.002.037-.008a.1.1 0 0 0 .034-.021.1.1 0 0 0 .02-.034.1.1 0 0 0 .009-.041l.004-1.017c0-.017 0-.029-.008-.042a.1.1 0 0 0-.054-.054.1.1 0 0 0-.038-.008h-1.025zm7.5 0a.1.1 0 0 0-.058.054.1.1 0 0 0-.008.042v1.02a.1.1 0 0 0 .029.072q.031.03.075.029l1.02.004a.1.1 0 0 0 .072-.03q.016-.013.02-.032a.1.1 0 0 0 .009-.042l.004-1.017c0-.017 0-.029-.009-.042a.1.1 0 0 0-.02-.033.1.1 0 0 0-.075-.029h-1.017zm7.5 0-.037.021a.1.1 0 0 0-.021.033.1.1 0 0 0-.008.042v1.02l.004.038.02.034c.009.012.026.016.038.02a.1.1 0 0 0 .038.009l1.025.004q.02.002.033-.008c.013 0 .03-.009.042-.021l.016-.034a.1.1 0 0 0 .009-.041l.004-1.017c0-.017 0-.029-.009-.042a.1.1 0 0 0-.02-.033l-.038-.02a.1.1 0 0 0-.033-.009h-1.03zm7.496 0a.1.1 0 0 0-.033.021.1.1 0 0 0-.021.033.1.1 0 0 0-.008.042l-.005 1.02c0 .013 0 .026.009.038l.02.034q.033.03.076.029l1.02.004q.019.002.042-.008a.11.11 0 0 0 .063-.096v-1.017l-.005-.042a.1.1 0 0 0-.058-.054.1.1 0 0 0-.041-.008h-1.021l-.042.004zm7.5 0a.1.1 0 0 0-.058.054.1.1 0 0 0-.008.042l-.005 1.02a.11.11 0 0 0 .063.093.1.1 0 0 0 .041.008l1.021.004q.044 0 .075-.03l.021-.032a.1.1 0 0 0 .008-.042v-1.017l-.004-.042a.1.1 0 0 0-.02-.033.1.1 0 0 0-.034-.02.1.1 0 0 0-.041-.009h-1.026zm-45.008 0-.021.009a.1.1 0 0 0-.017.024l-.004.025-.004 1.096.008.021q0 .014.013.021l.02.017.026.004h1.096q.024-.001.041-.017l.017-.02.008-.026v-1.1a.06.06 0 0 0-.017-.041.1.1 0 0 0-.024-.021h-1.142zm4.991 0a.1.1 0 0 0-.033.021.1.1 0 0 0-.02.033.1.1 0 0 0-.009.038v1.033l.008.038a.1.1 0 0 0 .021.025q.014.015.034.025l.037.004h1.104q.018.002.042-.008a.1.1 0 0 0 .025-.021.1.1 0 0 0 .025-.03v-1.07l-.004-.038a.1.1 0 0 0-.055-.05.1.1 0 0 0-.037-.008h-1.1zm2.459 1.175a.04.04 0 0 0 .041.042h1.15a.04.04 0 0 0 .03-.013.04.04 0 0 0 .012-.025V21.73a.08.08 0 0 0-.054-.077.1.1 0 0 0-.033-.006h-1.142zm10.05-1.158a.1.1 0 0 0-.03.07v1.034c0 .025.009.05.03.067q.027.03.067.029h1.033a.1.1 0 0 0 .096-.096v-1.033a.1.1 0 0 0-.03-.071.1.1 0 0 0-.07-.03h-1.03a.1.1 0 0 0-.066.03m7.529-.021a.1.1 0 0 0-.03.02.1.1 0 0 0-.02.034.1.1 0 0 0-.008.038l-.005 1.029c0 .012 0 .029.009.041a.11.11 0 0 0 .096.059h1.062l.03-.03a.1.1 0 0 0 .024-.029.1.1 0 0 0 .009-.041V21.75l-.017-.042a.1.1 0 0 0-.054-.058.1.1 0 0 0-.038-.008H50.13l-.037.008zm2.63-.008a.28.28 0 0 0-.168.06.21.21 0 0 0-.074.157v.928c0 .021.016.042.033.059a.08.08 0 0 0 .058.025h1.125c.008 0 .021 0 .033-.008a.1.1 0 0 0 .026-.021.1.1 0 0 0 .02-.025.1.1 0 0 0 .009-.042v-.925a.2.2 0 0 0-.071-.15.26.26 0 0 0-.171-.062zm4.833.029a.1.1 0 0 0-.026.07v1.034c0 .025.009.05.03.067.016.02.041.029.066.029h1.034a.1.1 0 0 0 .07-.03.1.1 0 0 0 .026-.066v-1.033a.1.1 0 0 0-.026-.071.1.1 0 0 0-.07-.03h-1.034a.1.1 0 0 0-.066.03zm7.5 0a.1.1 0 0 0-.03.07v1.038a.1.1 0 0 0 .03.063c.016.02.041.029.066.029h1.038a.09.09 0 0 0 .091-.092v-1.041a.1.1 0 0 0-.025-.067.1.1 0 0 0-.066-.03h-1.042a.1.1 0 0 0-.062.03m2.658-.03a.26.26 0 0 0-.167.063.2.2 0 0 0-.054.071.2.2 0 0 0-.017.083v.93c0 .02.013.041.03.058a.1.1 0 0 0 .062.025H68.7a.1.1 0 0 0 .03-.008.1.1 0 0 0 .032-.021c.009-.005.013-.017.017-.025a.1.1 0 0 0 .008-.042l-.004-.925a.2.2 0 0 0-.07-.15.26.26 0 0 0-.167-.062zm4.841.03a.1.1 0 0 0-.029.075v1.029a.1.1 0 0 0 .03.067q.028.03.07.029h1.025q.042 0 .071-.03a.1.1 0 0 0 .03-.066v-1.03a.1.1 0 0 0-.03-.074.1.1 0 0 0-.07-.03h-1.026a.1.1 0 0 0-.07.03m-37.491-.021a.04.04 0 0 0-.021.02v1.176l.008.012.013.009h1.179l.013-.009.008-.012V21.67l-.008-.013-.013-.008h-1.179m-12.538-2.483a.14.14 0 0 0-.041.095v1.167l-1.134.004a.08.08 0 0 0-.081.054.1.1 0 0 0-.006.034v1.083q0 .02.012.034a.05.05 0 0 0 .034.012h1.158l.008-.012q.008 0 .009-.013l.004-.012v-1.184l1.183-.008q.047 0 .084-.034a.13.13 0 0 0 .037-.083V19.25a.13.13 0 0 0-.042-.087.14.14 0 0 0-.091-.042h-1.034a.15.15 0 0 0-.1.046m5.121-.03a.2.2 0 0 0-.062.042.2.2 0 0 0-.038.054.2.2 0 0 0-.016.067l.004 1.125h-1.209a.1.1 0 0 0-.062.025c-.017.017-.021.042-.021.063v1.1c0 .008 0 .02.008.024a.04.04 0 0 0 .03.013h1.22a.04.04 0 0 0 .025-.012c.009-.005.009-.017.009-.026v-1.195h1.075a.16.16 0 0 0 .112-.042.15.15 0 0 0 .042-.108v-.971a.183.183 0 0 0-.184-.18h-.87c-.021 0-.042 0-.063.013zm4.917.038a.17.17 0 0 0-.05.117v1.125h-1.188l-.016.004-.013.008-.008.017-.004.016v1.163q.005.008.012.012 0 .008.013.009l.016.004h1.184v-1.225l1.041.004a.187.187 0 0 0 .188-.187v-.95a.166.166 0 0 0-.167-.167h-.9a.17.17 0 0 0-.117.05zm4.975 0a.2.2 0 0 0-.054.133v1.125h-1.138a.1.1 0 0 0-.062.025.08.08 0 0 0-.025.063v1.083c0 .013 0 .025.012.034.008.008.025.012.038.012h1.133a.04.04 0 0 0 .042-.042v-1.175l1.166-.004a.13.13 0 0 0 .096-.041.13.13 0 0 0 .042-.092v-.942a.23.23 0 0 0-.071-.166.23.23 0 0 0-.167-.063h-.883a.18.18 0 0 0-.13.05m7.496-.008a.17.17 0 0 0-.05.116l-.005.971c0 .042.013.088.042.121a.17.17 0 0 0 .121.042l.97.008a.2.2 0 0 0 .122-.046.17.17 0 0 0 .041-.117l.009-.974a.17.17 0 0 0-.1-.15.2.2 0 0 0-.063-.013l-.975-.004a.18.18 0 0 0-.112.046m-24.946-.042a.1.1 0 0 0-.025.02.1.1 0 0 0-.021.03v.025l-.004 1.137a.09.09 0 0 0 .05.076q.015.004.029.004l1.063.004a.1.1 0 0 0 .033-.008.1.1 0 0 0 .029-.013.1.1 0 0 0 .017-.03v-.037l.004-1.133a.1.1 0 0 0-.021-.054l-.025-.021-.033-.004-1.063-.004a.1.1 0 0 0-.033.008m5.012 0a.14.14 0 0 0-.041.033.2.2 0 0 0-.03.042.2.2 0 0 0-.012.054l-.004 1.03.012.05c.014.032.039.06.071.074a.14.14 0 0 0 .054.009l.954.004q.026.002.05-.008a.15.15 0 0 0 .08-.076.1.1 0 0 0 .008-.05v-1.079a.15.15 0 0 0-.08-.075.1.1 0 0 0-.045-.004l-.958-.004c-.017 0-.038 0-.055.008zm4.967 0a.1.1 0 0 0-.042.03.1.1 0 0 0-.025.04.1.1 0 0 0-.012.047v1.054q.002.047.033.083a.1.1 0 0 0 .042.03.1.1 0 0 0 .041.008l1.059.004a.14.14 0 0 0 .087-.033l.03-.042a.1.1 0 0 0 .008-.042v-1.058l-.004-.05a.1.1 0 0 0-.03-.042.13.13 0 0 0-.083-.029l-1.058-.004c-.013 0-.034-.004-.046.004m5.02.008a.08.08 0 0 0-.046.05.1.1 0 0 0-.007.03v1.124a.086.086 0 0 0 .091.084h1.05q.015.002.03-.008a.1.1 0 0 0 .029-.013.1.1 0 0 0 .02-.033l.009-.034v-1.125l-.013-.033c0-.012-.008-.02-.016-.03l-.03-.016a.1.1 0 0 0-.033-.008h-1.054a.1.1 0 0 0-.033.008zm5.022-.004a.15.15 0 0 0-.084.083.2.2 0 0 0-.012.055l-.004 1a.154.154 0 0 0 .15.15l.925.004a.154.154 0 0 0 .15-.15l.008-1a.16.16 0 0 0-.042-.104.15.15 0 0 0-.108-.046l-.925-.004a.2.2 0 0 0-.058.012m2.5 0a.14.14 0 0 0-.042.034.1.1 0 0 0-.025.041.07.07 0 0 0-.012.042v1.05l.012.05q.009.024.025.041a.14.14 0 0 0 .087.034h.98a.13.13 0 0 0 .087-.034.13.13 0 0 0 .038-.091V19.25a.13.13 0 0 0-.038-.083.13.13 0 0 0-.087-.042h-.98a.1.1 0 0 0-.05.012zm4.996 0a.17.17 0 0 0-.084.075.2.2 0 0 0-.012.063v1c0 .037.008.079.041.108a.14.14 0 0 0 .1.042l.934.004c.02 0 .041 0 .058-.013a.2.2 0 0 0 .046-.025.15.15 0 0 0 .046-.108l.004-1a.15.15 0 0 0-.146-.15l-.93-.008q-.03 0-.058.012m2.55-.004a.12.12 0 0 0-.088.038.13.13 0 0 0-.042.087v1.05c0 .017.009.03.017.042q.009.024.025.041a.1.1 0 0 0 .042.03q.022.008.046.008h.975a.125.125 0 0 0 .125-.125V19.25c0-.017 0-.033-.009-.05a.1.1 0 0 0-.029-.042.1.1 0 0 0-.042-.02.1.1 0 0 0-.045-.013zm2.379.05a.2.2 0 0 0-.055.133l-.004.917q.002.081.055.137a.2.2 0 0 0 .137.055l.917.004a.2.2 0 0 0 .137-.05.2.2 0 0 0 .054-.138l.005-.916a.2.2 0 0 0-.059-.134.2.2 0 0 0-.133-.058l-.917-.004a.2.2 0 0 0-.137.054m2.57-.046a.16.16 0 0 0-.083.075.2.2 0 0 0-.012.063l-.009 1c0 .037.017.079.042.108.033.025.07.042.108.042l.93.004c.02 0 .041 0 .058-.013a.2.2 0 0 0 .046-.025.15.15 0 0 0 .045-.108l.009-1a.15.15 0 0 0-.15-.15l-.93-.008a.2.2 0 0 0-.053.012" clip-rule="evenodd"/></g><defs><clipPath id="a"><path fill="#fff" d="M0 0h100v100H0z"/></clipPath></defs></svg>