<svg xmlns="http://www.w3.org/2000/svg" fill="none" viewBox="0 0 100 100"><path fill="#c5f74f" d="M23.162 49.081a4.18 4.18 0 0 0-1.593-5.742 4.293 4.293 0 0 0-5.805 1.61L2.107 68.78a4.18 4.18 0 0 0 1.592 5.742 4.293 4.293 0 0 0 5.805-1.61zm29.436-18.273a4.18 4.18 0 0 0-1.592-5.742 4.293 4.293 0 0 0-5.806 1.61L31.543 50.507a4.18 4.18 0 0 0 1.593 5.743 4.293 4.293 0 0 0 5.805-1.61zm45.295.001a4.18 4.18 0 0 0-1.592-5.742 4.293 4.293 0 0 0-5.805 1.61L76.839 50.508a4.18 4.18 0 0 0 1.592 5.742 4.293 4.293 0 0 0 5.805-1.61zM68.447 49.081a4.18 4.18 0 0 0-1.592-5.742 4.293 4.293 0 0 0-5.806 1.61L47.392 68.78a4.18 4.18 0 0 0 1.592 5.742 4.293 4.293 0 0 0 5.806-1.61z"/></svg>