<svg xmlns="http://www.w3.org/2000/svg" fill="none" viewBox="0 0 100 100"><g clip-path="url(#a)"><path fill="url(#b)" d="M14.287 44.792c0 9.666 3.763 18.941 10.459 25.779A35.35 35.35 0 0 0 50 81.25a35.35 35.35 0 0 0 25.25-10.68 36.85 36.85 0 0 0 10.462-25.778H100c0 13.537-5.267 26.52-14.646 36.091A49.5 49.5 0 0 1 50 95.833c-13.263 0-25.98-5.375-35.354-14.95A51.58 51.58 0 0 1 0 44.792zm57.142 0a22.1 22.1 0 0 1-6.28 15.466A21.2 21.2 0 0 1 50 66.667a21.2 21.2 0 0 1-15.153-6.409 22.1 22.1 0 0 1-6.275-15.466zM50 8.333c9.472 0 18.555 3.842 25.25 10.68a36.85 36.85 0 0 1 10.463 25.779H71.43a22.1 22.1 0 0 0-6.28-15.467A21.2 21.2 0 0 0 50 22.917a21.2 21.2 0 0 0-15.153 6.408 22.1 22.1 0 0 0-6.275 15.467H14.29c0-9.667 3.763-18.942 10.459-25.78A35.35 35.35 0 0 1 50 8.333"/></g><defs><radialGradient id="b" cx="0" cy="0" r="1" gradientTransform="matrix(90.4129 112.606 -199.932 167.288 9.583 -16.77)" gradientUnits="userSpaceOnUse"><stop stop-color="#6a46ac"/><stop offset=".63" stop-color="#31008c"/></radialGradient><clipPath id="a"><path fill="#fff" d="M0 0h100v100H0z"/></clipPath></defs></svg>