<svg xmlns="http://www.w3.org/2000/svg" fill="none" viewBox="0 0 100 100"><path fill="#ffe184" d="M94.683 12.867c-4.987-2.967-11.725-4.533-19.5-4.533-11.891 0-25 3.654-36.775 10.012l-.083-.03-.017.088c-3.562 1.934-7.016 4.088-10.258 6.492C8.946 39.066 3.596 55.883 8.113 64.876 3.167 73.091.125 81.595 0 91.665c9.5-17.637 15.2-31.928 46.15-55.99-8.842 1.845-24.125 10.603-34.408 23.895-.971-7.775 5.333-20.33 19.375-30.746a82 82 0 0 1 5.516-3.72c-1.475 4.462-1 3.354-4.062 9.612 4.525-4.171 7.5-6.75 11.97-13.896a79.2 79.2 0 0 1 17.817-6.104c-.991 3.196-2.875 8.612-5.425 12.896 0 0 6.471-1.35 11.821-1.042-2.92 3.137-5.554 6.537-8.22 10.013-3.65 4.758-7.426 9.674-12.263 14.254-.584.554-1.138 1.054-1.7 1.57-7.433-.695-12.338 2.013-16.938 6.792 3.625-1.646 8.5-3 11.55-2.183-5.625 4.47-14.487 10.362-21.766 9.875-1.384 2.05-1.471 2.112-2.988 4.583 11.813 2.867 26.646-8.825 35.375-17.096 5.121-4.85 9.021-9.929 12.792-14.833C72.354 29.434 79.058 20.7 93.929 17.379L100 16.025z"/></svg>