<svg xmlns="http://www.w3.org/2000/svg" fill="none" viewBox="0 0 100 100"><g clip-path="url(#a)"><path fill="#5019c5" fill-rule="evenodd" d="M61.667 20.834 49.996 49.146 38.313 20.834H30.82l12.8 30.95a6.834 6.834 0 0 0 12.658.008l12.88-30.958zm4.983 43.133L88 42.117l-2.912-6.954L61.77 59.075a6.93 6.93 0 0 0-1.43 7.53 6.84 6.84 0 0 0 6.318 4.216l.008.013L100 70.75l-2.912-6.954-30.43.17zM12 42.1l2.913-6.954 23.316 23.913a6.92 6.92 0 0 1 1.43 7.529 6.85 6.85 0 0 1-6.317 4.216L.008 70.73 0 70.738l2.913-6.955 30.429.175z" clip-rule="evenodd"/></g><defs><clipPath id="a"><path fill="#fff" d="M0 0h100v100H0z"/></clipPath></defs></svg>