<svg xmlns="http://www.w3.org/2000/svg" fill="none" viewBox="0 0 100 100"><g fill="#fff" fill-rule="evenodd" clip-path="url(#a)" clip-rule="evenodd"><path d="M98.15 50.787c1.017 0 1.85.525 1.85 1.167v3.962c0 .642-.833 1.167-1.85 1.167s-1.85-.525-1.85-1.166V51.95c0-.638.833-1.163 1.85-1.163m-7.35 1.55c1.017 0 1.85.525 1.85 1.167v8.73c0 .637-.833 1.162-1.85 1.162-1.02 0-1.85-.525-1.85-1.167v-8.73c0-.637.833-1.162 1.85-1.162m-7.354 1.809c1.017 0 1.85.52 1.85 1.162v9.813c0 .641-.834 1.166-1.85 1.166s-1.85-.525-1.85-1.166v-9.813c0-.642.833-1.162 1.85-1.162m-7.35 1.495c1.016 0 1.85.521 1.85 1.163v9.708c0 .638-.834 1.163-1.85 1.163s-1.85-.525-1.85-1.167V56.8c0-.638.833-1.158 1.85-1.158m-7.354 1.317c1.02 0 1.85.525 1.85 1.167v8.404c0 .642-.834 1.167-1.85 1.167s-1.85-.525-1.85-1.167v-8.404c0-.642.833-1.167 1.85-1.167m-7.313 5.363c1.017 0 1.85.52 1.85 1.166v2.667c0 .638-.833 1.158-1.85 1.158s-1.85-.52-1.85-1.162v-2.667c0-.641.834-1.162 1.85-1.162" opacity=".35"/><path d="M98.15 40.125c1.017 0 1.85.52 1.85 1.162v6.563c0 .642-.833 1.167-1.85 1.167s-1.85-.525-1.85-1.167v-6.563c0-.641.833-1.166 1.85-1.166zm-7.35-4.408c1.017 0 1.85.52 1.85 1.166v11.709c0 .637-.833 1.158-1.85 1.158-1.02 0-1.85-.52-1.85-1.163V36.88c0-.642.833-1.162 1.85-1.162m-7.354-1.659c1.017 0 1.85.525 1.85 1.167v15.28c0 .637-.834 1.166-1.85 1.166s-1.85-.53-1.85-1.167V35.221c0-.638.833-1.163 1.85-1.163m-7.35-.725c1.016 0 1.85.525 1.85 1.167v17.875c0 .642-.834 1.167-1.85 1.167s-1.85-.525-1.85-1.167V34.5c0-.642.833-1.167 1.85-1.167m-7.354.454c1.02 0 1.85.525 1.85 1.167V53.1c0 .642-.834 1.167-1.85 1.167s-1.85-.525-1.85-1.167V34.95c0-.638.833-1.167 1.85-1.167zm-7.313 1.138c1.017 0 1.85.52 1.85 1.167v22.641c0 .638-.833 1.167-1.85 1.167s-1.85-.525-1.85-1.167v-22.65c0-.641.834-1.166 1.85-1.166zm-7.504 1.93c1.017 0 1.85.52 1.85 1.162v25.675c0 .641-.833 1.166-1.85 1.166s-1.85-.525-1.85-1.166V38.017c0-.642.833-1.167 1.85-1.167zm-7.35 3.266c1.017 0 1.85.525 1.85 1.166v24.7c0 .642-.833 1.167-1.85 1.167-1.02 0-1.85-.525-1.85-1.167v-24.7c0-.641.833-1.166 1.85-1.166m-7.354 4.258c1.02 0 1.85.525 1.85 1.167V67.05c0 .642-.834 1.167-1.85 1.167s-1.85-.525-1.85-1.167V45.542c0-.642.833-1.167 1.85-1.167zm-7.35 2.942c1.017 0 1.85.525 1.85 1.166v21.184c0 .637-.833 1.162-1.85 1.162s-1.85-.525-1.85-1.166v-21.18c0-.641.833-1.166 1.85-1.166m-7.317 2.437c1.021 0 1.85.525 1.85 1.167v11.27c0 .642-.833 1.167-1.85 1.167-1.016 0-1.85-.525-1.85-1.166V50.92c0-.638.834-1.163 1.85-1.163m-7.57-10.991c1.016 0 1.85.525 1.85 1.166v15.713c0 .641-.834 1.166-1.85 1.166s-1.85-.525-1.85-1.166V39.933c0-.641.833-1.166 1.85-1.166m-7.559 1.029c1.017 0 1.846.525 1.846 1.166v4.834c0 .637-.834 1.162-1.846 1.162-1.02 0-1.85-.525-1.85-1.166v-4.834c0-.637.833-1.162 1.85-1.162m-7.575-.65c1.017 0 1.85.525 1.85 1.166v2.18c0 .637-.833 1.162-1.85 1.162S0 43.13 0 42.487v-2.175c0-.641.833-1.166 1.85-1.166m22.708-1.842c1.017 0 1.846.525 1.846 1.167v1.633c0 .642-.833 1.167-1.85 1.167-1.016 0-1.85-.525-1.85-1.167v-1.637c0-.642.834-1.167 1.85-1.167z"/></g><defs><clipPath id="a"><path fill="#fff" d="M0 0h100v100H0z"/></clipPath></defs></svg>