<svg xmlns="http://www.w3.org/2000/svg" fill="none" viewBox="0 0 100 100"><path fill="url(#a)" fill-rule="evenodd" d="M69.928 17.342h11.515C91.685 17.342 100 25.658 100 35.9v40.489c0 10.242-8.315 18.557-18.557 18.557h-.908c-5.271-.825-7.557-2.406-9.323-3.742l-14.64-12.037a2.06 2.06 0 0 0-2.592 0l-4.756 3.911-13.396-11.014a2.056 2.056 0 0 0-2.59 0l-18.61 16.37c-3.745 3.047-6.223 2.484-7.83 2.308C2.65 87.336 0 82.169 0 76.389v-40.49c0-10.242 8.315-18.557 18.558-18.557h11.49l-.021.047-.387 1.129-.121.387-.521 2.313-.072.406-.23 2.316-.03.636-.004.223.021 1.062.053.622.129.975.164.877.195.807.254.875.657 1.85.217.556 1.145 2.42.404.742 1.324 2.273.507.82 1.848 2.72.266.361 2.405 3.13.777.963 2.745 3.209.564.617 2.263 2.435.896.928 1.482 1.472-.298.248-.185.167q-.755.705-1.427 1.49-.323.381-.614.785-.445.619-.793 1.296a8 8 0 0 0-.318.72 6.7 6.7 0 0 0-.43 1.956l-.008.579c.02.815.187 1.62.49 2.378a6.6 6.6 0 0 0 1.323 2.075c.412.438.88.82 1.395 1.135a7 7 0 0 0 1.388.656 7.8 7.8 0 0 0 3.28.373h.005a7.4 7.4 0 0 0 2.704-.803 7 7 0 0 0 1.033-.668 6.6 6.6 0 0 0 2.083-2.77 6.9 6.9 0 0 0 .493-2.677l-.027-.479a6.7 6.7 0 0 0-.448-1.843 8 8 0 0 0-.347-.752q-.36-.676-.816-1.293a13 13 0 0 0-.431-.551 18 18 0 0 0-1.593-1.67l-.401-.34.678-.67 2.916-3.045 1.009-1.107 1.567-1.764 1.02-1.192 1.454-1.771.984-1.238 1.446-1.932.73-1 1.035-1.549.862-1.319 1.625-2.829.929-1.856.027-.057.711-1.723.025-.068.766-2.39.08-.348.332-1.902.065-.516.02-.315.023-1.191-.006-.222-.061-1.067-.076-.828-.377-2.389q-.009-.047-.022-.095l-.485-1.766-.167-.49zm5.474 50.492a4.46 4.46 0 0 0-4.397 4.397 4.46 4.46 0 0 0 4.397 4.395 4.464 4.464 0 0 0 4.398-4.395 4.46 4.46 0 0 0-4.398-4.397" clip-rule="evenodd"/><path fill="#fff" fill-rule="evenodd" d="m42.632 94.009 11.931-10.07a1.22 1.22 0 0 1 1.56-.002l12.105 10.072a4.14 4.14 0 0 0 2.605.928h-30.79c.944 0 1.86-.328 2.589-.928m7.427-35.944.117.034c.038.018.07.044.103.067l.098.086q.362.334.7.693.239.255.462.524.284.342.526.715.104.163.195.336.079.15.141.308c.073.183.128.375.145.571l-.004.368a2.1 2.1 0 0 1-.995 1.636 2.84 2.84 0 0 1-1.21.398l-.455.014-.383-.034a3 3 0 0 1-.528-.128 2.5 2.5 0 0 1-.499-.234l-.3-.22a2.05 2.05 0 0 1-.682-1.169 3 3 0 0 1-.035-.231l-.011-.35a2 2 0 0 1 .041-.283q.08-.309.223-.592a6 6 0 0 1 .42-.681q.389-.527.841-1 .29-.307.6-.595l.147-.132c.102-.067.103-.067.22-.101zm-.754-48.9.048-.004v41.004l-.103-.189a115 115 0 0 1-3.767-7.633 82 82 0 0 1-2.556-6.4 51 51 0 0 1-1.541-5.27c-.323-1.416-.571-2.853-.674-4.305q-.06-.93-.035-1.861.015-.81.066-1.62.079-1.273.264-2.535.147-.993.37-1.972.18-.777.417-1.537.343-1.095.822-2.141.176-.376.374-.745c.792-1.467 1.866-2.818 3.273-3.72a6.8 6.8 0 0 1 3.042-1.072m5.317.104 2.758.786a17 17 0 0 1 3.638 1.853 14.6 14.6 0 0 1 3.913 3.902 14.8 14.8 0 0 1 1.514 2.921c.573 1.519.929 3.11 1.054 4.728q.055.637.066 1.274c.01.395.007.79-.024 1.185a13.3 13.3 0 0 1-.496 2.607 21 21 0 0 1-.715 2.05q-.512 1.253-1.135 2.453c-.918 1.774-1.977 3.473-3.11 5.117a80 80 0 0 1-4.485 5.853 111 111 0 0 1-5.38 5.963 114 114 0 0 0 3.54-7.245 90 90 0 0 0 1.723-4.15 65 65 0 0 0 1.604-4.665c.353-1.18.665-2.373.922-3.578.22-1.035.393-2.08.5-3.13q.135-1.319.101-2.639a38 38 0 0 0-.06-1.614c-.128-2.161-.457-4.317-1.088-6.392a19 19 0 0 0-.87-2.304c-.807-1.759-1.934-3.402-3.459-4.602z" clip-rule="evenodd"/><defs><radialGradient id="a" cx="0" cy="0" r="1" gradientTransform="translate(53.096 55.806)scale(72.4412)" gradientUnits="userSpaceOnUse"><stop stop-color="#ba7bf0"/><stop offset=".45" stop-color="#996bec"/><stop offset="1" stop-color="#5046e4"/></radialGradient></defs></svg>