<svg xmlns="http://www.w3.org/2000/svg" fill="none" viewBox="0 0 100 100"><g fill="#0039c6" clip-path="url(#a)"><path d="M79.283 16.054a5.458 5.458 0 1 0 5.454 5.454 5.46 5.46 0 0 0-5.458-5.458zm2.475 8.28a2.77 2.77 0 1 1 .005-5.539 2.77 2.77 0 0 1-.005 5.538"/><path d="M81.958 20.058a1.45 1.45 0 0 0 0 2.896 1.45 1.45 0 0 0 0-2.896m-23.137 47.93a.155.155 0 0 0-.031-.228.15.15 0 0 0-.082-.027c-1.308-.02-6.245-.387-8.77-4.508a8.7 8.7 0 0 1-.371-8.446.17.17 0 0 0 0-.137L45.379 47.1c-.033-.067-.112-.083-.183-.07-8.408 1.65-13.308 8.766-11.825 15.782.4 1.909 1.187 3.6 2.408 5.155 3.117 3.958 7.746 5.25 11.146 5.145 7.042-.208 10.958-4.07 11.9-5.124zM19.858 28.774a41.3 41.3 0 0 1 10.363-8.97L23.458 7.62a2.42 2.42 0 0 0-2.141-1.242l-20.038.167A1.292 1.292 0 0 0 .163 8.463L15.246 35.65c1.708-3.15 3.433-5.462 4.612-6.875M73 45.542c-1.758.041-3.433-.042-4.35.112-.763.13-2.738.504-4.75 2.392a.16.16 0 0 0-.041.148.16.16 0 0 0 .108.11c1.37.363 2.637.988 3.866 1.733 2.625 1.596 5.021 5.609 5.763 7.5.041.126.212.134.275.017l7.166-13.625c.063-.125-.062-.267-.195-.212-3.359 1.366-6.15 1.791-7.846 1.829zM98.696 6.3l-18.942.154a2.42 2.42 0 0 0-2.112 1.275l-.525 1.125c1.516-.037 10.108.634 17.325 9.617L99.85 8.19a1.294 1.294 0 0 0-.514-1.733 1.3 1.3 0 0 0-.64-.158M45.192 89.57l3.512 6.322a1.29 1.29 0 0 0 2.221.066l5.458-8.6a34.5 34.5 0 0 1-11.191 2.213"/><path d="M93.029 22.413c-6.087-10.146-14.704-9.971-14.704-9.971-3.963-.775-5.984-5.263-15.108-7.488-8.526-2.083-13.284.467-9.867 1.88 5.508 2.283 8.646 11.374 10.258 18.224 2.059 8.75 6.538 8.917 11.492 8.38 3.85-.409 11.562-4.409 15.504-5.234 4.292-.9 5.638-.42 2.417-5.791zM78.975 28.82a7.32 7.32 0 1 1 5.18-12.498 7.32 7.32 0 0 1-5.18 12.498M53.15 55.683c-1.088 2.596.133 6.542 5.483 6.9.334 0 .5-.22.5-.5 0-.27-.242-.404-.5-.495-.258-.092-2.725-.942-2.183-3.825.175-.959 1.033-1.825 2.083-2.221-.592-1.105-.596-2.592.25-4.021-1.429 0-4.229.808-5.637 4.166zm17 5.25c0-2.85-1.88-5.875-3.354-6.833-1.28-.446-3.4.25-4.596 2.03 1.404.916 2.304 2.383 2.458 6.166.192 4.892-3.517 9.1-8.479 11.5 7.35-1.417 13.97-7.459 13.97-12.863M25.837 69.13c-14.162-18.096-5.666-42.296 14.975-50.496C15.112 27.3 7.437 55.675 21.867 73.5c9.579 11.833 26.058 12.237 34.887 9.167-10.712-.888-22.208-2.413-30.917-13.538m37.038-25.608c.125-.05.125-.225 0-.28-.25-.116-.73-.208-1.613.017-1.712.425-5.916 1.1-5.583-.941.23-1.455 2.558-1.917 4.262-4.7.842-1.375-.25-3.646-2.458-3.646-1.7 0-3.45.775-5.354 2.792-2.667 2.816-3.192 5.458-2.158 7.4.975 1.841 3.266 2.637 7.091 2 2.617-.43 3.417-1.588 5.817-2.646z"/><path d="M61.188 51.517s-2.05.737-1.817 3.891c.762-.191.996-.116 2.033.384.475-1.409 1.696-2.596 3.5-2.596.325 0 .646.038.958.1-1.208-.913-2.462-1.667-4.666-1.78zm14.866-11.63c-10.183 2.146-10.333-6.583-17.833-8.27-10.096-2.267-23.025 3.77-28.7 14.77-2.309 4.476-4.484 13.242 1.179 20.709-3.558-9.68 1.808-16.8 5.267-19.592 3.258-2.62 7.241-4.275 11.175-5.279a.146.146 0 0 0 .112-.142c.067-2.124 1.15-4.395 3.196-6.558 2.17-2.3 4.396-3.412 6.796-3.412 1.758 0 3.304.895 4.141 2.387.771 1.375.771 3.021 0 4.275a10.7 10.7 0 0 1-1.437 1.863c-.092.087-.025.25.1.25 4.717.296 8.596 1.446 12.054 1.183 13.058-1 17.709-7.958 19.383-9.237 1.521-1.159-9.937 5.887-15.441 7.041z"/><path d="M63.163 68.55c-3.817 3.817-10.067 9.2-22.159 6.938-8.77-1.642-15.496-13.8-13.541-28.467 1.05-7.846 7.133-15.167 12.841-17.525 12.48-5.167 19.042.337 22.075 3.737 2.15 2.413 4.608 7.388 12.559 7.321 6.066-.05 16.575-7.192 19.491-9.883 1-.921-.087-1.43-1.742-1.283-6.308.566-12.15 7.3-20.733 6.933-4.237-.18-9.575-3.092-11.458-9.375-2.259-7.55-2.304-9.125-4.9-9.571-2.721-.467-6.867-.72-12.863 1.146-7.762 2.429-19.933 14.316-20.708 28.5-1.35 24.516 9.608 34.346 26.5 36.429 1.913.233 6.092-.275 7.954-.675A23.9 23.9 0 0 0 63 78.745c4.208-3.782 6.775-7.99 7.375-14.066.208-2.041-.287-4.75-.562-5.937-.096 1.258-2.596 5.733-6.655 9.791v.017z"/></g><defs><clipPath id="a"><path fill="#fff" d="M0 0h100v100H0z"/></clipPath></defs></svg>