<svg xmlns="http://www.w3.org/2000/svg" fill="none" viewBox="0 0 100 100"><g fill-rule="evenodd" clip-path="url(#a)" clip-rule="evenodd"><path fill="url(#b)" d="M46.825 31.68a6.38 6.38 0 0 1 6.35 0l43.617 25a6.383 6.383 0 0 1 0 11.084l-43.617 25a6.4 6.4 0 0 1-6.35 0l-43.616-25a6.387 6.387 0 0 1 0-11.083zm-27.6 30.542L50 79.86l30.775-17.638L50 44.581z"/><path fill="url(#c)" d="M46.825 7.221a6.39 6.39 0 0 1 6.35 0l43.617 25a6.384 6.384 0 0 1 0 11.08l-43.617 25a6.4 6.4 0 0 1-6.35 0l-43.617-25a6.383 6.383 0 0 1 0-11.08zm-27.6 30.542L50 55.4l30.775-17.637L50 20.12z"/><path fill="url(#d)" d="M53.267 42.77 9.546 67.66l-6.32-11.1L46.95 31.67z"/></g><defs><linearGradient id="b" x1=".759" x2="80.738" y1="62.114" y2="62.114" gradientUnits="userSpaceOnUse"><stop stop-color="#f9d100"/><stop offset="1" stop-color="#f97700"/></linearGradient><linearGradient id="c" x1="98.917" x2="18.829" y1="37.654" y2="37.654" gradientUnits="userSpaceOnUse"><stop stop-color="#f9d100"/><stop offset="1" stop-color="#f97700"/></linearGradient><linearGradient id="d" x1=".758" x2="80.625" y1="62.111" y2="61.636" gradientUnits="userSpaceOnUse"><stop stop-color="#f9d100"/><stop offset="1" stop-color="#f97700"/></linearGradient><clipPath id="a"><path fill="#fff" d="M0 0h100v100H0z"/></clipPath></defs></svg>