<svg xmlns="http://www.w3.org/2000/svg" fill="none" viewBox="0 0 100 100"><g clip-path="url(#a)"><mask id="b" width="100" height="100" x="0" y="0" maskUnits="userSpaceOnUse" style="mask-type:luminance"><path fill="#fff" d="M0 0h100v100H0z"/></mask><g mask="url(#b)"><path fill="#44a775" fill-rule="evenodd" d="M13.971.016q-.55.105-1.104.188c-1.908.295-4.15 1.245-5.742 2.433-1.183.887-4.137 3.925-4.804 4.942a14 14 0 0 0-.958 13.733c.641 1.342 1.458 2.458 2.958 4.05.78.825 1.808 2.025 2.292 2.667a27.6 27.6 0 0 1 5.437 14.775c.042.575.146 6.695.238 13.6.179 13.637.158 13.25.845 14.52 1.109 2.059 3.917 3.292 6.142 2.7 1.209-.32 1.93-.85 5.638-4.108 3.987-3.5 4.55-3.883 6.025-4.083.516-.071 2.629 0 6.916.22 6.304.334 6.759.33 7.709-.066 1.637-.684 2.246-1.667 2.754-4.475 1.029-5.667 5.4-10.667 11-12.592.483-.167 1.554-.433 2.383-.6.825-.166 1.775-.425 2.108-.575a4.2 4.2 0 0 0 2.359-3.1c.07-.458-.03-2.287-.371-6.675-.38-4.912-.446-6.179-.346-6.754.238-1.425.58-1.917 4.209-6.033 1.862-2.109 3.541-4.067 3.729-4.346 1.091-1.625 1.2-3.792.283-5.604a6 6 0 0 0-3.425-2.792c-.417-.12-3.475-.154-14.767-.158H41.238l-1.396-.263c-3.992-.746-7.354-2.041-10.35-3.991-1.509-.984-2.43-1.709-4.242-3.35-1.7-1.542-2.458-2.092-3.837-2.792A12.6 12.6 0 0 0 15.6.02a16 16 0 0 0-1.629-.004m65.533 24.408c-.55.204-.904.53-2 1.834-2.466 2.945-3.083 5.566-2.212 9.4.442 1.941.679 2.383 1.504 2.804.438.225.704.229 10.987.191l10.542-.037.492-.263a2.296 2.296 0 0 0 .396-3.729A769 769 0 0 0 89.95 29.4c-9.554-5.341-9.504-5.316-10.446-4.975m-13.4 27.959a38.6 38.6 0 0 0-5.683 2.9c-3.517 2.32-6.058 5.666-8.013 10.541-.879 2.188-.841 3.125.167 3.896.463.363 26.992 13.084 27.78 13.325.637.196 1.124.113 1.791-.308a2.24 2.24 0 0 0 1-1.808c0-.25-.125-.75-.27-1.1-.65-1.534-12.91-26.946-13.16-27.271-.7-.925-1.64-.967-3.612-.175M30.771 75.12c-1.887.425-3.458 1.334-5.354 3.104-1.234 1.154-1.4 1.95-.696 3.325.22.43 2.542 4.6 5.15 9.267 5.404 9.654 5.083 9.192 6.492 9.175.633-.008.825-.062 1.233-.35.29-.218.536-.491.72-.804.242-.459.25-.633.334-10.813.075-8.041.063-10.458-.046-10.858a2.4 2.4 0 0 0-.575-.946c-.375-.379-.583-.466-1.691-.733-2.425-.575-4.134-.688-5.567-.367" clip-rule="evenodd"/></g></g><defs><clipPath id="a"><path fill="#fff" d="M0 0h100v100H0z"/></clipPath></defs></svg>