<svg xmlns="http://www.w3.org/2000/svg" fill="none" viewBox="0 0 100 100"><g clip-path="url(#a)"><path fill="url(#b)" d="M100 50C100 22.388 77.5-.07 49.875 0 22.46.071.063 22.46 0 49.875-.07 77.5 22.388 100 50 100h32.854a17.116 17.116 0 0 0 17.117-17.117V51.668q.027-.83.029-1.667M24.288 77.767C16.329 70.975 11.42 60.1 11.65 49.017c.017-.775.054-1.55.125-2.325v-.05c1.154-13.225 9.696-25.559 21.667-31.288 11.975-5.729 26.941-4.633 37.958 2.767 11.017 7.404 17.68 20.85 16.9 34.1a47.4 47.4 0 0 1-1.37 8.596c-.276 1.125-.613 2.287-1.409 3.125-.792.837-2.183 1.229-3.125.558-.9-.642-1.033-1.9-1.108-3-.625-8.891-3-18.062-9.009-24.646a27.65 27.65 0 0 0-17.695-8.758 28.58 28.58 0 0 0-19.071 5.217c-4.58 3.279-8.175 7.975-9.917 13.333-1.733 5.354-1.558 11.358.73 16.508a21.83 21.83 0 0 0 7.916 9.334c6.112 4.012 14.479 4.583 20.833.958 6.35-3.625 10.146-11.492 8.53-18.625-1.621-7.133-8.85-12.696-16.126-11.942-1.108.113-2.7-.008-2.737-1.125-.033-.862 1.004-1.316 1.854-1.47 7.38-1.325 15.292 2.425 19.333 8.737 4.055 6.313 4.259 14.767.954 21.5-3.308 6.73-9.874 11.646-17.158 13.42-9.82 2.397-18.712-.437-25.429-6.174z"/></g><defs><linearGradient id="b" x1="2.246" x2="114.529" y1="3.683" y2="112.592" gradientUnits="userSpaceOnUse"><stop offset=".09" stop-color="#ffab0c"/><stop offset=".31" stop-color="#ff5538"/><stop offset=".46" stop-color="#e9405d"/><stop offset=".75" stop-color="#d266da"/><stop offset=".89" stop-color="#d584ef"/></linearGradient><clipPath id="a"><path fill="#fff" d="M0 0h100v100H0z"/></clipPath></defs></svg>