<svg xmlns="http://www.w3.org/2000/svg" fill="none" viewBox="0 0 100 100"><g clip-path="url(#a)"><path fill="url(#b)" d="M49.387 63.57a19.4 19.4 0 0 1-4.125.422H33.054a32.9 32.9 0 0 1-16.967-4.717 34 34 0 0 1-2.566-1.692A33.47 33.47 0 0 1 2.933 44.442a42 42 0 0 1-1.141-2.917A33.4 33.4 0 0 1 .096 31.017V4.167h13.529v26.85c0 .637.017 1.241.104 1.845.067.892.2 1.73.417 2.567a19.5 19.5 0 0 0 9.262 12.438 19.45 19.45 0 0 0 9.567 2.566h.1a16.846 16.846 0 0 1 16.329 13.138z"/><path fill="#1e8cfe" d="M13.525 60.656v33.496H0v-51c.438 1.625 1.142 3.475 1.508 4.196a35.3 35.3 0 0 0 12.017 13.325z"/><path fill="url(#c)" d="M65.933 67.297V94.15H52.408V67.293q.015-.935-.1-1.863a19.51 19.51 0 0 0-9.667-15 19.6 19.6 0 0 0-9.583-2.567h-.1a16.86 16.86 0 0 1-16.33-13.108 19.7 19.7 0 0 1 4.13-.417h12.2a32.9 32.9 0 0 1 16.967 4.713 29 29 0 0 1 2.566 1.696 33.16 33.16 0 0 1 10.571 13.141 32.7 32.7 0 0 1 2.871 13.409"/><path fill="#0418ff" d="M82.934 16.116c0-2.3.837-4.28 2.5-5.942 1.662-1.679 3.675-2.5 6.008-2.5s4.396.838 6.058 2.5c1.68 1.625 2.5 3.642 2.5 6.009 0 2.366-.837 4.395-2.5 6.058-1.625 1.675-3.625 2.5-6.008 2.5a8.25 8.25 0 0 1-6.058-2.5c-1.68-1.68-2.5-3.709-2.5-6.125m15.541 21.279v56.75h-14V37.383h14z"/><path fill="#1e8cfe" d="M52.408 37.663V4.166h13.525v51a26.6 26.6 0 0 0-1.508-4.196 35.3 35.3 0 0 0-12.017-13.325z"/></g><defs><linearGradient id="b" x1=".1" x2="49.387" y1="34.071" y2="34.071" gradientUnits="userSpaceOnUse"><stop stop-color="#0418ff"/><stop offset="1" stop-color="#1e8cfe"/></linearGradient><linearGradient id="c" x1="65.933" x2="16.629" y1="64.243" y2="64.243" gradientUnits="userSpaceOnUse"><stop stop-color="#0418ff"/><stop offset="1" stop-color="#1e8cfe"/></linearGradient><clipPath id="a"><path fill="#fff" d="M0 0h100v100H0z"/></clipPath></defs></svg>