<svg xmlns="http://www.w3.org/2000/svg" fill="none" viewBox="0 0 100 100"><g fill="#ff3c00" clip-path="url(#a)"><path d="M41.765 40.893C53.345 34.46 69.205 25.648 69.205 0H50c0 14.35-6.987 18.231-17.562 24.106C20.86 30.542 5 39.351 5 65.001h19.204c0-14.351 6.986-18.232 17.561-24.108M75.004 35c0 14.35-6.987 18.231-17.562 24.106C45.865 65.539 30.002 74.35 30.002 100h19.204c0-14.35 6.986-18.232 17.561-24.107C78.347 69.46 94.206 60.65 94.206 35z"/></g><defs><clipPath id="a"><path fill="#fff" d="M0 0h100v100H0z"/></clipPath></defs></svg>