<svg xmlns="http://www.w3.org/2000/svg" fill="none" viewBox="0 0 100 100"><g clip-path="url(#a)"><path fill="#0055e9" d="M50 100c27.614 0 50-22.386 50-50S77.614 0 50 0 0 22.386 0 50s22.386 50 50 50"/><path fill="#a8dff5" fill-rule="evenodd" d="M50 0c2.158 0 4.283.138 6.367.4A25.784 25.784 0 0 1 50.5 51.167l-.5.004c-12.458 0-21.842 9.079-23.142 21.292-.929 8.691 1.471 18.383 9.342 25.608C15.3 92.083 0 72.829 0 50 0 22.388 22.388 0 50 0" clip-rule="evenodd"/><path fill="#0055e9" fill-rule="evenodd" d="M22.025 20.834a10.16 10.16 0 0 1 2.842 14.084C8.358 59.776 11.47 79.68 35.9 97.984 15.15 91.901 0 72.718 0 50.001a49.8 49.8 0 0 1 4.542-20.858 107 107 0 0 1 3.404-5.463 10.16 10.16 0 0 1 14.079-2.846" clip-rule="evenodd"/><path fill="#00bcff" fill-rule="evenodd" d="M54.083.167c1.134.087 2.263.22 3.375.387 2.43.442 4.654 1.059 6.409 1.834C91.525 14.584 97.492 44.27 71.15 67.563a17.19 17.19 0 0 1-24.258-1.492c-6.292-7.108-5.417-17.433 1.487-24.258 3.575-3.534 12.95-5.096 16.854-10.171C70.471 24.834 74.075 6.604 54.721.367z" clip-rule="evenodd"/><path fill="#ececee" fill-rule="evenodd" d="M56.367.4A25.78 25.78 0 0 1 50 51.171a24 24 0 0 0-7.125 1.063c.613-3.771 2.48-7.434 5.504-10.421 3.575-3.534 12.95-5.096 16.855-10.171 5.291-6.88 8.916-25.433-11.15-31.475q1.15.088 2.283.233" clip-rule="evenodd"/></g><defs><clipPath id="a"><path fill="#fff" d="M0 0h100v100H0z"/></clipPath></defs></svg>