<svg xmlns="http://www.w3.org/2000/svg" fill="none" viewBox="0 0 100 100"><g clip-path="url(#a)"><path fill="#000" d="M98.762 67.03v3.46l-.048 2.937a42 42 0 0 1-.571 6.334A20.27 20.27 0 0 1 87.159 94.65a21.8 21.8 0 0 1-6.08 2c-2.127.364-4.285.491-6.412.555-4.127.048-5.286.048-6.46.048H30.555c-4.477 0-5.46-.016-6.445-.048-2.143-.064-4.302-.19-6.413-.555a21.8 21.8 0 0 1-6.11-2A20.48 20.48 0 0 1 .634 79.745a42 42 0 0 1-.572-6.35 129 129 0 0 1-.031-2.904L0 67.03V28.744l.048-2.92c.063-2.112.19-4.239.571-6.35A20.25 20.25 0 0 1 11.587 4.602a21.8 21.8 0 0 1 6.096-1.984c2.11-.365 4.27-.492 6.412-.556C28.222 2 29.397 2 30.555 2h36.699-14.206 15.158c4.492 0 5.477.016 6.46.047 2.128.064 4.286.19 6.413.556 2.143.38 4.143 1.016 6.096 2A20.46 20.46 0 0 1 98.143 19.49c.38 2.095.508 4.222.571 6.349.032.952.032 1.936.048 2.905z"/><mask id="b" width="99" height="97" x="0" y="1" maskUnits="userSpaceOnUse" style="mask-type:luminance"><path fill="#fff" d="M98.762 67.03v3.46l-.048 2.937a42 42 0 0 1-.571 6.334A20.27 20.27 0 0 1 87.159 94.65a21.8 21.8 0 0 1-6.08 2c-2.127.364-4.285.491-6.412.555-4.127.048-5.286.048-6.46.048H30.555c-4.477 0-5.46-.016-6.445-.048-2.143-.064-4.302-.19-6.413-.555a21.8 21.8 0 0 1-6.11-2A20.48 20.48 0 0 1 .634 79.745a42 42 0 0 1-.572-6.35 129 129 0 0 1-.031-2.904L0 67.03V28.744l.048-2.92c.063-2.112.19-4.239.571-6.35A20.25 20.25 0 0 1 11.587 4.602a21.8 21.8 0 0 1 6.096-1.984c2.11-.365 4.27-.492 6.412-.556C28.222 2 29.397 2 30.555 2h36.699-14.206 15.158c4.492 0 5.477.016 6.46.047 2.128.064 4.286.19 6.413.556 2.143.38 4.143 1.016 6.096 2A20.46 20.46 0 0 1 98.143 19.49c.38 2.095.508 4.222.571 6.349.032.952.032 1.936.048 2.905z"/></mask><g mask="url(#b)"><path fill="url(#c)" d="m96.143 85.792-4.937-2.54 4.921 2.54zm-3.778 5.127 3.905 3.969-3.889-4zM81.08 96.65l-.968-5.476.953 5.477zm-6.412.556.063 5.556h.08l-.16-5.556zm-44.111.032-.016 5.555h.016zm-24.16-6.334-3.904 3.969 3.905-3.984zM.065 73.395l5.555-.142-5.555.158zm-.032-44.65 5.555.047v-.016L0 28.746zm.603-9.27-5.476-.984 5.476 1zM6.413 8.332l3.905 3.952-3.905-3.968zM24.11 2.046l-.063-5.555h-.096zM67.254 2v5.555-11.11zM53.048 2v-5.556 11.11zm15.158 0 .016-5.556V2zm12.873.603-.968 5.476.953-5.476zm11.286 5.73-3.905 3.936 3.921-3.92zm3.778 5.127L91.206 16l4.921-2.54zm2.571 12.38-5.555.144 5.555-.159zm-5.508 41.19v3.429l11.111.063V67.03zm0 3.429c0 .952-.016 1.873-.047 2.794l11.111.317.047-3.047zm-.047 2.794c-.048 2.016-.159 3.825-.476 5.492l10.936 2c.46-2.508.587-4.984.635-7.19zm-.476 5.508a15.6 15.6 0 0 1-1.477 4.476l9.873 5.08c1.27-2.477 2.064-4.985 2.54-7.572zm-1.477 4.476a14.7 14.7 0 0 1-2.746 3.73l7.81 7.889a25.6 25.6 0 0 0 4.809-6.54zm-2.746 3.73a14.4 14.4 0 0 1-3.777 2.698l4.984 9.937a26 26 0 0 0 6.603-4.746zm-3.793 2.698c-1.397.73-2.873 1.19-4.556 1.492l1.937 10.953a27.3 27.3 0 0 0 7.619-2.508l-5-9.92zm-4.556 1.492c-1.714.318-3.555.429-5.603.477l.302 11.111c2.222-.064 4.714-.191 7.238-.635zm-5.524.477c-4.095.047-5.238.047-6.38.047v11.111c1.19 0 2.38 0 6.507-.047zm-6.38.047h-24.24v11.111h24.254v-11.11zm-24.255 0H30.556v11.111h13.396zm-13.38 0c-4.508 0-5.413-.016-6.318-.047l-.302 11.111c1.064.031 2.127.031 6.588.047zm-6.318-.047c-2.048-.048-3.889-.16-5.587-.477l-1.953 10.953c2.54.444 5.016.571 7.238.635l.318-11.111zm-5.587-.477a16.2 16.2 0 0 1-4.572-1.476l-5 9.92a27.3 27.3 0 0 0 7.62 2.493zm-4.572-1.476a14.9 14.9 0 0 1-3.793-2.714l-7.81 7.889a26 26 0 0 0 6.603 4.762zm-3.793-2.714a14.8 14.8 0 0 1-2.746-3.73l-9.873 5.08a25.9 25.9 0 0 0 4.81 6.539zm-2.73-3.73a15.7 15.7 0 0 1-1.493-4.492l-10.936 2c.476 2.587 1.27 5.095 2.54 7.571zm-1.493-4.492c-.301-1.667-.412-3.46-.476-5.492l-11.11.317c.063 2.19.205 4.667.65 7.175l10.952-2zm-.476-5.492-.032-2.794-11.11.063c0 1 0 2.016.031 3.032l11.111-.317zm-.032-2.81-.015-3.413H-5.556v3.492l11.112-.079zm-.015-3.413V55.554H-5.556V67.03zm0-11.476V43.681H-5.556v11.873zm0-11.873V32.205H-5.556v11.476zm0-11.476v-3.413l-11.112-.095v3.508zm0-3.428c0-.953.031-1.874.047-2.794l-11.11-.318-.033 3.048 11.111.063zm.047-2.794c.064-2.032.175-3.826.476-5.508L-4.857 18.49a47 47 0 0 0-.635 7.19l11.111.302zm.476-5.492a15.7 15.7 0 0 1 1.492-4.492l-9.888-5.08c-1.27 2.476-2.064 4.984-2.54 7.572l10.952 2zm1.492-4.492a14.7 14.7 0 0 1 2.73-3.715l-7.809-7.92a25.8 25.8 0 0 0-4.81 6.555zm2.73-3.73c1.112-1.096 2.382-2 3.794-2.699l-5-9.952A26 26 0 0 0 2.492 4.38zm3.794-2.699c1.413-.73 2.873-1.19 4.572-1.492L16.714-2.874c-2.603.476-5.127 1.254-7.619 2.508l5 9.92zm4.572-1.492c1.698-.317 3.54-.429 5.587-.476L23.952-3.51c-2.222.063-4.714.19-7.238.635zm5.508-.476c4.095-.048 5.238-.048 6.38-.048v-11.11c-1.19 0-2.38 0-6.507.047zm6.38-.048h13.397v-11.11H30.556zm13.397 0h23.302v-11.11H43.968v11.11zm23.302-11.11H53.048v11.11h14.206zM53.048 7.553h15.158v-11.11H53.048zm15.142 0c4.508 0 5.413.016 6.318.048l.317-11.111c-1.079-.032-2.142-.032-6.603-.048zm6.318.048c2.063.047 3.889.159 5.603.476l1.937-10.952a49 49 0 0 0-7.239-.635zm5.603.476c1.683.302 3.159.762 4.556 1.476l5-9.92a27.3 27.3 0 0 0-7.62-2.492zm4.572 1.476a14.9 14.9 0 0 1 3.777 2.714l7.81-7.888a26 26 0 0 0-6.603-4.762zm3.777 2.73A14.6 14.6 0 0 1 91.206 16l9.873-5.08a25.8 25.8 0 0 0-4.81-6.555zM91.206 16c.715 1.38 1.175 2.825 1.477 4.476l10.936-1.984c-.476-2.588-1.27-5.095-2.54-7.572zm1.477 4.476c.317 1.682.428 3.492.476 5.508l11.111-.318c-.064-2.19-.191-4.666-.651-7.174zm.476 5.508c.031.92.031 1.841.047 2.793l11.111-.063-.047-3.032L93.159 26zm.047 2.793v3.429h11.111v-3.492zm0 3.429v11.476h11.111V32.205zm0 11.476v11.873h11.111V43.681zm0 11.873V67.03h11.111V55.554z"/></g><path fill="#fff" fill-rule="evenodd" d="M38.857 43c0-.43.35-.794.794-.794h14.603c.444 0 .794.365.794.793v1.588a.794.794 0 0 1-.794.793H39.651a.794.794 0 0 1-.794-.793zm-5.444-8.953a.475.475 0 0 0-.111-.778l-5.667-3.016a.476.476 0 0 1-.222-.603l3.904-9.714c.175-.46-.396-.857-.761-.524L18.254 30.523a.477.477 0 0 0 .048.762l5.46 3.698a.476.476 0 0 1 .174.572l-3.555 9.063c-.19.477.38.858.762.524l12.27-11.11z" clip-rule="evenodd"/></g><defs><linearGradient id="c" x1="51.143" x2="51.143" y1="1.999" y2="102.522" gradientUnits="userSpaceOnUse"><stop stop-color="#f743b6"/><stop offset="1" stop-color="#fcc043"/></linearGradient><clipPath id="a"><path fill="#fff" d="M0 1.999h100v95.238H0z"/></clipPath></defs></svg>