<svg xmlns="http://www.w3.org/2000/svg" fill="none" viewBox="0 0 100 100"><g clip-path="url(#a)"><path fill="#594ce9" d="M.804 81.262a10.1 10.1 0 0 0-.775 3.854c0 5.487 4.634 10.492 12.292 14.32a5.57 5.57 0 0 0 7.658-3.074l8.538-20.542a66 66 0 0 0 3.525-11.05C16.229 67.424 4.308 73.487 1.008 80.903l-.133.317zm31.209-46.03a66.6 66.6 0 0 0-3.525-11.053l-8.53-20.542A5.583 5.583 0 0 0 12.292.562C4.633 4.39 0 9.399 0 14.887c0 1.32.267 2.629.775 3.85v.042l.133.32c3.375 7.417 15.288 13.475 31.105 16.134M87.704.567C95.363 4.392 99.996 9.4 99.996 14.884a10.2 10.2 0 0 1-.817 3.854l-.112.262c-3.271 7.467-15.221 13.559-31.084 16.234a66.4 66.4 0 0 1 3.525-11.054l8.534-20.542A5.57 5.57 0 0 1 87.704.562zM68.03 64.77c.838 3.775 2 7.471 3.488 11.042l8.533 20.55a5.574 5.574 0 0 0 7.658 3.075c7.663-3.834 12.296-8.833 12.296-14.321a10.2 10.2 0 0 0-.775-3.854l-.112-.258C95.859 73.537 83.863 67.437 68.03 64.77m-.537-25.166c11.229-1.73 20.562-5.096 27-9.492l-1.825 4.387a40.65 40.65 0 0 0 0 30.988l1.812 4.367c-6.446-4.396-15.779-7.73-26.996-9.48l-.291-.041A113 113 0 0 0 50 59.049a113 113 0 0 0-17.142 1.28l-.295.041c-11.221 1.721-20.555 5.092-27 9.488l1.82-4.375a40.65 40.65 0 0 0 0-30.988l-1.82-4.383c6.416 4.417 15.75 7.762 26.97 9.491l.296.042a116.7 116.7 0 0 0 34.359 0l.295-.042z"/></g><defs><clipPath id="a"><path fill="#fff" d="M0 0h100v100H0z"/></clipPath></defs></svg>