<svg xmlns="http://www.w3.org/2000/svg" fill="none" viewBox="0 0 100 100"><g clip-path="url(#a)"><path fill="#2a80e2" d="M86.304 27.73c-1.725-5.942-7.283-10.3-13.987-10.3a15.1 15.1 0 0 0-7.084 1.762C60.917 12.692 53.35 8.333 44.73 8.333c-12.354 0-22.604 9-24.133 20.6C8.908 30.792 0 40.533 0 52.417 0 65.5 10.917 76.083 24.425 76.083a24.8 24.8 0 0 0 17.242-6.962c1.15-1.113 2.204-2.321 3.066-3.709a21 21 0 0 1-2.97 3.521 37.5 37.5 0 0 0-7.375 22.459v.275a69.5 69.5 0 0 1 36.108-11.321h.192c12.645 0 23.47-7.796 27.587-18.746A27.5 27.5 0 0 0 100 51.854c0-10.112-5.458-19.02-13.696-24.125M29.025 53.62a3.483 3.483 0 0 1-3.546 3.434 3.375 3.375 0 0 1-3.354-3.433v-9.096a3.376 3.376 0 0 1 3.354-3.433c1.917 0 3.542 1.579 3.542 3.433zm12.546 4.455a3.585 3.585 0 0 1-3.642 3.525 3.583 3.583 0 0 1-3.637-3.525V37.658a3.583 3.583 0 0 1 3.637-3.525 3.584 3.584 0 0 1 3.642 3.525zm12.933-4.363c0 1.855-1.725 3.434-3.642 3.434s-3.541-1.58-3.541-3.434v-9.279c0-1.858 1.529-3.433 3.541-3.433 1.917 0 3.638 1.575 3.638 3.433v9.28zm13.121 4.455a3.58 3.58 0 0 1-3.642 3.525 3.584 3.584 0 0 1-3.637-3.525V37.75a3.583 3.583 0 0 1 3.637-3.525 3.583 3.583 0 0 1 3.642 3.525zm12.833-4.546a3.48 3.48 0 0 1-3.541 3.433 3.375 3.375 0 0 1-3.355-3.433v-9.096a3.376 3.376 0 0 1 3.355-3.433c1.916 0 3.541 1.579 3.541 3.433z"/></g><defs><clipPath id="a"><path fill="#fff" d="M0 0h100v100H0z"/></clipPath></defs></svg>