<svg xmlns="http://www.w3.org/2000/svg" fill="none" viewBox="0 0 100 100"><path fill="#4334f5" d="M40.359 49.9q-.008-10.65-.026-21.3a1.47 1.47 0 0 0-1.479-1.458H9.496a1.167 1.167 0 0 1-1.162-1.167v-16.7a.95.95 0 0 1 .27-.667.92.92 0 0 1 .655-.275h48.604A1.14 1.14 0 0 1 59 9.425c.584 13.087.096 26.233.108 40.675l.034 21.292a1.47 1.47 0 0 0 1.47 1.466h29.359a1.167 1.167 0 0 1 1.162 1.167v16.704a.95.95 0 0 1-.57.867.9.9 0 0 1-.355.07H41.605a1.137 1.137 0 0 1-1.137-1.09c-.584-13.088-.084-26.234-.108-40.676M90.08 8.504l-16.233-.083a1.175 1.175 0 0 0-1.18 1.167l-.082 16.258a1.167 1.167 0 0 0 1.166 1.179l16.23.083a1.174 1.174 0 0 0 1.183-1.166l.083-16.254a1.174 1.174 0 0 0-1.167-1.184M25.692 72.992H9.625a1.246 1.246 0 0 0-1.246 1.245V90.3c0 .692.559 1.25 1.25 1.25h16.063a1.245 1.245 0 0 0 1.25-1.25V74.238a1.25 1.25 0 0 0-.771-1.156 1.2 1.2 0 0 0-.48-.09"/></svg>