<svg xmlns="http://www.w3.org/2000/svg" fill="none" viewBox="0 0 100 100"><path fill="#fff" fill-rule="evenodd" d="M34.754 100c-2.208 0-3.504-1.283-3.504-3.433v-1.13c0-2.141 1.033-3.145 2.95-3.858l4.27-1.429c2.95-1.13 3.976-2.43 3.976-5.43V15.28c0-3-1.025-4.288-3.975-5.43l-4.304-1.433c-1.917-.713-2.921-1.7-2.921-3.859V3.433C31.25 1.288 32.575 0 34.783 0h29.034c2.212 0 3.541 1.288 3.541 3.433v1.13c0 2.141-1.037 3.145-2.954 3.858l-4.296 1.417c-3.095 1.133-4.133 2.429-4.133 5.429V84.7c0 3 1.038 4.283 4.133 5.43l4.267 1.424c1.917.717 2.95 1.7 2.95 3.858v1.134c0 2.146-1.325 3.433-3.542 3.433L34.758 100z" clip-rule="evenodd"/></svg>