<svg xmlns="http://www.w3.org/2000/svg" fill="none" viewBox="0 0 100 100"><path fill="#858599" fill-opacity=".5" d="M23.084 81.925s9.333-1.041 9.854-1.208c.52-.175 10.208.342 10.208.342l6.221 1.558 5.708 2.075 1.555.52 8.47-3.116 10.209-1.554 6.912.17 5.359.692 2.25.692-.175 9.342-4.667-1.213-8.996-.691-6.225.516-5.358 1.213-4.838 1.558-3.458 1.383-7.267-2.766-8.816-1.734H29.825l-6.741 1.213z"/><path fill="#858599" d="M56.084 95.833c-15.721-8.658-32.417-3.467-32.584-3.412l-1.887.6V81.104l1-.325c.725-.233 18.017-5.642 34.858 3.629l-1.387 2.53C42.567 79.495 28.334 82.29 24.5 83.25v5.916c5.013-1.191 19.146-3.475 32.971 4.138z"/><path fill="#858599" d="m55.888 95.832-1.391-2.529c13.829-7.612 27.958-5.329 32.975-4.137v-5.913c-3.834-.962-18.071-3.75-31.584 3.688l-1.391-2.53c16.841-9.27 34.133-3.862 34.858-3.624l1 .32v11.925l-1.883-.612c-.167-.054-16.859-5.242-32.584 3.412"/><path fill="#858599" fill-opacity=".5" d="M73.984 68.65a3.77 3.77 0 0 0-1.1-2.712 3.43 3.43 0 0 0-2.633-1.062 4.15 4.15 0 0 0-2.684 1.22c-.729.884-1.083 1.804-1.079 2.855a3.64 3.64 0 0 0 1.067 2.633q1.095 1.168 2.683 1.062c1.025 0 1.912-.416 2.638-1.22a4.04 4.04 0 0 0 1.116-2.78zM44.87 71.43a3.87 3.87 0 0 0 1.1-2.742 4.14 4.14 0 0 0-1.091-2.83 3.78 3.78 0 0 0-2.638-.945 4.54 4.54 0 0 0-2.683 1.142 4.2 4.2 0 0 0-1.104 2.854c0 1.041.37 1.937 1.1 2.679.708.78 1.596 1.13 2.65 1.063 1.083-.034 1.962-.417 2.662-1.221z"/><path fill="#858599" d="M55.834 81.874c-2.888 0-5.725-.242-7.896-.8-5.846-1.5-10.5-4.209-14.22-8.275-3.872-4.238-4.118-8.317-4.376-12.638-.033-.554-.066-1.112-.108-1.687-.346-4.78-2.609-12.254-2.63-12.325l-.178-.588.358-.496a29.03 29.03 0 0 1 12.55-9.895c4.7-1.959 10.292-2.984 17.104-3.134 11.337-.662 23.7 4.054 29.4 11.217l.358.454-2.583 12.042c-.025.645-.217 4.033-1.15 10.958-1.096 8.113-11.117 12.754-16.262 14.07-2.617.676-6.542 1.097-10.367 1.097M29.125 46.028c.559 1.916 2.242 7.967 2.555 12.267.041.579.075 1.154.108 1.716.25 4.208.454 7.538 3.733 11.133 3.396 3.709 7.654 6.184 13.021 7.559 4.55 1.166 12.754.808 17.046-.296 3.696-.95 13.5-4.958 14.45-12.037 1-7.442 1.133-10.805 1.138-10.834v-.108l2.383-11.1c-3.75-7.2-5.971-8.675-10.742-10.475-5.025-1.896-11.154.312-16.262.616h-.042c-13.025.284-22.575-3.895-27.392 11.555z"/><path fill="#858599" d="M81.437 45.257c.93 2.387 1.321 3.583 2.192 5.775 0 0 2.3-3.696 3.03-6.342.728-2.67.282-6.075-.293-9.254-1.433-5.342-2.55-5.754-6.862-8.917a36 36 0 0 0-6.52-3.5 51.3 51.3 0 0 0-15.96-3.333 50.7 50.7 0 0 0-16.008 2.375 34.4 34.4 0 0 0-6.675 3.104c-4.479 2.896-7.595 6.975-9.333 12.217-.467 1.97-1.208 3.862-1.02 5.687.833 8.375 6.3 12.054 5.924 10.038-.487-2.604-.175-4.142.496-6.633 1.267-4.709 4.27-8.188 9.013-10.405h.016c.921-.258 5.6-2.916 11.809.259 1.65.708 4.533 2.62 5.975 2.575 1.445-.042 3.525-1.438 5.041-2.384 2.846-1.783 5.542-2.391 9.1-1.262 5.18 1.625 8.354 5.304 10.075 10"/><path fill="#858599" fill-opacity=".5" d="m5.071 41.083 3.892 1.142 4.462-.23 3.209-2.175 3.437-3.091 2.517-3.438 3.208-3.32 3.088-1.947 4.233-.916-2.863 5.037-2.404 2.4-5.037 6.984-2.288 3.437-2.633 1.834-3.78 2.516s-3.32.688-3.662.8c-.337.117-3.087.575-3.087.575l-2.404-.117-1.834-.57 1.717-3.438.233-2.517v-2.974z"/><path fill="#858599" fill-opacity=".5" d="m15.03 21.285-.346 2.625-.917 1.837-1.141 1.717-2.867 1.717 3.437 1.717 3.78 1.487 3.891.804 1.717.117 4.125-2.867 4.346-3.892-1.488-.458-5.375-.57-4.012-1.492-2.863-1.484-2.292-1.258z"/><path fill="#858599" d="M6.338 51.663c-1.209 0-2.484-.075-3.821-.212L0 51.159l1.242-.791.662-.721c.092-.138.355-.6.792-1.571v-.008c.708-1.521.95-4.063.738-7.555l-.15-2.35 1.812 1.5c1.892 1.567 4.267 1.942 7.25 1.134 2.667-.759 5.57-3.25 8.617-7.392 2.804-4.033 6.833-6.767 12-8.133l.483-.13 3.263 2.542-2.934-.208a9 9 0 0 0-.796.858l-.058.071-.075.067c-1.683 2.991-4.092 5.941-6.5 9.17l-.033.059c-.371.65-.75 1.32-1.163 1.987v.038l-.133.212c-2.467 4.009-5.18 7.013-8.063 8.938-2.645 1.854-6.208 2.787-10.616 2.787M4.254 49.56c4.975.321 8.85-.466 11.542-2.362l.02-.013c2.61-1.737 5.097-4.491 7.388-8.183q.06-.169.171-.308c.409-.663.792-1.338 1.167-2 1.633-3.125 3.508-5.909 5.596-8.288-3.117 1.375-5.588 3.417-7.5 6.17l-.017.026c-3.367 4.587-6.55 7.258-9.72 8.158-2.805.758-5.263.625-7.35-.396.04 2.875-.284 5.03-.988 6.554-.109.242-.209.45-.3.638h-.009z"/><path fill="#858599" d="M6.57 51.66c-1.208 0-2.482-.074-3.82-.212l.208-2.025c5.713.604 10.105-.146 13.067-2.229l.025-.012c2.608-1.738 5.092-4.492 7.383-8.18.067-.186.18-.353.33-.483l1.333 1.542a.92.92 0 0 0 .3-.588l-.021.242-.125.217c-2.467 4.008-5.18 7.012-8.062 8.937-2.65 1.854-6.209 2.792-10.617 2.792m17.393-19.508q-.648.045-1.296.067c-3.43.12-7.084-.833-10.896-2.842 3.3-2.133 4.22-4.566 4.092-6.754q1.18.938 2.462 1.638c5.604 3.158 11.525 3.658 21.646.825l-.688-1.917c-9.616 2.654-14.825 2.217-19.97-.687a15.9 15.9 0 0 1-4.03-3.163l-.137-.15-2.084-2.258.392 2.904c.058.242 1.25 5.904-4.208 8.667l-1.658.837 1.595.95c4.471 2.658 8.809 4 12.892 4zm25.745 31.221a1.69 1.69 0 0 1-1.525-1.054c-1.358-3.104-2.425-4.396-4.037-6.354-1.625-1.975-5.096-5.32-5.667-5.804-.767-.65-.983-1.534-.525-2.146.23-.3.913-.913 2.317.02 2.846 1.884 9.158 7.55 10.867 12.1.625 1.655 0 2.78-.838 3.122a1.5 1.5 0 0 1-.596.116zm12.28.084a1.55 1.55 0 0 1-.609-.125c-.837-.355-1.441-1.488-.8-3.134 1.767-4.525 8.154-10.112 11.021-11.958 1.417-.917 2.092-.3 2.317.008.454.613.225 1.492-.546 2.134-.58.479-4.092 3.77-5.746 5.733-1.633 1.937-2.713 3.217-4.117 6.304a1.68 1.68 0 0 1-1.516 1.042v-.009z"/><path fill="#858599" fill-opacity=".5" d="M68.259 13.818q.065-3.54-3.446-6.092c-2.375-1.667-5.217-2.508-8.52-2.533-3.3-.025-6.13.787-8.463 2.445-2.346 1.671-3.542 3.684-3.571 6.021.008.734.07 1.4.167 2.025 8.75-2.816 16.587-2.583 23.5.696.187-.875.3-1.72.333-2.562"/><path fill="#858599" d="m31.667 61.318-.042-.1a8 8 0 0 1-.3-.8l-.245-.788-1.617.054-.125 1.358c.008.055.037.184.067.417v.046c.012.083.016.15.033.217a2.31 2.31 0 0 1-.683 1.795c-.467.5-1.075.717-1.875.684-1-.042-1.334-.438-1.492-.733-.438-.792-.467-1.213-.446-1.4.063-.513.167-1.059.32-1.605.23-.858.055-1.85-.524-2.95l-.596-1.133a7.4 7.4 0 0 1-.583-1.6 4.06 4.06 0 0 1 .091-1.908 2.67 2.67 0 0 1 1.1-1.559 2.9 2.9 0 0 1 2.067-.416l.063.008h.062c.8 0 1.454.083 1.954.212a9.2 9.2 0 0 1-.112-2.416 6.3 6.3 0 0 0-1.584-.446h-.033l-.396-.033a5.7 5.7 0 0 0-3.441.787c-1.134.667-1.9 1.642-2.267 2.917a7.05 7.05 0 0 0-.125 3.396c.033.17.07.375.137.566.18.563.471 1.188.875 1.859.617 1.012.805 1.346.855 1.458l.02.038c.075.137.092.35.042.624l-.02.096q-.067.36-.142.717c-.48 1.242-.53 2.392-.15 3.396A4.02 4.02 0 0 0 24.58 66.4c.558.275 1.2.45 1.916.52.392.042.8.042 1.225.021a3.99 3.99 0 0 0 3.267-1.891 4.7 4.7 0 0 0 .708-3.625l-.016-.108zm59.688-11.071a4.85 4.85 0 0 0-2.317-2.904 5.53 5.53 0 0 0-3.325-.73l-.13.013-.387.046h-.033a6.5 6.5 0 0 0-2.2.82c.09.782.068 1.572-.067 2.346l.417-.166c.533-.221 1.258-.396 2.217-.542l.054-.008a2.36 2.36 0 0 1 1.975.429 3.6 3.6 0 0 1 1.333 1.783c.208.683.238 1.271.092 1.792a11.5 11.5 0 0 1-.6 1.708 38 38 0 0 1-.796 1.596 3.8 3.8 0 0 0-.425 2.375c.1.733.208 1.342.325 1.858a2.53 2.53 0 0 1-.15 1.371l-.013.025c-.154.488-.979.75-1.458.867-1.096.262-1.587-.138-1.88-.5a3.25 3.25 0 0 1-.72-2.125l.017-.221q.018-.196.058-.387l-.033-1.405-1.796.042-.192.77q-.102.403-.266.784l-.046.113-.021.12c-.208 1.28.054 2.492.78 3.617l.016.025c.791 1.142 1.929 1.775 3.279 1.821.362.02.708.008 1.042-.017.8-.075 1.512-.287 2.12-.625a4.13 4.13 0 0 0 1.913-2.362c.354-1.05.283-2.196-.208-3.4l-.125-.713-.009-.054a1.27 1.27 0 0 1 .063-.75q.282-.675.754-1.562c.408-.721.675-1.334.817-1.85q.105-.309.137-.634a7.3 7.3 0 0 0-.22-3.358zm-22.23-34.192c.138-.77.221-1.496.25-2.22.05-2.7-1.254-5.038-3.875-6.947-2.537-1.779-5.6-2.691-9.1-2.72-3.512-.034-6.562.862-9.066 2.637-2.617 1.875-3.963 4.175-4 6.846v.025c.008.533.041 1.066.108 1.625a1.6 1.6 0 0 0-.396.958v.042c0 .9.134 1.804.404 2.679l.005.025c.375 1.104 1.02 2.158 1.916 3.125l.263.283 2.362.263c2.021 1.175 4.717 1.804 8.034 1.862h.429c2.446 0 4.583-.3 6.362-.887l.046-.017a14.5 14.5 0 0 0 1.938-.933c1.883.179 3.295-.75 4.02-2.638l.18-.191-.009-.271c.28-.854.771-2.533.13-3.546M48.513 8.459C50.655 6.94 53.3 6.18 56.38 6.201c3.083.025 5.75.817 7.929 2.342 2.07 1.504 3.062 3.225 3.029 5.229-.017.37-.042.75-.096 1.141a28.7 28.7 0 0 0-11.187-2.196c-3.4 0-6.959.542-10.659 1.625a17 17 0 0 1-.025-.687c.025-2.008 1.054-3.708 3.142-5.196m18.804 9.554-.687 1.488s-.896 1.296-1.875 1.133l-.384-.062-.325.204q-.902.559-1.891.942c-1.655.541-3.709.8-6.092.766-2.95-.058-5.317-.583-7.033-1.583l-.155-.088-.2-.125-2.045-.225c-.392-.458-.942-1.416-.942-1.416l-.563-1.634-.033-.85c8.283-2.608 15.792-2.391 22.313.646.008.121-.088.804-.088.804m.613 1.517v-.017l.012.017z"/></svg>