<svg xmlns="http://www.w3.org/2000/svg" fill="none" viewBox="0 0 100 100"><g clip-path="url(#a)"><path fill="#dc395f" d="M90.935 0H9.065A9.065 9.065 0 0 0 0 9.065v81.87A9.065 9.065 0 0 0 9.065 100h81.87A9.065 9.065 0 0 0 100 90.935V9.065A9.065 9.065 0 0 0 90.935 0"/><path fill="#fff" d="M33.42 31.463c3.324 0 6.109-2.605 6.109-6.02 0-3.413-2.785-6.018-6.11-6.018-3.323 0-6.107 2.605-6.107 6.018 0 3.414 2.784 6.02 6.108 6.02M20.753 63.697a20.7 20.7 0 0 0-.538 4.522c0 5.302 2.874 8.82 8.983 8.82 5.066 0 9.174-3.008 12.131-7.866l-1.806 7.247h10.061l5.75-23.062c1.438-5.84 4.222-8.87 8.445-8.87 3.324 0 5.39 2.067 5.39 5.48 0 .988-.09 2.065-.45 3.234l-2.964 10.6a16 16 0 0 0-.628 4.492c0 5.032 2.963 8.713 9.162 8.713 5.3 0 9.522-3.412 11.858-11.587l-3.952-1.526c-1.977 5.477-3.684 6.467-5.031 6.467-1.348 0-2.067-.898-2.067-2.693 0-.809.18-1.706.45-2.787l2.875-10.327c.718-2.425.988-4.575.988-6.551 0-7.726-4.672-11.758-10.331-11.758-5.3 0-10.69 4.78-13.385 9.813l1.975-9.032H42.31l-2.157 7.955h7.188L42.914 62.7c-3.476 7.725-9.86 7.85-10.66 7.672-1.316-.297-2.158-.797-2.158-2.506 0-.987.18-2.403.629-4.112l6.738-26.728H20.395l-2.157 7.955h7.097z"/></g><defs><clipPath id="a"><path fill="#fff" d="M0 0h100v100H0z"/></clipPath></defs></svg>