<svg xmlns="http://www.w3.org/2000/svg" fill="none" viewBox="0 0 100 100"><mask id="a" width="97" height="93" x="2" y="0" maskUnits="userSpaceOnUse" style="mask-type:alpha"><path fill="#ffb000" d="M20.981 4.685C36.461 26.437 61.437 38.39 86.274 33.77c1.76-.326 3.666-.907 5.65-1.675 3.768-1.45 8.706 4.458 5.845 7.31-1.891 1.892-3.705 3.62-5.325 5.054a225.3 225.3 0 0 1-36.991 26.65 225 225 0 0 1-41.844 18.798c-2 .66-4.317 1.341-6.821 2.016-3.9 1.054-6.542-6.17-3.395-8.705 1.674-1.35 3.147-2.721 4.317-4.086 16.41-19.2 17.868-46.37 6.48-70.524a76 76 0 0 1-1.604-3.706c-1.581-3.86 3.039-6.712 5.744-3.534 1.07 1.255 2 2.403 2.651 3.317"/></mask><g mask="url(#a)"><g clip-path="url(#b)" data-figma-skip-parse="true"><g fill="url(#c)" shape-rendering="crispEdges" transform="matrix(.04724 .08141 -.10566 .06132 59.79 80.99)"><path d="M0 0h1712.78v1273.78H0z"/><path d="M0 0h1712.78v-1273.78H0z"/><path d="M0 0h-1712.78v1273.78H0z"/><path d="M0 0h-1712.78v-1273.78H0z"/></g></g><path d="M167.969 124.643 40.493 204.609-48.388 37.343 79.088-42.63z" data-figma-gradient-fill="{&quot;type&quot;:&quot;GRADIENT_DIAMOND&quot;,&quot;stops&quot;:[{&quot;color&quot;:{&quot;r&quot;:0.15294118225574493,&quot;g&quot;:0.69803923368453979,&quot;b&quot;:0.94117647409439087,&quot;a&quot;:1.0},&quot;position&quot;:0.0},{&quot;color&quot;:{&quot;r&quot;:0.14901961386203766,&quot;g&quot;:0.87450981140136719,&quot;b&quot;:0.98431372642517090,&quot;a&quot;:1.0},&quot;position&quot;:0.20000000298023224},{&quot;color&quot;:{&quot;r&quot;:0.18823529779911041,&quot;g&quot;:0.96078431606292725,&quot;b&quot;:0.99607843160629272,&quot;a&quot;:1.0},&quot;position&quot;:0.40999999642372131},{&quot;color&quot;:{&quot;r&quot;:0.94117647409439087,&quot;g&quot;:0.99607843160629272,&quot;b&quot;:0.98823529481887817,&quot;a&quot;:1.0},&quot;position&quot;:0.64999997615814209},{&quot;color&quot;:{&quot;r&quot;:0.98431372642517090,&quot;g&quot;:0.77647060155868530,&quot;b&quot;:0.062745101749897003,&quot;a&quot;:1.0},&quot;position&quot;:0.86000001430511475},{&quot;color&quot;:{&quot;r&quot;:0.99215686321258545,&quot;g&quot;:0.61176472902297974,&quot;b&quot;:0.13333334028720856,&quot;a&quot;:1.0},&quot;position&quot;:1.0}],&quot;stopsVar&quot;:[{&quot;color&quot;:{&quot;r&quot;:0.15294118225574493,&quot;g&quot;:0.69803923368453979,&quot;b&quot;:0.94117647409439087,&quot;a&quot;:1.0},&quot;position&quot;:0.0},{&quot;color&quot;:{&quot;r&quot;:0.14901961386203766,&quot;g&quot;:0.87450981140136719,&quot;b&quot;:0.98431372642517090,&quot;a&quot;:1.0},&quot;position&quot;:0.20000000298023224},{&quot;color&quot;:{&quot;r&quot;:0.18823529779911041,&quot;g&quot;:0.96078431606292725,&quot;b&quot;:0.99607843160629272,&quot;a&quot;:1.0},&quot;position&quot;:0.40999999642372131},{&quot;color&quot;:{&quot;r&quot;:0.94117647409439087,&quot;g&quot;:0.99607843160629272,&quot;b&quot;:0.98823529481887817,&quot;a&quot;:1.0},&quot;position&quot;:0.64999997615814209},{&quot;color&quot;:{&quot;r&quot;:0.98431372642517090,&quot;g&quot;:0.77647060155868530,&quot;b&quot;:0.062745101749897003,&quot;a&quot;:1.0},&quot;position&quot;:0.86000001430511475},{&quot;color&quot;:{&quot;r&quot;:0.99215686321258545,&quot;g&quot;:0.61176472902297974,&quot;b&quot;:0.13333334028720856,&quot;a&quot;:1.0},&quot;position&quot;:1.0}],&quot;transform&quot;:{&quot;m00&quot;:94.484909057617188,&quot;m01&quot;:-211.3269042968750,&quot;m02&quot;:118.21148681640625,&quot;m10&quot;:162.82380676269531,&quot;m11&quot;:122.63072967529297,&quot;m12&quot;:-61.738204956054688},&quot;opacity&quot;:1.0,&quot;blendMode&quot;:&quot;NORMAL&quot;,&quot;visible&quot;:true}"/></g><path fill="url(#d)" d="M83.917 57.102C73.67 69.73 71.507 83.311 73.437 94.954c.039.209.07.45.109.705.511 3.488-3.605 5.635-6.388 3.473l-.41-.318c-9.35-7.116-20.372-12.473-35.046-10.783 8.883-2.604 17.968-6.457 26.836-11.58 9.744-5.628 18.287-12.233 25.38-19.341z"/><defs><linearGradient id="c" x1="0" x2="500" y1="0" y2="500" gradientUnits="userSpaceOnUse"><stop stop-color="#27b2f0"/><stop offset=".2" stop-color="#26dffb"/><stop offset=".41" stop-color="#30f5fe"/><stop offset=".65" stop-color="#f0fefc"/><stop offset=".86" stop-color="#fbc610"/><stop offset="1" stop-color="#fd9c22"/></linearGradient><linearGradient id="d" x1="31.694" x2="83.917" y1="78.551" y2="78.551" gradientUnits="userSpaceOnUse"><stop stop-color="#1c6fff"/><stop offset="1" stop-color="#24b5ef"/></linearGradient><clipPath id="b"><path d="M167.969 124.643 40.493 204.609-48.388 37.343 79.088-42.63z"/></clipPath></defs></svg>