<svg xmlns="http://www.w3.org/2000/svg" fill="none" viewBox="0 0 100 100"><path fill="#eb6161" d="M7.538 70.724a6.366 6.366 0 1 0 0-12.732 6.366 6.366 0 0 0 0 12.732"/><path fill="#009191" d="M27.594 44.304c.832 0 1.498.666 1.498 1.498l-.084 12.192c0 6.948-5.575 12.607-12.524 12.732h-.208v-12.69h.042l.041-12.192c0-.832.666-1.498 1.498-1.498h9.737zm19.556 0c.832 0 1.498.666 1.498 1.498v17.06c0 .832-.666 1.498-1.498 1.498h-9.737a1.49 1.49 0 0 1-1.498-1.498v-17.06c0-.832.666-1.498 1.498-1.498zm15.312-.041h.208c6.241.083 11.317 5.117 11.484 11.359v7.198c0 .832-.666 1.498-1.498 1.498H56.928a1.49 1.49 0 0 1-1.498-1.498V45.76c0-.832.666-1.497 1.498-1.497zm25.756 19.889c-5.243-.333-9.445-4.702-9.445-10.028 0-5.534 4.494-10.028 10.027-10.028 5.326 0 9.695 4.161 10.028 9.446v9.112c0 .832-.666 1.498-1.498 1.498z"/><path fill="#fbcb67" d="M42.26 41.932a6.366 6.366 0 1 0 .001-12.732 6.366 6.366 0 0 0 0 12.732"/></svg>