<svg xmlns="http://www.w3.org/2000/svg" fill="none" viewBox="0 0 100 100"><g clip-path="url(#a)"><path fill="url(#b)" d="M22.55 57.396a96.7 96.7 0 0 1 8.325-18.562C44.084 15.95 63.355 2.346 73.917 8.442 50.159-5.274 19.159 3.934 4.675 29.017a55.7 55.7 0 0 0-4.32 9.4c-1.08 3.08.383 6.392 3.208 8.025L22.55 57.401z"/><path fill="url(#c)" d="M77.45 42.35a96.6 96.6 0 0 1-8.329 18.563c-13.208 22.883-32.48 36.492-43.042 30.392 23.763 13.721 54.763 4.508 69.246-20.575a56 56 0 0 0 4.321-9.396c1.079-3.075-.383-6.392-3.208-8.02L77.45 42.353z"/><path fill="url(#d)" d="M69.125 60.917c13.209-22.883 15.359-46.375 4.792-52.475-10.554-6.096-29.825 7.517-43.042 30.392 8.642-14.959 24.204-22.146 34.767-16.05 10.558 6.1 12.117 23.167 3.48 38.129z"/><path fill="url(#e)" d="M30.875 38.835c-13.208 22.883-15.358 46.375-4.792 52.47 10.559 6.1 29.83-7.508 43.042-30.39-8.642 14.962-24.204 22.15-34.767 16.05C23.8 70.867 22.242 53.796 30.88 38.838z"/></g><defs><radialGradient id="b" cx="0" cy="0" r="1" gradientTransform="rotate(-59.132 60.858 9.413)scale(60.7279 83.22)" gradientUnits="userSpaceOnUse"><stop offset=".095" stop-color="#fff959"/><stop offset=".326" stop-color="#0df35e"/><stop offset=".64" stop-color="#0bf2f9"/><stop offset="1" stop-color="#04a6f0"/></radialGradient><radialGradient id="c" cx="0" cy="0" r="1" gradientTransform="rotate(120.868 27.046 43.713)scale(60.7279 83.22)" gradientUnits="userSpaceOnUse"><stop offset=".095" stop-color="#fff959"/><stop offset=".326" stop-color="#0df35e"/><stop offset=".64" stop-color="#0bf2f9"/><stop offset="1" stop-color="#04a6f0"/></radialGradient><linearGradient id="d" x1="64.909" x2="75.259" y1="7.492" y2="41.088" gradientUnits="userSpaceOnUse"><stop stop-color="#003eff"/><stop offset="1" stop-color="#0bffe7"/></linearGradient><linearGradient id="e" x1="35.092" x2="24.742" y1="92.26" y2="58.664" gradientUnits="userSpaceOnUse"><stop stop-color="#003eff"/><stop offset="1" stop-color="#0bffe7"/></linearGradient><clipPath id="a"><path fill="#fff" d="M0 0h100v100H0z"/></clipPath></defs></svg>