<svg xmlns="http://www.w3.org/2000/svg" fill="none" viewBox="0 0 100 100"><path fill="#6525f7" d="M23.463 8.334c.087.03.183.03.27 0h3.613c.079.033.116.033.125 0h.104l3.308.479q.026.001.038.02.015.019.017.042v5.638a.05.05 0 0 1-.03.042l-.02.008q-3.032-.02-6.063.004a11.2 11.2 0 0 0-4.167.817 6.69 6.69 0 0 0-4.129 4.696q-.402 1.498-.404 2.645l-.008 13.896a16.5 16.5 0 0 1-.459 3.88q-1.299 5.28-6.525 6.762l-.02.017a.04.04 0 0 0 0 .054.04.04 0 0 0 .02.016c3.846 1.034 6.059 3.825 6.7 7.688q.283 1.697.284 2.57l.008 16.397c0 1.35.212 2.591.642 3.733 1.312 3.475 4.75 4.8 8.208 4.837q2.967.012 5.933.009a.04.04 0 0 1 .03.041v5.642a.05.05 0 0 1-.042.05 57 57 0 0 1-6.33.525h-1.062c-3.529-.154-6.966-1.02-9.72-3.158-3.592-2.792-4.955-7.15-4.98-11.567q-.01-1.799-.008-15.592c0-2.491-.292-5.233-2.48-6.787-1.328-.942-3.074-1.375-4.674-1.367Q.82 50.384 0 50.346v-5.979c2.238.008 4.292-.042 6.208-1.308 1.471-.971 2.259-2.809 2.488-4.596q.104-.815.104-2.342-.01-10.83.004-13.062c.021-2.884.604-5.838 2.063-8.267 2.25-3.746 6.233-5.77 10.566-6.267.642-.07 1.288-.137 1.938-.191zm49.062 0c.083.033.125.033.108 0h3.759c2.608.154 5.05.558 7.387 1.666q3.19 1.512 5.017 4.292c1.633 2.488 2.383 5.592 2.387 8.575l.009 13.98c0 3.416 1.27 6.353 4.854 7.208 1.291.304 2.475.312 3.904.3.013 0 .025.008.033.016a.05.05 0 0 1 .017.038v5.875a.096.096 0 0 1-.096.091c-2.062-.025-4.191.005-5.983 1.196-2.154 1.43-2.73 3.959-2.734 6.446a5653 5653 0 0 0 0 14.733c.009 2.625-.12 4.605-.82 6.855q-1.22 3.939-4.546 6.37c-2.667 1.946-6.021 2.717-9.358 2.867h-.042q-.125-.05-.113 0h-.883a57 57 0 0 1-6.333-.525.06.06 0 0 1-.034-.017.05.05 0 0 1-.012-.033v-5.662a.04.04 0 0 1 .029-.025h.017q2.985.012 5.97-.009a11 11 0 0 0 4.359-.883c3.079-1.35 4.408-4.242 4.429-7.496q.018-3.064.017-16.533c.026-1.085.162-2.164.404-3.221.75-3.6 2.996-6.133 6.583-7.083a.04.04 0 0 0 .025-.038l-.004-.02a.04.04 0 0 0-.02-.017c-3.084-.905-5.288-2.834-6.284-5.934a15 15 0 0 1-.692-4.425q-.026-1.944-.02-14.05a10.2 10.2 0 0 0-.697-3.691c-1.32-3.425-4.929-4.621-8.358-4.625h-5.67a.08.08 0 0 1-.082-.054.1.1 0 0 1-.006-.034V8.921a.09.09 0 0 1 .079-.091l3.275-.496z"/><path fill="#fff" d="m54.867 48.366 10.979 16.23q.01.01.01.025.002.014-.005.026a.05.05 0 0 1-.047.023h-8.513q-.012.002-.024-.008l-.017-.012-8.354-12.35a.04.04 0 0 0-.021-.017l-.021-.004h-7.62q-.01 0-.019.003l-.015.01-.01.015-.003.018V64.62a.05.05 0 0 1-.016.033.05.05 0 0 1-.034.017h-7.116a.05.05 0 0 1-.046-.05V32.554a.05.05 0 0 1 .012-.035.05.05 0 0 1 .034-.015h7.116a.05.05 0 0 1 .037.013.05.05 0 0 1 .013.037V45.22c0 .016 0 .025.013.033a.05.05 0 0 0 .033.017h7.571a.05.05 0 0 0 .042-.021l8.525-12.725a.05.05 0 0 1 .041-.021h8.513c.012 0 .02 0 .025.008a.05.05 0 0 1 .02.042l-.004.025-11.1 15.733a.05.05 0 0 0-.008.03c0 .008 0 .02.009.024"/></svg>