<svg xmlns="http://www.w3.org/2000/svg" fill="none" viewBox="0 0 100 100"><g clip-path="url(#a)"><path fill="url(#b)" fill-rule="evenodd" d="M44.499.073c9.186-.214 19.4-.027 28.636 1.509 11.123 1.85 20.36 10.04 23.996 20.604.873 2.546 1.536 6.105 2 10.664 1.295 12.932 1.218 26.6-.746 40.018-1.927 13.128-12.954 23.696-25.954 25.682-3.591.546-8.587 1.032-14.973 1.45H43.14q-10.16-.509-16.46-1.577c-5.3-.9-10.154-3.241-14.568-7.032-5.854-5.027-9.377-11.377-10.559-19.036a146 146 0 0 1-1.091-9.778c-.564-6.84-.55-15.009-.286-21.09Q.475 34.444 1.57 27.3C3.235 16.468 10.644 7.377 20.935 3.241c2.94-1.182 6.827-2 11.646-2.436C36.542.425 40.516.18 44.494.073zm-1.937 11.35C38.003 10.15 33.631 9.65 29.64 9.968a25.2 25.2 0 0 0-5.91 1.146C17.071 13.296 12.517 18.25 10.771 25.2c-.968 3.841-1.045 8.2-.24 12.868.786 4.555 2.404 9.332 4.781 14.096 4.964 9.963 12.973 19.363 22.464 26.377 4.227 3.123 8.65 5.7 13.091 7.623 5.11 2.209 10.15 3.518 14.855 3.863 3.854.273 7.432-.104 10.6-1.127 4.718-1.523 8.418-4.44 10.8-8.518 1.809-3.091 2.832-6.791 3.013-10.932l.019-.459q.03-1.02 0-2.04l-.032-.587c-.205-3.996-1.123-8.255-2.723-12.614a63.5 63.5 0 0 0-7.14-13.732 77.1 77.1 0 0 0-22.437-21.672c-5.037-3.16-10.219-5.51-15.26-6.923" clip-rule="evenodd"/></g><defs><radialGradient id="b" cx="0" cy="0" r="1" gradientTransform="rotate(136.332 14.983 35.016)scale(69.1225 101.072)" gradientUnits="userSpaceOnUse"><stop offset=".413" stop-color="#cbff00"/><stop offset=".678" stop-color="#7ef426"/></radialGradient><clipPath id="a"><path fill="#fff" d="M0 0h100v100H0z"/></clipPath></defs></svg>