<svg xmlns="http://www.w3.org/2000/svg" fill="none" viewBox="0 0 100 100"><path fill="#fff" fill-rule="evenodd" d="M25.413 25h49.17C88.6 25 100 36.217 100 50c0 13.784-11.4 25-25.412 25H25.417C11.4 75 0 63.784 0 50c0-13.783 11.4-25 25.413-25m22.579 38.75c.616.642 1.529.609 2.337.442l.008.004c.375-.3-.158-.68-.666-1.042-.309-.216-.604-.425-.692-.612.284-.333-.554-1.104-1.204-1.7a6 6 0 0 1-.625-.617c-.458-.496-.646-1.116-.833-1.741-.125-.417-.25-.834-.459-1.217-1.266-2.892-2.72-5.763-4.762-8.208-1.313-1.625-2.808-3.084-4.304-4.542a81 81 0 0 1-2.846-2.867c-.942-.954-1.508-2.129-2.08-3.308-.474-.983-.95-1.97-1.65-2.833-2.112-3.063-8.779-3.9-9.758.433 0 .133-.041.217-.162.304a6.7 6.7 0 0 0-1.425 1.363c-.992 1.358-1.142 3.654.091 4.875l.005-.08c.041-.612.083-1.191.579-1.629.95.804 2.4 1.092 3.504.488 1.333 1.875 1.758 4.146 2.188 6.416.354 1.9.708 3.8 1.591 5.484l.058.091c.517.846 1.042 1.709 1.709 2.446.246.371.741.767 1.237 1.163.655.52 1.309 1.041 1.371 1.496v.595c-.004 1.188-.008 2.417.767 3.388.429.854-.625 1.708-1.467 1.604-.466.063-.97-.058-1.475-.175-.687-.167-1.37-.325-1.925-.012-.158.166-.379.166-.604.175-.267.008-.538.016-.696.291-.033.08-.108.167-.187.263-.175.208-.363.437-.138.608l.063-.042c.341-.258.666-.5 1.125-.35-.059.334.162.425.383.513l.113.05a1.4 1.4 0 0 1-.034.233c-.037.188-.07.367.075.53a3 3 0 0 0 .192-.226c.154-.191.304-.383.579-.458.6.792 1.204.463 1.962.054.859-.462 1.913-1.033 3.375-.229-.562-.025-1.062.042-1.437.5-.096.1-.175.217-.008.35.862-.55 1.225-.354 1.562-.167.25.134.48.263.883.1l.292-.15c.646-.345 1.309-.691 2.08-.57-.58.162-.784.52-1.009.908a3 3 0 0 1-.392.583c-.087.088-.125.192-.029.334 1.209-.096 1.667-.396 2.284-.8.291-.192.625-.413 1.087-.642.517-.313 1.033-.113 1.533.083.542.209 1.063.409 1.546-.058.154-.138.346-.142.538-.142q.1.002.208-.008c-.154-.792-1-.783-1.867-.775-1 .012-2.012.025-1.979-1.204.925-.621.934-1.696.942-2.713 0-.25 0-.487.02-.72.68.374 1.4.666 2.117.954.675.27 1.346.541 1.975.875.659 1.041 1.684 2.416 3.05 2.325.034-.109.067-.196.109-.305.079.017.162.034.245.059.359.083.742.179.93-.238m26.787-11.787a4.26 4.26 0 0 0 2.984 1.208 4.26 4.26 0 0 0 2.983-1.208 4.08 4.08 0 0 0 1.237-2.917 4.08 4.08 0 0 0-1.237-2.917 4.27 4.27 0 0 0-4.5-.933l-2.417-3.462-1.687 1.133 2.429 3.48a4.075 4.075 0 0 0 .208 5.616m-7.57-11.209a4.29 4.29 0 0 0 4.4-.395 4.13 4.13 0 0 0 1.512-2.113 4.04 4.04 0 0 0-.067-2.583 4.14 4.14 0 0 0-1.625-2.034 4.284 4.284 0 0 0-5.408.584 4.11 4.11 0 0 0-1.096 3.566 4.16 4.16 0 0 0 2.283 2.975m0 23.967a4.3 4.3 0 0 0 4.4-.396 4.13 4.13 0 0 0 1.512-2.112 4.04 4.04 0 0 0-.067-2.584 4.14 4.14 0 0 0-1.625-2.033 4.28 4.28 0 0 0-5.408.583 4.1 4.1 0 0 0-1.096 3.567c.117.637.384 1.237.78 1.75.395.52.912.938 1.503 1.225m3.874-14.65v-2.05h-6.458a4.1 4.1 0 0 0-.904-1.683l2.433-3.53-1.77-1.15-2.43 3.53a4.26 4.26 0 0 0-4.362.958 4.05 4.05 0 0 0-1.234 2.9c0 1.088.446 2.133 1.234 2.9a4.26 4.26 0 0 0 4.362.958l2.43 3.53 1.75-1.15-2.413-3.53a4.1 4.1 0 0 0 .904-1.683z" clip-rule="evenodd"/></svg>