<svg xmlns="http://www.w3.org/2000/svg" fill="none" viewBox="0 0 100 100"><g clip-path="url(#a)"><mask id="b" width="101" height="101" x="0" y="0" maskUnits="userSpaceOnUse" style="mask-type:luminance"><path fill="#fff" d="M0 0h100v100H0z"/></mask><g mask="url(#b)"><path fill="#2d9cdb" fill-rule="evenodd" d="M89.471 54.584v-13.18c0-2.333 0-3.645-.058-4.608a4.4 4.4 0 0 0-.088-.816 3.3 3.3 0 0 0-.5-.875 3.8 3.8 0 0 0-.666-.467 88 88 0 0 0-3.971-2.367L72.755 25.68c-2.013-1.167-3.15-1.809-4.025-2.242a3 3 0 0 0-.73-.32 3 3 0 0 0-1.02 0c-.088 0-.292.112-.73.32-.875.433-1.983 1.075-4.029 2.242l-11.429 6.587c-2.012 1.167-3.15 1.808-3.967 2.367-.408.262-.583.408-.67.466a2.2 2.2 0 0 0-.5.875c0 .088-.055.321-.084.817-.058.958-.058 2.275-.058 4.608v13.188c0 2.333 0 3.646.058 4.608.03.496.059.73.084.813.12.325.295.616.5.875.054.062.229.208.666.47.821.526 1.93 1.196 3.971 2.363l11.433 6.592c2.013 1.166 3.15 1.808 4.025 2.25q.346.209.734.316c.338.059.683.059 1.02 0 .084 0 .292-.116.73-.32.875-.438 1.983-1.08 4.025-2.246l11.433-6.592c2.013-1.167 3.15-1.808 3.97-2.362.41-.263.584-.409.668-.467a2.2 2.2 0 0 0 .5-.875c0-.092.058-.32.083-.817.062-.962.062-2.275.062-4.608zm7.146-26.571c-1.4-1.546-3.325-2.658-7.146-4.875l-11.437-6.592c-3.85-2.216-5.75-3.325-7.792-3.762a13.4 13.4 0 0 0-5.483 0c-2.042.437-3.967 1.546-7.788 3.762l-11.429 6.592c-3.854 2.217-5.75 3.33-7.146 4.875a13.5 13.5 0 0 0-2.746 4.725c-.641 1.98-.641 4.2-.641 8.633v13.184c0 4.437 0 6.654.641 8.637.584 1.75 1.521 3.383 2.746 4.725 1.396 1.542 3.325 2.654 7.146 4.87l11.433 6.593c3.855 2.216 5.75 3.325 7.792 3.762 1.808.375 3.67.375 5.483 0 2.042-.437 3.967-1.546 7.792-3.762l11.433-6.592c3.85-2.217 5.75-3.325 7.146-4.875a13.4 13.4 0 0 0 2.742-4.72c.642-1.984.642-4.2.642-8.638v-13.18c0-4.433 0-6.654-.642-8.633a13.1 13.1 0 0 0-2.746-4.73" clip-rule="evenodd"/><path fill="#2f80ed" fill-rule="evenodd" d="M54.463 54.584v-13.18c0-2.333 0-3.645-.059-4.608a4.4 4.4 0 0 0-.083-.816 3.3 3.3 0 0 0-.5-.875 3.8 3.8 0 0 0-.667-.467 88 88 0 0 0-3.97-2.366l-11.438-6.596c-2.013-1.167-3.146-1.809-4.025-2.242a3 3 0 0 0-.73-.32 3 3 0 0 0-1.02 0c-.083 0-.292.112-.73.32-.874.433-1.983 1.075-4.024 2.242l-11.434 6.591c-2.012 1.167-3.15 1.809-3.97 2.367-.409.263-.584.408-.667.467a2.2 2.2 0 0 0-.5.875c0 .087-.058.32-.083.816-.063.959-.063 2.275-.063 4.609v13.187c0 2.334 0 3.646.058 4.608 0 .496.059.73.088.813.117.325.292.617.5.875q.308.271.667.47c.816.526 1.925 1.197 3.97 2.363l11.434 6.592c2.012 1.167 3.15 1.808 4.025 2.25.227.138.473.245.729.317.338.058.683.058 1.02 0 .088 0 .292-.117.73-.321.875-.438 1.983-1.08 4.025-2.246l11.437-6.592c2.013-1.166 3.15-1.808 3.967-2.362.408-.263.583-.408.67-.467.234-.248.405-.548.5-.875 0-.091.055-.32.084-.816.059-.963.059-2.28.059-4.613m7.15-26.57c-1.4-1.547-3.33-2.66-7.15-4.876l-11.434-6.591c-3.85-2.217-5.75-3.325-7.791-3.763a13.4 13.4 0 0 0-5.484 0c-2.041.438-3.966 1.546-7.791 3.763l-11.43 6.591c-3.85 2.217-5.745 3.33-7.145 4.875a13.5 13.5 0 0 0-2.742 4.725C0 34.718 0 36.938 0 41.371v13.184c0 4.437 0 6.654.642 8.637.583 1.75 1.516 3.384 2.741 4.725 1.4 1.542 3.325 2.654 7.146 4.871l11.438 6.592c3.85 2.217 5.75 3.325 7.791 3.762 1.805.375 3.671.375 5.484 0 2.041-.437 3.966-1.545 7.787-3.762l11.434-6.592c3.854-2.216 5.75-3.325 7.15-4.875a13.5 13.5 0 0 0 2.741-4.72c.642-1.984.642-4.2.642-8.638v-13.18c0-4.433 0-6.654-.642-8.633a13.1 13.1 0 0 0-2.741-4.729" clip-rule="evenodd"/><path fill="#2f80ed" d="M50.03 63.22c.262.146.529.292.816.467l9.484 5.483c-1.284 1.02-3.067 2.042-5.834 3.65l-4.466 2.563-4.459-2.563c-2.775-1.604-4.554-2.625-5.833-3.65l9.48-5.483c.29-.175.55-.321.812-.467"/></g></g><defs><clipPath id="a"><path fill="#fff" d="M0 0h100v100H0z"/></clipPath></defs></svg>