<svg xmlns="http://www.w3.org/2000/svg" fill="none" viewBox="0 0 100 100"><g clip-path="url(#a)"><g clip-path="url(#b)"><path fill="#fff" fill-rule="evenodd" d="m45.338 41.346.408.337c2.167 1.904 4.204 3.084 5.47 3.159 1.88.116 3.742-.375 5.126-1.346l.387-.275.396-.309c1.417-1.079 3.358-2.566 5.917-2.175 2.108.33 3.166 1.904 4.358 3.959l1.663 2.862c1.491 2.521 3.595 5.946 5.183 8.242 1.667 2.425 3.5 4.654 5.142 6.279.975.97 1.52 2.25 1.479 3.53-.025.85-.304 1.57-.759 1.978l-.266.188 15.604 20.641c.22.305.35.484.358.513.325.97-2.066 2.375-5.154 3.733l-.996.404c-3.916 1.488-13.479 4.367-19.437 5.355l-.867.133c-6.408.912-17.396 2.267-32.742.792l-2.933-.3c-13.033-1.48-17.375-3.667-22.604-6.042l-1.538-.72c-4.22-2.063-5.108-3.26-5.291-3.71L4.2 88.38c-.22-.425 1.17-2.196 3.075-4.417l3.096-3.55c1.142-1.3 2.267-2.604 3.212-3.766l.675-.846c.363-.467.834-1.084 1.384-1.813l1.612-2.154 7.875-10.658a2.1 2.1 0 0 1-.429-.896c-.33-1.638 1.046-3.854 1.913-4.908l.645-.75 1.846-2.05a72 72 0 0 0 2.484-2.938 46 46 0 0 0 2.175-2.996l1.475-2.204c1.558-2.258 3.016-3.941 5.429-4.3 2.116-.3 3.441.242 4.67 1.213m-3.805.37-.612.059c-1.77.258-2.9 1.558-4.28 3.57l-1.89 2.817a47 47 0 0 1-1.834 2.5 72 72 0 0 1-2.542 3l-2.062 2.292-.4.462c-.884 1.084-1.721 2.759-1.571 3.538a.4.4 0 0 0 .1.2l.079.058c.058.034.242.125.646-.008 1.054-.342 2.291-1.737 2.683-2.55.75-1.58 1.496-2.375 2.35-2.508a1.62 1.62 0 0 1 1.47.558c.555.583.838 1.342.788 2.142-.075 1.166-.804 2.341-2.183 3.479l-1.4 1.175c-1.583 1.375-3.108 2.916-2.958 4.054.058.442.216 1.025.637 1.296.413.267.975.183 1.375.067 1.021-.288 4.054-3.5 5.746-5.842l.775-1.134.842-1.241c1.641-2.384 3.075-4.084 4.512-4.084.709 0 1.284.376 1.584 1.034.741 1.575-.25 4.367-2.459 6.942-3.133 3.654-4.804 5.141-8.125 8.112l-1.196 1.054c-2.75 2.459-3.187 3.646-3.195 4.125-.009.23.066.383.275.584.416.424 2.158.55 4.833-1.717 2.833-2.409 6.8-6.846 8.775-9.109l2.042-2.375c1.437-1.625 2.875-2.958 4.633-2.85 1.892.117 2.25 1.5 2.354 2.476l.07.954.138.637c.217 1.046.392 1.596 1.659 1.596 1.404 0 2.537-1.18 3.558-3.708.146-.359.258-.75.358-1.146l.375-1.488c.334-1.183.846-2.283 2.113-2.495q.228-.035.458-.034c1.171 0 1.771.825 2.275 1.854l.792 1.725 4.592 9.475c.979 2 1.887 3.8 2.375 4.642l1.179 1.917c1.025 1.591 2.091 2.541 4.141 1.92.492-.15.638-.395.705-.595.408-1.117-.509-3.396-2.713-6.775l-.646-.967c-1.158-1.708-4.458-7.404-5.766-11.342l-.425-1.35c-.821-2.737-.909-4.275.275-5.166a1.43 1.43 0 0 1 1.183-.267c.808.167 1.854.887 4.096 5.012l1.916 3.521c.992 1.78 1.925 3.267 2.742 3.971 1 .863 1.838.904 2.217.567.225-.233.533-1.788-.792-3.092-1.708-1.7-3.608-4.017-5.346-6.525A183 183 0 0 1 66.621 46.7l-.346-.613-.742-1.266c-.916-1.5-1.6-2.267-2.741-2.438-1.434-.22-2.65.417-3.734 1.18l-1.737 1.291c-1.696 1.183-3.95 1.78-6.2 1.646-1.854-.113-4.042-1.584-5.57-2.804l-.91-.767c-.812-.704-1.524-1.142-2.558-1.208zM22.3 46.376c.97.291 0 1.737-.337 5.467-.334 3.729.854 7.862-2.013 7.791-2.73-.07-2.392-3.767-1.312-7.867 1.225-4.633 2.687-5.687 3.662-5.391m62.042-.871c1.179-.167 2.041 2.225 2.583 3.988l.333 1.154c.471 1.562 1.246 6.716-1.225 6.708-1.6-.004-1.875-1.146-2.012-3.775l-.092-2.062c-.175-4.1-.812-5.838.413-6.013m-41.692-1.18.408.11c.417.12 1.084.35 1.7.724l.484.334.829.604c1.308.916 3.417 2.129 5.975 2.091 3.333-.041 5.187-1.625 6.53-2.4 1.345-.77 2.595-.641 2.595-.641l-.183.6c-.655 1.975-3.15 8.154-8.78 8.37-8.77.342-9.558-9.791-9.558-9.791m27.53-31.44.833.037c5.012.404 7.05 2.225 9.045 4.45 2 2.225 1.713 4.258.563 5.058-1.375.958-2.913 0-3.675-.808-.763-.804-1.225-1.917-3.113-3.084-2.158-1.325-7.05-1.925-11.395 3.034-4.721 5.383-6.15 11.854-6.888 16.183l-.32 1.97c-.292 1.826-.572 2.293-1.638 2.184-.763-.079-1.013-.687-1.063-1.342l-.008-.762a52 52 0 0 1 .658-7.263c.613-3.695 2.554-9.15 5.213-12.995 2.366-3.417 6.541-6.317 10.958-6.634zm-33.767.633c5.883 1.087 8.895 6.32 10.883 11.933 2 5.612 3 12.833 3.15 14.142.15 1.312-.008 2.158-1.125 2.325-.513.075-1.025-.25-1.283-.917-.234-.63-.592-2.217-1.134-4.267l-.679-2.475c-.708-2.517-1.77-5.967-3.042-8.517l-.691-1.375c-1.421-2.729-3.13-5.333-6.238-6.291-3.391-1.038-5.562.579-6.916 1.954l-.275.292c-1.325 1.416-3.392 2.52-4.667 1.1-1.275-1.417-.208-3.18.812-4.234l.488-.446c1.467-1.245 5.646-4.166 10.717-3.224m7.233 23.416c.38.934.458 1.621.075 1.996-.425.43-1.183.32-1.758-.283l-.959-1.121c-1.591-1.771-4.896-4.88-9.112-4.5-5.725.512-6.825 5.096-7.084 5.979-.329 1.104-1.166 2.308-2.77 1.992-1.259-.25-1.709-1.171-1.771-2.742-.067-2.242 2.591-8.112 10.291-9.075 8.121-1.02 12.696 6.758 13.088 7.754m39.537-4.758c2.005 2.658 1.805 4.883.442 5.625-1.358.746-2.783.27-3.808-1.513-.763-1.329-2.021-3.504-3.809-4.308-3.366-1.512-6.054-1.312-9.625.504-2.379 1.213-4.062 3.309-5.033 4.73L60 39.307c-.333.475-.78.909-1.475.684-.625-.205-.6-1.03-.387-1.892l.104-.367c.266-.85 3.029-9.725 13.266-10.737 6.43-.642 10.055 3.029 11.675 5.179M12.696 27.3c2.583-2.15 5.958-3.542 6.808-2.754.638.587.059 1.616-.487 2.091l-.554.48c-.813.708-2.096 1.9-2.946 3.141-.621.917-1.359 2.567-2.425 3.388-.771.591-1.88.875-2.788.275-1.004-.667-1.02-2.034-.596-3.113.513-1.27 1.755-2.483 2.988-3.508m71.35-1.8c.412-.813 1.93-.117 3.97.92 2.047 1.042 3.86 2.484 4.91 3.93 1.074 1.479.82 4.05-1.343 3.82-2.166-.233-3.729-3.316-4.791-4.566L86 28.729c-1.292-1.367-2.4-2.342-1.954-3.23M38.416 4.675c.93-.808 2.567-.925 4.026.17 1.458 1.097 3.333 3.184 4.675 6.071l.333.742c.68 1.613 1.388 3.817.43 4.067-1.2.316-2.222-1.388-4.376-3.583-2.166-2.205-4.091-2.488-5.15-3.825-1.054-1.334-.87-2.834.063-3.642M68.977.062c1.574-.229 2.532.167 2.978 1.213.471 1.096-.387 2.558-1.341 2.95-1.584.63-3.042.63-6.138 2.717-3.583 2.404-6.083 6.224-6.492 7.145l-.054.134c-.233.866-.875 1.27-1.516.983-.534-.242-.584-.833-.517-1.358l.154-.871c.25-1.267 1.088-4.154 4.683-7.996 3.6-3.846 7.242-4.767 8.242-4.917" clip-rule="evenodd"/></g></g><defs><clipPath id="a"><path fill="#fff" d="M0 0h100v100H0z"/></clipPath><clipPath id="b"><path fill="#fff" d="M0 0h100v100H0z"/></clipPath></defs></svg>