<svg xmlns="http://www.w3.org/2000/svg" fill="none" viewBox="0 0 100 100"><g clip-path="url(#a)"><path fill="#29e154" fill-rule="evenodd" d="M2.113 82.846A2.112 2.112 0 0 1 .075 80.17l17.8-64.567a4.22 4.22 0 0 1 6.387-2.408l23.426 15.362a4.22 4.22 0 0 0 4.624 0l23.521-15.37a4.22 4.22 0 0 1 6.384 2.416l17.708 64.571a2.104 2.104 0 0 1-1.103 2.45 2.1 2.1 0 0 1-.939.217H75.292a26.24 26.24 0 0 0 6.375-17.146v-.738a25.37 25.37 0 0 0-6.305-16.737l-2.904-14.563a1.825 1.825 0 0 0-2.891-1.108l-10.942 8.204a3.12 3.12 0 0 1-2.725.504 21.5 21.5 0 0 0-11.804 0 3.11 3.11 0 0 1-2.721-.504l-10.95-8.212a1.812 1.812 0 0 0-2.867 1.12L24.746 48.88a22.33 22.33 0 0 0-6.413 15.667v1.387a25.72 25.72 0 0 0 6.2 16.75l.134.159z" clip-rule="evenodd"/><path fill="#fff" d="M38.388 70.18h6.333V55.403h-5.375zm23.22 0h-6.333V55.403h5.375z"/></g><defs><clipPath id="a"><path fill="#fff" d="M0 0h100v100H0z"/></clipPath></defs></svg>