<svg xmlns="http://www.w3.org/2000/svg" fill="none" viewBox="0 0 100 100"><mask id="b" width="99" height="100" x="1" y="0" maskUnits="userSpaceOnUse" style="mask-type:alpha"><path fill="url(#a)" fill-rule="evenodd" d="M30.507 0c16.292 0 29.506 13.244 29.506 29.587v11.245h9.821c16.293 0 29.507 13.244 29.507 29.586C99.34 86.761 86.13 100 69.834 100H1V29.582C1 13.249 14.21 0 30.507 0" clip-rule="evenodd"/></mask><g mask="url(#b)"><g filter="url(#c)"><path fill="#4b73ff" d="M44.14 119.951c36.766 0 66.571-29.804 66.571-66.57s-29.805-66.57-66.57-66.57c-36.766 0-66.57 29.804-66.57 66.57s29.804 66.57 66.57 66.57"/></g><g filter="url(#d)"><path fill="#ff66f4" d="M51.452 83.417c47.086 0 85.257-29.804 85.257-66.57s-38.17-66.57-85.257-66.57c-47.085 0-85.256 29.805-85.256 66.57 0 36.766 38.17 66.57 85.256 66.57"/></g><g filter="url(#e)"><path fill="#ff0105" d="M65.356 62.787c36.766 0 66.57-26.175 66.57-58.464 0-32.288-29.804-58.464-66.57-58.464S-1.214-27.965-1.214 4.323c0 32.289 29.805 58.464 66.57 58.464"/></g><g filter="url(#f)"><path fill="#fe7b02" d="M52.637 56.87c22.112 0 40.037-17.925 40.037-40.037S74.749-23.204 52.637-23.204 12.6-5.28 12.6 16.833 30.525 56.87 52.637 56.87"/></g></g><defs><filter id="c" width="192.813" height="192.813" x="-52.266" y="-43.026" color-interpolation-filters="sRGB" filterUnits="userSpaceOnUse"><feFlood flood-opacity="0" result="BackgroundImageFix"/><feBlend in="SourceGraphic" in2="BackgroundImageFix" result="shape"/><feGaussianBlur result="effect1_foregroundBlur_867_13654" stdDeviation="14.918"/></filter><filter id="d" width="230.186" height="192.813" x="-63.641" y="-79.559" color-interpolation-filters="sRGB" filterUnits="userSpaceOnUse"><feFlood flood-opacity="0" result="BackgroundImageFix"/><feBlend in="SourceGraphic" in2="BackgroundImageFix" result="shape"/><feGaussianBlur result="effect1_foregroundBlur_867_13654" stdDeviation="14.918"/></filter><filter id="e" width="192.813" height="176.601" x="-31.05" y="-83.977" color-interpolation-filters="sRGB" filterUnits="userSpaceOnUse"><feFlood flood-opacity="0" result="BackgroundImageFix"/><feBlend in="SourceGraphic" in2="BackgroundImageFix" result="shape"/><feGaussianBlur result="effect1_foregroundBlur_867_13654" stdDeviation="14.918"/></filter><filter id="f" width="139.747" height="139.747" x="-17.237" y="-53.041" color-interpolation-filters="sRGB" filterUnits="userSpaceOnUse"><feFlood flood-opacity="0" result="BackgroundImageFix"/><feBlend in="SourceGraphic" in2="BackgroundImageFix" result="shape"/><feGaussianBlur result="effect1_foregroundBlur_867_13654" stdDeviation="14.918"/></filter><linearGradient id="a" x1="34.095" x2="64.057" y1="17.572" y2="99.96" gradientUnits="userSpaceOnUse"><stop offset=".025" stop-color="#ff8e63"/><stop offset=".56" stop-color="#ff7eb0"/><stop offset=".95" stop-color="#4b73ff"/></linearGradient></defs></svg>