<svg xmlns="http://www.w3.org/2000/svg" fill="none" viewBox="0 0 100 100"><g clip-path="url(#a)"><path fill="#fff" d="M8.333 24.996 51.633 0v100l-43.3-25z"/><path fill="url(#b)" d="m51.633 100-43.3-25 43.3-25 43.304 25z"/><path fill="url(#c)" d="m51.633 100-43.3-25 43.3-25 43.304 25z"/><path fill="url(#d)" d="M8.333 24.996 51.633 0v100l-43.3-25z" style="mix-blend-mode:screen"/><path fill="url(#e)" d="m51.633 100-43.3-25 43.3-25 43.304 25z" style="mix-blend-mode:overlay"/><path fill="url(#f)" d="M8.333 24.996 51.633 0v100l-43.3-25z" style="mix-blend-mode:overlay"/></g><defs><linearGradient id="b" x1="8.333" x2="94.937" y1="75" y2="75" gradientUnits="userSpaceOnUse"><stop stop-color="#00a"/><stop offset="1" stop-color="#a78dff"/></linearGradient><linearGradient id="c" x1="8.333" x2="94.937" y1="75" y2="75" gradientUnits="userSpaceOnUse"><stop stop-color="#00a"/><stop offset="1" stop-color="#a78dff"/></linearGradient><linearGradient id="d" x1="57.283" x2="19.467" y1="94.341" y2="15.604" gradientUnits="userSpaceOnUse"><stop stop-color="#004eff"/><stop offset="1" stop-color="#0ff"/></linearGradient><linearGradient id="e" x1="8.333" x2="94.937" y1="75" y2="75" gradientUnits="userSpaceOnUse"><stop stop-color="#00a"/><stop offset="1" stop-color="#a78dff"/></linearGradient><linearGradient id="f" x1="57.283" x2="19.467" y1="94.341" y2="15.604" gradientUnits="userSpaceOnUse"><stop stop-color="#004eff"/><stop offset="1" stop-color="#0ff"/></linearGradient><clipPath id="a"><path fill="#fff" d="M0 0h100v100H0z"/></clipPath></defs></svg>