<svg xmlns="http://www.w3.org/2000/svg" fill="none" viewBox="0 0 100 100"><path fill="#fff" fill-rule="evenodd" d="M63.725 85.95c-20 0-36.275-16.25-36.275-36.23 0-4.866 3.95-8.816 8.825-8.816s8.833 3.95 8.833 8.817a18.625 18.625 0 0 0 18.617 18.596A18.625 18.625 0 0 0 82.342 49.72V37.375c0-4.87 3.958-8.817 8.833-8.817 4.87 0 8.825 3.942 8.825 8.817v12.346c0 19.975-16.275 36.229-36.275 36.229" clip-rule="evenodd"/><path fill="#fff" fill-rule="evenodd" d="M8.83 71.142A8.82 8.82 0 0 1 0 62.325v-12.35C0 30 16.275 13.75 36.275 13.75S72.55 30 72.55 49.975a8.82 8.82 0 0 1-8.825 8.817 8.82 8.82 0 0 1-8.833-8.817 18.625 18.625 0 0 0-18.617-18.592 18.625 18.625 0 0 0-18.617 18.592v12.35a8.82 8.82 0 0 1-8.829 8.817" clip-rule="evenodd"/></svg>