<svg xmlns="http://www.w3.org/2000/svg" fill="none" viewBox="0 0 100 100"><g clip-path="url(#a)"><mask id="d" width="100" height="101" x="0" y="-1" maskUnits="userSpaceOnUse" style="mask-type:luminance"><path fill="#fff" d="M0 0h100v100H0z"/></mask><g filter="url(#b)" mask="url(#d)"><path fill="url(#e)" fill-rule="evenodd" d="M50 0c27.612 0 50 22.387 50 50 0 27.612-22.388 50-50 50-27.613 0-50-22.388-50-50C0 22.387 22.387 0 50 0m0 15.112a34.888 34.888 0 1 0 0 69.775 34.888 34.888 0 0 0 0-69.775" clip-rule="evenodd"/></g></g><defs><linearGradient id="e" x1="100" x2="0" y1="0" y2="100" gradientUnits="userSpaceOnUse"><stop offset=".13" stop-color="#ff97e3"/><stop offset=".18" stop-color="#d14fe1"/><stop offset=".338" stop-color="#0050e2"/><stop offset=".666" stop-color="#0050e2"/><stop offset=".809" stop-color="#00ddf4"/><stop offset=".858" stop-color="#23f8cc"/></linearGradient><clipPath id="a"><path fill="#fff" d="M0 0h100v100H0z"/></clipPath><filter id="b" width="100" height="100" x="0" y="0" color-interpolation-filters="sRGB" filterUnits="userSpaceOnUse"><feFlood flood-opacity="0" result="BackgroundImageFix"/><feBlend in="SourceGraphic" in2="BackgroundImageFix" result="shape"/><feColorMatrix in="SourceAlpha" result="hardAlpha" values="0 0 0 0 0 0 0 0 0 0 0 0 0 0 0 0 0 0 127 0"/><feOffset/><feGaussianBlur stdDeviation="3.125"/><feComposite in2="hardAlpha" k2="-1" k3="1" operator="arithmetic"/><feColorMatrix values="0 0 0 0 1 0 0 0 0 1 0 0 0 0 1 0 0 0 0.5 0"/><feBlend in2="shape" result="effect1_innerShadow_867_7215"/></filter></defs></svg>