<svg xmlns="http://www.w3.org/2000/svg" fill="none" viewBox="0 0 100 100"><g clip-path="url(#a)"><path fill="#36ced0" d="M0 33.195h11.113v11.112H0zm33.334 11.108h11.112v11.112H33.334z"/><path fill="#624aff" d="M0 44.303h11.113v11.113H0zm11.113 11.113H22.22v11.112h11.113v11.108h-22.22zm0-33.334h22.22v11.113H22.222v11.108H11.113zm33.333 33.334H55.56v11.112H44.446z"/><path fill="#36ced0" d="M100 33.195H88.888v11.112H100zM66.667 44.303H55.554v11.112h11.113z"/><path fill="#624aff" d="M100 44.303H88.888v11.113H100zM88.888 55.416H77.779v11.112H66.667v11.108h22.22zm0-33.334H66.667v11.113h11.112v11.108h11.109z"/></g><defs><clipPath id="a"><path fill="#fff" d="M0 0h100v100H0z"/></clipPath></defs></svg>