<svg xmlns="http://www.w3.org/2000/svg" fill="none" viewBox="0 0 100 100"><g clip-path="url(#a)"><path fill="url(#b)" d="M50 100c27.614 0 50-22.386 50-50S77.614 0 50 0 0 22.386 0 50s22.386 50 50 50"/><path fill="#fff" d="M50 85.156c22.437 0 40.625-15.74 40.625-35.158S72.437 14.839 50 14.839 9.375 30.58 9.375 49.998 27.563 85.156 50 85.156"/><path fill="#1e1e1e" d="M67.529 42.479a4 4 0 0 1 5.743-.089 4 4 0 0 1-.089 5.743l-4.642 4.642 6.138 3.541a4 4 0 1 1-4 6.925l-10.183-5.879a4 4 0 0 1-.3-.192 4.01 4.01 0 0 1-.984-6.375zm-35.496-1.075a6.25 6.25 0 0 0-6.25 6.25v9.375a6.25 6.25 0 0 0 12.5 0v-9.375a6.25 6.25 0 0 0-6.25-6.25"/></g><defs><linearGradient id="b" x1="0" x2="100" y1="51.171" y2="51.171" gradientUnits="userSpaceOnUse"><stop stop-color="#a83fe0"/><stop offset=".477" stop-color="#515ffb"/><stop offset="1" stop-color="#2bb5dd"/></linearGradient><clipPath id="a"><path fill="#fff" d="M0 0h100v100H0z"/></clipPath></defs></svg>