<svg xmlns="http://www.w3.org/2000/svg" fill="none" viewBox="0 0 100 100"><path fill="#99d52a" d="M33.088 8.333c.958 0 1.883.304 2.658.875A4.6 4.6 0 0 1 37.4 11.5l2.47 7.558a4.7 4.7 0 0 0 1.655 2.292 4.5 4.5 0 0 0 2.658.875h11.63c.958 0 1.883-.308 2.658-.875a4.63 4.63 0 0 0 1.654-2.292l2.475-7.562a4.63 4.63 0 0 1 1.654-2.292c.771-.567 1.7-.87 2.654-.87h7.084a4.48 4.48 0 0 1 2.662.874 4.64 4.64 0 0 1 1.654 2.292l2.717 8.308a4.6 4.6 0 0 0 3.208 3.034l12.321 3.133c.983.25 1.858.83 2.483 1.642s.959 1.816.963 2.85v39.066a4.7 4.7 0 0 1-.963 2.85 4.54 4.54 0 0 1-2.479 1.642l-12.32 3.133a4.5 4.5 0 0 0-1.988 1.096 4.64 4.64 0 0 0-1.22 1.938L78.307 88.5a4.63 4.63 0 0 1-1.65 2.292 4.5 4.5 0 0 1-2.658.875h-7.092a4.46 4.46 0 0 1-2.654-.875A4.63 4.63 0 0 1 62.6 88.5l-1.517-4.625a4.71 4.71 0 0 1 .625-4.175 4.47 4.47 0 0 1 3.688-1.925H77.27a4.5 4.5 0 0 0 3.216-1.354 4.67 4.67 0 0 0 1.334-3.271v-46.3a4.68 4.68 0 0 0-1.334-3.27 4.5 4.5 0 0 0-3.212-1.36H63.637a4.5 4.5 0 0 0-3.216 1.36 4.67 4.67 0 0 0-1.334 3.27v32.408a4.66 4.66 0 0 1-1.329 3.275 4.5 4.5 0 0 1-3.212 1.354h-9.092a4.5 4.5 0 0 1-3.212-1.354 4.68 4.68 0 0 1-1.334-3.275V26.85a4.66 4.66 0 0 0-1.333-3.27 4.5 4.5 0 0 0-3.208-1.36H22.725a4.5 4.5 0 0 0-3.217 1.36 4.67 4.67 0 0 0-1.333 3.27v46.3c0 1.225.483 2.404 1.333 3.27a4.5 4.5 0 0 0 3.217 1.36H34.6a4.48 4.48 0 0 1 3.688 1.92 4.67 4.67 0 0 1 .625 4.17l-1.517 4.634a4.63 4.63 0 0 1-1.654 2.292c-.771.566-1.7.87-2.654.87H26a4.48 4.48 0 0 1-2.658-.874 4.63 4.63 0 0 1-1.654-2.292l-2.717-8.308a4.64 4.64 0 0 0-1.225-1.938 4.5 4.5 0 0 0-1.988-1.096L3.442 74.025a4.54 4.54 0 0 1-2.48-1.642A4.7 4.7 0 0 1 0 69.533V30.467c0-1.034.338-2.038.963-2.85a4.56 4.56 0 0 1 2.479-1.642l12.32-3.138a4.5 4.5 0 0 0 1.988-1.095 4.7 4.7 0 0 0 1.22-1.934l2.722-8.312a4.63 4.63 0 0 1 1.654-2.292A4.53 4.53 0 0 1 26 8.334z"/></svg>