<svg xmlns="http://www.w3.org/2000/svg" fill="none" viewBox="0 0 100 100"><g clip-path="url(#a)"><path fill="url(#b)" d="M23.93 16.666C7.096 16.666 1.275 55.458.009 65.958c-.109.9 1.004 1.367 1.683.758C34.846 36.925 50.21 81.691 63.367 81.691c-7.366 0-12.762-20.583-19.541-38.596C38.555 29.104 32.45 16.666 23.93 16.666"/><path fill="url(#c)" d="M98.25 65.668c.638.77 1.892.262 1.738-.725-1.516-9.596-6.508-34.98-16.991-34.98-6.446 0-8.088 12.85-9.738 25.743l-.008.041c14.087 0 19.437 3.159 25 9.917z"/><path fill="#ddb1ff" d="M43.822 43.097C50.6 61.106 56 81.693 63.363 81.693c6.554 0 8.23-12.987 9.888-25.942l.008-.041c1.65-12.896 3.292-25.75 9.733-25.75-12.916 0-19.629 46.866-39.17 13.137"/></g><defs><linearGradient id="b" x1="0" x2="63.371" y1="48.179" y2="50.079" gradientUnits="userSpaceOnUse"><stop stop-color="#3239dc"/><stop offset="1" stop-color="#5a38e2"/></linearGradient><linearGradient id="c" x1="73.251" x2="100.013" y1="47.447" y2="48.056" gradientUnits="userSpaceOnUse"><stop stop-color="#3239dc"/><stop offset="1" stop-color="#5a38e2"/></linearGradient><clipPath id="a"><path fill="#fff" d="M0 0h100v100H0z"/></clipPath></defs></svg>