<svg xmlns="http://www.w3.org/2000/svg" fill="none" viewBox="0 0 100 100"><g clip-path="url(#a)"><path fill="#512bd4" d="M100 0H0v100h100z"/><path fill="#fff" d="M17.823 63.89q-1.06 0-1.803-.707-.742-.724-.742-1.722 0-1.016.742-1.74a2.5 2.5 0 0 1 1.803-.726q1.08 0 1.82.726.761.725.761 1.74 0 .997-.76 1.722-.743.707-1.82.707m28.266-.398h-4.597L29.385 44.388a8.5 8.5 0 0 1-.76-1.505h-.107q.142.834.142 3.57v17.039h-4.066V37.5h4.897l11.702 18.65q.742 1.161.954 1.596h.071q-.177-1.034-.177-3.498V37.5h4.048zm19.798 0h-14.23V37.5h13.664v3.661h-9.457v7.36h8.715v3.642h-8.715v7.685h10.023zm20.223-22.331h-7.283v22.33h-4.207v-22.33h-7.265V37.5H86.11z"/></g><defs><clipPath id="a"><path fill="#fff" d="M0 0h100v100H0z"/></clipPath></defs></svg>