<svg xmlns="http://www.w3.org/2000/svg" fill="none" viewBox="0 0 100 100"><g clip-path="url(#a)"><path fill="url(#b)" d="M52.32 9.406a1.8 1.8 0 0 0-.84-1.525L39.25.264a1.75 1.75 0 0 0-1.85 0L15.004 14.148l-.092.062a1.79 1.79 0 0 0-.75 1.467v14.346L2.954 36.669a1.79 1.79 0 0 0-.87 1.541v23.41a1.79 1.79 0 0 0 .89 1.429l11.188 6.5V84.18A1.79 1.79 0 0 0 15 85.71l22.392 14.024a1.75 1.75 0 0 0 1.841.009l12.23-7.459a1.79 1.79 0 0 0 .854-1.537v-36.2h-3.538v4.741L25.333 73.544l1.817 3.07 21.63-13.15v26.271L38.332 96.11l-8.716-5.458 9.166-5.525-1.808-3.083-10.75 6.483-8.53-5.342V68.994l9.892-5.959-1.804-3.079-10.316 6.22-9.846-5.72V51.02l10.77-6.5-1.808-3.075-8.962 5.404V39.23l10.27-6.092 9.759 6.3v9.046l-7.292 4.792 1.921 3 6.958-4.563 6.388 4.534 2.025-2.938-6.458-4.583v-9.458l10.641-6.696a1.8 1.8 0 0 0 .834-1.525V19.702h-3.534v10.346l-9.841 6.204-9.596-6.183V16.68l7.804-4.846v11.3h3.542V9.648l9.279-5.754 10.454 6.512v33.917h3.542V9.406z"/><path fill="url(#c)" fill-rule="evenodd" d="M78.942 51.139a9.375 9.375 0 1 0 0-3.409H44.696v3.409h34.25zm15.187-1.709a5.968 5.968 0 1 1-11.93.315 5.968 5.968 0 0 1 11.93-.315" clip-rule="evenodd"/><path fill="url(#d)" fill-rule="evenodd" d="M75.38 61.363H55.774v-3.408h23.012V75h6.821v17.045H68.562V75.006h6.817zm-3.41 27.275V78.41h10.226v10.23z" clip-rule="evenodd"/><path fill="url(#e)" fill-rule="evenodd" d="M75.38 37.502H55.774v3.408h23.012V23.868h9.896l-11.6-18.562L65.487 23.86h9.892zm1.707-25.763-5.454 8.721H82.53z" clip-rule="evenodd"/></g><defs><linearGradient id="b" x1="14.583" x2="85.417" y1="14.585" y2="89.585" gradientUnits="userSpaceOnUse"><stop stop-color="#43e3e4"/><stop offset=".25" stop-color="#4a9fff"/><stop offset=".5" stop-color="#aa4bfb"/><stop offset=".75" stop-color="#fc5978"/><stop offset="1" stop-color="#ff6d32"/></linearGradient><linearGradient id="c" x1="14.584" x2="85.417" y1="14.584" y2="89.584" gradientUnits="userSpaceOnUse"><stop stop-color="#43e3e4"/><stop offset=".25" stop-color="#4a9fff"/><stop offset=".5" stop-color="#aa4bfb"/><stop offset=".75" stop-color="#fc5978"/><stop offset="1" stop-color="#ff6d32"/></linearGradient><linearGradient id="d" x1="14.583" x2="85.417" y1="14.584" y2="89.584" gradientUnits="userSpaceOnUse"><stop stop-color="#43e3e4"/><stop offset=".25" stop-color="#4a9fff"/><stop offset=".5" stop-color="#aa4bfb"/><stop offset=".75" stop-color="#fc5978"/><stop offset="1" stop-color="#ff6d32"/></linearGradient><linearGradient id="e" x1="14.583" x2="85.417" y1="14.585" y2="89.585" gradientUnits="userSpaceOnUse"><stop stop-color="#43e3e4"/><stop offset=".25" stop-color="#4a9fff"/><stop offset=".5" stop-color="#aa4bfb"/><stop offset=".75" stop-color="#fc5978"/><stop offset="1" stop-color="#ff6d32"/></linearGradient><clipPath id="a"><path fill="#fff" d="M0 0h100v100H0z"/></clipPath></defs></svg>