<svg xmlns="http://www.w3.org/2000/svg" fill="none" viewBox="0 0 100 100"><mask id="a" width="97" height="98" x="0" y="1" maskUnits="userSpaceOnUse" style="mask-type:luminance"><path fill="#fff" d="M96.364 1.515H0v96.97h96.364z"/></mask><g mask="url(#a)"><mask id="b" width="98" height="98" x="-1" y="1" maskUnits="userSpaceOnUse" style="mask-type:alpha"><path fill="#fff" d="m54.136 72.06 4.646 4.677a.75.75 0 0 1 .167.809l-7.267 18.539a3.76 3.76 0 0 1-3.5 2.4 3.76 3.76 0 0 1-3.5-2.403L34.224 69.403 17.31 86.424a.746.746 0 0 1-1.06 0l-4.264-4.287a.76.76 0 0 1 0-1.067l20.879-21.006a3.94 3.94 0 0 1 2.527-1.206 3.79 3.79 0 0 1 3.733 2.394l9.067 23.12 4.718-12.05a.752.752 0 0 1 1.236-.258zm24.922-58.484L62.139 30.597 51.685 3.915a3.76 3.76 0 0 0-4.334-2.309c-1.254.279-2.254 1.234-2.724 2.44l-7.212 18.4a.76.76 0 0 0 .167.809l4.645 4.676a.752.752 0 0 0 1.234-.258l4.72-12.052 9.065 23.119a3.758 3.758 0 0 0 6.166 1.288L84.388 18.92a.76.76 0 0 0 0-1.066l-4.267-4.288a.746.746 0 0 0-1.06 0zm-53.064 41.17-11.979-4.749 22.976-9.121a3.8 3.8 0 0 0 2.379-3.758 3.94 3.94 0 0 0-1.197-2.545l-20.867-21a.745.745 0 0 0-1.06 0l-4.264 4.29a.76.76 0 0 0 0 1.07L28.9 35.956 2.385 46.475a3.788 3.788 0 0 0 0 7.046l18.421 7.31a.73.73 0 0 0 .806-.167l4.646-4.673A.757.757 0 0 0 26 54.75zm67.982-8.273-18.424-7.31a.73.73 0 0 0-.803.168l-4.646 4.672a.758.758 0 0 0 .255 1.243L82.339 50l-22.978 9.121a3.8 3.8 0 0 0-2.38 3.758c.055.96.522 1.86 1.198 2.545l20.879 21.003a.746.746 0 0 0 1.06 0l4.26-4.287a.757.757 0 0 0 0-1.067L67.465 64.052 93.979 53.53a3.788 3.788 0 0 0 0-7.045z"/></mask><g mask="url(#b)"><path fill="url(#c)" d="M-8.833 104.925h113.479v-109.8H-8.834z"/></g></g><defs><linearGradient id="c" x1="102.009" x2="-6.321" y1="103.434" y2="-4.245" gradientUnits="userSpaceOnUse"><stop stop-color="#ff6200"/><stop offset=".399" stop-color="#e433ff"/><stop offset=".96" stop-color="#6842ff"/></linearGradient></defs></svg>