<svg xmlns="http://www.w3.org/2000/svg" fill="none" viewBox="0 0 100 100"><path fill="#74b71b" d="M42.55 37.4v-5.65q.794-.062 1.617-.087c14.983-.488 24.82 13.266 24.82 13.266S58.371 60.125 46.98 60.125a13.5 13.5 0 0 1-4.43-.73v-17.12c5.834.725 7.005 3.383 10.513 9.408l7.805-6.779a20.44 20.44 0 0 0-15.292-7.692q-1.524.008-3.038.184m0-18.65v8.437a45 45 0 0 1 1.617-.1c20.842-.725 34.42 17.609 34.42 17.609S62.98 64.233 46.73 64.233c-1.408 0-2.812-.129-4.196-.383v5.208a26 26 0 0 0 3.492.238c15.12 0 26.054-7.959 36.642-17.371 1.754 1.446 8.941 4.97 10.42 6.517C83.021 67.12 59.554 74.12 46.254 74.12c-1.283 0-2.512-.084-3.725-.2v7.329H100v-62.5H42.543zm0 40.65v4.45c-13.983-2.567-17.862-17.542-17.862-17.542a29.9 29.9 0 0 1 17.862-8.908v4.883h-.02a13.26 13.26 0 0 0-10.425 4.908s2.562 9.48 10.445 12.209M17.7 45.65c5.983-8.062 15.017-13.117 24.837-13.9v-4.57c-18.329 1.516-34.204 17.5-34.204 17.5s8.992 26.778 34.209 29.228V69.05c-18.5-2.383-24.834-23.392-24.834-23.392H17.7z"/></svg>