<svg xmlns="http://www.w3.org/2000/svg" fill="none" viewBox="0 0 100 100"><g clip-path="url(#a)"><path fill="url(#b)" d="m9.038 36.452.416-2.895c1.017-6.888 3.838-12.971 8.305-18.346A40.7 40.7 0 0 1 31.855 4.186C36.717 1.894 41.834.427 47.292.094c4.733-.292 9.337.12 13.887 1.35a35.2 35.2 0 0 1 6.938 2.683c2.896 1.492 3.304 3.796.954 5.992a94.3 94.3 0 0 1-17.954 13.283 97.6 97.6 0 0 1-16.608 7.442c-4.96 1.669-10.028 3-15.167 3.987q-2.806.55-10.308 1.625z"/><path fill="url(#c)" d="M17.284 38.256c7.329 1.708 14.766 2.75 22.262 3.287 6.55.47 13.125.458 19.696.15 6.546-.304 12.992-1.192 19.408-2.37 2.233-.41 4.396-1.093 6.721-1.03 4.77.12 8.058 2.646 9.2 7.146 1.646 6.462 1.73 12.937-.03 19.358a39.7 39.7 0 0 1-9.603 17.088 46.1 46.1 0 0 1-17.584 11.608C60.21 96.16 52.8 97.018 45.188 96.326a36 36 0 0 1-5.834-.933 1.5 1.5 0 0 0-1.216.22c-5.096 3.01-10.638 4.43-16.571 4.388a32 32 0 0 1-4.992-.475c-3.208-.525-4.35-3.429-2.366-5.958 1.083-1.375 2.066-2.792 2.675-4.433.279-.75.541-1.505.766-2.275a2.91 2.91 0 0 0-.82-3.125c-3.692-3.588-6.784-7.625-8.93-12.275-4.491-9.725-4.958-19.654-1.258-29.734a41 41 0 0 1 2.433-5.312l.3.046q5.758 1.294 7.909 1.795"/></g><defs><linearGradient id="b" x1="2125.68" x2="2892.21" y1="1363.86" y2="2577.56" gradientUnits="userSpaceOnUse"><stop stop-color="#6595f1"/><stop offset="1" stop-color="#336bd7"/></linearGradient><linearGradient id="c" x1="4587.56" x2="4587.56" y1="36.414" y2="6395.25" gradientUnits="userSpaceOnUse"><stop stop-color="#6595f1"/><stop offset="1" stop-color="#336bd7"/></linearGradient><clipPath id="a"><path fill="#fff" d="M0 0h100v100H0z"/></clipPath></defs></svg>