<svg xmlns="http://www.w3.org/2000/svg" fill="none" viewBox="0 0 100 100"><path fill="#f9ab00" d="M50 95.525a6.996 6.996 0 0 0 6.996-7V27.9H43.004v60.633A6.99 6.99 0 0 0 50 95.525"/><path fill="#5bb974" d="M77.875 50.02A24.245 24.245 0 0 0 50 45.434l29.95 29.95c1.233 1.234 3.362.746 3.888-.916a24.23 24.23 0 0 0-5.963-24.446"/><path fill="#129eaf" d="M22.125 50.02A24.245 24.245 0 0 1 50 45.434l-29.95 29.95a2.34 2.34 0 0 1-3.887-.916 24.23 24.23 0 0 1 5.962-24.446"/><path fill="#af5cf7" d="M75.654 26.775c-11.916 0-22.033 7.812-25.654 18.658h47.363a2.62 2.62 0 0 0 2.354-3.783c-4.5-8.833-13.584-14.875-24.063-14.875"/><path fill="#ff8bcb" d="M54.95 14.1C46.52 22.533 44.892 35.2 50 45.433l33.492-33.495a2.62 2.62 0 0 0-1.009-4.342C73.05 4.533 62.358 6.692 54.95 14.1"/><path fill="#fa7b17" d="M45.05 14.1c8.43 8.433 10.058 21.1 4.95 31.333L16.508 11.938a2.62 2.62 0 0 1 1.009-4.342C26.95 4.533 37.642 6.692 45.05 14.1"/><path fill="#4285f4" d="M24.346 26.775c11.917 0 22.033 7.812 25.654 18.658H2.638A2.62 2.62 0 0 1 .283 41.65c4.5-8.833 13.584-14.875 24.063-14.875"/></svg>