<svg xmlns="http://www.w3.org/2000/svg" fill="none" viewBox="0 0 100 100"><g clip-path="url(#a)"><path fill="#ff4017" fill-rule="evenodd" d="M3.46 8.76C0 13.845 0 20.965 0 35.2v29.6c0 14.235 0 21.35 3.46 26.44a20 20 0 0 0 5.3 5.3C13.845 100 20.965 100 35.2 100h29.6c14.235 0 21.35 0 26.44-3.46a20 20 0 0 0 5.3-5.3C100 86.155 100 79.035 100 64.8V35.2c0-14.235 0-21.35-3.46-26.44a20 20 0 0 0-5.3-5.3C86.155 0 79.035 0 64.8 0H35.2C20.965 0 13.85 0 8.76 3.46a20 20 0 0 0-5.3 5.3m82.85 57.39a3.776 3.776 0 0 0-7.55.16c.145 6.525-1.52 9.56-3.625 11.05-2.34 1.67-6.44 2.365-13.175 1.36a3.775 3.775 0 0 0-1.11 7.465c7.225 1.075 13.845.75 18.655-2.67 5.05-3.59 6.97-9.7 6.805-17.365" clip-rule="evenodd"/></g><defs><clipPath id="a"><path fill="#fff" d="M0 0h100v100H0z"/></clipPath></defs></svg>