<svg xmlns="http://www.w3.org/2000/svg" fill="none" viewBox="0 0 100 100"><g clip-path="url(#a)"><path fill="#fff" fill-rule="evenodd" d="M15.512 18.925V100h15.196V67.113s.03 0 .03.029V65c5.204 5.004 11.741 8.475 18.979 9.662a36 36 0 0 0 5.316.405c18.021-.521 33.625-13.884 36.246-32.221A37.15 37.15 0 0 0 84.1 15.02 37.57 37.57 0 0 0 59.284.383 37.6 37.6 0 0 0 31.325 7.53a35 35 0 0 0-2.82 2.313L17.866 1.338l-9.534 11.8zm38.655-5.15a23.71 23.71 0 0 1 22.466 16.054 23.56 23.56 0 0 1-16.25 30.313c-2.026.55-4.117.821-6.216.808a23.6 23.6 0 0 1-11.217-2.804 23 23 0 0 1-7.763-6.625 22.76 22.76 0 0 1-4.445-10.7 22 22 0 0 1-.263-3.442c0-13.046 10.608-23.604 23.688-23.604" clip-rule="evenodd"/></g><defs><clipPath id="a"><path fill="#fff" d="M0 0h100v100H0z"/></clipPath></defs></svg>