<svg xmlns="http://www.w3.org/2000/svg" fill="none" viewBox="0 0 100 100"><path fill="url(#a)" fill-rule="evenodd" d="M73.242 39.1c2 0 3.625 1.625 3.625 3.625v16.112l17.687-15.262a1.812 1.812 0 0 1 3 1.37v44.717a1.817 1.817 0 0 1-2.958 1.413l-17.73-14.338V92.95c0 .863-.309 1.698-.87 2.354l-.363.367a3.63 3.63 0 0 1-2.858.87l-45.446-5.874V96.1a3.625 3.625 0 0 1-3.62 3.625H3.624A3.625 3.625 0 0 1 0 96.105V42.728c0-2 1.625-3.625 3.625-3.629zM47.583 57.217H29.075a1.81 1.81 0 0 0-1.812 1.808v11.863c0 1 .812 1.808 1.812 1.808h18.508c1 0 1.809-.808 1.813-1.808V59.025a1.81 1.81 0 0 0-1.813-1.808M53.442 0a18.142 18.142 0 1 1 0 36.284 18.142 18.142 0 0 1 0-36.284m-33.25 5.47a15.117 15.117 0 1 1 0 30.235 15.117 15.117 0 0 1 0-30.234" clip-rule="evenodd"/><defs><linearGradient id="a" x1="62.5" x2="-2.083" y1="4.167" y2="100" gradientUnits="userSpaceOnUse"><stop stop-color="#e8632a" stop-opacity=".996"/><stop offset=".586" stop-color="#b465e6" stop-opacity=".996"/><stop offset="1" stop-color="#979fd9" stop-opacity=".996"/></linearGradient></defs></svg>