<svg xmlns="http://www.w3.org/2000/svg" fill="none" viewBox="0 0 100 100"><path fill="#fff" fill-rule="evenodd" d="M86.283 28.65a5.88 5.88 0 0 0-4.287-1.73h-.025a8.41 8.41 0 0 1-8.417-8.428 5.896 5.896 0 0 0-5.829-5.992h-47.43a5.884 5.884 0 0 0-5.837 5.975 8.44 8.44 0 0 1-8.437 8.438v.008A5.894 5.894 0 0 0 0 32.846V48.02a5.89 5.89 0 0 0 6.016 5.916 8.44 8.44 0 0 1 8.437 8.417v15.388a2.084 2.084 0 0 0 3.709 1.304l8.545-10.696H67.72a5.88 5.88 0 0 0 5.833-5.975v-.008a8.427 8.427 0 0 1 8.442-8.438 5.884 5.884 0 0 0 6.025-5.916v-15.18a5.92 5.92 0 0 0-1.738-4.183M76.2 48.18a8.437 8.437 0 0 1-8.437 8.353H20.254a8.44 8.44 0 0 1-8.437-8.354v-15.5a8.44 8.44 0 0 1 8.433-8.354h47.5a8.44 8.44 0 0 1 8.442 8.354v15.5z" clip-rule="evenodd"/><path fill="#fff" fill-rule="evenodd" d="M30.887 31.543a5.925 5.925 0 0 0-5.929 5.917v5.925a5.925 5.925 0 1 0 11.85 0V37.46a5.927 5.927 0 0 0-5.925-5.925zm26.238 0a5.925 5.925 0 0 0-5.925 5.921v5.925a5.925 5.925 0 0 0 11.85 0v-5.93a5.927 5.927 0 0 0-5.925-5.924z" clip-rule="evenodd"/><path fill="url(#a)" fill-rule="evenodd" d="m30.383 94.346 8.304-10.383h41.017a5.887 5.887 0 0 0 5.833-5.975 8.44 8.44 0 0 1 8.404-8.446h.042A5.87 5.87 0 0 0 100 63.625V48.65a6.45 6.45 0 0 0-1.35-3.962l-1.654-2.163v17.196a5.894 5.894 0 0 1-6.017 5.917h-.03a8.44 8.44 0 0 0-8.407 8.437 5.896 5.896 0 0 1-5.842 5.983H35.687l-9.037 11.3a2.392 2.392 0 0 0 3.733 2.98z" clip-rule="evenodd"/><path fill="url(#b)" fill-rule="evenodd" d="m20.85 83.3 8.833-11.041H70.7a5.89 5.89 0 0 0 5.842-5.988c0-4.65 3.75-8.42 8.391-8.437h.05a5.89 5.89 0 0 0 6.013-5.925V34.7l2.167 2.834a6.5 6.5 0 0 1 1.35 3.958v14.975a5.9 5.9 0 0 1-6.013 5.917h-.042a8.44 8.44 0 0 0-8.4 8.441 5.89 5.89 0 0 1-5.841 5.98H33.208l-7.983 10a2.799 2.799 0 0 1-4.37-3.496z" clip-rule="evenodd"/><defs><linearGradient id="a" x1="141.708" x2="4.525" y1="30.429" y2="115.479" gradientUnits="userSpaceOnUse"><stop stop-color="#46a6f7"/><stop offset="1" stop-color="#8364ff"/></linearGradient><linearGradient id="b" x1="20.479" x2="101.417" y1="97.963" y2="39.434" gradientUnits="userSpaceOnUse"><stop stop-color="#ff44d3"/><stop offset="1" stop-color="#cf4bff"/></linearGradient></defs></svg>