<svg xmlns="http://www.w3.org/2000/svg" fill="none" viewBox="0 0 100 100"><path fill="#e0eaf5" fill-rule="evenodd" d="M58.693 12.015c11.242-.004 22.484-.039 33.726.009 6.683.027 8.568 2.26 7.127 8.86A7501 7501 0 0 1 86.64 78.82c-1.383 6.1-4.56 8.598-10.975 8.617-22.484.067-44.969.074-67.452-.003-7.35-.026-9.283-2.515-7.7-9.48A19556 19556 0 0 1 13.485 21.23c1.659-7.204 4.151-9.181 11.482-9.202 11.242-.032 22.485-.008 33.727-.012" clip-rule="evenodd"/><path fill="#2671be" fill-rule="evenodd" d="M41.704 85.189c-11.244-.004-22.487.048-33.73-.026-5.701-.037-6.738-1.382-5.455-6.959C6.87 59.293 11.361 40.413 15.616 21.48c1.14-5.078 3.601-7.322 9.042-7.272 22.484.209 44.973.067 67.459.09 5.64.005 6.586 1.212 5.32 6.93-4.11 18.569-8.246 37.132-12.455 55.678-1.575 6.94-3.39 8.265-10.691 8.281-10.863.023-21.725.006-32.587.002" clip-rule="evenodd"/><path fill="#fdfdfe" fill-rule="evenodd" d="M51.271 48.127c-.754-.884-1.581-1.902-2.458-2.875-4.97-5.52-9.896-11.083-14.954-16.52-2.315-2.49-3.053-4.906-.273-7.362 2.747-2.428 5.447-2.213 7.966.58 7.018 7.777 14.028 15.563 21.162 23.233 2.664 2.865 2.043 4.813-.89 6.935-11.26 8.15-22.458 16.39-33.642 24.644-2.515 1.856-4.911 2.32-6.942-.42-2.24-3.024-.168-4.823 2.156-6.515a3636 3636 0 0 0 24.867-18.255c1.15-.853 2.802-1.35 3.008-3.445" clip-rule="evenodd"/><path fill="#fcfdfd" fill-rule="evenodd" d="M54.831 77.375c-3.027 0-6.058.104-9.079-.033-2.41-.109-3.86-1.455-3.829-3.993.03-2.4 1.24-4.204 3.646-4.27 6.616-.176 13.242-.138 19.86-.009 2.103.041 3.656 1.412 3.643 3.603-.015 2.514-1.338 4.462-4.03 4.624-3.393.205-6.806.051-10.21.051z" clip-rule="evenodd"/></svg>