<svg xmlns="http://www.w3.org/2000/svg" fill="none" viewBox="0 0 100 100"><g clip-path="url(#a)"><path fill="#2874ff" fill-rule="evenodd" d="M50.009 0C22.405 0 0 22.375 0 49.975c0 13.608 5.455 25.967 14.292 34.98v-34.93c0-9.533 3.72-18.53 10.458-25.262a35.47 35.47 0 0 1 25.275-10.455h.292l-.308.034c19.729 0 35.729 16 35.729 35.712 0 1.721-.125 3.408-.363 5.08l-20.183-20.25a21.34 21.34 0 0 0-15.15-6.259 21.36 21.36 0 0 0-15.154 6.263 21.28 21.28 0 0 0-6.28 15.17c0 5.734 2.234 11.109 6.28 15.167a21.33 21.33 0 0 0 15.154 6.267 21.36 21.36 0 0 0 15.154-6.263 21.3 21.3 0 0 0 6.234-13.95l11.84 11.888c-5.233 13.25-18.137 22.637-33.241 22.637-7.83 0-15.296-2.5-21.438-7.142v16.53a49.7 49.7 0 0 0 21.404 4.812C77.596 100 100 77.625 100 50.025 100.034 22.388 77.646.017 50.025.017z" clip-rule="evenodd"/></g><defs><clipPath id="a"><path fill="#fff" d="M0 0h100v100H0z"/></clipPath></defs></svg>