<svg xmlns="http://www.w3.org/2000/svg" fill="none" viewBox="0 0 100 100"><path fill="#3762ff" fill-rule="evenodd" d="M25.312 43.725c6.354-4.366 15.388-7.229 25.613-7.229 10.22 0 19.258 2.863 25.612 7.23 3.209 2.208 5.634 4.72 7.25 7.374-.454-9.433-.454-9.433 2.409-12.091a39 39 0 0 0-4.2-3.334c-8.159-5.612-19.159-8.929-31.071-8.929-11.909 0-22.913 3.317-31.071 8.933C11.708 41.284 6 49.521 6 59.21c0 9.69 5.708 17.928 13.84 23.524 8.163 5.62 19.167 8.933 31.075 8.933 11.913 0 22.917-3.313 31.071-8.933 8.138-5.596 13.846-13.825 13.846-23.525 0-6.167-2.308-11.738-6.083-16.417-.192 4.317-1.709 8.458-4.217 12.237.413 1.355.62 2.763.625 4.18 0 5.541-3.258 11.1-9.637 15.487-6.35 4.367-15.384 7.23-25.609 7.23-10.22 0-19.262-2.863-25.612-7.23-6.367-4.387-9.634-9.946-9.634-15.487.013-5.542 3.271-11.096 9.646-15.484" clip-rule="evenodd"/><path fill="#1041f3" fill-rule="evenodd" d="M15.612 47.892c-2.583 7.375-1.97 14.02 1.384 18.792 3.358 4.766 9.391 7.554 17.154 7.554 7.75 0 16.787-2.833 25.087-8.75 8.305-5.917 13.959-13.546 16.53-20.904 2.583-7.371 1.97-14.017-1.384-18.792-3.358-4.762-9.391-7.55-17.154-7.55-7.75 0-16.787 2.833-25.087 8.746-8.305 5.917-13.959 13.55-16.53 20.904M6.33 44.6c3.333-9.5 10.363-18.741 20.125-25.695 9.758-6.963 20.754-10.571 30.77-10.571 10 0 19.493 3.641 25.188 11.737 5.692 8.096 5.963 18.309 2.638 27.809-3.334 9.508-10.363 18.745-20.125 25.7-9.767 6.958-20.754 10.566-30.78 10.57-10 0-19.49-3.641-25.187-11.737-5.7-8.096-5.962-18.317-2.637-27.808z" clip-rule="evenodd"/></svg>