<svg xmlns="http://www.w3.org/2000/svg" fill="none" viewBox="0 0 100 100"><path fill="#06aeef" d="M96.296 19.166a3.8 3.8 0 0 0-3.588.67A56.01 56.01 0 0 1 33.114 37.07l-2.364-8.61a4.48 4.48 0 0 0-5.046-2.908l1.125 9.083c-7.566-3.446-9.637-3.941-14.945-10.208-.742-.558-6.621-5.796-8.176-5.262a49.6 49.6 0 0 0 24.55 27.07l3.076 24.875s1.375 9.525 10.304 9.525h19.108c8.933 0 10.308-9.525 10.308-9.525l2.159-17.833c-5.804-.458-9.45 3.57-10.609 7.558-1.937 6.725-1.937 7.15-2.32 8.325-.784 2.396-3.359 2.684-3.359 2.684h-11.47s-2.572-.292-3.359-2.684c-.5-1.546-3.03-10.583-5.562-19.75a49.49 49.49 0 0 0 59.758-30.25z"/></svg>