<svg xmlns="http://www.w3.org/2000/svg" fill="none" viewBox="0 0 100 100"><g clip-path="url(#a)"><path fill="#fff" fill-rule="evenodd" d="M100 100H0V0h100zM8.918 64.69c8.95 1.365 22.855 1.91 35.364-.776 4.109-.887 7.923-2.091 11.318-3.65-6.34-15.455-7.614-26.21-5.745-33.537 2.118-8.286 8.177-11.772 13.627-11.827h.045c3.127 0 9.623.804 14.005 6.136 4.559 5.546 5.527 14.328 1.182 27.232-2.291 6.786-6.532 11.891-11.791 15.71 6.013 13.604 9.59 20.445 11.763 24.018 1.014 1.668 1.691 2.563 2.123 3.086h10.273V8.918H8.918zm50.228 3.76c-4.146 1.877-8.578 3.232-12.987 4.182-13.227 2.845-27.54 2.395-37.24 1.063v17.387H70.15C67.754 86.9 64.3 80.068 59.145 68.45m4.408-44.636c-1.468.022-3.954.822-5.054 5.122-1.136 4.432-.732 12.618 4.795 26.546 3.205-2.718 5.605-6.041 6.96-10.06 3.945-11.708 2.068-16.681.39-18.722-1.845-2.245-4.954-2.882-7.09-2.886" clip-rule="evenodd"/></g><defs><clipPath id="a"><path fill="#fff" d="M0 0h100v100H0z"/></clipPath></defs></svg>