<svg xmlns="http://www.w3.org/2000/svg" fill="none" viewBox="0 0 100 100"><g clip-path="url(#a)"><g clip-path="url(#b)"><path fill="url(#c)" d="M88.26 32.922a32.67 32.67 0 0 0-4.258-16.19c-7.202-7.412-22.866-9.13-26.756-.035-3.995 9.321 6.71 19.694 11.39 18.87 5.956-1.05-1.052-14.718-1.052-14.718 9.11 17.172 7.008 11.915-9.462 27.685S24.83 97.577 22.378 98.979a2 2 0 0 1-.333.175h64.602c1.14 0 1.875-1.21 1.367-2.225l-16.89-33.432a1.53 1.53 0 0 1 .595-2.015c9.882-5.677 16.54-16.33 16.54-28.56"/><path fill="url(#d)" d="M88.26 32.922a32.67 32.67 0 0 0-4.258-16.19c-7.202-7.412-22.866-9.13-26.756-.035-3.995 9.321 6.71 19.694 11.39 18.87 5.956-1.05-1.052-14.718-1.052-14.718 9.11 17.172 7.008 11.915-9.462 27.685S24.83 97.577 22.378 98.979a2 2 0 0 1-.333.175h64.602c1.14 0 1.875-1.21 1.367-2.225l-16.89-33.432a1.53 1.53 0 0 1 .595-2.015c9.882-5.677 16.54-16.33 16.54-28.56"/><path fill="url(#e)" d="M22.378 98.979c2.453-1.402 19.274-34.693 35.744-50.463s18.573-10.513 9.462-27.684c0 0-34.868 48.886-47.484 73.066"/><path fill="url(#f)" d="M27.284 55.174C50.834 11.878 53.917 7.515 66.182 7.515c6.448 0 12.949 2.909 17.154 8.078C77.606 6.359 67.461.173 55.844-.001H15.842c-.84 0-1.524.683-1.524 1.524v80.635c2.383-6.15 6.43-14.946 12.966-26.984"/><path fill="url(#g)" d="M58.122 48.516c-16.47 15.77-33.291 49.061-35.744 50.463s-6.571 1.577-8.761-.876c-2.33-2.611-5.958-6.834 13.667-42.929C50.833 11.878 53.917 7.515 66.182 7.515c6.448 0 12.948 2.909 17.154 8.078.228.368.455.753.683 1.139-7.201-7.412-22.866-9.129-26.756-.035-3.995 9.321 6.711 19.694 11.39 18.87C74.61 34.518 67.6 20.85 67.6 20.85c9.094 17.154 6.991 11.898-9.479 27.667"/><path fill="url(#h)" d="M29.211 57.102c23.55-43.296 26.633-47.66 38.898-47.66 5.31 0 10.654 1.98 14.719 5.555-4.206-4.8-10.443-7.482-16.646-7.482-12.265 0-15.35 4.363-38.898 47.66C7.659 91.268 11.286 95.491 13.617 98.102c.333.368.718.683 1.121.946-2.05-2.979-2.961-9.9 14.473-41.947" opacity=".3"/></g></g><defs><linearGradient id="c" x1="39.806" x2="66.79" y1="53.256" y2="59.564" gradientUnits="userSpaceOnUse"><stop stop-color="#ff6533"/><stop offset=".157" stop-color="#ff5633"/><stop offset=".434" stop-color="#ff4333"/><stop offset=".714" stop-color="#ff3733"/><stop offset="1" stop-color="#f33"/></linearGradient><linearGradient id="d" x1="35.586" x2="83.946" y1="44.311" y2="81.808" gradientUnits="userSpaceOnUse"><stop stop-color="#bf3338"/><stop offset="1" stop-color="#f33"/></linearGradient><linearGradient id="e" x1="37.164" x2="44.172" y1="51.698" y2="59.057" gradientUnits="userSpaceOnUse"><stop stop-color="#ff6533"/><stop offset=".157" stop-color="#ff5633"/><stop offset=".434" stop-color="#ff4333"/><stop offset=".714" stop-color="#ff3733"/><stop offset="1" stop-color="#f33"/></linearGradient><linearGradient id="f" x1="49.907" x2="47.804" y1="64.366" y2="34.228" gradientUnits="userSpaceOnUse"><stop stop-color="#ff6533"/><stop offset=".157" stop-color="#ff5633"/><stop offset=".434" stop-color="#ff4333"/><stop offset=".714" stop-color="#ff3733"/><stop offset="1" stop-color="#f33"/></linearGradient><linearGradient id="g" x1="40.797" x2="50.753" y1="51.181" y2="57.951" gradientUnits="userSpaceOnUse"><stop stop-color="#fbb040"/><stop offset="1" stop-color="#fb8840"/></linearGradient><linearGradient id="h" x1="50.996" x2="40.834" y1="12.905" y2="124.693" gradientUnits="userSpaceOnUse"><stop stop-color="#fff"/><stop offset="1" stop-color="#fff" stop-opacity="0"/></linearGradient><clipPath id="a"><path fill="#fff" d="M0 0h100v100H0z"/></clipPath><clipPath id="b"><path fill="#fff" d="M0-.001h100v100H0z"/></clipPath></defs></svg>