<svg xmlns="http://www.w3.org/2000/svg" fill="none" viewBox="0 0 100 100"><path fill="#fff" d="m83.804 20.134-1.842 6.659a.653.653 0 0 1-.816.451l-30.891-9.217a.65.65 0 0 0-.595.117L19.066 42.678a.65.65 0 0 1-.31.136L.555 45.619a.653.653 0 0 0-.552.694L.08 47.36c.025.335.3.595.634.604l21.144.547.241.006 15.623-8.345a.65.65 0 0 1 .687.044l11.068 7.89a.65.65 0 0 1 .274.538l-.093 10.469a.65.65 0 0 0 .117.379l15.57 22.34c.122.176.322.28.536.28h4.928a.653.653 0 0 0 .578-.958L60.29 60.131a.65.65 0 0 1 .023-.65l5.786-9.27a.65.65 0 0 1 .259-.236l20.685-10.497a.65.65 0 0 1 .658.039l5.911 3.94c.107.071.233.11.362.11h5.371c.52 0 .831-.579.545-1.013L84.978 19.948a.653.653 0 0 0-1.174.186"/></svg>