<svg xmlns="http://www.w3.org/2000/svg" fill="none" viewBox="0 0 100 100"><g clip-path="url(#a)"><path fill="#ffd6a6" d="M68.182 0H31.818C14.246 0 0 14.246 0 31.818v36.364C0 85.755 14.246 100 31.818 100h36.364C85.754 100 100 85.755 100 68.182V31.818C100 14.246 85.754 0 68.182 0"/><path fill="#ff8549" d="M.59 25.664A32.6 32.6 0 0 0 0 31.82v36.363a31.82 31.82 0 0 0 31.818 31.819h36.364a32 32 0 0 0 6.154-.591 55.25 55.25 0 0 0 5.21-23.5c0-30.628-24.828-55.455-55.455-55.455-8.4 0-16.364 1.864-23.5 5.21"/><path fill="#ff2900" d="M23.864 96.82c11.422 0 20.681-9.26 20.681-20.682s-9.26-20.682-20.682-20.682-20.681 9.26-20.681 20.682 9.26 20.682 20.682 20.682"/></g><defs><clipPath id="a"><path fill="#fff" d="M0 0h100v100H0z"/></clipPath></defs></svg>