<svg xmlns="http://www.w3.org/2000/svg" fill="none" viewBox="0 0 100 100"><path fill="url(#a)" d="M63.03 90.935c.387 1.245 1.412 2.304 1.437 3.733.091.446-.213 1.737-.7.875-1.038-3.467-1.375-.146-4.438-4.933-.658-1.305-1.787-.23-2.762-.167-2.892-.95-2.042-1.22-3.771 1.25-1.313.367-.204-2.68.42-3.017 1.209-1.033 3.121-.358 3.822-1.483 1.175-4.763-2.667-10.696-4.825-14.792-.705-1.1.054-2.404-.105-3.591-.625-1.7-.783-1.259-.204-3.059-.946-1.97-3.596 1.109-5.083 1.063-1.188.016-2.18-1.875-3.721-2-5.562.016-10.754 3.366-16.358 2.796a5.1 5.1 0 0 0-2.838.895c-1.725.925-3.787.846-5.366 2.175-.496.396-1.125.434-1.726.409-1.125.166-1.987 1.541-3.266 1.416-1.3-.454-2.358.33-3.584.238-1.416-1.188-3.254-.238-4.891.033a1.19 1.19 0 0 1-1.284-.208c-.375-.3-1.1-.342-1.35-.738-.125-.245.117-.604.417-.85 2.196-1.687 4.738-2.775 7.167-4.058 4.775-2.475 8.825-6.096 13.167-9.242.274-.208.354-.5-.146-.495-6.717.562-13.109 4.366-19.75 4.216-.734.096-1.413.53-2.175.625-3.65-.77 2.708-4.833 3.975-5.254 7.1-2.962 14.991-3.512 21.6-7.65.783-.55-.709-1.117-.017-2.208 1.625-5.375 6.567-7.521 11.396-9.1 2.475-.963 4.737-2.8 7.487-2.83a4.4 4.4 0 0 0 3.55-1.5c4.846-4.462 10.175-8.383 15.309-12.495 5.887-7.43 9.508-21.563 21.733-15.234 3.833 1.646 8.225 1.521 11.696 4.067 1.237.788 3.571 3.188.983 3.542-7.091 1.212-10.633-.959-10.958 6.058-.125 1.625.267 3.125-.658 4.525-.059 2.892 1.466 6.283-.35 8.87-1.517 2.626-.326 5.888-1.584 8.53-.916 2.225-2.708 3.875-4.37 5.513-5.434 6.791-9.442 14.483-10.788 23.216-.508 2.613-1.992 6.5.404 8.567 2.53 2.55 5.208 6.075 9.083 4.217 1.275-.584 3.684-.788 3.5 1.141-.208.346-1.075-.408-1.546-.233-.666.425.3 1.317.121 1.937-.091.584-.558.5-.958.225-1.17-.466-2.854.009-4.187-.041-1.075.187-2.134.675-3.175.208-.484-.204-.955-.417-1.484-.43-1.625-.09-3.683.76-4.596-.612-1.008-1.891-1.22-.433-2.216.2-.98-.062-.28-1.458.058-1.916 1.037-2.375 7.692 2.154 4.93-1.8-9.543-8.375-3.238-11.192-6.86-11.209-.708-.37-.428-1.687-1.524-.72-1.396 1.458-1.917-.409-1.917-1.667-.166-.73-.737-1.25-.52-1.996.091-1.625-2.067.354-1.584 1.708.238 2.567-.55 5.105-.425 7.638 1 5.317 1.708 12.07 7.767 13.65.737.317 1.929 1.8 1.054 2.354-.388-.042-.667-.458-1.013-.637-.483-.325-1.07.037-1.575.075-.141.033-.366.029-.416.191z"/><defs><linearGradient id="a" x1="9999.94" x2="0" y1="4944.33" y2="4944.33" gradientUnits="userSpaceOnUse"><stop stop-color="#1d1a5c"/><stop offset=".496" stop-color="#3431c3"/><stop offset="1" stop-color="#7361f7"/></linearGradient></defs></svg>