<svg xmlns="http://www.w3.org/2000/svg" fill="none" viewBox="0 0 100 100"><g clip-path="url(#a)"><g filter="url(#b)" opacity=".53"><path fill="#000" d="M95.61 51.307a42.5 42.5 0 0 1-3.472 16.806A43.85 43.85 0 0 1 82.25 82.36a45.8 45.8 0 0 1-14.796 9.52 47.1 47.1 0 0 1-17.453 3.343 47.1 47.1 0 0 1-17.453-3.343 45.8 45.8 0 0 1-14.796-9.52 43.85 43.85 0 0 1-9.886-14.248 42.5 42.5 0 0 1-3.472-16.806c0-11.648 4.805-22.818 13.358-31.054S37.907 7.39 50.003 7.39c5.989 0 11.92 1.136 17.452 3.343a45.8 45.8 0 0 1 14.796 9.52A43.85 43.85 0 0 1 92.138 34.5a42.5 42.5 0 0 1 3.471 16.807"/></g><path fill="url(#c)" stroke="#cdcdcd" stroke-linecap="round" stroke-linejoin="round" stroke-width=".141" d="M97.344 47.429a47.344 47.344 0 1 1-94.69 0 47.344 47.344 0 0 1 94.69 0"/><path fill="url(#d)" d="M93.634 47.429a43.634 43.634 0 1 1-87.268 0 43.634 43.634 0 0 1 87.268 0"/><path fill="#f4f2f3" d="M50 6.07a.635.635 0 0 0-.636.637v7.338c0 .352.284.636.636.636a.635.635 0 0 0 .636-.636V6.707A.635.635 0 0 0 50 6.07m-4.162.264a.635.635 0 0 0-.696.7l.32 3.069c.037.35.35.603.7.566a.635.635 0 0 0 .566-.698l-.32-3.07a.635.635 0 0 0-.57-.567m8.353.003a.635.635 0 0 0-.57.567l-.323 3.07a.635.635 0 1 0 1.265.132l.323-3.07a.635.635 0 0 0-.695-.7m-12.628.617a.635.635 0 0 0-.62.768l1.52 7.178a.635.635 0 1 0 1.245-.263l-1.52-7.18a.634.634 0 0 0-.625-.503m16.903.006a.634.634 0 0 0-.626.504l-1.525 7.178a.635.635 0 0 0 .49.754.635.635 0 0 0 .755-.49l1.524-7.178a.635.635 0 0 0-.618-.768M37.483 8.104a.635.635 0 0 0-.66.83l.954 2.936a.635.635 0 1 0 1.21-.393l-.954-2.935a.63.63 0 0 0-.55-.438m25.04.001a.64.64 0 0 0-.55.438l-.955 2.935a.635.635 0 0 0 .408.802.635.635 0 0 0 .802-.408l.954-2.936a.635.635 0 0 0-.66-.83M33.448 9.58a.635.635 0 0 0-.57.895l2.981 6.706a.635.635 0 0 0 .84.323.635.635 0 0 0 .323-.84l-2.98-6.705a.64.64 0 0 0-.594-.379m33.155.023a.64.64 0 0 0-.593.377l-2.99 6.702a.635.635 0 0 0 .322.84c.322.143.697 0 .84-.322l2.99-6.701a.635.635 0 0 0-.57-.896m-36.9 1.959a.635.635 0 0 0-.595.953l1.543 2.673c.177.306.564.41.87.233a.635.635 0 0 0 .232-.869L30.21 11.88a.64.64 0 0 0-.507-.317m40.594 0a.63.63 0 0 0-.507.317l-1.543 2.673a.635.635 0 0 0 .233.87.635.635 0 0 0 .869-.234l1.543-2.673a.635.635 0 0 0-.595-.953m-44.23 2.268a.639.639 0 0 0-.493 1.01l4.308 5.94a.635.635 0 1 0 1.03-.748l-4.309-5.94a.64.64 0 0 0-.536-.262m47.912.032a.63.63 0 0 0-.537.262l-4.317 5.934a.635.635 0 0 0 .14.889.635.635 0 0 0 .889-.14l4.317-5.934a.635.635 0 0 0-.492-1.01m-51.163 2.694a.635.635 0 0 0-.506 1.061l2.065 2.295a.635.635 0 0 0 .899.047.635.635 0 0 0 .047-.899l-2.065-2.294a.63.63 0 0 0-.44-.21m54.372.005a.64.64 0 0 0-.44.21l-2.065 2.294a.635.635 0 0 0 .047.898.635.635 0 0 0 .899-.047l2.065-2.294a.635.635 0 0 0-.506-1.061m-57.487 2.988a.637.637 0 0 0-.392 1.108l5.453 4.91a.635.635 0 0 0 .899-.047.635.635 0 0 0-.047-.899l-5.454-4.91a.63.63 0 0 0-.459-.162m60.618.021a.63.63 0 0 0-.46.163l-5.456 4.906a.635.635 0 1 0 .85.946l5.457-4.906a.635.635 0 0 0-.391-1.109M17.11 22.88a.63.63 0 0 0-.537.262.635.635 0 0 0 .141.889l2.497 1.814a.635.635 0 0 0 .889-.14.635.635 0 0 0-.14-.89l-2.498-1.813a.64.64 0 0 0-.352-.122m65.797.023a.64.64 0 0 0-.352.121l-2.498 1.813a.635.635 0 1 0 .747 1.03l2.498-1.813a.635.635 0 0 0 .142-.888.64.64 0 0 0-.537-.263m-68.218 3.53a.63.63 0 0 0-.506.317.635.635 0 0 0 .233.87l6.354 3.668a.635.635 0 0 0 .87-.232.635.635 0 0 0-.233-.87l-6.355-3.668a.64.64 0 0 0-.363-.085m70.622 0a.63.63 0 0 0-.363.085l-6.354 3.669a.635.635 0 0 0-.233.869.634.634 0 0 0 .869.232l6.355-3.669a.635.635 0 0 0-.274-1.186m-72.452 3.788a.635.635 0 0 0-.272 1.217l2.82 1.258a.635.635 0 1 0 .518-1.162l-2.82-1.258a.6.6 0 0 0-.246-.055m74.295.026a.6.6 0 0 0-.247.055l-2.82 1.256a.635.635 0 1 0 .517 1.163l2.82-1.256a.635.635 0 0 0 .322-.84.64.64 0 0 0-.592-.378M11.227 34.18a.63.63 0 0 0-.55.437.635.635 0 0 0 .408.802l6.976 2.273a.635.635 0 1 0 .395-1.21l-6.977-2.273a.6.6 0 0 0-.252-.03m77.555.027a.6.6 0 0 0-.251.03l-6.979 2.267a.635.635 0 0 0-.408.802.635.635 0 0 0 .802.409l6.978-2.269a.635.635 0 0 0-.142-1.24m-78.571 4.128a.634.634 0 0 0-.626.504.635.635 0 0 0 .49.755l3.019.642a.635.635 0 0 0 .754-.49.635.635 0 0 0-.49-.755l-3.019-.642a.6.6 0 0 0-.128-.014m79.58.006a1 1 0 0 0-.129.014l-3.019.641a.635.635 0 1 0 .264 1.245l3.02-.642a.635.635 0 0 0-.136-1.258M9.44 42.515a.634.634 0 0 0-.57.566.635.635 0 0 0 .566.7l7.297.772a.635.635 0 0 0 .7-.566.635.635 0 0 0-.566-.7l-7.297-.771a1 1 0 0 0-.13-.001m81.124.055a.6.6 0 0 0-.129 0l-7.298.762a.635.635 0 0 0-.567.699c.037.35.349.603.699.566l7.298-.761a.635.635 0 0 0 .567-.699.635.635 0 0 0-.57-.567M9.318 46.794a.635.635 0 0 0-.636.636c0 .352.283.636.636.636h3.087a.635.635 0 1 0 0-1.272zm78.278 0a.635.635 0 0 0-.637.636c0 .352.284.636.636.636h3.087a.635.635 0 0 0 .636-.636.635.635 0 0 0-.636-.636zm-70.737 3.468a.6.6 0 0 0-.129 0l-7.298.762a.635.635 0 0 0-.567.698.635.635 0 0 0 .699.567l7.298-.761a.635.635 0 0 0 .567-.7.635.635 0 0 0-.57-.566m66.278.045a.634.634 0 0 0-.57.566.635.635 0 0 0 .565.7l7.297.771a.635.635 0 0 0 .7-.566.635.635 0 0 0-.566-.7l-7.297-.77a1 1 0 0 0-.13-.001M13.22 54.604a.6.6 0 0 0-.128.014l-3.02.641a.635.635 0 0 0-.49.755c.074.345.41.563.755.49l3.02-.641a.635.635 0 0 0-.137-1.259m73.557.006a.634.634 0 0 0-.626.505.635.635 0 0 0 .49.754l3.019.642a.635.635 0 1 0 .264-1.245l-3.019-.642a.6.6 0 0 0-.128-.014m-68.472 2.506a.6.6 0 0 0-.252.03l-6.978 2.268a.635.635 0 0 0-.408.801.635.635 0 0 0 .801.409l6.979-2.269a.635.635 0 0 0-.142-1.239m63.382.023a.635.635 0 0 0-.143 1.24l6.977 2.272a.635.635 0 0 0 .801-.408.635.635 0 0 0-.407-.802l-6.977-2.273a.6.6 0 0 0-.251-.03m-66.045 4.945a.6.6 0 0 0-.247.056l-2.82 1.255a.635.635 0 0 0-.322.84.635.635 0 0 0 .84.322l2.82-1.255a.635.635 0 0 0 .322-.84.64.64 0 0 0-.593-.378m68.704.025a.63.63 0 0 0-.593.377.635.635 0 0 0 .322.84l2.819 1.258c.321.143.696 0 .84-.322a.635.635 0 0 0-.322-.84l-2.819-1.258a.6.6 0 0 0-.247-.055m-63.214 1.378a.63.63 0 0 0-.363.084l-6.354 3.67a.635.635 0 0 0-.233.868.635.635 0 0 0 .869.233l6.355-3.668a.635.635 0 0 0-.274-1.187m57.734 0a.635.635 0 0 0-.274 1.186l6.355 3.67a.635.635 0 0 0 .87-.234.635.635 0 0 0-.233-.869l-6.355-3.668a.64.64 0 0 0-.363-.085M19.547 68.87a.64.64 0 0 0-.352.122l-2.498 1.813a.635.635 0 1 0 .747 1.03l2.498-1.813a.635.635 0 0 0-.395-1.152m60.889.022a.635.635 0 0 0-.396 1.151l2.497 1.814a.635.635 0 0 0 .889-.14.635.635 0 0 0-.141-.889l-2.497-1.814a.64.64 0 0 0-.352-.122m-55.23.22a.63.63 0 0 0-.46.162l-5.457 4.906a.635.635 0 0 0-.048.898.635.635 0 0 0 .898.048l5.458-4.906a.635.635 0 0 0-.392-1.109m49.572.017a.636.636 0 0 0-.393 1.109l5.454 4.909a.635.635 0 1 0 .851-.945l-5.454-4.91a.63.63 0 0 0-.458-.163m-44.396 4.66a.63.63 0 0 0-.537.262l-4.316 5.934a.635.635 0 1 0 1.028.749l4.317-5.934a.635.635 0 0 0-.492-1.01m39.198.027a.637.637 0 0 0-.493 1.01l4.309 5.94a.635.635 0 0 0 .888.14.635.635 0 0 0 .142-.888l-4.31-5.94a.64.64 0 0 0-.536-.262m-44.77.916a.64.64 0 0 0-.44.21l-2.065 2.294a.635.635 0 0 0 .047.899.634.634 0 0 0 .898-.047l2.066-2.294a.635.635 0 0 0-.506-1.062m50.374.003a.635.635 0 0 0-.506 1.061l2.065 2.295a.635.635 0 1 0 .946-.852l-2.065-2.293a.63.63 0 0 0-.44-.21m-38.774 2.545a.63.63 0 0 0-.593.377l-2.99 6.701a.635.635 0 0 0 .322.84c.322.144.697 0 .84-.321l2.99-6.701a.635.635 0 0 0-.569-.896m27.137.018a.635.635 0 0 0-.57.895l2.98 6.706a.635.635 0 1 0 1.163-.517l-2.98-6.706a.64.64 0 0 0-.593-.378m-32.39 2.054a.63.63 0 0 0-.507.317l-1.543 2.673a.635.635 0 0 0 .233.87.635.635 0 0 0 .869-.234l1.543-2.673a.635.635 0 0 0-.595-.953m37.684 0a.635.635 0 0 0-.595.953l1.543 2.673a.635.635 0 0 0 .87.233.635.635 0 0 0 .232-.869l-1.54-2.673a.64.64 0 0 0-.507-.317m-25.775.096a.634.634 0 0 0-.626.504l-1.525 7.178a.635.635 0 0 0 .49.754.635.635 0 0 0 .755-.49l1.524-7.178a.635.635 0 0 0-.618-.768m13.844.004a.635.635 0 0 0-.619.767l1.52 7.18a.635.635 0 0 0 .754.49.635.635 0 0 0 .49-.754l-1.52-7.178a.635.635 0 0 0-.625-.505M50 80.177a.635.635 0 0 0-.636.636v7.338c0 .353.284.636.636.636a.635.635 0 0 0 .636-.636v-7.337a.635.635 0 0 0-.636-.637m-11.678 2.371a.64.64 0 0 0-.55.438l-.954 2.936a.635.635 0 1 0 1.21.393l.954-2.936a.635.635 0 0 0-.66-.83m23.35.002a.635.635 0 0 0-.66.83l.955 2.936a.635.635 0 0 0 .801.409.635.635 0 0 0 .409-.802l-.954-2.935a.64.64 0 0 0-.55-.438m-15.665 1.635a.635.635 0 0 0-.57.567l-.323 3.07a.635.635 0 0 0 .566.698.635.635 0 0 0 .7-.566l.322-3.07a.635.635 0 0 0-.695-.7m7.96.003a.635.635 0 0 0-.696.7l.321 3.07c.037.35.349.602.699.566a.635.635 0 0 0 .567-.699l-.32-3.07a.635.635 0 0 0-.57-.567"/><g filter="url(#e)" opacity=".409"><path fill="#000" d="M79.816 21.982 45.01 42.204 23.004 76.85l32.193-23.846z"/></g><path fill="#ff5150" d="m54.988 52.653-9.976-10.448 35.39-23.807z"/><path fill="#f1f1f1" d="m54.988 52.653-9.976-10.448L19.598 76.46z"/><path fill="#000" d="m19.598 76.46 35.39-23.807 25.414-34.255z" opacity=".243"/></g><defs><filter id="b" width="98.375" height="94.995" x=".815" y="3.809" color-interpolation-filters="sRGB" filterUnits="userSpaceOnUse"><feFlood flood-opacity="0" result="BackgroundImageFix"/><feBlend in="SourceGraphic" in2="BackgroundImageFix" result="shape"/><feGaussianBlur result="effect1_foregroundBlur_867_5111" stdDeviation="1.79"/></filter><filter id="e" width="58.847" height="56.901" x="21.986" y="20.965" color-interpolation-filters="sRGB" filterUnits="userSpaceOnUse"><feFlood flood-opacity="0" result="BackgroundImageFix"/><feBlend in="SourceGraphic" in2="BackgroundImageFix" result="shape"/><feGaussianBlur result="effect1_foregroundBlur_867_5111" stdDeviation=".509"/></filter><radialGradient id="d" cx="0" cy="0" r="1" gradientTransform="translate(50.197 41.066)scale(47.3433)" gradientUnits="userSpaceOnUse"><stop stop-color="#06c2e7"/><stop offset=".25" stop-color="#0db8ec"/><stop offset=".5" stop-color="#12aef1"/><stop offset=".75" stop-color="#1f86f9"/><stop offset="1" stop-color="#107ddd"/></radialGradient><linearGradient id="c" x1="49.998" x2="49.998" y1="94.771" y2=".085" gradientUnits="userSpaceOnUse"><stop stop-color="#bdbdbd"/><stop offset="1" stop-color="#fff"/></linearGradient><clipPath id="a"><path fill="#fff" d="M0 0h100v100H0z"/></clipPath></defs></svg>