<svg xmlns="http://www.w3.org/2000/svg" fill="none" viewBox="0 0 100 100"><path fill="#ee7624" d="M95.833 95.834h-5.096V33.45c0-12.991-10.7-24.191-23.933-24.191H33.446c-13.234 0-23.934 10.687-23.934 23.691 0 12.996 10.7 23.684 23.934 23.684h3.308c5.608 0 10.188 4.583 10.188 10.183 0 5.608-4.584 10.192-10.188 10.192H4.167v-5.096h32.337c2.796 0 5.096-2.296 5.096-4.834 0-2.791-2.3-4.833-5.096-4.833h-3.308c-15.792-.279-29.03-13.262-29.03-29.291 0-16.046 13.234-28.788 29.28-28.788h33.608c15.78 0 28.78 13.496 28.78 29.283z"/><path fill="#ee7624" d="M37.017 52.8c7.125.25 14.004 6.616 14.004 14.258 0 7.637-6.367 14.254-14.254 14.254h-32.6v5.096h32.337c10.7 0 19.604-8.654 19.604-19.35 0-2.8-.512-5.346-1.791-7.892-1.021-2.296-2.792-4.583-4.58-6.367-2.037-1.787-4.329-3.058-6.875-4.07-2.187-.73-4.366-.805-6.641-.884-.909-.033-1.838-.066-2.788-.141-1.783 0-5.858-1.021-8.15-2.542a14.04 14.04 0 0 1-5.096-5.858c-.762-2.038-1.27-4.071-1.27-6.367a14.24 14.24 0 0 1 14.25-14.263h33.608c7.896 0 14.258 6.875 14.258 14.513V95.82h5.096V33.445c0-10.7-8.654-19.866-19.354-19.866H33.442c-10.7 0-19.605 8.654-19.605 19.358 0 2.792.513 5.342 1.792 7.892a18.5 18.5 0 0 0 4.58 6.366c1.787 1.784 4.328 3.059 6.616 4.067 1.275.512 2.546.762 4.067 1.025 3.57.25 5.858.512 6.108.512z"/><path fill="#ee7624" d="M4.167 95.832h32.337v-.013c16.042 0 29.292-12.983 29.542-29.275 0-15.791-12.988-28.775-29.03-28.775h-3.308c-2.8 0-5.091-2.3-5.091-4.833s2.029-4.833 4.829-4.833h33.62c2.534 0 4.83 2.546 4.83 5.346v62.375h5.096V33.431c0-5.604-4.584-10.438-10.188-10.438H33.196a10.21 10.21 0 0 0-10.188 10.188 10.21 10.21 0 0 0 10.188 10.187h3.308c13.233 0 23.933 10.7 23.933 23.684 0 12.983-10.7 23.683-23.933 23.683H4.167z"/></svg>