<svg xmlns="http://www.w3.org/2000/svg" fill="none" viewBox="0 0 100 100"><g clip-path="url(#a)"><path fill="#06f" fill-rule="evenodd" d="M50 0C22.387 0 0 22.384 0 50c0 27.617 22.387 50 50 50 27.612 0 50-22.387 50-50 0-27.616-22.388-50-50-50m14.92 71.13q-5.122 4.38-14.47 4.379-9.55 0-15.025-4.313c-3.65-2.88-5.47-6.833-5.47-11.862H39.6c.312 2.208.925 3.858 1.842 4.958 1.675 1.987 4.541 2.983 8.608 2.983q3.648.001 5.93-.791 4.322-1.508 4.32-5.609c0-1.591-.708-2.833-2.117-3.708-1.412-.85-3.65-1.608-6.712-2.258l-5.238-1.15c-5.146-1.142-8.679-2.375-10.604-3.709-3.262-2.229-4.887-5.716-4.887-10.466 0-4.334 1.591-7.925 4.779-10.792s7.875-4.3 14.05-4.3c5.162 0 9.558 1.35 13.204 4.054 3.642 2.7 5.55 6.625 5.73 11.763h-9.713q-.27-4.363-3.9-6.2-2.426-1.215-6.021-1.217-4.005 0-6.392 1.575-2.388 1.576-2.387 4.396-.001 2.594 2.354 3.87 1.512.857 6.425 2l8.487 2c3.717.876 6.509 2.05 8.363 3.513q4.325 3.413 4.325 9.875 0 6.627-5.125 11.008" clip-rule="evenodd"/></g><defs><clipPath id="a"><path fill="#fff" d="M0 0h100v100H0z"/></clipPath></defs></svg>