<svg xmlns="http://www.w3.org/2000/svg" fill="none" viewBox="0 0 100 100"><g fill="#fff" fill-rule="evenodd" clip-path="url(#a)" clip-rule="evenodd"><path d="M99.938 33.332H66.606v33.336h33.332z"/><path fill-opacity=".33" d="M-.062 0v66.668h33.331V33.332h33.337V0z"/><path d="M59.201 15.15h.773l6.632 6.618v.773l-7.41-7.391zm-3.7 0h.773l10.332 10.309v.773zm-3.7 0h.773l14.032 14v.773zm-3.7 0h.773L66.6 32.84v.492h-.273zm-3.7 0h.773L63.4 33.332h-.773zm-3.7 0h.773l18.223 18.182h-.773L40.697 15.15zm-3.7 0h.773l18.223 18.182h-.773L36.997 15.15zm-3.7 0h.773L52.3 33.332h-.773zm-3.723 0h.773l18.227 18.182h-.772zm-3.7 0h.773l18.227 18.182h-.772zm-3.704 0h.773l18.222 18.182h-.772L22.169 15.15zm-3.705 0h.773l18.227 18.182h-.773zm-3.382.318v-.318h.455l18.227 18.182h-.5v.273zm0 3.691v-.773L33.27 36.527v.773zm0 3.69v-.772L33.27 40.218v.773zm0 3.696v-.772L33.27 43.909v.773zm0 3.691v-.772L33.27 47.6v.773zm0 3.691v-.773L33.27 51.292v.773zm0 3.691v-.773L33.27 54.986v.773zm0 3.691v-.773L33.27 58.677v.773zm0 3.691v-.773L33.27 62.368v.773zm0 3.69v-.772L33.27 66.06v.61h-.163zm0 3.7v-.772L30.17 66.664h-.773zm0 3.7v-.767L26.46 66.668h-.773zm0 3.692v-.768l7.673 7.654h-.773zm0 3.695v-.772l3.973 3.963h-.773zm51.519-44.632L62.9 15.15h.773l2.932 2.927z"/><path fill-opacity=".33" d="M99.938 66.668H66.606V100h33.332z"/><path d="M66.606 66.668H33.269V100h33.337z"/></g><defs><clipPath id="a"><path fill="#fff" d="M0 0h100v100H0z"/></clipPath></defs></svg>