<svg xmlns="http://www.w3.org/2000/svg" fill="none" viewBox="0 0 100 100"><g clip-path="url(#a)"><path fill="#fff" fill-rule="evenodd" d="M.497 36.632 20.818 9.047a2.54 2.54 0 0 1 1.762-1.014l27.142-3.018q.278-.03.558 0L77.422 8.03a2.54 2.54 0 0 1 1.762 1.015l20.325 27.588a2.54 2.54 0 0 1-.127 3.16L51.443 95.23a1.9 1.9 0 0 1-2.878 0L.617 39.792a2.536 2.536 0 0 1-.124-3.16zM56.992 13.17l19.165 18.103a1.268 1.268 0 0 0 2.136-1.014l-.919-12.849a.634.634 0 0 1 1.243-.221L82.819 31.9a3.17 3.17 0 0 0 2.044 2.136l8.97 2.988a.634.634 0 0 1-.197 1.236h-8.62a3.17 3.17 0 0 0-2.672 1.468L58.847 76.65a.95.95 0 0 1-1.658-.922L74.03 40.993a1.902 1.902 0 0 0-1.712-2.732H27.683a1.9 1.9 0 0 0-1.712 2.732L42.813 75.73a.95.95 0 0 1-1.657.925L17.658 39.732a3.17 3.17 0 0 0-2.675-1.47H6.1a.634.634 0 0 1-.197-1.237l9.217-2.995a3.17 3.17 0 0 0 2.066-2.145l4.2-14.696a.634.634 0 0 1 1.242.221l-.92 12.849a1.268 1.268 0 0 0 2.137 1.014L43.01 13.17a.634.634 0 0 1 .928.862L31.08 29.856a1.267 1.267 0 0 0 .983 2.067h35.876a1.267 1.267 0 0 0 .983-2.067L56.064 14.032a.633.633 0 0 1 .928-.862" clip-rule="evenodd"/></g><defs><clipPath id="a"><path fill="#fff" d="M0 0h100v100H0z"/></clipPath></defs></svg>