<svg xmlns="http://www.w3.org/2000/svg" fill="none" viewBox="0 0 100 100"><g clip-path="url(#a)"><path fill="#249edc" fill-rule="evenodd" d="m96.882 43.188-11.846 6.816L96.882 56.8a6.13 6.13 0 0 1 2.904 3.763 6.22 6.22 0 0 1-.625 4.729 6.3 6.3 0 0 1-3.8 2.887 6.24 6.24 0 0 1-4.717-.625L69.436 55.371a6.14 6.14 0 0 1-2.834-3.546 6 6 0 0 1-.283-2.02 6.25 6.25 0 0 1 3.104-5.2l21.209-12.171a6.234 6.234 0 0 1 8.516 2.279 6.163 6.163 0 0 1-2.266 8.475M85.665 76.217 64.469 64.05a6.16 6.16 0 0 0-3.612-.812 6.16 6.16 0 0 0-4.092 1.95 6.3 6.3 0 0 0-1.68 4.237v24.363A6.207 6.207 0 0 0 61.324 100c3.45 0 6.238-2.783 6.238-6.212V80.163l11.87 6.816a6.223 6.223 0 0 0 8.065-9.169 6.2 6.2 0 0 0-1.831-1.593m-24.459-23.83-8.816 8.76a1.75 1.75 0 0 1-1.104.466h-2.588a1.78 1.78 0 0 1-1.104-.467l-8.812-8.758a1.75 1.75 0 0 1-.459-1.092v-2.583c.022-.41.184-.8.459-1.104l8.808-8.759a1.78 1.78 0 0 1 1.1-.458h2.596c.41.019.8.181 1.104.458l8.816 8.759c.274.305.434.695.455 1.104v2.583a1.78 1.78 0 0 1-.455 1.092m-7.041-2.428a1.84 1.84 0 0 0-.471-1.109l-2.55-2.529a1.8 1.8 0 0 0-1.108-.458h-.1a1.78 1.78 0 0 0-1.1.458l-2.55 2.53c-.27.308-.427.698-.446 1.108v.1c0 .354.196.841.446 1.091l2.55 2.542c.254.25.745.458 1.1.458h.1c.41-.022.801-.184 1.108-.458l2.55-2.542c.275-.3.44-.685.467-1.091v-.1zm-39.85-26.192L35.519 35.95a6.24 6.24 0 0 0 3.617.813 6.18 6.18 0 0 0 4.095-1.959 6.3 6.3 0 0 0 1.68-4.237V6.204C44.915 2.78 42.123 0 38.68 0c-3.452 0-6.24 2.78-6.24 6.21v13.625l-11.875-6.83a6.233 6.233 0 0 0-9.303 4.571 6.2 6.2 0 0 0 3.053 6.192m46.542 12.996a6.2 6.2 0 0 0 3.608-.813l21.195-12.18a6.14 6.14 0 0 0 2.904-3.762 6.23 6.23 0 0 0-.621-4.73 6.234 6.234 0 0 0-8.517-2.27L67.56 19.834V6.204C67.56 2.78 64.773 0 61.323 0c-3.458 0-6.237 2.78-6.237 6.209v24.354a6.21 6.21 0 0 0 5.77 6.196zM39.135 63.238a6.16 6.16 0 0 0-3.617.808L14.315 76.213a6.15 6.15 0 0 0-2.9 3.77 6.24 6.24 0 0 0 .617 4.73 6.233 6.233 0 0 0 8.516 2.262l11.88-6.816v13.625c0 3.437 2.791 6.212 6.241 6.212 3.442 0 6.233-2.78 6.233-6.208V69.425a6.25 6.25 0 0 0-1.67-4.237 6.15 6.15 0 0 0-4.092-1.95zm-5.75-11.417c.208-.65.3-1.333.283-2.017a6.24 6.24 0 0 0-3.13-5.2L9.358 32.438A6.246 6.246 0 0 0 .05 37.012a6.17 6.17 0 0 0 3.073 6.18l11.838 6.817-11.838 6.795a6.13 6.13 0 0 0-2.908 3.763 6.22 6.22 0 0 0 .625 4.73 6.28 6.28 0 0 0 3.8 2.887c1.592.425 3.287.2 4.717-.625l21.191-12.184a6.12 6.12 0 0 0 2.85-3.55z" clip-rule="evenodd"/></g><defs><clipPath id="a"><path fill="#fff" d="M0 0h100v100H0z"/></clipPath></defs></svg>