<svg xmlns="http://www.w3.org/2000/svg" fill="none" viewBox="0 0 100 100"><g fill="#fff" fill-rule="evenodd" clip-path="url(#a)" clip-rule="evenodd"><path d="M37.367 46.446a1.7 1.7 0 1 1 0 3.4 1.7 1.7 0 0 1 0-3.4m-7.325-9.996c.187-.05.362.013.533.183a345 345 0 0 0 2.446 2.484q.11.103.254.146l3.375.87q.35.087.425.367.08.29-.18.542l-2.483 2.437a.6.6 0 0 0-.087.125.6.6 0 0 0-.062.138c-.292 1.125-.584 2.25-.867 3.375-.059.229-.184.375-.375.425q-.283.075-.534-.188-1.217-1.242-2.445-2.479a.7.7 0 0 0-.259-.146l-3.375-.87q-.349-.088-.429-.376-.069-.275.188-.533c.833-.808 1.658-1.625 2.483-2.437a.5.5 0 0 0 .092-.125.6.6 0 0 0 .058-.134q.44-1.687.867-3.375.087-.349.375-.429m35.904 2.342a1.704 1.704 0 1 1 0 3.404 1.704 1.704 0 0 1 0-3.409zm-7.316-9.98c.19-.05.374.013.54.184q1.213 1.247 2.43 2.483c.073.07.162.12.258.15l3.363.875c.233.058.375.188.43.375q.075.283-.188.533l-2.484 2.43a.7.7 0 0 0-.15.254l-.875 3.366q-.087.35-.375.43-.281.068-.533-.188-1.213-1.247-2.43-2.483a.5.5 0 0 0-.124-.092.5.5 0 0 0-.134-.058l-3.366-.875q-.35-.088-.425-.375c-.05-.188.012-.363.183-.534q1.248-1.21 2.483-2.429a.5.5 0 0 0 .092-.125.6.6 0 0 0 .063-.133l.875-3.359c.058-.237.179-.375.366-.429"/><path d="M33.692 1.904A25.4 25.4 0 0 1 46.383.175q8.332.958 14.85 7.083a.48.48 0 0 0 .446.121c5.871-1.441 11.508-.933 16.925 1.525l.254.121.646.321q8.483 4.395 12.158 13.32a23.4 23.4 0 0 1 1.755 8.863c.082 2.29-.171 4.58-.75 6.796a.69.69 0 0 0 .166.642 24.9 24.9 0 0 1 6.571 12.05q2.412 11.88-4.925 21.416l-.754.917a25.26 25.26 0 0 1-12.233 7.709.67.67 0 0 0-.442.429c-1.062 3.066-2.133 5.683-4.117 8.3-4.996 6.591-12.341 10.258-20.616 10.208q-9.893-.046-17.542-7.233a.59.59 0 0 0-.583-.13c-2.159.696-4.334.796-6.688.771a24.7 24.7 0 0 1-10.808-2.591 25.24 25.24 0 0 1-8.942-7.421c-.846-1.125-1.683-2.175-2.3-3.421a32.3 32.3 0 0 1-2.058-5.346 25.45 25.45 0 0 1-.071-12.77.7.7 0 0 0 .03-.309.47.47 0 0 0-.15-.263 24.8 24.8 0 0 1-5.75-9.175 21.6 21.6 0 0 1-1.388-6.624 28.8 28.8 0 0 1 .783-8.876q2.811-9.282 10.742-14.558 1.763-1.174 3.333-1.829a34 34 0 0 1 3.592-1.262.53.53 0 0 0 .362-.363 25.1 25.1 0 0 1 4.6-8.98q4.25-5.28 10.213-7.712m4.02 31.863c-4.808-3.417-11.375-1.721-13.795 3.646q-1.88 4.163-.742 8.775l.604 2.441 1.084 3.959a16.3 16.3 0 0 0 2.55 6.091l.125.18a17 17 0 0 0 2.183 2.158c5.775 4.746 13.646 1.579 15.217-5.513l.208-.887.05-.334q.374-2.5-.221-4.895a199 199 0 0 0-2.275-8.434q-1.356-4.612-4.988-7.187m29.6-6.859c-3.591-3.341-9.129-3.462-12.695-.108q-2.087 1.963-2.904 5.271a14.46 14.46 0 0 0 0 6.813l.058.224.229.75q.795 2.627 1.47 5.171.702 2.643 1.126 3.542c2.392 5.025 7.583 8.642 13.237 6.342 5.255-2.142 6.838-8.375 5.646-13.417q-.27-1.144-.583-2.275a143 143 0 0 0-1.784-6.554c-.674-2.117-1.941-4.033-3.8-5.759"/></g><defs><clipPath id="a"><path fill="#fff" d="M0 0h100v100H0z"/></clipPath></defs></svg>