<svg xmlns="http://www.w3.org/2000/svg" fill="none" viewBox="0 0 100 100"><g clip-path="url(#a)"><path fill="#3dc8f9" d="M9 56.786C9 39.84 21.052 27.6 40.826 9.144 38 43.417 68.695 45.108 62.664 62.247c-4.304 12.24-18.452 8.474-19.956 5.835 0 0 5.27 1.509 6.022-3.765.756-5.274-9.791-8.096-16.565-21.465-11.304 12.99-4.148 39.164 18.26 39.164 20.713 0 28.622-21.465 21.279-35.212 0 0 17.7 3.013 19.208 16.57 1.504 13.56-15.817 37.099-39.543 36.534C27.643 99.342 9 81.828 9 56.786"/><path fill="#ea0100" d="M77.92 26.47 50.805-.084c-2.261 25.796 3.765 36.409 21.278 41.239 11.865 3.274 14.378 4.522 19.582 12.052-1.47-10.465-3.391-16.574-13.743-26.739"/><path fill="#1652d8" fill-rule="evenodd" d="M39.578 79.582c3.082 1.54 6.704 2.435 10.847 2.435 20.713 0 28.622-21.465 21.278-35.213 0 0 17.7 3.013 19.209 16.57.678 6.1-2.457 14.217-8.27 21.26-15.034 6.826-31.695 3.653-43.064-5.052" clip-rule="evenodd"/></g><defs><clipPath id="a"><path fill="#fff" d="M0 0h100v100H0z"/></clipPath></defs></svg>