<svg xmlns="http://www.w3.org/2000/svg" fill="none" viewBox="0 0 100 100"><g clip-path="url(#a)"><path fill="url(#b)" d="M28.286 90.818c19.328 0 31.9-10.09 31.9-25.273 0-11.772-7.645-19.254-21.318-22.354l-8.773-2.596c-7.7-1.704-12.195-3.75-11.136-8.977.882-4.35 3.514-6.804 9.646-6.804 19.477 0 26.695 6.804 26.695 6.804V15.255S48.273 9 28.605 9C10.059 9 0 18.41 0 32.968c0 11.773 6.973 18.623 21.114 21.873l1.518.377q3.226.983 8.709 2.6c7.227 1.705 9.086 3.514 9.086 8.936 0 4.955-5.227 7.773-12.136 7.773C8.368 74.527 0 64.595 0 64.595v18.132s5.235 8.091 28.285 8.091"/><path fill="#e80000" d="M88.064 89.59c6.84 0 11.936-4.878 11.936-11.482 0-6.746-4.95-11.482-11.936-11.482-6.841 0-11.791 4.736-11.791 11.482s4.95 11.482 11.79 11.482"/></g><defs><linearGradient id="b" x1="3009.31" x2="3009.31" y1="9" y2="8190.8" gradientUnits="userSpaceOnUse"><stop stop-color="#9d39ff"/><stop offset="1" stop-color="#a380ff"/></linearGradient><clipPath id="a"><path fill="#fff" d="M0 0h100v100H0z"/></clipPath></defs></svg>