<svg xmlns="http://www.w3.org/2000/svg" fill="none" viewBox="0 0 100 100"><g clip-path="url(#a)"><path fill="#df0428" fill-rule="evenodd" d="M64.62 25.095A16.56 16.56 0 0 1 83.33 35.27 22.26 22.26 0 0 1 100 56.887c-.004 12.3-9.904 22.28-22.13 22.28a22.11 22.11 0 0 1-20.428-13.763 21.8 21.8 0 0 1-1.663-7.946h-5.596a.437.437 0 0 1-.308-.75L61.263 45.24a.54.54 0 0 1 .77 0l11.392 11.475c.27.275.08.75-.308.75l-5.917-.004a12 12 0 0 0 1.354 4.125A11.85 11.85 0 0 0 85.03 66.13c5.075-3.013 7.217-9.542 4.904-15a11.895 11.895 0 0 0-14.108-6.875 8.46 8.46 0 0 0-3.896-9.859 8.325 8.325 0 0 0-10.383 1.796C58.712 29.404 51.7 25.025 44.088 25.93c-8.226.975-14.342 7.791-14.805 15.841a13.27 13.27 0 0 0-13.662.563 13.54 13.54 0 0 0-5.567 14.95A13.39 13.39 0 0 0 22.942 67.1l29.804.012c.229 0 .433.138.52.346a27.1 27.1 0 0 0 5.909 8.7c.22.22.075.592-.233.592l-35.988-.013h-.025C10.263 76.733-.004 66.375 0 53.617c.004-12.772 10.283-23.11 22.946-23.1h.033a25.57 25.57 0 0 1 22.704-13.85c7.505 0 14.255 3.253 18.938 8.428" clip-rule="evenodd"/></g><defs><clipPath id="a"><path fill="#fff" d="M0 0h100v100H0z"/></clipPath></defs></svg>