<svg xmlns="http://www.w3.org/2000/svg" fill="none" viewBox="0 0 100 100"><path fill="#68c3ff" d="M81.188 2.8H21.156A17.984 17.984 0 0 0 3.172 20.78v60.027a17.984 17.984 0 0 0 17.984 17.984h60.032a17.984 17.984 0 0 0 17.984-17.984V20.783A17.984 17.984 0 0 0 81.188 2.8"/><path fill="#191b20" fill-rule="evenodd" d="M79.116 23.336a.12.12 0 0 1 .144-.04.12.12 0 0 1 .072.096q.032.24.04.48.071 3.661.04 7.328c.001 2.99-.751 5.93-2.188 8.552a16.65 16.65 0 0 1-9.108 7.528c-1.36.48-2.764.756-4.212.82q-20.351.024-40.708 0c-.284-.016-.596-.16-.636-.44l-.004-.056q-.181-6.401 4.168-11.056a15.42 15.42 0 0 1 9.72-4.832q12.097-.097 24.2-.104c1.934-.1 3.857-.361 5.748-.78a23.4 23.4 0 0 0 6.948-2.528c.832-.44 1.636-.932 2.4-1.472q1.231-.934 2.264-2.096.562-.697 1.112-1.4m-.232 25.056c.1-.132.3-.104.324.06q.062 3.383.064 6.76c.02 1.74-.152 3.46-.528 5.16a16.28 16.28 0 0 1-7.04 9.992 17.1 17.1 0 0 1-6.512 2.508 29 29 0 0 1-1.304.124q-20.503.024-41 0a.49.49 0 0 1-.456-.304 1.8 1.8 0 0 1-.084-.44c0-2.993.838-5.926 2.42-8.468a16.3 16.3 0 0 1 6.14-5.592c.969-.498 1.988-.89 3.04-1.172.896-.24 1.828-.304 2.752-.312l23.628-.2a30 30 0 0 0 13.372-3.56c1.64-.96 3.1-2.144 4.392-3.548q.414-.49.792-1.008" clip-rule="evenodd"/></svg>