<svg xmlns="http://www.w3.org/2000/svg" fill="none" viewBox="0 0 100 100"><path stroke="#c7d2fe" stroke-linecap="round" stroke-linejoin="round" stroke-width="8.333" d="M53.458 9.083a8.33 8.33 0 0 0-6.916 0l-35.709 16.25a4.167 4.167 0 0 0 0 7.625l35.75 16.292a8.33 8.33 0 0 0 6.917 0L89.25 33a4.166 4.166 0 0 0 0-7.625z"/><path stroke="#c7d2fe" stroke-linecap="round" stroke-linejoin="round" stroke-width="8.333" d="M8.333 50a4.17 4.17 0 0 0 2.417 3.792l35.833 16.291a8.33 8.33 0 0 0 6.875 0l35.75-16.25A4.17 4.17 0 0 0 91.667 50"/><path stroke="#c7d2fe" stroke-linecap="round" stroke-linejoin="round" stroke-width="8.333" d="M8.333 70.833a4.17 4.17 0 0 0 2.417 3.792l35.833 16.292a8.33 8.33 0 0 0 6.875 0l35.75-16.25a4.17 4.17 0 0 0 2.459-3.834"/></svg>