<svg xmlns="http://www.w3.org/2000/svg" fill="none" viewBox="0 0 100 100"><g clip-path="url(#a)"><path fill="#00a3ff" d="M86.583 73.312c-1.608 1.59-4.824 3.975-10.452 3.975H41.559C52.01 67.349 60.855 59 61.659 58.205c.804-.794 2.814-2.782 4.824-4.372 4.02-3.578 7.236-3.976 10.05-3.976 4.02 0 7.236 1.59 10.05 3.976 5.628 5.168 5.628 14.31 0 19.478m6.834-25.84c-4.02-4.372-10.05-7.155-16.482-7.155-5.628 0-10.452 1.988-14.874 5.168-1.608 1.59-4.02 3.18-6.03 5.565-1.608 1.59-36.18 34.982-36.18 34.982 2.01.398 4.422.398 6.432.398H70.1c3.216 0 5.628 0 8.04-.398 5.226-.397 10.452-2.385 14.874-6.36 9.246-8.746 9.246-23.454.402-32.2"/><path fill="#00c8dc" d="M37.137 45.087c-4.422-3.18-8.844-4.77-14.07-4.77-6.432 0-12.462 2.783-16.482 7.155-8.845 9.143-8.845 23.454.402 32.597 4.02 3.578 8.04 5.566 12.864 5.963l9.246-8.745H23.87c-5.226-.398-8.442-1.988-10.452-3.976a14.174 14.174 0 0 1-.402-19.876c2.814-2.783 6.03-3.975 10.05-3.975 2.412 0 6.03.397 9.648 3.975 1.608 1.59 6.03 4.77 7.638 6.36h.402l6.03-5.962v-.398c-2.814-2.783-7.236-6.36-9.648-8.348"/><path fill="#006eff" d="M79.347 35.147c-4.421-11.926-16.08-20.274-29.346-20.274-15.678 0-28.14 11.528-30.552 25.84 1.206 0 2.412-.398 4.02-.398s3.618.397 5.226.397c2.01-9.938 10.854-17.093 21.306-17.093 8.845 0 16.482 5.167 20.1 12.72 0 0 .402.398.402 0 2.814-.397 6.03-1.192 8.844-1.192q0 .595 0 0"/></g><defs><clipPath id="a"><path fill="#fff" d="M0 0h100v100H0z"/></clipPath></defs></svg>