<svg xmlns="http://www.w3.org/2000/svg" fill="none" viewBox="0 0 100 100"><path fill="url(#a)" d="M32.716 12H2.696A2.475 2.475 0 0 1 .228 9.535a2.467 2.467 0 0 1 2.475-2.45h30.02c6.209 0 12.334 1.975 17.321 5.562a30 30 0 0 1 17.342-5.562H97.38a2.466 2.466 0 0 1 2.483 2.45 2.48 2.48 0 0 1-2.483 2.454H67.387a24.77 24.77 0 0 0-13.442 4 28.3 28.3 0 0 1 3.909 4.917 23.53 23.53 0 0 1 13.262-4.113H97.38a2.475 2.475 0 0 1 2.483 2.45 2.48 2.48 0 0 1-2.483 2.454H71.116a18.7 18.7 0 0 0-11.058 3.621 28.5 28.5 0 0 1 1.737 6.113A16.63 16.63 0 0 1 73.87 26.27h23.51a2.467 2.467 0 0 1 2.291 3.396 2.475 2.475 0 0 1-2.291 1.508H73.92a11.625 11.625 0 0 0-11.683 11.517v14.63c.017 6.341 5.258 11.512 11.683 11.516h23.688l.083.008a2.467 2.467 0 0 1 2.304 2.609 2.466 2.466 0 0 1-2.466 2.279H73.916c-9.154-.017-16.616-7.371-16.625-16.404v-21.07C57.266 22.896 46.25 12.02 32.712 12.005z"/><path fill="url(#b)" d="M2.696 21.68h26.291c10.188 0 18.475 8.196 18.467 18.25v20.158c0 12.75 10.517 23.134 23.45 23.134h26.292a2.467 2.467 0 0 0 2.487-2.442 2.46 2.46 0 0 0-2.483-2.454H70.854a18.45 18.45 0 0 1-17.058-11.25 18 18 0 0 1-1.396-7V39.934c0-12.729-10.5-23.12-23.409-23.146H2.696A2.467 2.467 0 0 0 .22 19.242a2.463 2.463 0 0 0 2.475 2.438"/><path fill="url(#c)" d="M97.337 87.982h.263a2.21 2.21 0 0 1 1.737.866 2.446 2.446 0 0 1-1.866 4.054l-.084-.008H67.346A29.83 29.83 0 0 1 50.02 87.34a30.05 30.05 0 0 1-17.342 5.554H2.525l-.084-.008h-.075a2.45 2.45 0 0 1 .167-4.896l.083.008h30.05a24.74 24.74 0 0 0 13.476-3.987 29.3 29.3 0 0 1-3.917-4.921 23.37 23.37 0 0 1-13.254 4.112H2.683a2.47 2.47 0 0 1-2.487-2.45 2.466 2.466 0 0 1 2.483-2.445h26.333c3.963 0 7.821-1.267 11.013-3.613a28.7 28.7 0 0 1-1.73-6.104 16.68 16.68 0 0 1-12.091 5.142H2.466a2.454 2.454 0 0 1 .084-4.905l.083.013h23.542c6.429-.008 11.667-5.183 11.679-11.52V42.697c-.008-6.35-5.242-11.516-11.675-11.516H2.687a2.467 2.467 0 0 1-2.483-2.455 2.467 2.467 0 0 1 2.483-2.45H26.18c9.146.017 16.617 7.38 16.625 16.405v21.066c.008 13.371 11.033 24.254 24.58 24.271H97.14l.196-.033z"/><defs><linearGradient id="a" x1="0" x2="97.708" y1="47.917" y2="62.88" gradientUnits="userSpaceOnUse"><stop stop-color="#6865fc"/><stop offset="1" stop-color="#467df9"/></linearGradient><linearGradient id="b" x1="0" x2="97.708" y1="47.917" y2="62.88" gradientUnits="userSpaceOnUse"><stop stop-color="#6865fc"/><stop offset="1" stop-color="#467df9"/></linearGradient><linearGradient id="c" x1="0" x2="97.708" y1="47.915" y2="62.877" gradientUnits="userSpaceOnUse"><stop stop-color="#6865fc"/><stop offset="1" stop-color="#467df9"/></linearGradient></defs></svg>