<svg xmlns="http://www.w3.org/2000/svg" fill="none" viewBox="0 0 100 100"><g fill="#6400ff" clip-path="url(#a)"><path d="M46.242 31.514h-26.45v9.196h7.375v27.783h11.695V40.71h7.375zm15.475 0H50.02v36.98h11.696zm19.254 0H69.275v36.98h11.696z"/><path d="M50 100v-4.396c12.542 0 23.388-4.496 32.237-13.367C91.084 73.362 95.608 62.541 95.608 50c0-12.538-4.5-23.363-13.37-32.234C73.37 8.891 62.52 4.391 50.003 4.391V0C63.73 0 75.621 4.933 85.346 14.658S100 36.275 100 50c0 13.729-4.93 25.646-14.658 35.346C75.612 95.046 63.75 100 50.004 100z"/></g><defs><clipPath id="a"><path fill="#fff" d="M0 0h100v100H0z"/></clipPath></defs></svg>