<svg xmlns="http://www.w3.org/2000/svg" fill="none" viewBox="0 0 100 100"><g clip-path="url(#a)"><path fill="#fff" fill-rule="evenodd" d="M76.925 46.15a23.075 23.075 0 1 0 0-46.15 23.075 23.075 0 0 0 0 46.15m0 53.85a23.075 23.075 0 1 0 0-46.15 23.075 23.075 0 0 0 0 46.15m-53.85 0a23.075 23.075 0 1 0 0-46.15 23.075 23.075 0 0 0 0 46.15" clip-rule="evenodd" opacity=".2"/><path fill="#0f6fff" d="M23.075 46.15c12.744 0 23.075-10.331 23.075-23.075S35.82 0 23.075 0 0 10.33 0 23.075 10.331 46.15 23.075 46.15"/></g><defs><clipPath id="a"><path fill="#fff" d="M0 0h100v100H0z"/></clipPath></defs></svg>