<svg xmlns="http://www.w3.org/2000/svg" fill="none" viewBox="0 0 100 100"><g fill-rule="evenodd" clip-path="url(#a)" clip-rule="evenodd"><path fill="#f6d85a" d="M52.754 19.8a.166.166 0 0 0-.054-.23.16.16 0 0 0-.084-.02h-25.55a.79.79 0 0 1-.687-.384L17.687 4.383a.14.14 0 0 1 .014-.16.14.14 0 0 1 .044-.036.2.2 0 0 1 .067-.02q34.328-.002 65.504.008c8.704 0 15.413 6.416 16.68 14.991.033.259-.08.384-.334.384H71.871a.85.85 0 0 0-.725.416A24518 24518 0 0 1 53.57 49.875c-1.167 1.966-3.834 2.583-5.721 1.425-.792-.484-1.488-1.267-2.092-2.338a158 158 0 0 0-3.675-6.204q-1.389-2.226-.146-4.383 5.374-9.313 10.821-18.584z"/><path fill="#fff" d="M44.883 70.775c2.375 4.05 8.062 3.816 10.37-.117L79.167 29.85a.53.53 0 0 1 .484-.28h17.624c.071 0 .126.059.117.125q0 .034-.012.055a75804 75804 0 0 0-32.834 55.916C59.2 94.796 46.72 96.154 38.8 89.612c-1.284-1.058-2.771-3.03-4.455-5.904A17094 17094 0 0 0 2.18 28.866C-2.251 21.354.412 12.42 7.137 7.2c.22-.171.396-.138.537.095a65684 65684 0 0 1 37.209 63.48"/></g><defs><clipPath id="a"><path fill="#fff" d="M0 0h100v100H0z"/></clipPath></defs></svg>