<svg xmlns="http://www.w3.org/2000/svg" fill="none" viewBox="0 0 100 100"><path fill="#e30a5d" d="M65.68 4.25c.883-.088 1.833.008 2.725.016l5.041.004c7 .005 14.055.18 21.05-.104l-.004 37.209v11.05c0 3.1.054 6.191-.27 9.279a40.2 40.2 0 0 1-2.438 10.22 37.06 37.06 0 0 1-13.396 17.25c-1.204.838-2.508 1.759-3.854 2.35a41.7 41.7 0 0 1-10.758 4.067c-1.505.346-3.034.546-4.534.9-1.587-1.296-3.02-2.891-4.466-4.346l-7.888-7.887c-3.008-2.983-6.062-5.904-9.046-8.917-1.262-1.266-2.662-2.516-3.779-3.908.442 2.892.196 7.292.196 10.358q.045 9.105-.054 18.209a4 4 0 0 1-.192-.146c-.983-.771-1.862-1.784-2.75-2.675a548 548 0 0 0-5.162-5.154L13.638 79.612c-2.25-2.25-4.575-4.458-6.767-6.762-.291-.309-.895-.875-.95-1.296q.269-.047.538.004l-.02-.05c3.62-.208 7.332-.054 10.957-.054 5.55 0 11.105-.075 16.65.004A2490 2490 0 0 1 5.551 43.095c-.196-1.487-.084-3.083-.084-4.587l.004-7.98-.054-25.62c0-.167.042-.313.117-.467.246-.166.433-.158.73-.175 2.166-.125 4.416 0 6.59.004 6.3 0 12.65.175 18.942-.025.821-.058 1.655-.045 2.475-.062L34.26 48.27q.056 11.618-.075 23.23c1.775-.184 3.708-.042 5.5-.042h11.55c4.017-.03 7.737-.792 10.658-3.767 2.242-2.283 3.184-5.233 3.667-8.333.333-2.125.175-4.5.17-6.654l-.008-11.021c-.004-12.475.109-24.958-.041-37.433"/></svg>