<svg xmlns="http://www.w3.org/2000/svg" fill="none" viewBox="0 0 100 100"><path fill="url(#a)" d="m82.346 0-1.554 5.404H91.6L93.142 0zm-14.88 9.458L65.9 14.867h23l1.542-5.409zm-13.728 9.459-1.567 5.408h34.025l1.541-5.408zm-41.863 9.458-1.57 5.408h73.187l1.541-5.404H11.867zm4.308 9.462-1.566 5.405h66.175l1.541-5.404H16.175zm.85 62.163 1.567-5.404H7.775L6.25 100zm14.892-9.458 1.567-5.404H10.479l-1.52 5.404zm13.73-9.463 1.566-5.404H13.179l-1.525 5.404zm41.866-9.458 1.567-5.404H15.883l-1.525 5.404zm-4.325-9.458 1.567-5.405H18.587l-1.524 5.404zm-4.921-9.459 1.567-5.404H17.75l-1.525 5.404h62.054z"/><defs><linearGradient id="a" x1="49.696" x2="49.696" y1="0" y2="100" gradientUnits="userSpaceOnUse"><stop stop-color="#aebcfe"/><stop offset="1" stop-color="#805dfa"/></linearGradient></defs></svg>