<svg xmlns="http://www.w3.org/2000/svg" fill="none" viewBox="0 0 100 100"><g fill="#fff" clip-path="url(#a)"><path d="M58.563 25.05h23.869c9.679 0 17.525 7.846 17.525 17.525v22.763h-9.804V42.575q0-.35-.027-.695L66.257 65.334l.242.004h23.654v9.26H66.5c-9.678 0-17.74-7.924-17.74-17.602V34.293h9.804v22.703q0 .656.1 1.293l24.394-23.97a8 8 0 0 0-.625-.026h-23.87zm-24.11 47.842L-.043 34.289h13.878l20.253 22.664V34.289h10.349V69.08c0 5.251-6.485 7.726-9.984 3.811"/></g><defs><clipPath id="a"><path fill="#fff" d="M0 0h100v100H0z"/></clipPath></defs></svg>