<svg xmlns="http://www.w3.org/2000/svg" fill="none" viewBox="0 0 100 100"><g clip-path="url(#a)"><path fill="url(#b)" d="M85.863 9.363C73.709 5.338 63.254 13.88 60.817 21.697c0 0-8.771 28.166-12.508 39.916-1.784 5.609-6.205 14.784-14.53 14.784-6.779 0-10.262-6.363-11.733-10.154L11.938 39.297c-1.171-2.838.054-8.5 4.75-10.196 5.016-1.8 8.241 2.396 9.075 4.625l12.591 32.25c3-3.867 4.909-10.158 6.15-14.613l-8.266-21.708c-3.921-10.13-14.292-14.737-23.896-11.196C4.562 21.326-2.925 31.142 1.146 43.48l10.433 26.833c1.584 4.067 7.838 17.346 21.98 17.346 16.97 0 23.337-14.47 26.87-25.908 1.767-5.721 11.454-36.654 11.454-36.654 1.409-4.621 7.126-5.95 10.7-4.784 2.521.817 7.076 4.296 5.605 9.688-.275.983-8 25.87-10.85 33.442-1.488 3.95-5.259 12.525-13.85 11.333-2.617 5.791-4.792 9.162-8.084 12.187 10.717 5.075 26.334-.037 32.909-19.9 2.441-7.387 11.016-34.025 11.016-34.025 2.492-8.179-1.954-19.866-13.466-23.675"/></g><defs><linearGradient id="b" x1="3.163" x2="108.979" y1="23.488" y2="72.13" gradientUnits="userSpaceOnUse"><stop stop-color="#40edd8"/><stop offset=".024" stop-color="#38e7e2"/><stop offset=".084" stop-color="#28daf7"/><stop offset=".124" stop-color="#22d5ff"/><stop offset=".36" stop-color="#1abfff"/><stop offset=".85" stop-color="#0786fe"/><stop offset=".909" stop-color="#047ffe"/></linearGradient><clipPath id="a"><path fill="#fff" d="M0 0h100v100H0z"/></clipPath></defs></svg>