<svg xmlns="http://www.w3.org/2000/svg" fill="none" viewBox="0 0 100 100"><g clip-path="url(#a)"><path fill="#00e5e5" d="M83.807 46.156 70.464 98.812a.978.978 0 0 0 .972 1.186h26.678a.97.97 0 0 0 .774-.358.98.98 0 0 0 .198-.828L85.68 46.156a.973.973 0 0 0-1.873 0m-73.443 11.93L.024 98.807a.973.973 0 0 0 .978 1.19h20.597a.96.96 0 0 0 .972-.749 1 1 0 0 0 0-.44L12.227 58.085a.973.973 0 0 0-1.863 0"/><path fill="#006eff" d="M28.588 24.367 9.764 98.805a.977.977 0 0 0 .923 1.186h37.675a.972.972 0 0 0 .977-1.186L30.453 24.362a.973.973 0 0 0-1.864 0z"/><path fill="#006eff" d="M61.083.693a.972.972 0 0 0-1.863 0L33.478 98.81a.973.973 0 0 0 .973 1.186h51.446a.98.98 0 0 0 .974-.747 1 1 0 0 0 .004-.44z"/><path fill="#00e5e5" d="M42.168 35.196 25.84 98.8a.973.973 0 0 0 .973 1.2h32.585a.977.977 0 0 0 .973-1.2L44.032 35.196a.973.973 0 0 0-1.864 0"/></g><defs><clipPath id="a"><path fill="#fff" d="M0 0h100v100H0z"/></clipPath></defs></svg>