<svg xmlns="http://www.w3.org/2000/svg" fill="none" viewBox="0 0 100 100"><g clip-path="url(#a)"><path fill="#fff" d="M22.53 0v.275c-.11.33-.178.673-.2 1.02q-.069.688-.067 1.23.001 2.118.533 4.708c.404 1.688 1.142 3.8 2.212 6.35l29.688 68.192 28.683-67.65q1.008-2.524 2.146-5.53 1.138-3 1.138-6.074a5.9 5.9 0 0 0-.4-2.25V0H100v.275q-1.273 1.292-3.083 4.642-1.812 3.342-3.954 8.258L54.563 100H49.2L12.813 16.52a93 93 0 0 0-2.684-5.666 120 120 0 0 0-2.541-4.916c-.809-1.5-1.521-2.75-2.146-3.75A24 24 0 0 0 4.167.266V0z"/></g><defs><clipPath id="a"><path fill="#fff" d="M0 0h100v100H0z"/></clipPath></defs></svg>