<svg xmlns="http://www.w3.org/2000/svg" fill="none" viewBox="0 0 100 100"><g clip-path="url(#a)"><path fill="url(#b)" d="M46.909.8a6.36 6.36 0 0 1 6.182 0l39.274 22.014c1.913 1.064 3.09 3.046 3.09 5.187v44c0 2.146-1.177 4.128-3.09 5.196l-39.274 22a6.36 6.36 0 0 1-6.182 0l-39.274-22a5.95 5.95 0 0 1-3.09-5.195V27.996c0-2.14 1.176-4.123 3.09-5.19L46.91.804zm33.728 62.906V32.851L50.009 50l-.01 34.324 27.542-15.428a5.96 5.96 0 0 0 2.253-2.174 5.96 5.96 0 0 0 .843-3.017M53.09 17.423a6.33 6.33 0 0 0-6.182 0L22.472 31.12c-1.914 1.068-3.091 3.046-3.091 5.191v27.396c0 2.137 1.177 4.114 3.09 5.191l12.706 7.119V45.865a7.03 7.03 0 0 0 1.004 3.59 6.94 6.94 0 0 1-.981-3.79l.018-.428.09-.681.082-.382.078-.282.177-.532.282-.645.159-.296.368-.59.427-.555.382-.414.364-.34.568-.455.323-.218.609-.346 26.682-14.955-12.71-7.118z"/><path fill="#012f8d" d="M50 45.855c0-3.978-3.319-7.2-7.414-7.2-1.37 0-2.713.371-3.887 1.077-.122.072-.25.15-.363.227q-.287.203-.56.423c-.1.09-.204.172-.3.268l-.218.204-.286.305c-.064.073-.127.14-.182.218a10 10 0 0 0-.427.568l-.19.314q-.174.289-.32.59l-.163.369q-.055.134-.1.273c-.045.136-.09.263-.127.395l-.077.282a4 4 0 0 0-.137.727c-.009.114-.032.228-.036.337a6.94 6.94 0 0 0 .968 4.223c1.373 2.309 3.864 3.6 6.428 3.6a7.54 7.54 0 0 0 3.7-.964l3.704-2.077v-4.155z"/></g><defs><linearGradient id="b" x1="836.837" x2="8605.88" y1="7517.7" y2="3165.08" gradientUnits="userSpaceOnUse"><stop stop-color="#0a51c3"/><stop offset="1" stop-color="#23a4fb"/></linearGradient><clipPath id="a"><path fill="#fff" d="M0 0h100v100H0z"/></clipPath></defs></svg>