<svg xmlns="http://www.w3.org/2000/svg" fill="none" viewBox="0 0 100 100"><g clip-path="url(#a)"><path fill="#fff" fill-rule="evenodd" d="M99.051 21.156h-.953a9.07 9.07 0 0 0-9.085 9.07V50.51c0 4.05-3.348 7.332-7.332 7.332-2.367 0-4.73-1.191-6.132-3.191L54.83 25.06a9.18 9.18 0 0 0-7.542-3.92c-4.723 0-8.972 4.015-8.972 8.972v20.401c0 4.05-3.32 7.332-7.332 7.332-2.375 0-4.735-1.192-6.137-3.191L1.664 21.545c-.523-.746-1.699-.378-1.699.535v17.691c0 .895.274 1.762.785 2.496L23.562 74.85c1.348 1.926 3.336 3.355 5.629 3.875 5.738 1.305 11.019-3.113 11.019-8.742v-20.39a7.33 7.33 0 0 1 7.331-7.332h.013a7.49 7.49 0 0 1 6.132 3.192l20.718 29.585c1.722 2.46 4.375 3.921 7.539 3.921 4.828 0 8.964-4.02 8.964-8.972V49.588a7.33 7.33 0 0 1 7.332-7.331h.808c.508 0 .918-.41.918-.918v-19.27a.917.917 0 0 0-.918-.917z" clip-rule="evenodd"/></g><defs><clipPath id="a"><path fill="#fff" d="M0 0h100v100H0z"/></clipPath></defs></svg>