<svg xmlns="http://www.w3.org/2000/svg" fill="none" viewBox="0 0 100 100"><g clip-path="url(#a)"><path fill="#f38020" fill-rule="evenodd" d="M68.136 6h-9.704v21.318l9.7.027zM45.727 18.314l10.11 10.113-6.883 6.828-10.081-10.082 6.863-6.864zm-19.16 19.554h21.346l-.031 9.696H26.563v-9.691zm12.32 22.4 10.1-10.109 6.84 6.882-10.082 10.077-6.863-6.859zm19.545 19.164V58.086l9.7.032v21.318zm22.4-12.3L70.718 57.018l6.882-6.836 10.09 10.09-6.863 6.864h.005zM100 47.564H78.654l.032-9.696H100zM87.686 25.173 77.582 35.277 70.745 28.4l10.091-10.09zM10 8.19v5.473H4.518v8.768H10v5.473h8.759v-5.473h5.473v-8.764h-5.473V8.191zm0 85.614v-10H0v-8.76h10v-9.99h8.759v9.99h10v8.76h-10v10z" clip-rule="evenodd"/></g><defs><clipPath id="a"><path fill="#fff" d="M0 0h100v100H0z"/></clipPath></defs></svg>