<svg xmlns="http://www.w3.org/2000/svg" fill="none" viewBox="0 0 100 100"><path fill="url(#a)" d="M21.763 40.382c2.717 7.479 8.02 14.066 14.15 19.054 6.175 5.12 13.558 9.042 21.342 11.054a41.6 41.6 0 0 0 8.47 1.258c5.426.209 11.305-.858 15.659-4.333 5.404-4.317 6.88-10.937 5.492-17.542-.871-4.137-2.671-8.041-5.021-11.612a43 43 0 0 0-1.525-2.188q0-.01.006-.017a.03.03 0 0 1 .015-.012h.016c.009 0 .017 0 .025.009l1.642 1.687a71.8 71.8 0 0 1 10.35 13.592c2.412 4.137 4.262 8.525 5.23 13.1 1.537 7.279.29 14.775-5.443 19.904-3.016 2.7-6.895 4.337-10.791 5.146-5.404 1.112-11.038.95-16.521.029a69 69 0 0 1-8.07-1.846c-10.734-3.15-20.884-8.546-29.763-15.32A87.4 87.4 0 0 1 12.509 58.61c-4.388-5.225-8.15-11.13-10.48-17.558C.502 36.853-.36 32.186.147 27.76c1.113-9.608 8.25-15.225 17.392-16.917 5.27-.975 10.808-.775 16.163.154a73.8 73.8 0 0 1 16.575 4.967v.017a.03.03 0 0 1-.017.016h-.017a37.1 37.1 0 0 0-11.954-1.208c-3.362.2-6.942 1.096-9.82 2.733q-6.466 3.675-7.947 10.938a19 19 0 0 0-.287 4.583c.104 2.417.68 4.992 1.53 7.338"/><path fill="url(#b)" d="M75.083 30.145a.2.2 0 0 1-.029.125q-2.88 5.726-5.775 11.446-2.648 5.23-4.02 7.5a74.5 74.5 0 0 1-12.417 15.446.11.11 0 0 1-.125.02 52.8 52.8 0 0 1-17.521-11.57 40 40 0 0 1-1.75-1.863.1.1 0 0 1-.021-.054c0-.021 0-.042.013-.059a74 74 0 0 1 7-9.912 76 76 0 0 1 11.25-10.858c1.7-1.334 5.791-4.559 12.291-9.68L90.217.008l.02-.007.021.007a.04.04 0 0 1 .017.021.04.04 0 0 1 0 .025l-15.2 30.092z"/><path fill="url(#c)" d="M8.446 100q.014.002.02-.008l24.347-19.084a.083.083 0 0 0-.009-.137 111 111 0 0 1-10.766-7.675h-.025l-.021.008-.017.02L8.417 99.947a.04.04 0 0 0 0 .025q-.002.013.008.02a.04.04 0 0 0 .025.009z"/><defs><linearGradient id="a" x1="1.992" x2="95.771" y1="14.378" y2="82.073" gradientUnits="userSpaceOnUse"><stop stop-color="#6f11f4"/><stop offset="1" stop-color="#aa66f1"/></linearGradient><linearGradient id="b" x1="90.317" x2="8.475" y1=".024" y2="99.945" gradientUnits="userSpaceOnUse"><stop stop-color="#f52c77"/><stop offset="1" stop-color="#e9a45f" stop-opacity=".996"/></linearGradient><linearGradient id="c" x1="90.317" x2="8.475" y1=".025" y2="99.946" gradientUnits="userSpaceOnUse"><stop stop-color="#f52c77"/><stop offset="1" stop-color="#e9a45f" stop-opacity=".996"/></linearGradient></defs></svg>