<svg xmlns="http://www.w3.org/2000/svg" fill="none" viewBox="0 0 100 100"><g clip-path="url(#a)"><path fill="#3c96e6" d="M0 26.274c0-3.442 3.72-5.609 6.717-3.9L34.246 38.04a4.5 4.5 0 0 1 2.27 3.909v38.958a4.495 4.495 0 0 1-4.495 4.496H4.5a4.496 4.496 0 0 1-4.5-4.5z"/><path fill="#f95a4c" d="M40.45 41.928c0-1.604.858-3.092 2.25-3.892l50.563-29.1A4.496 4.496 0 0 1 100 12.832v68.07a4.495 4.495 0 0 1-4.496 4.497H44.946a4.495 4.495 0 0 1-4.5-4.496V41.928z"/></g><defs><clipPath id="a"><path fill="#fff" d="M0 0h100v100H0z"/></clipPath></defs></svg>