<svg xmlns="http://www.w3.org/2000/svg" fill="none" viewBox="0 0 100 100"><path fill="#fff" fill-rule="evenodd" d="M77.584 58.028c2.545 0 4.612 2.105 4.612 4.7v24.238c0 2.596-2.067 4.7-4.617 4.7a4.66 4.66 0 0 1-4.616-4.7V62.728c0-2.596 2.066-4.7 4.616-4.7zm-8.459-45.312a4.56 4.56 0 0 1 6.509-.538c1.941 1.684 2.175 4.65.525 6.625l-24.742 29.63v38.112c0 2.6-2.067 4.704-4.617 4.704a4.66 4.66 0 0 1-4.616-4.704V47.057l.012-.366.042-.363a4.75 4.75 0 0 1 1.087-2.725zM12.11 9.399a4.56 4.56 0 0 1 6.495.654l18.28 22.709a4.76 4.76 0 0 1-.646 6.612 4.556 4.556 0 0 1-6.496-.654l-18.28-22.708a4.77 4.77 0 0 1 .25-6.242z" clip-rule="evenodd"/><path fill="#00ff25" d="M83.942 50.294c3.116 0 5.642-2.573 5.642-5.746s-2.526-5.746-5.642-5.746-5.642 2.573-5.642 5.746 2.526 5.746 5.642 5.746"/></svg>