<svg xmlns="http://www.w3.org/2000/svg" fill="none" viewBox="0 0 100 100"><g clip-path="url(#a)"><path fill="url(#b)" d="M50 100c27.613 0 50-22.387 50-50 0-27.612-22.387-50-50-50C22.388 0 0 22.388 0 50c0 27.613 22.388 50 50 50"/><path fill="url(#c)" fill-rule="evenodd" d="M50 0c2.158 0 4.283.138 6.367.4A25.783 25.783 0 0 1 50.5 51.167l-.5.004c-12.458 0-21.842 9.08-23.142 21.292-.929 8.692 1.471 18.383 9.342 25.608C15.3 92.084 0 72.83 0 50.001 0 22.388 22.388 0 50 0" clip-rule="evenodd"/><path fill="url(#d)" fill-rule="evenodd" d="M22.025 20.835a10.157 10.157 0 0 1 2.842 14.083C8.358 59.777 11.47 79.681 35.9 97.985 15.15 91.9 0 72.718 0 50.002a49.8 49.8 0 0 1 4.542-20.859 107 107 0 0 1 3.404-5.462 10.16 10.16 0 0 1 14.08-2.846" clip-rule="evenodd"/><path fill="url(#e)" fill-rule="evenodd" d="M54.083.167c1.134.087 2.263.22 3.375.387 2.43.442 4.654 1.059 6.409 1.834C91.525 14.584 97.492 44.27 71.15 67.563a17.19 17.19 0 0 1-24.258-1.492c-6.292-7.108-5.417-17.433 1.487-24.258 3.575-3.534 12.95-5.096 16.854-10.167C70.471 24.834 74.075 6.604 54.721.367z" clip-rule="evenodd"/><path fill="#ececee" fill-rule="evenodd" d="M56.367.4A25.78 25.78 0 0 1 50 51.171a24 24 0 0 0-7.125 1.063c.613-3.771 2.48-7.434 5.504-10.421 3.575-3.534 12.95-5.096 16.855-10.171 5.291-6.88 8.916-25.433-11.15-31.475q1.15.088 2.283.233" clip-rule="evenodd"/></g><defs><linearGradient id="b" x1="50" x2="50" y1="0" y2="100" gradientUnits="userSpaceOnUse"><stop stop-color="#02b2fc"/><stop offset=".5" stop-color="#20cbb6"/><stop offset="1" stop-color="#13d363"/></linearGradient><linearGradient id="c" x1="37.896" x2="37.896" y1="0" y2="98.071" gradientUnits="userSpaceOnUse"><stop stop-color="#c3ebef"/><stop offset="1" stop-color="#d3f4dd"/></linearGradient><linearGradient id="d" x1="17.95" x2="17.95" y1="19.139" y2="97.985" gradientUnits="userSpaceOnUse"><stop stop-color="#14d368"/><stop offset=".5" stop-color="#24cead"/><stop offset="1" stop-color="#03b4f8"/></linearGradient><linearGradient id="e" x1="65.354" x2="65.354" y1=".163" y2="71.871" gradientUnits="userSpaceOnUse"><stop stop-color="#61cffa" stop-opacity=".996"/><stop offset="1" stop-color="#79e3c0"/></linearGradient><clipPath id="a"><path fill="#fff" d="M0 0h100v100H0z"/></clipPath></defs></svg>