<svg xmlns="http://www.w3.org/2000/svg" fill="none" viewBox="0 0 100 100"><g clip-path="url(#a)"><path fill="#3859ff" d="M49.962 97.93a1 1 0 0 0-1.016 1.033 1 1 0 0 0 1.016 1.038 1 1 0 0 0 1.021-1.038 1 1 0 0 0-.916-1.029zm-9.666-75.575a7.07 7.07 0 0 1 4.579 8.883l-.296.717-.067.167-.075.225a5 5 0 0 0-.433 2.075c-.146 2.958 1.958 5.329 4.942 5.475h1.525c5.454.22 9.741 4.887 9.525 10.512-.217 5.55-4.8 9.917-10.325 9.696h-.725c-2.98.075-5.309 2.667-5.163 5.7 0 .517.075.958.221 1.404a7.18 7.18 0 0 0 4 3.334c3.125.958 6.32-.521 7.917-3.259l.075-.146c1.675-2.666 4.875-4 8-2.962 3.558 1.183 5.741 5.108 4.579 9.029a6.92 6.92 0 0 1-8.654 4.592 7.13 7.13 0 0 1-3.78-2.963l-.07-.146c-.834-1.346-1.93-2.416-3.546-2.962l-.233-.075a6.86 6.86 0 0 0-8.142 3.108 6.92 6.92 0 0 1-4.438 3.183 6.99 6.99 0 0 1-8.287-5.329c-.871-3.775 1.383-7.625 5.237-8.512q.61-.135 1.234-.146h.075c2.833-.296 4.796-2.592 4.65-5.554a5.45 5.45 0 0 0-.946-2.888 10.5 10.5 0 0 1-1.525-5.846 9.96 9.96 0 0 1 1.525-5.033c.583-.812.875-1.85.946-2.887.075-2.959-2.109-5.254-4.942-5.55l-.292-.075a6 6 0 0 1-1.245-.292l-.209-.08a7.083 7.083 0 0 1-4.362-8.808 7 7 0 0 1 8.725-4.587M17.066 64.48a4.24 4.24 0 0 1 4.142-1.125c1.48.4 2.638 1.58 3.034 3.083a4.43 4.43 0 0 1-1.113 4.221 4.226 4.226 0 0 1-6.062 0 4.435 4.435 0 0 1 0-6.18m61.855-1.225a4.24 4.24 0 0 1 4.133 1.238 4.43 4.43 0 0 1 .987 4.27 4.33 4.33 0 0 1-3.15 2.992c-2.295.533-4.583-.917-5.125-3.254a4.37 4.37 0 0 1 3.154-5.246m-.267-18.292a7.17 7.17 0 0 1 2.042 5.025 7.18 7.18 0 0 1-2.042 5.025 6.92 6.92 0 0 1-4.937 2.084c-1.85 0-3.626-.75-4.934-2.084a7.196 7.196 0 0 1 0-10.05 6.89 6.89 0 0 1 9.871 0m-46.846.68a7.22 7.22 0 0 1 .909 7.045 6.937 6.937 0 0 1-9.117 3.846c-3.563-1.5-5.25-5.658-3.78-9.283a7 7 0 0 1 5.542-4.325c2.471-.334 4.93.704 6.446 2.716m48.104-17.588a4.28 4.28 0 0 1 3.717 2.183 4.43 4.43 0 0 1 0 4.367 4.27 4.27 0 0 1-3.717 2.183c-2.366 0-4.291-1.958-4.291-4.366 0-2.413 1.925-4.367 4.291-4.367m-59.825 0c1.534 0 2.946.833 3.713 2.183a4.43 4.43 0 0 1 0 4.367 4.28 4.28 0 0 1-3.713 2.183c-2.37 0-4.291-1.958-4.291-4.366 0-2.413 1.92-4.367 4.291-4.367m41.796-6.146c3.854 0 6.98 3.184 6.98 7.108 0 3.926-3.126 7.105-6.98 7.105s-6.975-3.18-6.975-7.105c0-3.924 3.125-7.108 6.975-7.108m-10.942-2.85a4.32 4.32 0 0 0 3.171-2.992 4.43 4.43 0 0 0-.991-4.283 4.24 4.24 0 0 0-4.15-1.225c-2.28.584-3.671 2.917-3.134 5.238.542 2.325 2.813 3.779 5.104 3.262m0 70.317a4.32 4.32 0 0 0 3.125-3 4.43 4.43 0 0 0-.987-4.246 4.24 4.24 0 0 0-4.104-1.254 4.32 4.32 0 0 0-3.175 2.987 4.43 4.43 0 0 0 .996 4.284 4.25 4.25 0 0 0 3.97 1.27l.18-.041zm20.684-74.792a2.63 2.63 0 0 0 2.617-2.666c0-1.48-1.163-2.667-2.617-2.667a2.63 2.63 0 0 0-2.617 2.667c0 1.479 1.167 2.666 2.617 2.666m-43.25 0a2.63 2.63 0 0 0 2.616-2.666c0-1.48-1.166-2.667-2.616-2.667a2.63 2.63 0 0 0-2.617 2.667c0 1.479 1.163 2.666 2.617 2.666M6.783 47.301a2.63 2.63 0 0 0-2.616 2.666c0 1.476 1.166 2.663 2.616 2.663a2.625 2.625 0 0 0 2.613-2.525l.004-.142a2.583 2.583 0 0 0-2.617-2.666zm21.592 38.042a2.627 2.627 0 0 0-2.617 2.666c0 1.48 1.163 2.667 2.617 2.667a2.627 2.627 0 0 0 2.616-2.667c0-1.479-1.166-2.666-2.616-2.666m43.25.075a2.627 2.627 0 0 0-2.617 2.666c0 1.48 1.167 2.667 2.617 2.667a2.627 2.627 0 0 0 2.617-2.667c0-1.479-1.163-2.666-2.617-2.666M93.216 47.3a2.63 2.63 0 0 0-2.616 2.666c0 1.476 1.162 2.663 2.617 2.663a2.63 2.63 0 0 0 2.616-2.667c0-1.479-1.166-2.666-2.617-2.666zm-1.6-20.8a1 1 0 0 0 1.017-1.038 1 1 0 0 0-1.016-1.037 1 1 0 0 0-1.017 1.037 1.05 1.05 0 0 0 1.017 1.038M49.963 2.07a1 1 0 0 0 1.021-1.033A1 1 0 0 0 49.958.001a1 1 0 0 0-1.017 1.037c0 .554.45.984.93 1.03l.087.004zM8.38 26.502a1 1 0 0 0 1.02-1.038 1 1 0 0 0-1.016-1.037 1 1 0 0 0-1.016 1.037 1 1 0 0 0 1.016 1.038zm0 46.929a1 1 0 0 0-1.012 1.033 1 1 0 0 0 1.016 1.038A1 1 0 0 0 9.4 74.463a1.05 1.05 0 0 0-1.017-1.033zm83.313-.075a1 1 0 0 0-1.021 1.033 1 1 0 0 0 1.02 1.042 1 1 0 0 0 1.017-1.042 1.05 1.05 0 0 0-1.016-1.033"/></g><defs><clipPath id="a"><path fill="#fff" d="M0 0h100v100H0z"/></clipPath></defs></svg>