<svg xmlns="http://www.w3.org/2000/svg" width="64" height="64" viewBox="0 0 64 64" fill="none">
  <defs>
    <linearGradient id="g1" x1="0" y1="0" x2="1" y2="1">
      <stop offset="0%" stop-color="#8b5cf6"/>
      <stop offset="55%" stop-color="#6366f1"/>
      <stop offset="100%" stop-color="#60a5fa"/>
    </linearGradient>
  </defs>
  <rect x="6" y="6" width="52" height="52" rx="12" fill="url(#g1)"/>
  <g fill="#fff" opacity="0.95">
    <path d="M22 24h20a2 2 0 0 1 0 4H22a2 2 0 0 1 0-4zm0 8h20a2 2 0 1 1 0 4H22a2 2 0 0 1 0-4zm0 8h16a2 2 0 1 1 0 4H22a2 2 0 0 1 0-4z"/>
  </g>
</svg>
