<svg xmlns="http://www.w3.org/2000/svg" viewBox="0 0 128 128"><path fill="#F44321" d="M32 12a20 20 0 0 0 0 40h12l12 12 14-14-10-10h-8a6 6 0 0 1 0-12 6 6 0 0 1 6 6h20a20 20 0 0 0-20-20H32z"/><path fill="#5091CD" d="M96 12a20 20 0 0 1 0 40H84L72 64 58 50l10-10h8a6 6 0 0 0 0-12 6 6 0 0 0-6 6H52a20 20 0 0 1 20-20h24z"/><path fill="#F9A602" d="M32 116a20 20 0 0 1 0-40h12l12-12 14 14-10 10h-8a6 6 0 0 0 0 12 6 6 0 0 0 6-6h20a20 20 0 0 1-20 20H32z"/><path fill="#66A457" d="M96 116a20 20 0 0 0 0-40H84L72 64 58 78l10 10h8a6 6 0 0 1 0 12 6 6 0 0 1-6-6H52a20 20 0 0 0 20 20h24z"/></svg>