<svg xmlns="http://www.w3.org/2000/svg" viewBox="0 0 256 256"><path fill="#38bdf8" d="M128 64c-34.5 0-56 17.2-64 51.5 12.8-17.2 27.7-23.8 44.5-19.8 9.7 2.2 16.6 9.6 24.3 17.5 12.5 12.8 27 27.5 59.2 27.5 34.5 0 56-17.2 64-51.5-12.8 17.2-27.7 23.8-44.5 19.8-9.7-2.2-16.6-9.6-24.3-17.5C174.7 78.7 160.2 64 128 64zM64 160c-34.5 0-56 17.2-64 51.5 12.8-17.2 27.7-23.8 44.5-19.8 9.7 2.2 16.6 9.6 24.3 17.5 12.5 12.8 27 27.5 59.2 27.5 34.5 0 56-17.2 64-51.5-12.8 17.2-27.7 23.8-44.5 19.8-9.7-2.2-16.6-9.6-24.3-17.5C110.7 174.7 96.2 160 64 160z"/></svg>