<svg xmlns="http://www.w3.org/2000/svg" viewBox="0 0 128 128" fill="currentColor"><circle cx="64" cy="64" r="64" fill="#21759B"/><path fill="#fff" d="M27 64c0 14.4 8.4 26.8 20.7 32.7L29.4 45.7A36.8 36.8 0 0 0 27 64zm63.3-1.9c0-4.5-1.6-7.6-3-10-.6-1-1.2-1.9-1.2-3 0-1.2.9-2.3 2.1-2.3h.1a37 37 0 0 0-54.2 7.1c1.6 0 3.1-.1 4.4-.1 1.4 0 2.8 0 4 .1 1.3 0 2.6.1 3.8.1l12.4 36.8 7.4-22.2-5.2-14.6a112 112 0 0 0 7.5-.3c1.2 0 1.2 0 2.3.1l9.9 28.8 2.9-9.1c1.5-4.8 2.5-8.3 2.5-11.4zM65 69.2l-10.2 30.1a37 37 0 0 0 26.6-2.7 5 5 0 0 1-.4-.8L65 69.2zM99.6 45A36.9 36.9 0 0 1 96 84.7l9.6-27.8c1.8-4.5 2.4-8.2 2.4-11.3 0-7.3-2.6-12.3-4.4-15.6z"/></svg>